<svg xmlns="http://www.w3.org/2000/svg" xmlns:xlink="http://www.w3.org/1999/xlink" x="0px" y="0px" width="1080px" height="640px" viewBox="0 0 480 240">
	<g  transform="translate(12, 12)">
<path fill="#0B9DF0" d="M23.2,19.1L20.4,16H3.6L1,18.9l-0.1,0.2c-0.3,0.6-0.3,1.4,0.1,1.9c0.4,0.6,1,0.9,1.7,0.9h18.8
	c0.7,0,1.3-0.4,1.7-0.9C23.5,20.5,23.5,19.7,23.2,19.1z"/>
<path data-color="color-2" fill="#0B9DF0" d="M21,3.8c0-1-0.9-1.8-2-1.8H5C3.9,2,3,2.8,3,3.8V14h18V3.8z M18,11H6V5h12V11z"/>
</g>

<g  transform="translate(60, 12)" >
<path fill="#0B9DF0" d="M24,14V3c0-1.7-1.3-3-3-3H3C1.3,0,0,1.3,0,3v11H24z M10,3h4v2h-4V3z"/>
<path data-color="color-2" fill="#444444" d="M0,16v1c0,1.7,1.3,3,3,3h6v2H5v2h4h6h4v-2h-4v-2h6c1.7,0,3-1.3,3-3v-1H0z"/>
</g>

<g  transform="translate(108, 12)">
<polygon data-color="color-2" fill="#444444" points="6,15 3,15 3,5 6,5 6,2 0,2 0,18 6,18 "/>
<rect data-color="color-2" x="2" y="20" fill="#444444" width="4" height="2"/>
<path fill="#444444" d="M8,0v24h16V0H8z M16,19c-1.7,0-3-1.3-3-3s1.3-3,3-3s3,1.3,3,3S17.7,19,16,19z M19,11h-6V9h6V11z M19,7h-6V5
	h6V7z"/>
</g>

<g  transform="translate(156, 12)">
<rect data-color="color-2" x="5" y="20" fill="#444444" width="14" height="2"/>
<path fill="#444444" d="M0,2v16h24V2H0z M9,15V5l6.7,5L9,15z"/>
</g><g  transform="translate(204, 12)">
<path data-color="color-2" fill="#444444" d="M20,7h-2V6c0-2.2-1.8-4-4-4h-1V0h1c3.3,0,6,2.7,6,6V7z"/>
<path data-color="color-2" fill="#444444" d="M11,24h-1c-3.3,0-6-2.7-6-6v-1h2v1c0,2.2,1.8,4,4,4h1V24z"/>
<path fill="#444444" d="M8,0H3C1.3,0,0,1.3,0,3v9c0,1.7,1.3,3,3,3h5c1.7,0,3-1.3,3-3V3C11,1.3,9.7,0,8,0z M8,11H3V3h5V11z"/>
<path fill="#444444" d="M21,9h-5c-1.7,0-3,1.3-3,3v9c0,1.7,1.3,3,3,3h5c1.7,0,3-1.3,3-3v-9C24,10.3,22.7,9,21,9z M21,20h-5v-8h5V20z
	"/>
</g><g  transform="translate(252, 12)">
<path fill="#444444" d="M24,5h-4V0H4v5H0v14h4v5h16v-5h4V5z M6,2h12v3H6V2z M18,22H6v-9h12V22z"/>
<rect data-color="color-2" x="8" y="15" fill="#444444" width="8" height="2"/>
<rect data-color="color-2" x="8" y="18" fill="#444444" width="8" height="2"/>
</g><g  transform="translate(300, 12)">
<path fill="#444444" d="M20,3h-2.8C16.1,1.1,14,0,12,0S7.9,1.1,6.8,3H4C1.8,3,0,4.8,0,7v13c0,2.2,1.8,4,4,4h16c2.2,0,4-1.8,4-4V7
	C24,4.8,22.2,3,20,3z M20,18.3l-4.8-6.4c1.1-1.5,2.3-3.3,2.7-4.9H20V18.3z M11,17v3H5.2l4.8-6.5c0.6,0.7,1.1,1.2,1.2,1.3l0.7,0.7
	l0.7-0.7c0.1-0.1,0.6-0.6,1.2-1.3l4.8,6.5H13v-3H11z M12,2c2,0,4,1.5,4,4c0,1.7-2.2,4.7-4,6.7c-1.8-2-4-5-4-6.7C8,3.5,10,2,12,2z
	 M6.1,7c0.4,1.6,1.5,3.5,2.7,4.9L4,18.3V7H6.1z"/>
<circle data-color="color-2" fill="#444444" cx="12" cy="6" r="2"/>
</g><g  transform="translate(348, 12)">
<path fill="#444444" d="M17,8H7c-3.9,0-7,3.1-7,7s3.1,7,7,7h10c3.9,0,7-3.1,7-7S20.9,8,17,8z M10,16H8v2H6v-2H4v-2h2v-2h2v2h2V16z
	 M14.6,14l2.4-2.4l1.4,1.4L16,15.4L14.6,14z M18,18.4L16.6,17l2.4-2.4l1.4,1.4L18,18.4z"/>
<rect data-color="color-2" x="11" y="1" fill="#444444" width="2" height="5"/>
</g><g  transform="translate(396, 12)">
<rect data-color="color-2" x="11" y="2" fill="#444444" width="2" height="5"/>
<path fill="#444444" d="M23.5,20.2l-2-9.8c-0.4-2-2.1-3.4-4.2-3.4c-1.1,0-2.2,0.4-3,1.2L13.6,9h-3.2L9.7,8.2C8.9,7.4,7.8,7,6.7,7
	c-2,0-3.8,1.4-4.2,3.4l-2,9.8c-0.2,0.8,0.2,1.6,0.9,2.1c0.3,0.2,0.7,0.3,1.1,0.3c0.4,0,0.8-0.1,1.2-0.4L6,20.5C6.6,20.8,7.3,21,8,21
	c1.6,0,3-1,3.6-2.4l0.7,0C13,20,14.4,21,16,21c0.7,0,1.4-0.2,2-0.5l2.3,1.8c0.7,0.5,1.6,0.5,2.3,0.1C23.3,21.9,23.6,21.1,23.5,20.2z
	 M8,19c-1.1,0-2-0.9-2-2s0.9-2,2-2s2,0.9,2,2S9.1,19,8,19z M14,17c0-1.1,0.9-2,2-2s2,0.9,2,2s-0.9,2-2,2S14,18.1,14,17z"/>
</g><g  transform="translate(444, 12)">
<polygon fill="#444444" points="17,0.6 14,3.6 17.4,7 16,8.4 12.6,5 11,6.6 13.4,9 12,10.4 9.6,8 8,9.6 11.4,13 10,14.4 6.6,11 
	5,12.6 7.4,15 6,16.4 3.6,14 0.6,17 7,23.4 23.4,7 "/>
<polygon data-color="color-2" fill="#444444" points="19.3,13.9 13.9,19.3 16.5,21.9 23.3,23.3 21.9,16.5 "/>
<rect data-color="color-2" x="2.4" y="1.5" transform="matrix(0.7071 0.7071 -0.7071 0.7071 5.3358 -2.2102)" fill="#444444" width="5.8" height="7.7"/>
</g><g  transform="translate(12, 60)">
<rect data-color="color-2" x="4" y="5" fill="#444444" width="7" height="2"/>
<rect data-color="color-2" x="13" y="5" fill="#444444" width="7" height="2"/>
<path data-color="color-2" fill="#444444" d="M22,18h-2v-1c0-3.8-2.6-7-6.2-7.8l-1-0.2l0.4-2l1,0.2c4.6,1,7.8,5,7.8,9.8V18z"/>
<path data-color="color-2" fill="#444444" d="M4,18H2v-1c0-4.7,3.2-8.7,7.8-9.8l1-0.2l0.4,2l-1,0.2C6.6,10,4,13.2,4,17V18z"/>
<circle fill="#444444" cx="3" cy="6" r="3"/>
<circle fill="#444444" cx="21" cy="6" r="3"/>
<rect x="9" y="3" fill="#444444" width="6" height="6"/>
<rect y="16" fill="#444444" width="6" height="6"/>
<rect x="18" y="16" fill="#444444" width="6" height="6"/>
</g><g  transform="translate(60, 60)">
<path data-color="color-2" fill="#444444" d="M8.6,15.2C7.9,14.5,6.9,14,5.8,14S3.7,14.5,3,15.2c-1.4,1.4-1.7,5.5-1.7,6.3l-0.1,1.1
	l1.1-0.1c0.8,0,4.9-0.3,6.3-1.7c0.8-0.8,1.2-1.8,1.2-2.8S9.4,16,8.6,15.2z"/>
<rect x="8.1" y="7.1" transform="matrix(0.7071 -0.7071 0.7071 0.7071 -3.1776 12.7427)" fill="#444444" width="11.3" height="6.2"/>
<path data-color="color-2" fill="#444444" d="M22.2,1.8c-1.2-1.2-3.2-1.2-4.4,0L17,2.6L21.4,7l0.8-0.8C23.4,5,23.4,3,22.2,1.8z"/>
</g><g  transform="translate(108, 60)">
<polygon fill="#444444" points="0,0 0,7 2.5,7 4.5,4 10,4 10,19.4 6,21.4 6,24 18,24 18,21.4 14,19.4 14,4 19.5,4 21.5,7 24,7 24,0 
	"/>
</g><g  transform="translate(156, 60)">
<path fill="#444444" d="M8.1,6.4l-5,1.9l-2,13.3l5.2-5.2C6.1,15.9,6,15.5,6,15c0-0.8,0.3-1.6,0.9-2.1c1.1-1.1,3.1-1.1,4.2,0
	c0.6,0.6,0.9,1.3,0.9,2.1s-0.3,1.6-0.9,2.1C10.6,17.7,9.8,18,9,18c-0.5,0-0.9-0.1-1.3-0.3l-5.2,5.2l13.3-2l1.9-5L8.1,6.4z"/>
<rect data-color="color-2" x="13.6" y="-0.1" transform="matrix(0.7071 -0.7071 0.7071 0.7071 -0.9706 13.6569)" fill="#444444" width="4.8" height="16.1"/>
</g><g  transform="translate(204, 60)">
<path fill="#444444" d="M21.6,11.4l-0.8-1.1C21.5,9.4,22,8.3,22,7c0-2.8-2.2-5-5-5h-2.3c0,0-0.9-1.2-1-1.3C13.4,0.4,12.8,0,11.9,0
	c-1.9,0-4.6,1.5-7,3.9C3.4,5.4,2.2,7.1,1.5,8.6c-1,2.4-0.3,3.6,0.2,4.2c0,0,10.7,7.8,10.7,7.8c0.4,0.3,0.8,0.5,1.3,0.5
	c1.6,0,3.7-1.4,5.3-3C21.2,15.8,22.9,12.9,21.6,11.4z M17,4c1.7,0,3,1.3,3,3c0,0.6-0.2,1.1-0.5,1.6L16.2,4H17z M3.4,9.4
	C3.9,8.1,5,6.6,6.3,5.3C8.6,3,10.8,2,11.9,2c0.1,0,0.4,0,0.5,0.1c0.2,0.2,0.2,0.8-0.3,2c-0.5,1.3-1.6,2.7-2.9,4.1
	c-2.3,2.3-4.5,3.3-5.6,3.3c-0.1,0-0.4,0-0.5-0.1C3,11.1,2.9,10.5,3.4,9.4z"/>
<path data-color="color-2" fill="#444444" d="M3,14.2l-0.8,1.2C1.5,16.4,0,18.7,0,20c0,1.7,1.3,3,3,3s3-1.3,3-3c0-1.3-1.5-3.6-2.2-4.6
	L3,14.2z"/>
</g><g  transform="translate(252, 60)">
<path data-color="color-2" fill="#444444" d="M21.4,7l0.8-0.8c1.2-1.2,1.2-3.2,0-4.4c-1.2-1.2-3.2-1.2-4.4,0L17,2.6l-2-2L11.6,4l8.4,8.4
	L23.4,9L21.4,7z"/>
<path fill="#444444" d="M12.2,7.4L3,16.6v1.5c-1.1,0.2-2,1.2-2,2.4C1,21.9,2.1,23,3.5,23c1.2,0,2.2-0.9,2.4-2h1.5l9.2-9.2L12.2,7.4z
	"/>
</g><g  transform="translate(300, 60)">
<path fill="#444444" d="M17,12.8V15H7V3h10l2.2-2c-0.5-0.6-1.3-1-2.2-1H7C5.3,0,4,1.3,4,3v18c0,1.7,1.3,3,3,3h10c1.7,0,3-1.3,3-3
	V9.8L17,12.8z M12,21c-1.1,0-2-0.9-2-2s0.9-2,2-2s2,0.9,2,2S13.1,21,12,21z"/>
<path data-color="color-2" fill="#444444" d="M23.4,1.6c-0.6-0.6-1.4-0.6-2,0l-7,7l2,2l7-7C24,3,24,2.1,23.4,1.6z M11.6,10.6
	c-0.8,0.8-0.7,3.5-0.7,3.5s2.8,0.1,3.5-0.7c0.8-0.8,0.8-2,0-2.8C13.6,9.8,12.4,9.8,11.6,10.6z"/>
</g><g  transform="translate(348, 60)">
<rect data-color="color-2" x="7" fill="#444444" width="10" height="3"/>
<rect data-color="color-2" x="7" y="21" fill="#444444" width="10" height="3"/>
<path fill="#444444" d="M20,9V7c0-1.7-1.3-3-3-3H7C5.3,4,4,5.3,4,7v10c0,1.7,1.3,3,3,3h10c1.7,0,3-1.3,3-3v-2h2V9H20z M11.4,14
	L10,15.4L6.6,12L10,8.6l1.4,1.4l-2,2L11.4,14z M14,15.4L12.6,14l2-2l-2-2L14,8.6l3.4,3.4L14,15.4z"/>
</g><g  transform="translate(396, 60)">
<path fill="#444444" d="M21,8.8l-4,4c-0.2,0.7-0.5,1.3-1.1,1.9C15.6,15,14.7,16,11.2,16c0,0-0.2,0-0.2,0l-1.9-0.1L9,14
	c0-1.3,0.1-3.8,1.3-5c0.5-0.5,1.2-0.9,1.9-1.1l7.3-7.3c-0.6-0.4-1.3-0.6-2-0.6h-14C1.6,0,0,1.6,0,3.5V6h5v14.5C5,22.4,6.6,24,8.5,24
	h12H21v-0.1c1.7-0.2,3-1.7,3-3.4V18h-3V8.8z M5,4H2V3.5C2,2.7,2.7,2,3.5,2S5,2.7,5,3.5V4z M22,20v0.5c0,0.8-0.7,1.5-1.5,1.5h-8.8
	c0.2-0.4,0.3-0.9,0.3-1.5V20H22z"/>
<path data-color="color-2" fill="#444444" d="M23.5,1.4c-0.6-0.6-1.4-0.6-2,0l-7,7l2,2l7-7C24.1,2.9,24.1,2,23.5,1.4z M11.7,10.4
	C10.9,11.2,11,14,11,14s2.8,0.1,3.5-0.7c0.8-0.8,0.8-2,0-2.8C13.8,9.6,12.5,9.6,11.7,10.4z"/>
</g><g  transform="translate(444, 60)">
<path fill="#444444" d="M6.5,11h11c3,0,5.5-2.5,5.5-5.5S20.5,0,17.5,0h-11C3.5,0,1,2.5,1,5.5S3.5,11,6.5,11z M6.5,2
	C8.4,2,10,3.6,10,5.5S8.4,9,6.5,9S3,7.4,3,5.5S4.6,2,6.5,2z"/>
<path data-color="color-2" fill="#444444" d="M17.5,13h-11c-3,0-5.5,2.5-5.5,5.5S3.5,24,6.5,24h11c3,0,5.5-2.5,5.5-5.5S20.5,13,17.5,13z
	 M17.5,22c-1.9,0-3.5-1.6-3.5-3.5s1.6-3.5,3.5-3.5s3.5,1.6,3.5,3.5S19.4,22,17.5,22z"/>
</g><g  transform="translate(12, 108)">
<rect x="11" y="3" fill="#444444" width="13" height="2"/>
<polygon fill="#444444" points="3,8 9,8 9,0 3,0 3,3 0,3 0,5 3,5 "/>
<rect data-color="color-2" x="21" y="11" fill="#444444" width="3" height="2"/>
<polygon data-color="color-2" fill="#444444" points="13,16 19,16 19,8 13,8 13,11 0,11 0,13 13,13 "/>
<rect x="11" y="19" fill="#444444" width="13" height="2"/>
<polygon fill="#444444" points="3,19 0,19 0,21 3,21 3,24 9,24 9,16 3,16 "/>
</g><g  transform="translate(60, 108)">
<rect x="13" y="3" fill="#444444" width="11" height="2"/>
<rect data-color="color-2" x="21" y="11" fill="#444444" width="3" height="2"/>
<rect x="13" y="19" fill="#444444" width="11" height="2"/>
<path fill="#444444" d="M7,8c2.2,0,4-1.8,4-4S9.2,0,7,0C5.1,0,3.6,1.3,3.1,3H0v2h3.1C3.6,6.7,5.1,8,7,8z"/>
<path data-color="color-2" fill="#444444" d="M15,16c2.2,0,4-1.8,4-4s-1.8-4-4-4c-1.9,0-3.4,1.3-3.9,3H0v2h11.1C11.6,14.7,13.1,16,15,16z"/>
<path fill="#444444" d="M7,16c-1.9,0-3.4,1.3-3.9,3H0v2h3.1c0.4,1.7,2,3,3.9,3c2.2,0,4-1.8,4-4S9.2,16,7,16z"/>
</g><g  transform="translate(108, 108)">
<path fill="#444444" d="M12,0C5.4,0,0,5.4,0,12s5.4,12,12,12s12-5.4,12-12S18.6,0,12,0z M7,12H5c0-0.8,0.1-1.6,0.4-2.3l1.9,0.7
	C7.1,10.9,7,11.4,7,12z M12,15c-1.7,0-3-1.3-3-3c0-0.5,0.1-0.9,0.3-1.3L5.6,7L7,5.6l3.7,3.7C11.1,9.1,11.5,9,12,9c1.7,0,3,1.3,3,3
	S13.7,15,12,15z M17,12c0-2.8-2.2-5-5-5c-0.6,0-1.1,0.1-1.7,0.3L9.7,5.4C10.4,5.1,11.2,5,12,5c3.9,0,7,3.1,7,7H17z"/>
</g><g  transform="translate(156, 108)">
<path fill="#444444" d="M18,10.7V6c0-3.3-2.7-6-6-6S6,2.7,6,6v4.7C4.8,12.1,4,14,4,16c0,4.4,3.6,8,8,8s8-3.6,8-8
	C20,14,19.2,12.1,18,10.7z M13,17.8V20h-2v-2.2c-1.2-0.4-2-1.5-2-2.8c0-1.7,1.3-3,3-3s3,1.3,3,3C15,16.3,14.2,17.4,13,17.8z M16,9.1
	C14.8,8.4,13.5,8,12,8S9.2,8.4,8,9.1V6c0-2.2,1.8-4,4-4s4,1.8,4,4V9.1z"/>
</g><g  transform="translate(204, 108)">
<path fill="#444444" d="M12,8c-1.5,0-2.8,0.4-4,1.1V6c0-2.2,1.8-4,4-4s4,1.8,4,4h2c0-3.3-2.7-6-6-6S6,2.7,6,6v4.7
	C4.8,12.1,4,14,4,16c0,4.4,3.6,8,8,8s8-3.6,8-8S16.4,8,12,8z M13,17.8V20h-2v-2.2c-1.2-0.4-2-1.5-2-2.8c0-1.7,1.3-3,3-3s3,1.3,3,3
	C15,16.3,14.2,17.4,13,17.8z"/>
</g><g  transform="translate(252, 108)">
<path fill="#444444" d="M23.4,20l-4.9-4.9c0.9-1.5,1.4-3.3,1.4-5.1c0-5.5-4.5-10-10-10S0,4.5,0,10s4.5,10,10,10
	c1.9,0,3.6-0.5,5.1-1.4l4.9,4.9L23.4,20z"/>
</g><g  transform="translate(300, 108)">
<path fill="#444444" d="M18.6,15.1c0.9-1.5,1.4-3.3,1.4-5.1c0-5.5-4.5-10-10-10S0,4.5,0,10s4.5,10,10,10c1.9,0,3.6-0.5,5.1-1.4
	l4.9,4.9l3.4-3.4L18.6,15.1z M14,11h-3v3H9v-3H6V9h3V6h2v3h3V11z"/>
</g><g  transform="translate(348, 108)">
<path fill="#444444" d="M18.6,15.1c0.9-1.5,1.4-3.3,1.4-5.1c0-5.5-4.5-10-10-10S0,4.5,0,10s4.5,10,10,10c1.9,0,3.6-0.5,5.1-1.4
	l4.9,4.9l3.4-3.4L18.6,15.1z M14,11H6V9h8V11z"/>
</g><g  transform="translate(396, 108)">
<path fill="#444444" d="M21,4h-2h-2V0H7v4H5H3H0v2h3v18h18V6h3V4H21z M9,19H7V9h2V19z M9,2h6v2H9V2z M13,19h-2V9h2V19z M17,19h-2V9
	h2V19z"/>
</g><g  transform="translate(444, 108)">
<path fill="#444444" d="M12,0.6L0.3,11.3l1.3,1.5L3,11.5V23h7v-6h4v6h7V11.5l1.3,1.2l1.3-1.5L12,0.6z M14,13h-4V9h4V13z"/>
</g><g  transform="translate(12, 156)">
<polygon fill="#444444" points="0,10 3.8,12.9 13,8.2 6,14.5 6,24 10.9,18.2 18.7,24 23.4,0.6 "/>
</g><g  transform="translate(60, 156)">
<rect y="8" fill="#444444" width="24" height="16"/>
<polygon data-color="color-2" fill="#444444" points="19,0 17,0 17,2 13,2 13,0 11,0 11,2 7,2 7,0 5,0 5,2 0,2 0,6 24,6 24,2 19,2 "/>
</g><g  transform="translate(108, 156)">
<polygon data-color="color-2" fill="#444444" points="19,0 17,0 17,2 13,2 13,0 11,0 11,2 7,2 7,0 5,0 5,2 0,2 0,6 24,6 24,2 19,2 "/>
<path fill="#444444" d="M0,8v16h24V8H0z M8,21H4v-4h4V21z M8,15H4v-4h4V15z M14,21h-4v-4h4V21z M14,15h-4v-4h4V15z M20,15h-4v-4h4
	V15z"/>
</g><g  transform="translate(156, 156)">
<polygon data-color="color-2" fill="#444444" points="19,2 19,0 17,0 17,2 13,2 13,0 11,0 11,2 7,2 7,0 5,0 5,2 0,2 0,6 24,6 24,2 "/>
<path fill="#444444" d="M0,8v16h24V8H0z M10,20.4L5.6,16L7,14.6l3,3l7-7l1.4,1.4L10,20.4z"/>
</g><g  transform="translate(204, 156)">
<path fill="#444444" d="M19,0c-3,0-5.8,1.5-7.5,4H8H7H3C1.3,4,0,6.1,0,9s1.3,5,3,5h2.3l4.3,7.3c0.6,1,1.8,1.3,2.7,0.7
	c1-0.6,1.3-1.8,0.7-2.7L9.9,14h1.6c1.7,2.5,4.5,4,7.5,4c2.9,0,5-3.9,5-9S21.9,0,19,0z M19,16c-0.9,0-1.9-1.3-2.5-3.3
	C18,12.1,19,10.7,19,9s-1-3.1-2.5-3.7C17.1,3.3,18.1,2,19,2c1.4,0,3,3,3,7S20.4,16,19,16z"/>
</g><g  transform="translate(252, 156)">
<polygon data-color="color-2" fill="#444444" points="18,22 2,22 2,6 10,6 10,4 0,4 0,24 20,24 20,14 18,14 "/>
<rect x="17.2" y="2.3" transform="matrix(-0.7071 0.7071 -0.7071 -0.7071 35.8241 -4.5459)" fill="#444444" width="3.2" height="5.7"/>
<polygon fill="#444444" points="14.3,5.7 7,13 7,17 11,17 18.3,9.7 "/>
</g><g  transform="translate(300, 156)">
<path fill="#444444" d="M22.3,3.9l-2.2-2.2c-1.1-1.1-3.1-1.1-4.2,0L15,2.6L13.6,4L12,5.6L10.6,7l-8.5,8.5l-1.3,7.7l7.7-1.3l8.5-8.5
	l1.4-1.4l1.6-1.6L21.4,9l0.9-0.9C23.5,7,23.5,5,22.3,3.9z M12,8.4l1.1,1.1l-7.6,7.6L4.4,16L12,8.4z M8,19.6l-1.1-1.1l7.6-7.6
	l1.1,1.1L8,19.6z M17,10.6L13.4,7L15,5.4L18.6,9L17,10.6z"/>
</g><g  transform="translate(348, 156)">
<path fill="#444444" d="M21.9,1c-0.3,0-6.8,0.5-10.6,4.3c-3.2,3.2-2.7,6.9-2.4,8.4L5.6,17L7,18.4l3.3-3.3c0.5,0.1,1.2,0.2,2.1,0.2
	c1.7,0,4.1-0.5,6.3-2.7C22.5,8.9,23,2.3,23,2.1l0.1-1.1L21.9,1z"/>
<polygon data-color="color-2" fill="#444444" points="20,22 2,22 2,4 10,4 10,2 0,2 0,24 22,24 22,14 20,14 "/>
</g><g  transform="translate(396, 156)">
<path fill="#444444" d="M0,2v20h24V2H0z M5,18.4L3.6,17L7,13.6L8.4,15L5,18.4z M19,18.4L15.6,15l1.4-1.4l3.4,3.4L19,18.4z M12,15.4
	L3.6,7L5,5.6l7,7l7-7L20.4,7L12,15.4z"/>
</g><g  transform="translate(444, 156)">
<path fill="#444444" d="M11.5,24C7.4,24,4,20.6,4,16.5v-11C4,2.5,6.5,0,9.5,0S15,2.5,15,5.5v10c0,1.9-1.6,3.5-3.5,3.5S8,17.4,8,15.5
	V6h2v9.5c0,0.8,0.7,1.5,1.5,1.5s1.5-0.7,1.5-1.5v-10C13,3.6,11.4,2,9.5,2S6,3.6,6,5.5v11c0,3,2.5,5.5,5.5,5.5s5.5-2.5,5.5-5.5V3h2
	v13.5C19,20.6,15.6,24,11.5,24z"/>
</g><g  transform="translate(12, 204)">
<path fill="#444444" d="M17,0c-1.9,0-3.7,0.8-5,2.1C10.7,0.8,8.9,0,7,0C3.1,0,0,3.1,0,7c0,6.4,10.9,15.4,11.4,15.8l0.6,0.5l0.6-0.5
	C13.1,22.4,24,13.4,24,7C24,3.1,20.9,0,17,0z"/>
</g><g  transform="translate(60, 204)">
<path fill="#444444" d="M24,7c0-3.9-3.1-7-7-7c-1.9,0-3.7,0.8-5,2.1C10.7,0.8,8.9,0,7,0C3.1,0,0,3.1,0,7c0,6.4,10.9,15.4,11.4,15.8
	l0.6,0.5l0.6-0.5c0,0,0.9-0.7,2-1.8c1,0.6,2.1,1,3.3,1c3.3,0,6-2.7,6-6c0-1.6-0.6-3-1.6-4.1C23.5,10.1,24,8.4,24,7z M18,20
	c-2.2,0-4-1.8-4-4s1.8-4,4-4s4,1.8,4,4S20.2,20,18,20z"/>
<polygon data-color="color-2" fill="#444444" points="19,13 17,13 17,15 15,15 15,17 17,17 17,19 19,19 19,17 21,17 21,15 19,15 "/>
</g><g  transform="translate(108, 204)">
<path fill="#444444" d="M24,7c0-3.9-3.1-7-7-7c-1.9,0-3.7,0.8-5,2.1C10.7,0.8,8.9,0,7,0C3.1,0,0,3.1,0,7c0,6.4,10.9,15.4,11.4,15.8
	l0.6,0.5l0.6-0.5c0,0,0.9-0.7,2-1.8c1,0.6,2.1,1,3.3,1c3.3,0,6-2.7,6-6c0-1.6-0.6-3-1.6-4.1C23.5,10.1,24,8.4,24,7z M18,20
	c-2.2,0-4-1.8-4-4s1.8-4,4-4s4,1.8,4,4S20.2,20,18,20z"/>
<rect data-color="color-2" x="15" y="15" fill="#444444" width="6" height="2"/>
</g><g  transform="translate(156, 204)">
<path fill="#444444" d="M22,14c0-5.5-4.5-10-10-10S2,8.5,2,14c0,2.4,0.8,4.6,2.3,6.3l-2,2l1.4,1.4l2-2C7.4,23.2,9.6,24,12,24
	s4.6-0.8,6.3-2.3l2,2l1.4-1.4l-2-2C21.2,18.6,22,16.4,22,14z M17,15h-6V9h2v4h4V15z"/>
<path data-color="color-2" fill="#444444" d="M23,9.3l0.3-0.7C23.8,7.8,24,6.9,24,6c0-3.3-2.7-6-6-6c-1.5,0-2.9,0.6-4,1.6l-0.6,0.5
	C17.7,2.6,21.4,5.4,23,9.3z"/>
<path data-color="color-2" fill="#444444" d="M1,9.3c1.7-3.9,5.3-6.7,9.6-7.2L10,1.6C8.9,0.6,7.5,0,6,0C2.7,0,0,2.7,0,6
	c0,0.9,0.2,1.8,0.6,2.6L1,9.3z"/>
</g><g  transform="translate(204, 204)">
<polygon fill="#444444" points="5,16 5,14 19.8,14 22.2,3 5,3 5,0 0,0 0,2 3,2 3,18 24,18 24,16 "/>
<circle data-color="color-2" fill="#444444" cx="6" cy="21" r="2"/>
<circle data-color="color-2" fill="#444444" cx="21" cy="21" r="2"/>
</g><g  transform="translate(252, 204)">
<circle data-color="color-2" fill="#444444" cx="6" cy="21" r="2"/>
<circle data-color="color-2" fill="#444444" cx="21" cy="21" r="2"/>
<polygon fill="#444444" points="5,16 5,14 19.8,14 22.2,3 13,3 13,7.6 15,5.6 16.4,7 12,11.4 7.6,7 9,5.6 11,7.6 11,3 5,3 5,0 0,0 
	0,2 3,2 3,18 24,18 24,16 "/>
</g><g  transform="translate(300, 204)">
<rect data-color="color-2" x="2" y="11" fill="#444444" width="4" height="11"/>
<path fill="#444444" d="M20,10h-5V7c0-1.7-1-4-2.5-4.9C11.8,1.8,11,2.2,11,3v4l-3,3.6V21l0.3,0.1C9.4,21.7,10.7,22,12,22h7
	c1.1,0,2-0.9,2-2l1-8C22,10.9,21.1,10,20,10z"/>
</g><g  transform="translate(348, 204)">
<rect data-color="color-2" y="1" fill="#444444" width="4" height="3"/>
<path fill="#444444" d="M0,6v17h24V6H0z M16,15h-3v3h-2v-3H8v-2h3v-3h2v3h3V15z"/>
<rect data-color="color-2" x="6" y="1" fill="#444444" width="18" height="3"/>
</g><g  transform="translate(396, 204)">
<rect data-color="color-2" x="6" y="1" fill="#444444" width="18" height="3"/>
<rect data-color="color-2" y="1" fill="#444444" width="4" height="3"/>
<path fill="#444444" d="M0,6v17h24V6H0z M16,15H8v-2h8V15z"/>
</g><g  transform="translate(444, 204)">
<path fill="#444444" d="M14,0h-4C6.7,0,4,2.7,4,6v12c0,3.3,2.7,6,6,6h4c3.3,0,6-2.7,6-6V6C20,2.7,17.3,0,14,0z M17,10H7V8h4V4h2v4h4
	V10z"/>
</g></svg>