<svg xmlns="http://www.w3.org/2000/svg" xmlns:xlink="http://www.w3.org/1999/xlink" x="0px" y="0px" width="480px" height="240px" viewBox="0 0 480 240"><g  transform="translate(12, 12)">
<path fill="#444444" d="M23.2,19.1c0-0.1-0.1-0.2-0.1-0.2l-2.3-2.6C20.6,16.1,20.3,16,20,16H4c-0.3,0-0.6,0.1-0.7,0.3L1,18.9
	C0.9,19,0.9,19,0.8,19.1c-0.3,0.6-0.3,1.4,0.1,1.9c0.4,0.6,1,0.9,1.7,0.9h18.8c0.7,0,1.3-0.4,1.7-0.9C23.5,20.5,23.5,19.7,23.2,19.1
	z"/>
<path data-color="color-2" fill="#444444" d="M19,2H5C3.9,2,3,2.8,3,3.8V13c0,0.6,0.4,1,1,1h16c0.6,0,1-0.4,1-1V3.8C21,2.8,20.1,2,19,2z
	 M18,10c0,0.6-0.4,1-1,1H7c-0.6,0-1-0.4-1-1V6c0-0.6,0.4-1,1-1h10c0.6,0,1,0.4,1,1V10z"/>
</g><g  transform="translate(60, 12)">
<path fill="#444444" d="M21,0H3C1.3,0,0,1.3,0,3v11h24V3C24,1.3,22.7,0,21,0z M13,5h-2c-0.6,0-1-0.4-1-1s0.4-1,1-1h2
	c0.6,0,1,0.4,1,1S13.6,5,13,5z"/>
<path data-color="color-2" fill="#444444" d="M0,17c0,1.7,1.3,3,3,3h6v2H6c-0.6,0-1,0.4-1,1s0.4,1,1,1h4h4h4c0.6,0,1-0.4,1-1s-0.4-1-1-1h-3
	v-2h6c1.7,0,3-1.3,3-3v-1H0V17z"/>
</g><g  transform="translate(108, 12)">
<path fill="#444444" d="M23,0H9C8.4,0,8,0.4,8,1v22c0,0.6,0.4,1,1,1h14c0.6,0,1-0.4,1-1V1C24,0.4,23.6,0,23,0z M16,19
	c-1.7,0-3-1.3-3-3s1.3-3,3-3s3,1.3,3,3S17.7,19,16,19z M18,11h-4c-0.6,0-1-0.4-1-1s0.4-1,1-1h4c0.6,0,1,0.4,1,1S18.6,11,18,11z
	 M18,7h-4c-0.6,0-1-0.4-1-1s0.4-1,1-1h4c0.6,0,1,0.4,1,1S18.6,7,18,7z"/>
<path data-color="color-2" fill="#444444" d="M6,20H3c-0.6,0-1,0.4-1,1s0.4,1,1,1h3V20z"/>
<path data-color="color-2" fill="#444444" d="M6,15H4c-0.6,0-1-0.4-1-1V6c0-0.6,0.4-1,1-1h2V2H1C0.4,2,0,2.4,0,3v14c0,0.6,0.4,1,1,1h5V15z"/>
</g><g  transform="translate(156, 12)">
<path data-color="color-2" fill="#444444" d="M18,22H6c-0.6,0-1-0.4-1-1s0.4-1,1-1h12c0.6,0,1,0.4,1,1S18.6,22,18,22z"/>
<path fill="#444444" d="M23,2H1C0.4,2,0,2.4,0,3v14c0,0.6,0.4,1,1,1h22c0.6,0,1-0.4,1-1V3C24,2.4,23.6,2,23,2z M14.6,10.8l-4,3
	C10.4,13.9,10.2,14,10,14c-0.2,0-0.3,0-0.4-0.1C9.2,13.7,9,13.4,9,13V7c0-0.4,0.2-0.7,0.6-0.9c0.3-0.2,0.7-0.1,1,0.1l4,3
	C14.9,9.4,15,9.7,15,10S14.9,10.6,14.6,10.8z"/>
</g><g  transform="translate(204, 12)">
<path data-color="color-2" fill="#444444" d="M19,7c-0.6,0-1-0.4-1-1c0-2.2-1.8-4-4-4c-0.6,0-1-0.4-1-1s0.4-1,1-1c3.3,0,6,2.7,6,6
	C20,6.6,19.6,7,19,7z"/>
<path data-color="color-2" fill="#444444" d="M10,24c-3.3,0-6-2.7-6-6c0-0.6,0.4-1,1-1s1,0.4,1,1c0,2.2,1.8,4,4,4c0.6,0,1,0.4,1,1
	S10.6,24,10,24z"/>
<path fill="#444444" d="M8,0H3C1.3,0,0,1.3,0,3v9c0,1.7,1.3,3,3,3h5c1.7,0,3-1.3,3-3V3C11,1.3,9.7,0,8,0z M8,10c0,0.6-0.4,1-1,1H4
	c-0.6,0-1-0.4-1-1V4c0-0.6,0.4-1,1-1h3c0.6,0,1,0.4,1,1V10z"/>
<path fill="#444444" d="M21,9h-5c-1.7,0-3,1.3-3,3v9c0,1.7,1.3,3,3,3h5c1.7,0,3-1.3,3-3v-9C24,10.3,22.7,9,21,9z M21,19
	c0,0.6-0.4,1-1,1h-3c-0.6,0-1-0.4-1-1v-6c0-0.6,0.4-1,1-1h3c0.6,0,1,0.4,1,1V19z"/>
</g><g  transform="translate(252, 12)">
<path fill="#444444" d="M23,5h-3V1c0-0.6-0.4-1-1-1H5C4.4,0,4,0.4,4,1v4H1C0.4,5,0,5.4,0,6v12c0,0.6,0.4,1,1,1h3v4c0,0.6,0.4,1,1,1
	h14c0.6,0,1-0.4,1-1v-4h3c0.6,0,1-0.4,1-1V6C24,5.4,23.6,5,23,5z M6,2h12v3H6V2z M18,22H6v-9h12V22z"/>
<path data-color="color-2" fill="#444444" d="M9,17h6c0.6,0,1-0.4,1-1s-0.4-1-1-1H9c-0.6,0-1,0.4-1,1S8.4,17,9,17z"/>
<path data-color="color-2" fill="#444444" d="M9,20h6c0.6,0,1-0.4,1-1s-0.4-1-1-1H9c-0.6,0-1,0.4-1,1S8.4,20,9,20z"/>
</g><g  transform="translate(300, 12)">
<path fill="#444444" d="M20,3h-2.8C16.1,1.1,14,0,12,0S7.9,1.1,6.8,3H4C1.8,3,0,4.8,0,7v13c0,2.2,1.8,4,4,4h16c2.2,0,4-1.8,4-4V7
	C24,4.8,22.2,3,20,3z M17.9,7H20v11.3l-4.8-6.4C16.4,10.5,17.5,8.6,17.9,7z M12,17c-0.6,0-1,0.4-1,1v2H5.2l4.8-6.5
	c0.6,0.7,1.1,1.2,1.2,1.3c0.2,0.2,0.4,0.3,0.7,0.3s0.5-0.1,0.7-0.3c0.1-0.1,0.6-0.6,1.2-1.3l4.8,6.5H13v-2C13,17.4,12.6,17,12,17z
	 M12,2c2,0,4,1.5,4,4c0,1.7-2.2,4.7-4,6.7c-1.8-2-4-5-4-6.7C8,3.5,10,2,12,2z M6.1,7c0.4,1.6,1.5,3.5,2.7,4.9L4,18.3V7H6.1z"/>
<circle data-color="color-2" fill="#444444" cx="12" cy="6" r="2"/>
</g><g  transform="translate(348, 12)">
<path fill="#444444" d="M17,8H7c-3.9,0-7,3.1-7,7s3.1,7,7,7h10c3.9,0,7-3.1,7-7S20.9,8,17,8z M9,16H8v1c0,0.6-0.4,1-1,1s-1-0.4-1-1
	v-1H5c-0.6,0-1-0.4-1-1s0.4-1,1-1h1v-1c0-0.6,0.4-1,1-1s1,0.4,1,1v1h1c0.6,0,1,0.4,1,1S9.6,16,9,16z M16.7,14.7
	C16.5,14.9,16.3,15,16,15s-0.5-0.1-0.7-0.3c-0.4-0.4-0.4-1,0-1.4l1-1c0.4-0.4,1-0.4,1.4,0s0.4,1,0,1.4L16.7,14.7z M19.7,16.7l-1,1
	C18.5,17.9,18.3,18,18,18s-0.5-0.1-0.7-0.3c-0.4-0.4-0.4-1,0-1.4l1-1c0.4-0.4,1-0.4,1.4,0S20.1,16.3,19.7,16.7z"/>
<path data-color="color-2" fill="#444444" d="M12,6c-0.6,0-1-0.4-1-1V2c0-0.6,0.4-1,1-1s1,0.4,1,1v3C13,5.6,12.6,6,12,6z"/>
</g><g  transform="translate(396, 12)">
<path data-color="color-2" fill="#444444" d="M12,7c-0.6,0-1-0.4-1-1V3c0-0.6,0.4-1,1-1s1,0.4,1,1v3C13,6.6,12.6,7,12,7z"/>
<path fill="#444444" d="M23.5,20.2l-2-9.8c-0.4-2-2.1-3.4-4.2-3.4c-1.1,0-2.2,0.4-3,1.2L13.6,9h-3.2L9.7,8.2C8.9,7.4,7.8,7,6.7,7
	c-2,0-3.8,1.4-4.2,3.4l-2,9.8c-0.2,0.8,0.2,1.6,0.9,2.1c0.3,0.2,0.7,0.3,1.1,0.3c0.4,0,0.8-0.1,1.2-0.4L6,20.5C6.6,20.8,7.3,21,8,21
	c1.6,0,3-1,3.6-2.4l0.7,0C13,20,14.4,21,16,21c0.7,0,1.4-0.2,2-0.5l2.3,1.8c0.7,0.5,1.6,0.5,2.3,0.1C23.3,21.9,23.6,21.1,23.5,20.2z
	 M8,19c-1.1,0-2-0.9-2-2s0.9-2,2-2s2,0.9,2,2S9.1,19,8,19z M14,17c0-1.1,0.9-2,2-2s2,0.9,2,2s-0.9,2-2,2S14,18.1,14,17z"/>
</g><g  transform="translate(444, 12)">
<path fill="#444444" d="M22.7,6.3l-5-5c-0.4-0.4-1-0.4-1.4,0L14,3.6l2.7,2.7c0.4,0.4,0.4,1,0,1.4C16.5,7.9,16.3,8,16,8
	c-0.3,0-0.5-0.1-0.7-0.3L12.6,5L11,6.6l1.7,1.7c0.4,0.4,0.4,1,0,1.4C12.5,9.9,12.3,10,12,10s-0.5-0.1-0.7-0.3L9.6,8L8,9.6l2.7,2.7
	c0.4,0.4,0.4,1,0,1.4C10.5,13.9,10.3,14,10,14s-0.5-0.1-0.7-0.3L6.6,11L5,12.6l1.7,1.7c0.4,0.4,0.4,1,0,1.4C6.5,15.9,6.3,16,6,16
	s-0.5-0.1-0.7-0.3L3.6,14l-2.3,2.3c-0.4,0.4-0.4,1,0,1.4l5,5C6.5,22.9,6.7,23,7,23s0.5-0.1,0.7-0.3l15-15
	C23.1,7.3,23.1,6.7,22.7,6.3z"/>
<path data-color="color-2" fill="#444444" d="M4.7,10.1l5.4-5.4L6.7,1.3c-0.4-0.4-1-0.4-1.4,0l-4,4c-0.4,0.4-0.4,1,0,1.4L4.7,10.1z"/>
<path data-color="color-2" fill="#444444" d="M22,16.8c0-0.2-0.1-0.4-0.3-0.5l-2.4-2.4l-5.4,5.4l2.4,2.4c0.1,0.1,0.3,0.2,0.5,0.3l5,1
	c0.1,0,0.1,0,0.2,0c0.3,0,0.5-0.1,0.7-0.3c0.2-0.2,0.3-0.6,0.3-0.9L22,16.8z"/>
</g><g  transform="translate(12, 60)">
<path data-color="color-2" fill="#444444" d="M10,7H5C4.4,7,4,6.6,4,6s0.4-1,1-1h5c0.6,0,1,0.4,1,1S10.6,7,10,7z"/>
<path data-color="color-2" fill="#444444" d="M19,7h-5c-0.6,0-1-0.4-1-1s0.4-1,1-1h5c0.6,0,1,0.4,1,1S19.6,7,19,7z"/>
<path data-color="color-2" fill="#444444" d="M21,18c-0.6,0-1-0.4-1-1c0-3.8-2.6-7-6.2-7.8C13.2,9.1,12.9,8.5,13,8
	c0.1-0.5,0.7-0.9,1.2-0.8c4.6,1,7.8,5,7.8,9.8C22,17.6,21.6,18,21,18z"/>
<path data-color="color-2" fill="#444444" d="M3,18c-0.6,0-1-0.4-1-1c0-4.7,3.2-8.7,7.8-9.8C10.3,7.1,10.9,7.5,11,8
	c0.1,0.5-0.2,1.1-0.8,1.2C6.6,10,4,13.2,4,17C4,17.6,3.6,18,3,18z"/>
<circle fill="#444444" cx="3" cy="6" r="3"/>
<circle fill="#444444" cx="21" cy="6" r="3"/>
<path fill="#444444" d="M14,3h-4C9.4,3,9,3.4,9,4v4c0,0.6,0.4,1,1,1h4c0.6,0,1-0.4,1-1V4C15,3.4,14.6,3,14,3z"/>
<path fill="#444444" d="M5,16H1c-0.6,0-1,0.4-1,1v4c0,0.6,0.4,1,1,1h4c0.6,0,1-0.4,1-1v-4C6,16.4,5.6,16,5,16z"/>
<path fill="#444444" d="M23,16h-4c-0.6,0-1,0.4-1,1v4c0,0.6,0.4,1,1,1h4c0.6,0,1-0.4,1-1v-4C24,16.4,23.6,16,23,16z"/>
</g><g  transform="translate(60, 60)">
<path data-color="color-2" fill="#444444" d="M8.6,15.2C7.9,14.5,6.9,14,5.8,14S3.7,14.5,3,15.2c-1.4,1.4-1.7,5.5-1.7,6.3
	c0,0.3,0.1,0.6,0.3,0.8c0.2,0.2,0.4,0.3,0.7,0.3c0,0,0,0,0.1,0c0.8,0,4.9-0.3,6.3-1.7c0.8-0.8,1.2-1.8,1.2-2.8S9.4,16,8.6,15.2z"/>
<path fill="#444444" d="M15.6,4l-7.3,7.3c-0.4,0.4-0.4,1,0,1.4l3,3c0.2,0.2,0.5,0.3,0.7,0.3s0.5-0.1,0.7-0.3L20,8.4L15.6,4z"/>
<path data-color="color-2" fill="#444444" d="M22.2,1.8c-1.2-1.2-3.2-1.2-4.4,0L17,2.6L21.4,7l0.8-0.8C23.4,5,23.4,3,22.2,1.8z"/>
</g><g  transform="translate(108, 60)">
<path fill="#444444" d="M23,0H1C0.4,0,0,0.4,0,1v5c0,0.6,0.4,1,1,1h1c0.3,0,0.6-0.2,0.8-0.4L4.5,4H10v15.4l-3.4,1.7
	C6.2,21.3,6,21.6,6,22v1c0,0.6,0.4,1,1,1h10c0.6,0,1-0.4,1-1v-1c0-0.4-0.2-0.7-0.6-0.9L14,19.4V4h5.5l1.7,2.6C21.4,6.8,21.7,7,22,7
	h1c0.6,0,1-0.4,1-1V1C24,0.4,23.6,0,23,0z"/>
</g><g  transform="translate(156, 60)">
<path fill="#444444" d="M8.1,6.4L3.6,8.1C3.3,8.2,3.1,8.5,3,8.8L1.3,20c-0.1,0.5,0.5,0.8,0.8,0.4l4.2-4.2C6.1,15.9,6,15.5,6,15
	c0-1,0.5-2,1.4-2.5c1-0.6,2.3-0.6,3.2,0C11.5,13,12,14,12,15c0,0.8-0.3,1.6-0.9,2.1C10.6,17.7,9.8,18,9,18c-0.5,0-0.9-0.1-1.3-0.3
	l-4.2,4.2c-0.3,0.3,0,0.9,0.4,0.8L15.2,21c0.4-0.1,0.7-0.3,0.8-0.6l1.7-4.5L8.1,6.4z"/>
<path data-color="color-2" fill="#444444" d="M22.7,11.3l-10-10c-0.4-0.4-1-0.4-1.4,0l-2,2c-0.4,0.4-0.4,1,0,1.4l10,10
	c0.2,0.2,0.5,0.3,0.7,0.3s0.5-0.1,0.7-0.3l2-2C23.1,12.3,23.1,11.7,22.7,11.3z"/>
</g><g  transform="translate(204, 60)">
<path fill="#444444" d="M21.6,11.4l-0.8-1.1C21.5,9.4,22,8.3,22,7c0-2.8-2.2-5-5-5h-1.8c-0.2,0-0.3,0-0.4,0.1c0,0-0.9-1.3-1-1.4
	C13.4,0.4,12.8,0,11.9,0c-1.9,0-4.6,1.5-7,3.9C3.4,5.4,2.2,7.1,1.5,8.6c-1,2.4-0.3,3.6,0.2,4.2c0,0,10.7,7.8,10.7,7.8
	c0.4,0.3,0.8,0.5,1.3,0.5c1.6,0,3.7-1.4,5.3-3C21.2,15.8,22.9,12.9,21.6,11.4z M17,4c1.7,0,3,1.3,3,3c0,0.6-0.2,1.1-0.5,1.6L16.2,4
	H17z M3.4,9.4C3.9,8.1,5,6.6,6.3,5.3C8.6,3,10.8,2,11.9,2c0.1,0,0.4,0,0.5,0.1c0.2,0.2,0.2,0.8-0.3,2c-0.5,1.3-1.6,2.7-2.9,4.1
	c-2.3,2.3-4.5,3.3-5.6,3.3c-0.1,0-0.4,0-0.5-0.1C3,11.1,2.9,10.5,3.4,9.4z"/>
<path data-color="color-2" fill="#444444" d="M2.2,15.4C1.5,16.4,0,18.7,0,20c0,1.7,1.3,3,3,3s3-1.3,3-3c0-1.3-1.5-3.6-2.2-4.6
	C3.4,14.9,2.6,14.9,2.2,15.4z"/>
</g><g  transform="translate(252, 60)">
<path data-color="color-2" fill="#444444" d="M21.4,7l0.8-0.8c1.2-1.2,1.2-3.2,0-4.4c-1.2-1.2-3.2-1.2-4.4,0L17,2.6l-1.3-1.3
	c-0.4-0.4-1-0.4-1.4,0l-2,2c-0.4,0.4-0.4,1,0,1.4l7,7c0.2,0.2,0.5,0.3,0.7,0.3s0.5-0.1,0.7-0.3l2-2c0.4-0.4,0.4-1,0-1.4L21.4,7z"/>
<path fill="#444444" d="M12.2,7.4l-8.9,8.9C3.1,16.5,3,16.7,3,17v1.1c-1.1,0.2-2,1.2-2,2.4C1,21.9,2.1,23,3.5,23
	c1.2,0,2.2-0.9,2.4-2H7c0.3,0,0.5-0.1,0.7-0.3l8.9-8.9L12.2,7.4z"/>
</g><g  transform="translate(300, 60)">
<path fill="#444444" d="M17,12.8V14c0,0.6-0.4,1-1,1H8c-0.6,0-1-0.4-1-1V4c0-0.6,0.4-1,1-1h8c0.3,0,0.6,0.2,0.8,0.4L19.2,1
	c-0.5-0.6-1.3-1-2.2-1H7C5.3,0,4,1.3,4,3v18c0,1.7,1.3,3,3,3h10c1.7,0,3-1.3,3-3V9.8L17,12.8z M12,21c-1.1,0-2-0.9-2-2s0.9-2,2-2
	s2,0.9,2,2S13.1,21,12,21z"/>
<path data-color="color-2" fill="#444444" d="M23.4,1.6c-0.6-0.6-1.4-0.6-2,0l-7,7l2,2l7-7C24,3,24,2.1,23.4,1.6z M11.6,10.6
	c-0.8,0.8-0.7,3.5-0.7,3.5s2.8,0.1,3.5-0.7c0.8-0.8,0.8-2,0-2.8C13.6,9.8,12.4,9.8,11.6,10.6z"/>
</g><g  transform="translate(348, 60)">
<path data-color="color-2" fill="#444444" d="M8,3h8c0.6,0,1-0.4,1-1V1c0-0.6-0.4-1-1-1H8C7.4,0,7,0.4,7,1v1C7,2.6,7.4,3,8,3z"/>
<path data-color="color-2" fill="#444444" d="M16,21H8c-0.6,0-1,0.4-1,1v1c0,0.6,0.4,1,1,1h8c0.6,0,1-0.4,1-1v-1C17,21.4,16.6,21,16,21z"/>
<path fill="#444444" d="M21,9h-1V7c0-1.7-1.3-3-3-3H7C5.3,4,4,5.3,4,7v10c0,1.7,1.3,3,3,3h10c1.7,0,3-1.3,3-3v-2h1c0.6,0,1-0.4,1-1
	v-4C22,9.4,21.6,9,21,9z M10.7,13.3c0.4,0.4,0.4,1,0,1.4C10.5,14.9,10.3,15,10,15s-0.5-0.1-0.7-0.3l-2-2c-0.4-0.4-0.4-1,0-1.4l2-2
	c0.4-0.4,1-0.4,1.4,0s0.4,1,0,1.4L9.4,12L10.7,13.3z M16.7,12.7l-2,2C14.5,14.9,14.3,15,14,15s-0.5-0.1-0.7-0.3
	c-0.4-0.4-0.4-1,0-1.4l1.3-1.3l-1.3-1.3c-0.4-0.4-0.4-1,0-1.4s1-0.4,1.4,0l2,2C17.1,11.7,17.1,12.3,16.7,12.7z"/>
</g><g  transform="translate(396, 60)">
<path fill="#444444" d="M23,18h-2V8.8l-2.7,2.7c-0.3,0.3-0.7,0.6-1.2,0.7C17,13.1,16.7,14,16,14.7c-0.7,0.7-1.9,1.1-3.7,1.3l-0.2,0
	c-0.8,0-1.6-0.3-2.2-1C9.3,14.4,9,13.6,9,12.7c0.1-1.8,0.5-3,1.3-3.7c0.7-0.7,1.6-1.1,2.5-1.2c0.1-0.4,0.3-0.9,0.7-1.2l6-6
	c-0.6-0.4-1.3-0.6-2-0.6h-14C1.6,0,0,1.6,0,3.5V5c0,0.6,0.4,1,1,1h4v14.5C5,22.4,6.6,24,8.5,24H20h0.5c1.9,0,3.5-1.6,3.5-3.5V19
	C24,18.4,23.6,18,23,18z M5,4H2V3.5C2,2.7,2.7,2,3.5,2S5,2.7,5,3.5V4z M22,20.5c0,0.8-0.7,1.5-1.5,1.5h-8.8c0.2-0.4,0.3-0.9,0.3-1.5
	V20h10V20.5z"/>
<path data-color="color-2" fill="#444444" d="M23.5,1.4c-0.6-0.6-1.4-0.6-2,0l-6.6,6.6c-0.2,0.2-0.2,0.5,0,0.7l1.3,1.3
	c0.2,0.2,0.5,0.2,0.7,0l6.6-6.6C24.1,2.9,24.1,2,23.5,1.4z M11.7,10.4c-0.5,0.5-0.6,1.6-0.7,2.4c0,0.6,0.5,1.1,1.1,1.1
	c0.9-0.1,2-0.2,2.4-0.7c0.8-0.8,0.8-2,0-2.8C13.8,9.6,12.5,9.6,11.7,10.4z"/>
</g><g  transform="translate(444, 60)">
<path fill="#444444" d="M6.5,11h11c3,0,5.5-2.5,5.5-5.5S20.5,0,17.5,0h-11C3.5,0,1,2.5,1,5.5S3.5,11,6.5,11z M6.5,2
	C8.4,2,10,3.6,10,5.5S8.4,9,6.5,9S3,7.4,3,5.5S4.6,2,6.5,2z"/>
<path data-color="color-2" fill="#444444" d="M17.5,13h-11c-3,0-5.5,2.5-5.5,5.5S3.5,24,6.5,24h11c3,0,5.5-2.5,5.5-5.5S20.5,13,17.5,13z
	 M17.5,22c-1.9,0-3.5-1.6-3.5-3.5s1.6-3.5,3.5-3.5s3.5,1.6,3.5,3.5S19.4,22,17.5,22z"/>
</g><g  transform="translate(12, 108)">
<path fill="#444444" d="M23,3H12c-0.6,0-1,0.4-1,1s0.4,1,1,1h11c0.6,0,1-0.4,1-1S23.6,3,23,3z"/>
<path fill="#444444" d="M1,5h2v2c0,0.6,0.4,1,1,1h4c0.6,0,1-0.4,1-1V1c0-0.6-0.4-1-1-1H4C3.4,0,3,0.4,3,1v2H1C0.4,3,0,3.4,0,4
	S0.4,5,1,5z"/>
<path data-color="color-2" fill="#444444" d="M23,11h-1c-0.6,0-1,0.4-1,1s0.4,1,1,1h1c0.6,0,1-0.4,1-1S23.6,11,23,11z"/>
<path data-color="color-2" fill="#444444" d="M1,13h12v2c0,0.6,0.4,1,1,1h4c0.6,0,1-0.4,1-1V9c0-0.6-0.4-1-1-1h-4c-0.6,0-1,0.4-1,1v2H1
	c-0.6,0-1,0.4-1,1S0.4,13,1,13z"/>
<path fill="#444444" d="M23,19H12c-0.6,0-1,0.4-1,1s0.4,1,1,1h11c0.6,0,1-0.4,1-1S23.6,19,23,19z"/>
<path fill="#444444" d="M8,16H4c-0.6,0-1,0.4-1,1v2H1c-0.6,0-1,0.4-1,1s0.4,1,1,1h2v2c0,0.6,0.4,1,1,1h4c0.6,0,1-0.4,1-1v-6
	C9,16.4,8.6,16,8,16z"/>
</g><g  transform="translate(60, 108)">
<path fill="#444444" d="M23,3h-9c-0.6,0-1,0.4-1,1s0.4,1,1,1h9c0.6,0,1-0.4,1-1S23.6,3,23,3z"/>
<path fill="#444444" d="M1,5h2.1c0.4,1.7,2,3,3.9,3c2.2,0,4-1.8,4-4S9.2,0,7,0C5.1,0,3.6,1.3,3.1,3H1C0.4,3,0,3.4,0,4S0.4,5,1,5z"/>
<path data-color="color-2" fill="#444444" d="M23,11h-1c-0.6,0-1,0.4-1,1s0.4,1,1,1h1c0.6,0,1-0.4,1-1S23.6,11,23,11z"/>
<path data-color="color-2" fill="#444444" d="M1,13h10.1c0.4,1.7,2,3,3.9,3c2.2,0,4-1.8,4-4s-1.8-4-4-4c-1.9,0-3.4,1.3-3.9,3H1
	c-0.6,0-1,0.4-1,1S0.4,13,1,13z"/>
<path fill="#444444" d="M23,19h-9c-0.6,0-1,0.4-1,1s0.4,1,1,1h9c0.6,0,1-0.4,1-1S23.6,19,23,19z"/>
<path fill="#444444" d="M7,16c-1.9,0-3.4,1.3-3.9,3H1c-0.6,0-1,0.4-1,1s0.4,1,1,1h2.1c0.4,1.7,2,3,3.9,3c2.2,0,4-1.8,4-4
	S9.2,16,7,16z"/>
</g><g  transform="translate(108, 108)">
<path fill="#444444" d="M12,0C5.4,0,0,5.4,0,12s5.4,12,12,12s12-5.4,12-12S18.6,0,12,0z M7.1,11C7,11.3,7,11.6,7,12c0,0.6-0.4,1-1,1
	s-1-0.4-1-1c0-0.5,0.1-1,0.2-1.5C5.3,10,5.8,9.7,6.3,9.8C6.9,9.9,7.2,10.4,7.1,11z M12,15c-1.7,0-3-1.3-3-3c0-0.5,0.1-0.9,0.3-1.3
	l-3-3c-0.4-0.4-0.4-1,0-1.4s1-0.4,1.4,0l3,3C11.1,9.1,11.5,9,12,9c1.7,0,3,1.3,3,3S13.7,15,12,15z M18,13c-0.6,0-1-0.4-1-1
	c0-2.8-2.2-5-5-5c-0.3,0-0.6,0-0.9,0.1c-0.5,0.1-1.1-0.3-1.2-0.8c-0.1-0.5,0.3-1.1,0.8-1.2C11.2,5,11.6,5,12,5c3.9,0,7,3.1,7,7
	C19,12.6,18.6,13,18,13z"/>
</g><g  transform="translate(156, 108)">
<path fill="#444444" d="M18,10.7V6c0-3.3-2.7-6-6-6S6,2.7,6,6v4.7C4.8,12.1,4,14,4,16c0,4.4,3.6,8,8,8s8-3.6,8-8
	C20,14,19.2,12.1,18,10.7z M13,17.8V19c0,0.6-0.4,1-1,1s-1-0.4-1-1v-1.2c-1.2-0.4-2-1.5-2-2.8c0-1.7,1.3-3,3-3s3,1.3,3,3
	C15,16.3,14.2,17.4,13,17.8z M16,9.1C14.8,8.4,13.5,8,12,8S9.2,8.4,8,9.1V6c0-2.2,1.8-4,4-4s4,1.8,4,4V9.1z"/>
</g><g  transform="translate(204, 108)">
<path fill="#444444" d="M12,8c-1.5,0-2.8,0.4-4,1.1V6c0-2.2,1.8-4,4-4s4,1.8,4,4c0,0.6,0.4,1,1,1s1-0.4,1-1c0-3.3-2.7-6-6-6
	S6,2.7,6,6v4.7C4.8,12.1,4,14,4,16c0,4.4,3.6,8,8,8s8-3.6,8-8S16.4,8,12,8z M13,17.8V19c0,0.6-0.4,1-1,1s-1-0.4-1-1v-1.2
	c-1.2-0.4-2-1.5-2-2.8c0-1.7,1.3-3,3-3s3,1.3,3,3C15,16.3,14.2,17.4,13,17.8z"/>
</g><g  transform="translate(252, 108)">
<path fill="#444444" d="M22.7,19.3l-4.1-4.1c0.9-1.5,1.4-3.3,1.4-5.1c0-5.5-4.5-10-10-10S0,4.5,0,10s4.5,10,10,10
	c1.9,0,3.6-0.5,5.1-1.4l4.1,4.1c0.2,0.2,0.4,0.3,0.7,0.3s0.5-0.1,0.7-0.3l2-2c0.2-0.2,0.3-0.4,0.3-0.7S22.9,19.5,22.7,19.3z"/>
</g><g  transform="translate(300, 108)">
<path fill="#444444" d="M22.7,19.3l-4.1-4.1c0.9-1.5,1.4-3.3,1.4-5.1c0-5.5-4.5-10-10-10S0,4.5,0,10s4.5,10,10,10
	c1.9,0,3.6-0.5,5.1-1.4l4.1,4.1c0.2,0.2,0.5,0.3,0.7,0.3s0.5-0.1,0.7-0.3l2-2C23.1,20.3,23.1,19.7,22.7,19.3z M13,11h-2v2
	c0,0.6-0.4,1-1,1s-1-0.4-1-1v-2H7c-0.6,0-1-0.4-1-1s0.4-1,1-1h2V7c0-0.6,0.4-1,1-1s1,0.4,1,1v2h2c0.6,0,1,0.4,1,1S13.6,11,13,11z"/>
</g><g  transform="translate(348, 108)">
<path fill="#444444" d="M22.7,19.3l-4.1-4.1c0.9-1.5,1.4-3.3,1.4-5.1c0-5.5-4.5-10-10-10S0,4.5,0,10s4.5,10,10,10
	c1.9,0,3.6-0.5,5.1-1.4l4.1,4.1c0.2,0.2,0.5,0.3,0.7,0.3s0.5-0.1,0.7-0.3l2-2C23.1,20.3,23.1,19.7,22.7,19.3z M13,11H7
	c-0.6,0-1-0.4-1-1s0.4-1,1-1h6c0.6,0,1,0.4,1,1S13.6,11,13,11z"/>
</g><g  transform="translate(396, 108)">
<path fill="#444444" d="M23,4h-6V1c0-0.6-0.4-1-1-1H8C7.4,0,7,0.4,7,1v3H1C0.4,4,0,4.4,0,5s0.4,1,1,1h2v17c0,0.6,0.4,1,1,1h16
	c0.6,0,1-0.4,1-1V6h2c0.6,0,1-0.4,1-1S23.6,4,23,4z M9,18c0,0.6-0.4,1-1,1s-1-0.4-1-1v-8c0-0.6,0.4-1,1-1s1,0.4,1,1V18z M9,2h6v2H9
	V2z M13,18c0,0.6-0.4,1-1,1s-1-0.4-1-1v-8c0-0.6,0.4-1,1-1s1,0.4,1,1V18z M17,18c0,0.6-0.4,1-1,1s-1-0.4-1-1v-8c0-0.6,0.4-1,1-1
	s1,0.4,1,1V18z"/>
</g><g  transform="translate(444, 108)">
<path fill="#444444" d="M23.7,11.3l-11-10c-0.4-0.3-1-0.3-1.3,0l-11,10c-0.4,0.4-0.4,1-0.1,1.4c0.4,0.4,1,0.4,1.4,0.1L3,11.5V22
	c0,0.6,0.4,1,1,1h5c0.6,0,1-0.4,1-1v-5h4v5c0,0.6,0.4,1,1,1h5c0.6,0,1-0.4,1-1V11.5l1.3,1.2c0.2,0.2,0.4,0.3,0.7,0.3
	c0.3,0,0.5-0.1,0.7-0.3C24.1,12.3,24.1,11.6,23.7,11.3z M14,13h-4V9h4V13z"/>
</g><g  transform="translate(12, 156)">
<path fill="#444444" d="M1.4,11l2.2,1.6l6.4-3c0.5-0.2,1,0.4,0.5,0.8l-4.5,4v6.7c0,0.9,1.2,1.4,1.8,0.6l3.1-3.7l6.5,4.9
	c0.6,0.4,1.4,0.1,1.6-0.6l4-20c0.2-0.8-0.6-1.4-1.4-1.1l-20,8C0.9,9.6,0.8,10.6,1.4,11z"/>
</g><g  transform="translate(60, 156)">
<path fill="#444444" d="M23,8H1C0.4,8,0,8.4,0,9v14c0,0.6,0.4,1,1,1h22c0.6,0,1-0.4,1-1V9C24,8.4,23.6,8,23,8z"/>
<path data-color="color-2" fill="#444444" d="M23,2h-4V1c0-0.6-0.4-1-1-1s-1,0.4-1,1v1h-4V1c0-0.6-0.4-1-1-1s-1,0.4-1,1v1H7V1
	c0-0.6-0.4-1-1-1S5,0.4,5,1v1H1C0.4,2,0,2.4,0,3v2c0,0.6,0.4,1,1,1h22c0.6,0,1-0.4,1-1V3C24,2.4,23.6,2,23,2z"/>
</g><g  transform="translate(108, 156)">
<path data-color="color-2" fill="#444444" d="M23,2h-4V1c0-0.6-0.4-1-1-1s-1,0.4-1,1v1h-4V1c0-0.6-0.4-1-1-1s-1,0.4-1,1v1H7V1
	c0-0.6-0.4-1-1-1S5,0.4,5,1v1H1C0.4,2,0,2.4,0,3v2c0,0.6,0.4,1,1,1h22c0.6,0,1-0.4,1-1V3C24,2.4,23.6,2,23,2z"/>
<path fill="#444444" d="M23,8H1C0.4,8,0,8.4,0,9v14c0,0.6,0.4,1,1,1h22c0.6,0,1-0.4,1-1V9C24,8.4,23.6,8,23,8z M8,20
	c0,0.6-0.4,1-1,1H5c-0.6,0-1-0.4-1-1v-2c0-0.6,0.4-1,1-1h2c0.6,0,1,0.4,1,1V20z M8,14c0,0.6-0.4,1-1,1H5c-0.6,0-1-0.4-1-1v-2
	c0-0.6,0.4-1,1-1h2c0.6,0,1,0.4,1,1V14z M14,20c0,0.6-0.4,1-1,1h-2c-0.6,0-1-0.4-1-1v-2c0-0.6,0.4-1,1-1h2c0.6,0,1,0.4,1,1V20z
	 M14,14c0,0.6-0.4,1-1,1h-2c-0.6,0-1-0.4-1-1v-2c0-0.6,0.4-1,1-1h2c0.6,0,1,0.4,1,1V14z M20,14c0,0.6-0.4,1-1,1h-2c-0.6,0-1-0.4-1-1
	v-2c0-0.6,0.4-1,1-1h2c0.6,0,1,0.4,1,1V14z"/>
</g><g  transform="translate(156, 156)">
<path data-color="color-2" fill="#444444" d="M23,2h-4V1c0-0.6-0.4-1-1-1s-1,0.4-1,1v1h-4V1c0-0.6-0.4-1-1-1s-1,0.4-1,1v1H7V1
	c0-0.6-0.4-1-1-1S5,0.4,5,1v1H1C0.4,2,0,2.4,0,3v2c0,0.6,0.4,1,1,1h22c0.6,0,1-0.4,1-1V3C24,2.4,23.6,2,23,2z"/>
<path fill="#444444" d="M23,8H1C0.4,8,0,8.4,0,9v14c0,0.6,0.4,1,1,1h22c0.6,0,1-0.4,1-1V9C24,8.4,23.6,8,23,8z M17.7,12.7l-7,7
	C10.5,19.9,10.3,20,10,20s-0.5-0.1-0.7-0.3l-3-3c-0.4-0.4-0.4-1,0-1.4s1-0.4,1.4,0l2.3,2.3l6.3-6.3c0.4-0.4,1-0.4,1.4,0
	S18.1,12.3,17.7,12.7z"/>
</g><g  transform="translate(204, 156)">
<path fill="#444444" d="M19,0c-3,0-5.8,1.5-7.5,4H8H7H3C1.3,4,0,6.1,0,9s1.3,5,3,5h2.3l4.3,7.3c0.6,1,1.8,1.3,2.7,0.7
	c1-0.6,1.3-1.8,0.7-2.7L9.9,14h1.6c1.7,2.5,4.5,4,7.5,4c2.9,0,5-3.9,5-9S21.9,0,19,0z M19,16c-0.9,0-1.9-1.3-2.5-3.3
	C18,12.1,19,10.7,19,9s-1-3.1-2.5-3.7C17.1,3.3,18.1,2,19,2c1.4,0,3,3,3,7S20.4,16,19,16z"/>
</g><g  transform="translate(252, 156)">
<path data-color="color-2" fill="#444444" d="M19,24H1c-0.6,0-1-0.4-1-1V5c0-0.6,0.4-1,1-1h8c0.6,0,1,0.4,1,1S9.6,6,9,6H2v16h16v-7
	c0-0.6,0.4-1,1-1s1,0.4,1,1v8C20,23.6,19.6,24,19,24z"/>
<path fill="#444444" d="M19.7,8.3l1.6-1.6c0.4-0.4,0.4-1,0-1.4l-2.6-2.6c-0.4-0.4-1-0.4-1.4,0l-1.6,1.6L19.7,8.3z"/>
<path fill="#444444" d="M14.3,5.7l-7,7C7.1,12.9,7,13.1,7,13.4V16c0,0.6,0.4,1,1,1h2.6c0.3,0,0.5-0.1,0.7-0.3l7-7L14.3,5.7z"/>
</g><g  transform="translate(300, 156)">
<path fill="#444444" d="M22.3,3.9l-2.2-2.2c-1.1-1.1-3.1-1.1-4.2,0L2.3,15.3c-0.1,0.1-0.1,0.2-0.2,0.3c0,0,0,0.1,0,0.1
	c0,0,0,0.1,0,0.1l-1,6c-0.1,0.3,0.1,0.6,0.3,0.9C1.5,22.9,1.7,23,2,23c0.1,0,0.1,0,0.2,0l6-1c0,0,0.1,0,0.1,0c0,0,0.1,0,0.1,0
	c0.1,0,0.2-0.1,0.3-0.2L22.3,8.1C23.5,7,23.5,5,22.3,3.9z M17,10.6L13.4,7L15,5.4L18.6,9L17,10.6z M8,19.6l-1.1-1.1l7.6-7.6l1.1,1.1
	L8,19.6z M12,8.4l1.1,1.1l-7.6,7.6L4.4,16L12,8.4z"/>
</g><g  transform="translate(348, 156)">
<path fill="#444444" d="M8.9,13.7l-2.6,2.6c-0.4,0.4-0.4,1,0,1.4C6.5,17.9,6.7,18,7,18s0.5-0.1,0.7-0.3l2.6-2.6
	c0.5,0.1,1.2,0.2,2.1,0.2c1.7,0,4.1-0.5,6.3-2.7C22.5,8.9,23,2.3,23,2.1c0-0.3-0.1-0.6-0.3-0.8C22.5,1.1,22.2,1,21.9,1
	c-0.3,0-6.8,0.5-10.6,4.3C8.1,8.5,8.6,12.2,8.9,13.7z"/>
<path data-color="color-2" fill="#444444" d="M21,14c-0.6,0-1,0.4-1,1v7H2V4h7c0.6,0,1-0.4,1-1S9.6,2,9,2H1C0.4,2,0,2.4,0,3v20
	c0,0.6,0.4,1,1,1h20c0.6,0,1-0.4,1-1v-8C22,14.4,21.6,14,21,14z"/>
</g><g  transform="translate(396, 156)">
<path fill="#444444" d="M23,2H1C0.4,2,0,2.4,0,3v18c0,0.6,0.4,1,1,1h22c0.6,0,1-0.4,1-1V3C24,2.4,23.6,2,23,2z M7.7,15.7l-2,2
	C5.5,17.9,5.3,18,5,18s-0.5-0.1-0.7-0.3c-0.4-0.4-0.4-1,0-1.4l2-2c0.4-0.4,1-0.4,1.4,0S8.1,15.3,7.7,15.7z M19.7,17.7
	C19.5,17.9,19.3,18,19,18s-0.5-0.1-0.7-0.3l-2-2c-0.4-0.4-0.4-1,0-1.4s1-0.4,1.4,0l2,2C20.1,16.7,20.1,17.3,19.7,17.7z M19.7,7.7
	l-7,7C12.5,14.9,12.3,15,12,15s-0.5-0.1-0.7-0.3l-7-7c-0.4-0.4-0.4-1,0-1.4s1-0.4,1.4,0l6.3,6.3l6.3-6.3c0.4-0.4,1-0.4,1.4,0
	S20.1,7.3,19.7,7.7z"/>
</g><g  transform="translate(444, 156)">
<path fill="#444444" d="M11.5,24C7.4,24,4,20.6,4,16.5v-11C4,2.5,6.5,0,9.5,0S15,2.5,15,5.5v10c0,1.9-1.6,3.5-3.5,3.5S8,17.4,8,15.5
	V7c0-0.6,0.4-1,1-1s1,0.4,1,1v8.5c0,0.8,0.7,1.5,1.5,1.5s1.5-0.7,1.5-1.5v-10C13,3.6,11.4,2,9.5,2S6,3.6,6,5.5v11
	c0,3,2.5,5.5,5.5,5.5s5.5-2.5,5.5-5.5V4c0-0.6,0.4-1,1-1s1,0.4,1,1v12.5C19,20.6,15.6,24,11.5,24z"/>
</g><g  transform="translate(12, 204)">
<path fill="#444444" d="M17,0c-1.9,0-3.7,0.8-5,2.1C10.7,0.8,8.9,0,7,0C3.1,0,0,3.1,0,7c0,6.4,10.9,15.4,11.4,15.8
	c0.2,0.2,0.4,0.2,0.6,0.2s0.4-0.1,0.6-0.2C13.1,22.4,24,13.4,24,7C24,3.1,20.9,0,17,0z"/>
</g><g  transform="translate(60, 204)">
<path fill="#444444" d="M24,7c0-3.9-3.1-7-7-7c-1.9,0-3.7,0.8-5,2.1C10.7,0.8,8.9,0,7,0C3.1,0,0,3.1,0,7c0,6.4,10.9,15.4,11.4,15.8
	c0.2,0.2,0.4,0.2,0.6,0.2s0.4-0.1,0.6-0.2c0,0,0.9-0.7,2-1.8c1,0.6,2.1,1,3.3,1c3.3,0,6-2.7,6-6c0-1.6-0.6-3-1.6-4.1
	C23.5,10.1,24,8.4,24,7z M18,20c-2.2,0-4-1.8-4-4s1.8-4,4-4s4,1.8,4,4S20.2,20,18,20z"/>
<path data-color="color-2" fill="#444444" d="M20,15h-1v-1c0-0.6-0.4-1-1-1s-1,0.4-1,1v1h-1c-0.6,0-1,0.4-1,1s0.4,1,1,1h1v1
	c0,0.6,0.4,1,1,1s1-0.4,1-1v-1h1c0.6,0,1-0.4,1-1S20.6,15,20,15z"/>
</g><g  transform="translate(108, 204)">
<path fill="#444444" d="M24,7c0-3.9-3.1-7-7-7c-1.9,0-3.7,0.8-5,2.1C10.7,0.8,8.9,0,7,0C3.1,0,0,3.1,0,7c0,6.4,10.9,15.4,11.4,15.8
	c0.2,0.2,0.4,0.2,0.6,0.2s0.4-0.1,0.6-0.2c0,0,0.9-0.7,2-1.8c1,0.6,2.1,1,3.3,1c3.3,0,6-2.7,6-6c0-1.6-0.6-3-1.6-4.1
	C23.5,10.1,24,8.4,24,7z M18,20c-2.2,0-4-1.8-4-4s1.8-4,4-4s4,1.8,4,4S20.2,20,18,20z"/>
<path data-color="color-2" fill="#444444" d="M20,15h-4c-0.6,0-1,0.4-1,1s0.4,1,1,1h4c0.6,0,1-0.4,1-1S20.6,15,20,15z"/>
</g><g  transform="translate(156, 204)">
<path fill="#444444" d="M19.7,20.3c1.4-1.7,2.3-3.9,2.3-6.3c0-5.5-4.5-10-10-10S2,8.5,2,14c0,2.4,0.8,4.6,2.3,6.3l-2,2
	c-0.4,0.4-0.4,1,0,1.4C2.5,23.9,2.7,24,3,24s0.5-0.1,0.7-0.3l2-2C7.4,23.2,9.6,24,12,24s4.6-0.8,6.3-2.3l2,2
	c0.2,0.2,0.5,0.3,0.7,0.3s0.5-0.1,0.7-0.3c0.4-0.4,0.4-1,0-1.4L19.7,20.3z M16,15h-4c-0.6,0-1-0.4-1-1v-4c0-0.6,0.4-1,1-1s1,0.4,1,1
	v3h3c0.6,0,1,0.4,1,1S16.6,15,16,15z"/>
<path data-color="color-2" fill="#444444" d="M22.9,9.1c0.2-0.1,0.4-0.2,0.5-0.4C23.8,7.8,24,6.9,24,6c0-3.3-2.7-6-6-6
	c-1.5,0-2.9,0.6-4,1.6c-0.2,0.2-0.3,0.4-0.3,0.6C17.8,2.7,21.3,5.4,22.9,9.1z"/>
<path data-color="color-2" fill="#444444" d="M1.1,9.1c1.7-3.7,5.1-6.3,9.2-6.9c0-0.2-0.1-0.4-0.3-0.6C8.9,0.6,7.5,0,6,0C2.7,0,0,2.7,0,6
	c0,0.9,0.2,1.8,0.6,2.6C0.7,8.8,0.9,9,1.1,9.1z"/>
</g><g  transform="translate(204, 204)">
<path fill="#444444" d="M23,16H5v-2h14c0.5,0,0.9-0.3,1-0.8l2-9c0.1-0.3,0-0.6-0.2-0.8C21.6,3.1,21.3,3,21,3H5V1c0-0.6-0.4-1-1-1H1
	C0.4,0,0,0.4,0,1s0.4,1,1,1h2v15c0,0.6,0.4,1,1,1h19c0.6,0,1-0.4,1-1S23.6,16,23,16z"/>
<circle data-color="color-2" fill="#444444" cx="6" cy="21" r="2"/>
<circle data-color="color-2" fill="#444444" cx="21" cy="21" r="2"/>
</g><g  transform="translate(252, 204)">
<circle data-color="color-2" fill="#444444" cx="6" cy="21" r="2"/>
<circle data-color="color-2" fill="#444444" cx="21" cy="21" r="2"/>
<path fill="#444444" d="M23,16H5v-2h14c0.5,0,0.9-0.3,1-0.8l2-9c0.1-0.3,0-0.6-0.2-0.8C21.6,3.1,21.3,3,21,3h-8v4.6l1.3-1.3
	c0.4-0.4,1-0.4,1.4,0s0.4,1,0,1.4l-3,3c-0.1,0.1-0.2,0.2-0.3,0.2C12.3,11,12.1,11,12,11s-0.3,0-0.4-0.1c-0.1-0.1-0.2-0.1-0.3-0.2
	l-3-3c-0.4-0.4-0.4-1,0-1.4s1-0.4,1.4,0L11,7.6V3H5V1c0-0.6-0.4-1-1-1H1C0.4,0,0,0.4,0,1s0.4,1,1,1h2v15c0,0.6,0.4,1,1,1h19
	c0.6,0,1-0.4,1-1S23.6,16,23,16z"/>
</g><g  transform="translate(300, 204)">
<path data-color="color-2" fill="#444444" d="M5,22H3c-0.6,0-1-0.4-1-1v-9c0-0.6,0.4-1,1-1h2c0.6,0,1,0.4,1,1v9C6,21.6,5.6,22,5,22z"/>
<path fill="#444444" d="M20,10h-5V7c0-1.7-1-4-2.5-4.9C11.8,1.8,11,2.2,11,3v4l-3,3.6V21l0.3,0.1C9.4,21.7,10.7,22,12,22h7
	c1.1,0,2-0.9,2-2l1-8C22,10.9,21.1,10,20,10z"/>
</g><g  transform="translate(348, 204)">
<path data-color="color-2" fill="#444444" d="M6,4h18V2c0-0.6-0.4-1-1-1H6V4z"/>
<path data-color="color-2" fill="#444444" d="M4,4V1H1C0.4,1,0,1.4,0,2v2H4z"/>
<path fill="#444444" d="M0,6v16c0,0.6,0.4,1,1,1h22c0.6,0,1-0.4,1-1V6H0z M15,15h-2v2c0,0.6-0.4,1-1,1s-1-0.4-1-1v-2H9
	c-0.6,0-1-0.4-1-1s0.4-1,1-1h2v-2c0-0.6,0.4-1,1-1s1,0.4,1,1v2h2c0.6,0,1,0.4,1,1S15.6,15,15,15z"/>
</g><g  transform="translate(396, 204)">
<path data-color="color-2" fill="#444444" d="M4,4V1H1C0.4,1,0,1.4,0,2v2H4z"/>
<path data-color="color-2" fill="#444444" d="M6,4h18V2c0-0.6-0.4-1-1-1H6V4z"/>
<path fill="#444444" d="M0,6v16c0,0.6,0.4,1,1,1h22c0.6,0,1-0.4,1-1V6H0z M9,13h6c0.6,0,1,0.4,1,1s-0.4,1-1,1H9c-0.6,0-1-0.4-1-1
	S8.4,13,9,13z"/>
</g><g  transform="translate(444, 204)">
<path fill="#444444" d="M14,0h-4C6.7,0,4,2.7,4,6v12c0,3.3,2.7,6,6,6h4c3.3,0,6-2.7,6-6V6C20,2.7,17.3,0,14,0z M16,10H8
	c-0.6,0-1-0.4-1-1s0.4-1,1-1h3V5c0-0.6,0.4-1,1-1s1,0.4,1,1v3h3c0.6,0,1,0.4,1,1S16.6,10,16,10z"/>
</g></svg>