<svg xmlns="http://www.w3.org/2000/svg" xmlns:xlink="http://www.w3.org/1999/xlink" x="0px" y="0px" width="640px" height="320px" viewBox="0 0 640 320"><g  transform="translate(16, 16)">
<path fill="#444444" d="M31.4,27.2l-2.5-5.6C28.8,21.2,28.4,21,28,21H4c-0.4,0-0.8,0.2-0.9,0.6l-2.5,5.7c-0.2,0.6-0.1,1.3,0.2,1.8
	c0.4,0.5,1,0.9,1.6,0.9h27.1c0.7,0,1.3-0.3,1.6-0.9C31.6,28.6,31.7,27.9,31.4,27.2z"/>
<path data-color="color-2" fill="#444444" d="M4,19h24c0.6,0,1-0.4,1-1V5c0-1.7-1.3-3-3-3H6C4.3,2,3,3.3,3,5v13C3,18.6,3.4,19,4,19z M7,7
	c0-0.6,0.4-1,1-1h16c0.6,0,1,0.4,1,1v7c0,0.6-0.4,1-1,1H8c-0.6,0-1-0.4-1-1V7z"/>
</g><g  transform="translate(80, 16)">
<path fill="#444444" d="M32,4c0-1.7-1.3-3-3-3H3C1.3,1,0,2.3,0,4v14h32V4z M17,7h-2c-0.6,0-1-0.4-1-1s0.4-1,1-1h2c0.6,0,1,0.4,1,1
	S17.6,7,17,7z"/>
<path data-color="color-2" fill="#444444" d="M0,23c0,1.7,1.3,3,3,3h9v3H9c-0.6,0-1,0.4-1,1s0.4,1,1,1h4h6h4c0.6,0,1-0.4,1-1s-0.4-1-1-1
	h-3v-3h9c1.7,0,3-1.3,3-3v-3H0V23z"/>
</g><g  transform="translate(144, 16)">
<path data-color="color-2" fill="#444444" d="M10,20H5c-0.6,0-1-0.4-1-1V9c0-0.6,0.4-1,1-1h5V4H1C0.4,4,0,4.4,0,5v18c0,0.6,0.4,1,1,1h9V20z
	"/>
<path data-color="color-2" fill="#444444" d="M10,26H6c-0.6,0-1,0.4-1,1s0.4,1,1,1h4V26z"/>
<path fill="#444444" d="M31,0H13c-0.6,0-1,0.4-1,1v30c0,0.6,0.4,1,1,1h18c0.6,0,1-0.4,1-1V1C32,0.4,31.6,0,31,0z M22,25
	c-2.2,0-4-1.8-4-4s1.8-4,4-4s4,1.8,4,4S24.2,25,22,25z M25,14h-6c-0.6,0-1-0.4-1-1s0.4-1,1-1h6c0.6,0,1,0.4,1,1S25.6,14,25,14z
	 M25,9h-6c-0.6,0-1-0.4-1-1s0.4-1,1-1h6c0.6,0,1,0.4,1,1S25.6,9,25,9z"/>
</g><g  transform="translate(208, 16)">
<path data-color="color-2" fill="#444444" d="M24,29H8c-0.6,0-1-0.4-1-1s0.4-1,1-1h16c0.6,0,1,0.4,1,1S24.6,29,24,29z"/>
<path fill="#444444" d="M31,3H1C0.4,3,0,3.4,0,4v19c0,0.6,0.4,1,1,1h30c0.6,0,1-0.4,1-1V4C32,3.4,31.6,3,31,3z M19.6,14.8l-6,4
	C13.4,18.9,13.2,19,13,19c-0.2,0-0.3,0-0.5-0.1C12.2,18.7,12,18.4,12,18v-8c0-0.4,0.2-0.7,0.5-0.9c0.3-0.2,0.7-0.2,1,0l6,4
	c0.3,0.2,0.4,0.5,0.4,0.8S19.8,14.6,19.6,14.8z"/>
</g><g  transform="translate(272, 16)">
<path data-color="color-2" fill="#444444" d="M27,10c-0.6,0-1-0.4-1-1c0-3.9-3.1-7-7-7c-0.6,0-1-0.4-1-1s0.4-1,1-1c5,0,9,4,9,9
	C28,9.6,27.6,10,27,10z"/>
<path data-color="color-2" fill="#444444" d="M13,32c-5,0-9-4-9-9c0-0.6,0.4-1,1-1s1,0.4,1,1c0,3.9,3.1,7,7,7c0.6,0,1,0.4,1,1
	S13.6,32,13,32z"/>
<path fill="#444444" d="M12,0H3C1.3,0,0,1.3,0,3h15C15,1.3,13.7,0,12,0z"/>
<rect y="5" fill="#444444" width="15" height="7"/>
<path fill="#444444" d="M0,17c0,1.7,1.3,3,3,3h9c1.7,0,3-1.3,3-3v-3H0V17z M7,16h1c0.6,0,1,0.4,1,1s-0.4,1-1,1H7c-0.6,0-1-0.4-1-1
	S6.4,16,7,16z"/>
<rect x="17" y="17" fill="#444444" width="15" height="7"/>
<path fill="#444444" d="M29,12h-9c-1.7,0-3,1.3-3,3h15C32,13.3,30.7,12,29,12z"/>
<path fill="#444444" d="M17,29c0,1.7,1.3,3,3,3h9c1.7,0,3-1.3,3-3v-3H17V29z M24,28h1c0.6,0,1,0.4,1,1s-0.4,1-1,1h-1
	c-0.6,0-1-0.4-1-1S23.4,28,24,28z"/>
</g><g  transform="translate(336, 16)">
<path fill="#444444" d="M31,7h-5V1c0-0.6-0.4-1-1-1H7C6.4,0,6,0.4,6,1v6H1C0.4,7,0,7.4,0,8v16c0,0.6,0.4,1,1,1h5v6c0,0.6,0.4,1,1,1
	h18c0.6,0,1-0.4,1-1v-6h5c0.6,0,1-0.4,1-1V8C32,7.4,31.6,7,31,7z M8,2h16v5H8V2z M24,30H8V17h16V30z"/>
<path data-color="color-2" fill="#444444" d="M12,22h8c0.6,0,1-0.4,1-1s-0.4-1-1-1h-8c-0.6,0-1,0.4-1,1S11.4,22,12,22z"/>
<path data-color="color-2" fill="#444444" d="M12,27h8c0.6,0,1-0.4,1-1s-0.4-1-1-1h-8c-0.6,0-1,0.4-1,1S11.4,27,12,27z"/>
</g><g  transform="translate(400, 16)">
<path fill="#444444" d="M29,4h-6c-1.4-2.6-4.3-4-7-4s-5.6,1.4-7,4H3C1.3,4,0,5.3,0,7v22c0,1.7,1.3,3,3,3h26c1.7,0,3-1.3,3-3V7
	C32,5.3,30.7,4,29,4z M27,10v15.3L20,16c1.6-2.1,3.4-4.7,3.9-7H26C26.6,9,27,9.4,27,10z M16,2c2.9,0,6,2.2,6,5.8
	c0,2.8-3.8,7.4-6,9.7c-2.2-2.3-6-7-6-9.7C10,4.2,13.1,2,16,2z M6,9h2.1c0.5,2.3,2.2,4.9,3.9,7l-7,9.3V10C5,9.4,5.4,9,6,9z M16,23
	c-0.6,0-1,0.4-1,1v3H6.2l7.1-9.4c1,1.1,1.7,1.9,2,2.1c0.2,0.2,0.5,0.3,0.7,0.3s0.5-0.1,0.7-0.3c0.2-0.2,1-1,2-2.1l7.1,9.4H17v-3
	C17,23.4,16.6,23,16,23z"/>
<circle data-color="color-2" fill="#444444" cx="16" cy="8" r="3"/>
</g><g  transform="translate(464, 16)">
<path fill="#444444" d="M23,12H9c-5,0-9,4-9,9s4,9,9,9h14c5,0,9-4,9-9S28,12,23,12z M12,22h-2v2c0,0.6-0.4,1-1,1s-1-0.4-1-1v-2H6
	c-0.6,0-1-0.4-1-1s0.4-1,1-1h2v-2c0-0.6,0.4-1,1-1s1,0.4,1,1v2h2c0.6,0,1,0.4,1,1S12.6,22,12,22z M21.3,19.3l2-2
	c0.4-0.4,1-0.4,1.4,0s0.4,1,0,1.4l-2,2C22.5,20.9,22.3,21,22,21s-0.5-0.1-0.7-0.3C20.9,20.3,20.9,19.7,21.3,19.3z M25.7,22.7l-2,2
	C23.5,24.9,23.3,25,23,25s-0.5-0.1-0.7-0.3c-0.4-0.4-0.4-1,0-1.4l2-2c0.4-0.4,1-0.4,1.4,0S26.1,22.3,25.7,22.7z"/>
<path data-color="color-2" fill="#444444" d="M16,10c-0.6,0-1-0.4-1-1V3c0-0.6,0.4-1,1-1s1,0.4,1,1v6C17,9.6,16.6,10,16,10z"/>
</g><g  transform="translate(528, 16)">
<path data-color="color-2" fill="#444444" d="M16,9c0.6,0,1-0.4,1-1V2c0-0.6-0.4-1-1-1s-1,0.4-1,1v6C15,8.6,15.4,9,16,9z"/>
<path fill="#444444" d="M32,27.3l-2.8-14.1c-0.5-2.6-2.8-4.5-5.5-4.5c-1.5,0-2.9,0.6-4,1.7L19,11H13l-0.6-0.6
	c-1.1-1.1-2.5-1.7-4-1.7c-2.7,0-5,1.9-5.5,4.5L0,27.3c-0.2,1,0.2,2,1.1,2.5c0.4,0.3,0.8,0.4,1.3,0.4c0.5,0,1-0.2,1.5-0.5l3.4-2.6
	C8.1,27.7,9,28,10,28c1.9,0,3.6-1.1,4.4-2.7l3.2,0c0.8,1.6,2.5,2.7,4.4,2.7c1,0,1.9-0.3,2.7-0.8l3.4,2.6c0.8,0.6,1.9,0.7,2.7,0.1
	C31.7,29.3,32.2,28.3,32,27.3z M10,26c-1.7,0-3-1.3-3-3s1.3-3,3-3s3,1.3,3,3S11.7,26,10,26z M19,23c0-1.7,1.3-3,3-3s3,1.3,3,3
	s-1.3,3-3,3S19,24.7,19,23z"/>
</g><g  transform="translate(592, 16)">
<path data-color="color-2" fill="#444444" d="M6.7,13.1l7.4-7.4L9.7,1.3c-0.4-0.4-1-0.4-1.4,0l-6,6c-0.4,0.4-0.4,1,0,1.4L6.7,13.1z"/>
<path fill="#444444" d="M29.7,8.3l-7-7c-0.4-0.4-1-0.4-1.4,0L18,4.6l1.7,1.7c0.4,0.4,0.4,1,0,1.4C19.5,7.9,19.3,8,19,8
	s-0.5-0.1-0.7-0.3L16.6,6L14,8.6l1.7,1.7c0.4,0.4,0.4,1,0,1.4C15.5,11.9,15.3,12,15,12s-0.5-0.1-0.7-0.3L12.6,10L10,12.6l1.7,1.7
	c0.4,0.4,0.4,1,0,1.4C11.5,15.9,11.3,16,11,16s-0.5-0.1-0.7-0.3L8.6,14L6,16.6l1.7,1.7c0.4,0.4,0.4,1,0,1.4C7.5,19.9,7.3,20,7,20
	s-0.5-0.1-0.7-0.3L4.6,18l-3.3,3.3c-0.4,0.4-0.4,1,0,1.4l7,7C8.5,29.9,8.7,30,9,30s0.5-0.1,0.7-0.3l20-20
	C30.1,9.3,30.1,8.7,29.7,8.3z"/>
<rect data-color="color-2" x="20.9" y="17.2" transform="matrix(0.7071 0.7071 -0.7071 0.7071 22.7499 -10.0091)" fill="#444444" width="5.2" height="10.5"/>
<path data-color="color-2" fill="#444444" d="M23.4,29.1l6.5,0.9c0,0,0.1,0,0.1,0c0.3,0,0.5-0.1,0.7-0.3c0.2-0.2,0.3-0.5,0.3-0.8l-0.9-6.5
	L23.4,29.1z"/>
</g><g  transform="translate(16, 80)">
<path data-color="color-2" fill="#444444" d="M27,23c-0.6,0-1-0.4-1-1v-1c0-4.5-3-8.5-7.3-9.6c-0.5-0.1-0.8-0.7-0.7-1.2
	c0.1-0.5,0.7-0.8,1.2-0.7C24.4,10.9,28,15.6,28,21v1C28,22.6,27.6,23,27,23z"/>
<path data-color="color-2" fill="#444444" d="M5,23c-0.6,0-1-0.4-1-1v-1c0-5.3,3.6-10.1,8.7-11.5c0.5-0.2,1.1,0.2,1.2,0.7
	c0.2,0.5-0.2,1.1-0.7,1.2C9,12.6,6,16.6,6,21v1C6,22.6,5.6,23,5,23z"/>
<path data-color="color-2" fill="#444444" d="M13,9H7C6.4,9,6,8.6,6,8s0.4-1,1-1h6c0.6,0,1,0.4,1,1S13.6,9,13,9z"/>
<path data-color="color-2" fill="#444444" d="M25,9h-6c-0.6,0-1-0.4-1-1s0.4-1,1-1h6c0.6,0,1,0.4,1,1S25.6,9,25,9z"/>
<path fill="#444444" d="M4,12c2.2,0,4-1.8,4-4S6.2,4,4,4S0,5.8,0,8S1.8,12,4,12z"/>
<path fill="#444444" d="M28,12c2.2,0,4-1.8,4-4s-1.8-4-4-4s-4,1.8-4,4S25.8,12,28,12z"/>
<path fill="#444444" d="M19,4h-6c-0.6,0-1,0.4-1,1v6c0,0.6,0.4,1,1,1h6c0.6,0,1-0.4,1-1V5C20,4.4,19.6,4,19,4z"/>
<path fill="#444444" d="M8,21H2c-0.6,0-1,0.4-1,1v6c0,0.6,0.4,1,1,1h6c0.6,0,1-0.4,1-1v-6C9,21.4,8.6,21,8,21z"/>
<path fill="#444444" d="M30,21h-6c-0.6,0-1,0.4-1,1v6c0,0.6,0.4,1,1,1h6c0.6,0,1-0.4,1-1v-6C31,21.4,30.6,21,30,21z"/>
</g><g  transform="translate(80, 80)">
<path data-color="color-2" fill="#444444" d="M12.8,19.3c-0.9-0.9-2.2-1.4-3.5-1.4c-1.3,0-2.5,0.5-3.4,1.4c-1.3,1.3-1.4,2.8-1.4,3.9
	c0,0.7-0.8,0.9-1.4,0.9c-0.4,0-0.8,0.3-0.9,0.6c-0.2,0.4-0.1,0.8,0.2,1.1c1.5,1.5,3.5,2.3,5.6,2.3c1.9,0,3.6-0.7,4.8-1.9
	C14.8,24.2,14.4,21,12.8,19.3z"/>
<path data-color="color-2" fill="#444444" d="M27.7,9.3l0.8-0.8c1.4-1.4,1.4-3.6,0-5c-1.4-1.4-3.6-1.4-5,0l-0.8,0.8L27.7,9.3z"/>
<path fill="#444444" d="M21.3,5.7l-8.6,8.6c-0.4,0.4-0.4,1,0,1.4l3.6,3.6c0.4,0.4,1,0.4,1.4,0l8.6-8.6L21.3,5.7z"/>
</g><g  transform="translate(144, 80)">
<path fill="#444444" d="M29,2H3C2.4,2,2,2.4,2,3v6c0,0.6,0.4,1,1,1h1c0.3,0,0.5-0.1,0.7-0.3L7.4,7H13v17.6l-2.7,2.7
	C10.1,27.5,10,27.7,10,28v1c0,0.6,0.4,1,1,1h10c0.6,0,1-0.4,1-1v-1c0-0.3-0.1-0.5-0.3-0.7L19,24.6V7h5.5l1.7,2.6
	C26.4,9.8,26.7,10,27,10h2c0.6,0,1-0.4,1-1V3C30,2.4,29.6,2,29,2z"/>
</g><g  transform="translate(208, 80)">
<path fill="#444444" d="M24.1,19.3L12.7,7.9c-0.3-0.3-0.7-0.4-1.1-0.2l-6,2.4c-0.3,0.1-0.6,0.4-0.6,0.8L2.6,25.4
	c-0.2,1,1,1.6,1.7,0.9l6-6C10.1,19.9,10,19.5,10,19c0-1,0.5-2,1.4-2.5c1-0.6,2.3-0.6,3.2,0C15.5,17,16,18,16,19
	c0,0.8-0.3,1.6-0.9,2.1C14.6,21.7,13.8,22,13,22c-0.5,0-0.9-0.1-1.3-0.3l-6,6c-0.7,0.7-0.1,1.9,0.9,1.7L21.2,27
	c0.3-0.1,0.6-0.3,0.8-0.6l2.4-6C24.5,20,24.4,19.6,24.1,19.3z"/>
<path data-color="color-2" fill="#444444" d="M30.7,14.3l-13-13c-0.4-0.4-1-0.4-1.4,0l-3,3c-0.4,0.4-0.4,1,0,1.4l13,13
	c0.2,0.2,0.5,0.3,0.7,0.3s0.5-0.1,0.7-0.3l3-3C31.1,15.3,31.1,14.7,30.7,14.3z"/>
</g><g  transform="translate(272, 80)">
<path data-color="color-2" fill="#444444" d="M4.8,23.4c-0.4-0.5-1.3-0.5-1.6,0C2.5,24.4,1,26.7,1,28c0,1.7,1.3,3,3,3s3-1.3,3-3
	C7,26.7,5.5,24.4,4.8,23.4z"/>
<path fill="#444444" d="M30.6,16.3c0,0-0.9-1.3-2.3-3.1c1-1.3,1.6-2.9,1.6-4.7C30,4.4,26.6,1,22.5,1h-3.1c0-0.1-0.1-0.1-0.1-0.1
	C18.8,0.3,17.9,0,16.9,0c-2.6,0-6.4,2.2-9.8,5.5c-4.1,4.1-7.1,9.7-4.6,12.2c0,0,15.4,11.3,15.4,11.3c0.5,0.4,1,0.6,1.7,0.6
	c2.1,0,5-1.9,7.3-4.2c1.6-1.6,2.9-3.3,3.6-4.9C31.7,18.1,31.2,16.9,30.6,16.3z M22.5,3c3,0,5.5,2.5,5.5,5.5c0,1.1-0.3,2.1-0.9,3
	C25,8.6,22.5,5.2,20.9,3H22.5z M4,16.2c-1-1,0.4-5.1,4.6-9.3C12,3.5,15.2,2,16.9,2c0.4,0,0.8,0.1,1,0.3c0.5,0.5,0.4,1.8-0.3,3.3
	c-0.8,1.9-2.4,4-4.3,6C9,15.9,5,17.2,4,16.2z"/>
</g><g  transform="translate(336, 80)">
<path fill="#444444" d="M17.2,8.4l-9.9,9.9C7.1,18.5,7,18.7,7,19v4c0,0.6,0.4,1,1,1h4c0.3,0,0.5-0.1,0.7-0.3l9.9-9.9L17.2,8.4z"/>
<path data-color="color-2" fill="#444444" d="M7.7,25.3c-0.4-0.4-1-0.4-1.4,0C5.8,25.8,4,27.6,4,29c0,1.7,1.3,3,3,3s3-1.3,3-3
	C10,27.6,8.2,25.8,7.7,25.3z"/>
<path data-color="color-2" fill="#444444" d="M29.7,11.3L27.4,9l1.3-1.3C29.4,7,29.8,6,29.8,5s-0.4-2-1.1-2.7c-1.4-1.4-4-1.4-5.4,0L22,3.6
	l-2.3-2.3c-0.4-0.4-1-0.4-1.4,0l-2,2c-0.4,0.4-0.4,1,0,1.4l10,10c0.2,0.2,0.5,0.3,0.7,0.3s0.5-0.1,0.7-0.3l2-2
	C30.1,12.3,30.1,11.7,29.7,11.3z"/>
</g><g  transform="translate(400, 80)">
<path fill="#444444" d="M24,14.5V23c0,0.6-0.4,1-1,1H9c-0.6,0-1-0.4-1-1V5c0-0.6,0.4-1,1-1h13.8l1.8-1.8c0.5-0.5,1.1-0.9,1.8-1
	C25.8,0.5,25,0,24,0H8C6.3,0,5,1.3,5,3v26c0,1.7,1.3,3,3,3h16c1.7,0,3-1.3,3-3V11.5L24,14.5z M16,30c-1.1,0-2-0.9-2-2s0.9-2,2-2
	s2,0.9,2,2S17.1,30,16,30z"/>
<path data-color="color-2" fill="#444444" d="M29,3.7c-0.8-0.8-2.2-0.8-3,0l-6.8,6.8c-0.4,0.4-0.4,1,0,1.4l1.6,1.6c0.4,0.4,1,0.4,1.4,0
	L29,6.7C29.8,5.8,29.8,4.5,29,3.7z M14.8,13.8C14.1,14.4,14,15.3,14,16c0,0.5-0.2,0.9-0.7,1.1c-0.4,0.2-0.4,0.7-0.1,0.9
	c1.7,1,3.9,0.9,5.3-0.4c1.1-1.1,1-2.8,0-3.8C17.5,12.7,15.8,12.7,14.8,13.8z"/>
</g><g  transform="translate(464, 80)">
<path data-color="color-2" fill="#444444" d="M11,3h10c0.6,0,1-0.4,1-1V1c0-0.6-0.4-1-1-1H11c-0.6,0-1,0.4-1,1v1C10,2.6,10.4,3,11,3z"/>
<path data-color="color-2" fill="#444444" d="M21,29H11c-0.6,0-1,0.4-1,1v1c0,0.6,0.4,1,1,1h10c0.6,0,1-0.4,1-1v-1C22,29.4,21.6,29,21,29z
	"/>
<path fill="#444444" d="M28,13h-1V8c0-1.7-1.3-3-3-3H8C6.3,5,5,6.3,5,8v16c0,1.7,1.3,3,3,3h16c1.7,0,3-1.3,3-3v-5h1c0.6,0,1-0.4,1-1
	v-4C29,13.4,28.6,13,28,13z M13.7,18.3c0.4,0.4,0.4,1,0,1.4C13.5,19.9,13.3,20,13,20s-0.5-0.1-0.7-0.3l-3-3c-0.4-0.4-0.4-1,0-1.4
	l3-3c0.4-0.4,1-0.4,1.4,0s0.4,1,0,1.4L11.4,16L13.7,18.3z M22.7,16.7l-3,3C19.5,19.9,19.3,20,19,20s-0.5-0.1-0.7-0.3
	c-0.4-0.4-0.4-1,0-1.4l2.3-2.3l-2.3-2.3c-0.4-0.4-0.4-1,0-1.4s1-0.4,1.4,0l3,3C23.1,15.7,23.1,16.3,22.7,16.7z"/>
</g><g  transform="translate(528, 80)">
<path fill="#444444" d="M31,25h-4V12.8l-1,1c-0.6,0.6-1.3,0.9-2.1,0.9c-0.1,0-0.1,0-0.2,0c0,1.2-0.5,2.3-1.4,3.2
	c-1.1,1.1-2.6,1.7-4.2,1.7c-1.2,0-2.4-0.3-3.5-1c-0.8-0.5-1.3-1.3-1.2-2.2c0-0.8,0.4-1.5,1-1.9c0-0.8,0.2-2.1,1.3-3.2
	c0.9-0.9,2.1-1.4,3.3-1.4c0.1,0,0.2,0,0.3,0c0-0.7,0.3-1.4,0.9-2l6.2-6.2C25.6,0.7,24.4,0,23,0H4C1.8,0,0,1.8,0,4v2c0,0.6,0.4,1,1,1
	h5v21c0,2.2,1.8,4,4,4h16h2c2.2,0,4-1.8,4-4v-2C32,25.4,31.6,25,31,25z M6,5H2V4c0-1.1,0.9-2,2-2s2,0.9,2,2V5z M30,28
	c0,1.1-0.9,2-2,2H13.5c0.3-0.6,0.5-1.3,0.5-2v-1h16V28z"/>
<path data-color="color-2" fill="#444444" d="M31.4,2.6L31.4,2.6c-0.8-0.8-2.2-0.8-3,0l-6.8,6.8c-0.4,0.4-0.4,1,0,1.4l1.6,1.6
	c0.4,0.4,1,0.4,1.4,0l6.8-6.8C32.2,4.8,32.2,3.4,31.4,2.6z M17.2,12.7c-0.7,0.7-0.8,1.5-0.8,2.2c0,0.5-0.2,0.9-0.7,1.1
	c-0.4,0.2-0.4,0.7-0.1,0.9c1.7,1,3.9,0.9,5.3-0.4c1.1-1.1,1-2.8,0-3.8C19.9,11.7,18.2,11.7,17.2,12.7z"/>
</g><g  transform="translate(592, 80)">
<path fill="#444444" d="M23.5,0h-15C4.4,0,1,3.4,1,7.5S4.4,15,8.5,15h15c4.1,0,7.5-3.4,7.5-7.5S27.6,0,23.5,0z M8.5,12
	C6,12,4,10,4,7.5S6,3,8.5,3S13,5,13,7.5S11,12,8.5,12z"/>
<path data-color="color-2" fill="#444444" d="M23.5,17h-15C4.4,17,1,20.4,1,24.5S4.4,32,8.5,32h15c4.1,0,7.5-3.4,7.5-7.5S27.6,17,23.5,17z
	 M23.5,29C21,29,19,27,19,24.5s2-4.5,4.5-4.5s4.5,2,4.5,4.5S26,29,23.5,29z"/>
</g><g  transform="translate(16, 144)">
<path fill="#444444" d="M31,4H17c-0.6,0-1,0.4-1,1s0.4,1,1,1h14c0.6,0,1-0.4,1-1S31.6,4,31,4z"/>
<path fill="#444444" d="M1,6h6v3c0,0.6,0.4,1,1,1h5c0.6,0,1-0.4,1-1V1c0-0.6-0.4-1-1-1H8C7.4,0,7,0.4,7,1v3H1C0.4,4,0,4.4,0,5
	S0.4,6,1,6z"/>
<path fill="#444444" d="M31,26H17c-0.6,0-1,0.4-1,1s0.4,1,1,1h14c0.6,0,1-0.4,1-1S31.6,26,31,26z"/>
<path fill="#444444" d="M13,22H8c-0.6,0-1,0.4-1,1v3H1c-0.6,0-1,0.4-1,1s0.4,1,1,1h6v3c0,0.6,0.4,1,1,1h5c0.6,0,1-0.4,1-1v-8
	C14,22.4,13.6,22,13,22z"/>
<path data-color="color-2" fill="#444444" d="M31,15h-3c-0.6,0-1,0.4-1,1s0.4,1,1,1h3c0.6,0,1-0.4,1-1S31.6,15,31,15z"/>
<path data-color="color-2" fill="#444444" d="M1,17h17v3c0,0.6,0.4,1,1,1h5c0.6,0,1-0.4,1-1v-8c0-0.6-0.4-1-1-1h-5c-0.6,0-1,0.4-1,1v3H1
	c-0.6,0-1,0.4-1,1S0.4,17,1,17z"/>
</g><g  transform="translate(80, 144)">
<path fill="#444444" d="M31,4H17c-0.6,0-1,0.4-1,1s0.4,1,1,1h14c0.6,0,1-0.4,1-1S31.6,4,31,4z"/>
<path fill="#444444" d="M1,6h3.1c0.5,2.3,2.5,4,4.9,4c2.8,0,5-2.2,5-5s-2.2-5-5-5C6.6,0,4.6,1.7,4.1,4H1C0.4,4,0,4.4,0,5S0.4,6,1,6z
	"/>
<path data-color="color-2" fill="#444444" d="M31,15h-3c-0.6,0-1,0.4-1,1s0.4,1,1,1h3c0.6,0,1-0.4,1-1S31.6,15,31,15z"/>
<path data-color="color-2" fill="#444444" d="M1,17h14.1c0.5,2.3,2.5,4,4.9,4c2.8,0,5-2.2,5-5s-2.2-5-5-5c-2.4,0-4.4,1.7-4.9,4H1
	c-0.6,0-1,0.4-1,1S0.4,17,1,17z"/>
<path fill="#444444" d="M31,26H17c-0.6,0-1,0.4-1,1s0.4,1,1,1h14c0.6,0,1-0.4,1-1S31.6,26,31,26z"/>
<path fill="#444444" d="M9,22c-2.4,0-4.4,1.7-4.9,4H1c-0.6,0-1,0.4-1,1s0.4,1,1,1h3.1c0.5,2.3,2.5,4,4.9,4c2.8,0,5-2.2,5-5
	S11.8,22,9,22z"/>
</g><g  transform="translate(144, 144)">
<path fill="#444444" d="M16,0C7.2,0,0,7.2,0,16s7.2,16,16,16s16-7.2,16-16S24.8,0,16,0z M7.6,12.4c-0.5,1.1-0.7,2.4-0.7,3.6
	c0,0.6-0.4,1-1,1s-1-0.4-1-1c0-1.5,0.3-3,0.9-4.4c0.2-0.5,0.8-0.7,1.3-0.5C7.5,11.3,7.8,11.9,7.6,12.4z M16,20c-2.2,0-4-1.8-4-4
	c0-0.7,0.2-1.4,0.6-2L7.7,9.1c-0.4-0.4-0.4-1,0-1.4s1-0.4,1.4,0l4.9,4.9c0.6-0.4,1.3-0.6,2-0.6c2.2,0,4,1.8,4,4S18.2,20,16,20z
	 M26.2,17c-0.6,0-1-0.4-1-1c0-5.1-4.1-9.2-9.2-9.2c-1.3,0-2.5,0.2-3.6,0.7c-0.5,0.2-1.1,0-1.3-0.5c-0.2-0.5,0-1.1,0.5-1.3
	C13,5.1,14.5,4.8,16,4.8c6.2,0,11.2,5,11.2,11.2C27.2,16.6,26.7,17,26.2,17z"/>
</g><g  transform="translate(208, 144)">
<path fill="#444444" d="M23,12.5V7c0-3.9-3.1-7-7-7S9,3.1,9,7v5.5c-2.4,2-4,5.1-4,8.5c0,6.1,4.9,11,11,11s11-4.9,11-11
	C27,17.6,25.4,14.5,23,12.5z M17,22.9V25c0,0.6-0.4,1-1,1s-1-0.4-1-1v-2.1c-1.7-0.4-3-2-3-3.9c0-2.2,1.8-4,4-4s4,1.8,4,4
	C20,20.9,18.7,22.4,17,22.9z M21,11.2c-1.5-0.8-3.2-1.2-5-1.2s-3.5,0.4-5,1.2V7c0-2.8,2.2-5,5-5s5,2.2,5,5V11.2z"/>
</g><g  transform="translate(272, 144)">
<path fill="#444444" d="M16,10c-1.8,0-3.5,0.4-5,1.2V7c0-2.8,2.2-5,5-5s5,2.2,5,5c0,0.6,0.4,1,1,1s1-0.4,1-1c0-3.9-3.1-7-7-7
	S9,3.1,9,7v5.5c-2.4,2-4,5.1-4,8.5c0,6.1,4.9,11,11,11s11-4.9,11-11S22.1,10,16,10z M17,22.9V25c0,0.6-0.4,1-1,1s-1-0.4-1-1v-2.1
	c-1.7-0.4-3-2-3-3.9c0-2.2,1.8-4,4-4s4,1.8,4,4C20,20.9,18.7,22.4,17,22.9z"/>
</g><g  transform="translate(336, 144)">
<path fill="#444444" d="M31.3,26.3l-6.9-6.9c1.1-1.9,1.7-4.1,1.7-6.4c0-7.2-5.8-13-13-13S0,5.8,0,13s5.8,13,13,13
	c2.3,0,4.5-0.6,6.4-1.7l7,6.9c0.2,0.2,0.4,0.3,0.7,0.3s0.5-0.1,0.7-0.3l3.5-3.5C31.7,27.3,31.7,26.7,31.3,26.3z"/>
</g><g  transform="translate(400, 144)">
<path fill="#444444" d="M31.3,26.3l-6.9-6.9c1.1-1.9,1.7-4.1,1.7-6.4c0-7.2-5.8-13-13-13S0,5.8,0,13s5.8,13,13,13
	c2.3,0,4.5-0.6,6.4-1.7l6.9,6.9c0.2,0.2,0.5,0.3,0.7,0.3s0.5-0.1,0.7-0.3l3.5-3.5C31.7,27.3,31.7,26.7,31.3,26.3z M17,14h-3v3
	c0,0.6-0.4,1-1,1s-1-0.4-1-1v-3H9c-0.6,0-1-0.4-1-1s0.4-1,1-1h3V9c0-0.6,0.4-1,1-1s1,0.4,1,1v3h3c0.6,0,1,0.4,1,1S17.6,14,17,14z"/>
</g><g  transform="translate(464, 144)">
<path fill="#444444" d="M31.3,26.3l-6.9-6.9c1.1-1.9,1.7-4.1,1.7-6.4c0-7.2-5.8-13-13-13S0,5.8,0,13s5.8,13,13,13
	c2.3,0,4.5-0.6,6.4-1.7l6.9,6.9c0.2,0.2,0.5,0.3,0.7,0.3s0.5-0.1,0.7-0.3l3.5-3.5C31.7,27.3,31.7,26.7,31.3,26.3z M17,14H9
	c-0.6,0-1-0.4-1-1s0.4-1,1-1h8c0.6,0,1,0.4,1,1S17.6,14,17,14z"/>
</g><g  transform="translate(528, 144)">
<path fill="#444444" d="M30,5h-8V1c0-0.6-0.4-1-1-1H11c-0.6,0-1,0.4-1,1v4H2C1.4,5,1,5.4,1,6s0.4,1,1,1h2v24c0,0.6,0.4,1,1,1h22
	c0.6,0,1-0.4,1-1V7h2c0.6,0,1-0.4,1-1S30.6,5,30,5z M12,25c0,0.6-0.4,1-1,1s-1-0.4-1-1V14c0-0.6,0.4-1,1-1s1,0.4,1,1V25z M12,2h8v3
	h-8V2z M17,25c0,0.6-0.4,1-1,1s-1-0.4-1-1V14c0-0.6,0.4-1,1-1s1,0.4,1,1V25z M22,25c0,0.6-0.4,1-1,1s-1-0.4-1-1V14c0-0.6,0.4-1,1-1
	s1,0.4,1,1V25z"/>
</g><g  transform="translate(592, 144)">
<path fill="#444444" d="M30.7,14.2l-14-12C16.5,2.1,16.2,2,16,2c-0.2,0-0.5,0.1-0.7,0.2l-14,12c-0.4,0.4-0.5,1-0.1,1.4
	C1.4,15.9,1.7,16,2,16c0.2,0,0.5-0.1,0.7-0.2L4,14.6V30c0,0.6,0.4,1,1,1h7c0.6,0,1-0.4,1-1v-7h6v7c0,0.6,0.4,1,1,1h7
	c0.6,0,1-0.4,1-1V14.6l1.3,1.2c0.4,0.4,1.1,0.3,1.4-0.1C31.1,15.2,31.1,14.6,30.7,14.2z M19,17c0,0.6-0.4,1-1,1h-4c-0.6,0-1-0.4-1-1
	v-3c0-0.6,0.4-1,1-1h4c0.6,0,1,0.4,1,1V17z"/>
</g><g  transform="translate(16, 208)">
<path fill="#444444" d="M1.5,12.3l5.1,3.8l8.3-4.4c0.5-0.3,1,0.4,0.6,0.8L9,18v9.4c0,0.9,1.1,1.3,1.7,0.7l4.9-5.3l8.8,6.5
	c0.6,0.4,1.4,0.1,1.6-0.6l5-27c0.1-0.8-0.6-1.4-1.3-1.1l-28,10C1,10.9,0.9,11.9,1.5,12.3z"/>
</g><g  transform="translate(80, 208)">
<path data-color="color-2" fill="#444444" d="M32,8V4c0-0.6-0.4-1-1-1h-6V1c0-0.6-0.4-1-1-1s-1,0.4-1,1v2h-6V1c0-0.6-0.4-1-1-1s-1,0.4-1,1
	v2H9V1c0-0.6-0.4-1-1-1S7,0.4,7,1v2H1C0.4,3,0,3.4,0,4v4H32z"/>
<path fill="#444444" d="M0,10v21c0,0.6,0.4,1,1,1h30c0.6,0,1-0.4,1-1V10H0z"/>
</g><g  transform="translate(144, 208)">
<path data-color="color-2" fill="#444444" d="M32,8V4c0-0.6-0.4-1-1-1h-6V1c0-0.6-0.4-1-1-1s-1,0.4-1,1v2h-6V1c0-0.6-0.4-1-1-1s-1,0.4-1,1
	v2H9V1c0-0.6-0.4-1-1-1S7,0.4,7,1v2H1C0.4,3,0,3.4,0,4v4H32z"/>
<path fill="#444444" d="M0,10v21c0,0.6,0.4,1,1,1h30c0.6,0,1-0.4,1-1V10H0z M11,26c0,0.6-0.4,1-1,1H6c-0.6,0-1-0.4-1-1v-3
	c0-0.6,0.4-1,1-1h4c0.6,0,1,0.4,1,1V26z M11,19c0,0.6-0.4,1-1,1H6c-0.6,0-1-0.4-1-1v-3c0-0.6,0.4-1,1-1h4c0.6,0,1,0.4,1,1V19z
	 M19,26c0,0.6-0.4,1-1,1h-4c-0.6,0-1-0.4-1-1v-3c0-0.6,0.4-1,1-1h4c0.6,0,1,0.4,1,1V26z M19,19c0,0.6-0.4,1-1,1h-4c-0.6,0-1-0.4-1-1
	v-3c0-0.6,0.4-1,1-1h4c0.6,0,1,0.4,1,1V19z M27,19c0,0.6-0.4,1-1,1h-4c-0.6,0-1-0.4-1-1v-3c0-0.6,0.4-1,1-1h4c0.6,0,1,0.4,1,1V19z"/>
</g><g  transform="translate(208, 208)">
<path data-color="color-2" fill="#444444" d="M32,8V4c0-0.6-0.4-1-1-1h-6V1c0-0.6-0.4-1-1-1s-1,0.4-1,1v2h-6V1c0-0.6-0.4-1-1-1s-1,0.4-1,1
	v2H9V1c0-0.6-0.4-1-1-1S7,0.4,7,1v2H1C0.4,3,0,3.4,0,4v4H32z"/>
<path fill="#444444" d="M0,10v21c0,0.6,0.4,1,1,1h30c0.6,0,1-0.4,1-1V10H0z M22.7,17.7l-8,8C14.5,25.9,14.3,26,14,26
	s-0.5-0.1-0.7-0.3l-4-4c-0.4-0.4-0.4-1,0-1.4s1-0.4,1.4,0l3.3,3.3l7.3-7.3c0.4-0.4,1-0.4,1.4,0S23.1,17.3,22.7,17.7z"/>
</g><g  transform="translate(272, 208)">
<path fill="#444444" d="M25.5,0c-3.8,0-7.7,2.3-10.1,6H4c-2.2,0-4,3-4,6.5S1.8,19,4,19h1.6l6.2,10.7c0.7,1.2,1.9,1.8,3.2,1.8
	c0.6,0,1.3-0.2,1.9-0.5c1.8-1,2.4-3.3,1.3-5.1l-4-6.9h1.2c2.3,3.7,6.2,6,10.1,6c3.6,0,6.5-5.5,6.5-12.5S29.1,0,25.5,0z M25.5,23
	c-1.5,0-3.1-2.1-3.9-5.4c2.2-0.7,3.9-2.7,3.9-5.1c0-2.4-1.7-4.6-3.9-5.3C22.5,4,24.1,2,25.5,2C27.6,2,30,6.3,30,12.5
	S27.6,23,25.5,23z"/>
</g><g  transform="translate(336, 208)">
<path data-color="color-2" fill="#444444" d="M26,32H1c-0.6,0-1-0.4-1-1V6c0-0.6,0.4-1,1-1h12c0.6,0,1,0.4,1,1s-0.4,1-1,1H2v23h23V19
	c0-0.6,0.4-1,1-1s1,0.4,1,1v12C27,31.6,26.6,32,26,32z"/>
<path fill="#444444" d="M21.3,5.7l-11,11c-0.2,0.2-0.3,0.4-0.3,0.7V21c0,0.6,0.4,1,1,1h3.6c0.3,0,0.5-0.1,0.7-0.3l11-11L21.3,5.7z"/>
<path data-color="color-2" fill="#444444" d="M29.3,6.3l-3.6-3.6c-0.4-0.4-1-0.4-1.4,0l-1.6,1.6l5,5l1.6-1.6C29.7,7.3,29.7,6.7,29.3,6.3z"/>
</g><g  transform="translate(400, 208)">
<path fill="#444444" d="M30.3,5.9l-4.2-4.2c-1.1-1.1-3.1-1.1-4.2,0L2.3,21.3c-0.1,0.1-0.2,0.2-0.2,0.3c0,0,0,0.1,0,0.1
	c0,0.1,0,0.1,0,0.2l-1,8c0,0.3,0.1,0.6,0.3,0.8C1.5,30.9,1.7,31,2,31c0,0,0.1,0,0.1,0l8-1c0.1,0,0.1,0,0.2,0c0,0,0.1,0,0.1,0
	c0.1,0,0.2-0.1,0.3-0.2l19.6-19.6C31.5,9,31.5,7,30.3,5.9z M25,12.6L19.4,7L21,5.4l5.6,5.6L25,12.6z M10,27.6l-2.1-2.1l13.6-13.6
	l2.1,2.1L10,27.6z M18,8.4l2.1,2.1L6.5,24.1L4.4,22L18,8.4z"/>
</g><g  transform="translate(464, 208)">
<path data-color="color-2" fill="#444444" d="M29,32H1c-0.6,0-1-0.4-1-1V3c0-0.6,0.4-1,1-1h11c0.6,0,1,0.4,1,1s-0.4,1-1,1H2v26h26V20
	c0-0.6,0.4-1,1-1s1,0.4,1,1v11C30,31.6,29.6,32,29,32z"/>
<path fill="#444444" d="M30.7,1.3C30.5,1.1,30.3,1,30,1c-0.4,0-8.8,0.1-14,5.3c-3.1,3.1-3.6,6.5-3.5,9l3.2-1.8
	c0.5-0.3,1,0.4,0.6,0.8l-7,7c-0.4,0.4-0.4,1,0,1.4C9.5,22.9,9.7,23,10,23s0.5-0.1,0.7-0.3l3.5-3.5c0.6,0.2,1.7,0.4,3,0.4
	c2.2,0,5.5-0.6,8.4-3.6C30.9,10.8,31,2.4,31,2C31,1.7,30.9,1.5,30.7,1.3z"/>
</g><g  transform="translate(528, 208)">
<path fill="#444444" d="M31,4H1C0.4,4,0,4.4,0,5v22c0,0.6,0.4,1,1,1h30c0.6,0,1-0.4,1-1V5C32,4.4,31.6,4,31,4z M9.8,17.6l-4,5
	C5.6,22.9,5.3,23,5,23c-0.2,0-0.4-0.1-0.6-0.2c-0.4-0.3-0.5-1-0.2-1.4l4-5c0.3-0.4,1-0.5,1.4-0.2C10.1,16.6,10.1,17.2,9.8,17.6z
	 M27.6,22.8C27.4,22.9,27.2,23,27,23c-0.3,0-0.6-0.1-0.8-0.4l-4-5c-0.3-0.4-0.3-1.1,0.2-1.4c0.4-0.3,1.1-0.3,1.4,0.2l4,5
	C28.1,21.8,28.1,22.4,27.6,22.8z M27.6,9.8l-11,9C16.4,18.9,16.2,19,16,19s-0.4-0.1-0.6-0.2l-11-9c-0.4-0.4-0.5-1-0.1-1.4
	c0.4-0.4,1-0.5,1.4-0.1L16,16.7l10.4-8.5c0.4-0.3,1.1-0.3,1.4,0.1C28.1,8.8,28.1,9.4,27.6,9.8z"/>
</g><g  transform="translate(592, 208)">
<path fill="#444444" d="M16,31c-5,0-9-4-9-9V7.5C7,3.9,9.9,1,13.5,1S20,3.9,20,7.5V21c0,2.2-1.8,4-4,4s-4-1.8-4-4V8c0-0.6,0.4-1,1-1
	s1,0.4,1,1v13c0,1.1,0.9,2,2,2s2-0.9,2-2V7.5C18,5,16,3,13.5,3S9,5,9,7.5V22c0,3.9,3.1,7,7,7s7-3.1,7-7V8c0-0.6,0.4-1,1-1s1,0.4,1,1
	v14C25,27,21,31,16,31z"/>
</g><g  transform="translate(16, 272)">
<path fill="#444444" d="M22.8,0c-2.6,0-5.1,1.1-6.8,3.1C14.3,1.1,11.8,0,9.2,0C4.1,0,0,4.2,0,9.3c0,8.7,14.7,21,15.4,21.5
	c0.2,0.2,0.4,0.2,0.6,0.2s0.5-0.1,0.6-0.2C17.3,30.3,32,17.9,32,9.3C32,4.2,27.9,0,22.8,0z"/>
</g><g  transform="translate(80, 272)">
<path fill="#444444" d="M22.8,0c-2.6,0-5.1,1.1-6.8,3.1C14.3,1.1,11.8,0,9.2,0C4.1,0,0,4.2,0,9.3c0,8.7,14.7,21,15.4,21.5
	c0.2,0.2,0.4,0.2,0.6,0.2s0.5-0.1,0.6-0.2c0.1-0.1,1.4-1.2,3.3-3C21.2,29.2,23,30,25,30c3.9,0,7-3.1,7-7c0-2.4-1.2-4.4-3-5.7
	c2-3,3-5.7,3-8C32,4.2,27.9,0,22.8,0z M30,23c0,2.8-2.2,5-5,5s-5-2.2-5-5s2.2-5,5-5S30,20.2,30,23z"/>
<path data-color="color-2" fill="#444444" d="M27,22h-1v-1c0-0.6-0.4-1-1-1s-1,0.4-1,1v1h-1c-0.6,0-1,0.4-1,1s0.4,1,1,1h1v1
	c0,0.6,0.4,1,1,1s1-0.4,1-1v-1h1c0.6,0,1-0.4,1-1S27.6,22,27,22z"/>
</g><g  transform="translate(144, 272)">
<path fill="#444444" d="M29.2,17.4c2-3.1,3-5.8,3-8.1C32.2,4.2,28.1,0,23,0c-2.6,0-5.1,1.1-6.8,3.1C14.5,1.1,12,0,9.4,0
	C4.3,0,0.2,4.2,0.2,9.3c0,8.7,14.7,21,15.4,21.5c0.2,0.2,0.4,0.2,0.6,0.2s0.5-0.1,0.6-0.2c0.1-0.1,1.4-1.1,3.2-2.9
	c1.3,1.3,3,2.1,5,2.1c3.9,0,7-3.1,7-7C32,20.7,30.9,18.7,29.2,17.4z M25,28c-2.8,0-5-2.2-5-5s2.2-5,5-5s5,2.2,5,5S27.8,28,25,28z"/>
<path data-color="color-2" fill="#444444" d="M27,22h-4c-0.6,0-1,0.4-1,1s0.4,1,1,1h4c0.6,0,1-0.4,1-1S27.6,22,27,22z"/>
</g><g  transform="translate(208, 272)">
<path data-color="color-2" fill="#444444" d="M1.7,11.8c0.4,0,0.7-0.2,0.9-0.5c2.1-3.8,5.8-6.6,10-7.5C13,3.7,13.3,3.4,13.3,3
	c0.1-0.4,0-0.7-0.3-1c-1.5-1.3-3.3-2-5.2-2C3.5,0,0,3.5,0,7.8c0,1.2,0.3,2.3,0.8,3.4C1,11.6,1.3,11.8,1.7,11.8
	C1.7,11.8,1.7,11.8,1.7,11.8z"/>
<path data-color="color-2" fill="#444444" d="M24.2,0c-1.9,0-3.8,0.7-5.2,2c-0.3,0.3-0.4,0.6-0.3,1c0.1,0.4,0.4,0.6,0.7,0.7
	c4.2,1,7.9,3.7,10,7.5c0.2,0.3,0.5,0.5,0.9,0.5c0,0,0,0,0,0c0.4,0,0.7-0.2,0.9-0.6C31.7,10.1,32,9,32,7.8C32,3.5,28.5,0,24.2,0z"/>
<path fill="#444444" d="M30.7,30.3l-4.4-4.4C28,23.7,29,21,29,18c0-7.2-5.8-13-13-13S3,10.8,3,18c0,3,1,5.7,2.7,7.9l-4.4,4.4
	c-0.4,0.4-0.4,1,0,1.4C1.5,31.9,1.7,32,2,32s0.5-0.1,0.7-0.3L7,27.4c2.3,2.2,5.5,3.6,9,3.6s6.6-1.4,9-3.6l4.3,4.3
	c0.2,0.2,0.5,0.3,0.7,0.3s0.5-0.1,0.7-0.3C31.1,31.3,31.1,30.7,30.7,30.3z M22,19h-6c-0.6,0-1-0.4-1-1v-6c0-0.6,0.4-1,1-1s1,0.4,1,1
	v5h5c0.6,0,1,0.4,1,1S22.6,19,22,19z"/>
</g><g  transform="translate(272, 272)">
<path fill="#444444" d="M4,21c0,0.6,0.4,1,1,1h25c0.6,0,1-0.4,1-1s-0.4-1-1-1H6v-2h19c0.5,0,0.9-0.3,1-0.8l3-12
	c0.1-0.3,0-0.6-0.2-0.9S28.3,4,28,4H6V1c0-0.6-0.4-1-1-1H1C0.4,0,0,0.4,0,1s0.4,1,1,1h3V21z"/>
<circle data-color="color-2" fill="#444444" cx="7" cy="28" r="3"/>
<circle data-color="color-2" fill="#444444" cx="28" cy="28" r="3"/>
</g><g  transform="translate(336, 272)">
<circle data-color="color-2" fill="#444444" cx="7" cy="28" r="3"/>
<circle data-color="color-2" fill="#444444" cx="28" cy="28" r="3"/>
<path fill="#444444" d="M30,20H6v-2h19c0.5,0,0.9-0.3,1-0.8l3-12c0.1-0.3,0-0.6-0.2-0.9C28.6,4.1,28.3,4,28,4H17v6.6l2.3-2.3
	c0.4-0.4,1-0.4,1.4,0s0.4,1,0,1.4l-4,4c-0.1,0.1-0.2,0.2-0.3,0.2C16.3,14,16.1,14,16,14s-0.3,0-0.4-0.1c-0.1-0.1-0.2-0.1-0.3-0.2
	l-4-4c-0.4-0.4-0.4-1,0-1.4s1-0.4,1.4,0l2.3,2.3V4H6V1c0-0.6-0.4-1-1-1H1C0.4,0,0,0.4,0,1s0.4,1,1,1h3v19c0,0.6,0.4,1,1,1h25
	c0.6,0,1-0.4,1-1S30.6,20,30,20z"/>
</g><g  transform="translate(400, 272)">
<path fill="#444444" d="M28,12h-7V8c0-3.1-1.9-6.7-5.4-7.7c-0.6-0.2-1.3-0.1-1.8,0.3C13.3,1,13,1.5,13,2.2v5.5l-5,6.4v15.5l1.9,1
	c1.9,0.9,4,1.4,6.1,1.4h10c2.2,0,4.1-1.6,4.5-3.9l1.5-12c0,0,0-0.1,0-0.1C32,13.8,30.2,12,28,12z"/>
<path data-color="color-2" fill="#444444" d="M5,13H1c-0.6,0-1,0.4-1,1v17c0,0.6,0.4,1,1,1h4c0.6,0,1-0.4,1-1V14C6,13.4,5.6,13,5,13z"/>
</g><g  transform="translate(464, 272)">
<path data-color="color-2" fill="#444444" d="M32,6V4c0-0.6-0.4-1-1-1H6v3H32z"/>
<path data-color="color-2" fill="#444444" d="M4,6V3H1C0.4,3,0,3.4,0,4v2H4z"/>
<path fill="#444444" d="M0,8v20c0,0.6,0.4,1,1,1h30c0.6,0,1-0.4,1-1V8H0z M20,19h-3v3c0,0.6-0.4,1-1,1s-1-0.4-1-1v-3h-3
	c-0.6,0-1-0.4-1-1s0.4-1,1-1h3v-3c0-0.6,0.4-1,1-1s1,0.4,1,1v3h3c0.6,0,1,0.4,1,1S20.6,19,20,19z"/>
</g><g  transform="translate(528, 272)">
<path data-color="color-2" fill="#444444" d="M4,6V3H1C0.4,3,0,3.4,0,4v2H4z"/>
<path data-color="color-2" fill="#444444" d="M32,6V4c0-0.6-0.4-1-1-1H6v3H32z"/>
<path fill="#444444" d="M0,8v20c0,0.6,0.4,1,1,1h30c0.6,0,1-0.4,1-1V8H0z M20,19h-8c-0.6,0-1-0.4-1-1s0.4-1,1-1h8c0.6,0,1,0.4,1,1
	S20.6,19,20,19z"/>
</g><g  transform="translate(592, 272)">
<path fill="#444444" d="M19,0h-6C9.1,0,6,3.1,6,7v18c0,3.9,3.1,7,7,7h6c3.9,0,7-3.1,7-7V7C26,3.1,22.9,0,19,0z M15,5
	c0-0.6,0.4-1,1-1s1,0.4,1,1v2c0,0.6-0.4,1-1,1s-1-0.4-1-1V5z M21,12H11c-0.6,0-1-0.4-1-1s0.4-1,1-1h10c0.6,0,1,0.4,1,1
	S21.6,12,21,12z"/>
</g></svg>