<svg xmlns="http://www.w3.org/2000/svg" xmlns:xlink="http://www.w3.org/1999/xlink" x="0px" y="0px" width="640px" height="320px" viewBox="0 0 640 320"><g  transform="translate(16, 16)">
<rect data-color="color-2" x="8" y="7" fill="none" stroke="#444444" stroke-width="2" stroke-linecap="square" stroke-miterlimit="10" width="16" height="10" stroke-linejoin="square"/>
<path fill="none" stroke="#444444" stroke-width="2" stroke-linecap="square" stroke-miterlimit="10" d="M28,21H4l-2.5,6.6
	C1.3,28.3,1.7,29,2.4,29h27.1c0.7,0,1.2-0.7,0.9-1.4L28,21z" stroke-linejoin="square"/>
<path fill="none" stroke="#444444" stroke-width="2" stroke-linecap="square" stroke-miterlimit="10" d="M28,21V5c0-1.1-0.9-2-2-2H6
	C4.9,3,4,3.9,4,5v16" stroke-linejoin="square"/>
</g><g  transform="translate(80, 16)">
<line data-color="color-2" fill="none" stroke="#444444" stroke-width="2" stroke-linecap="square" stroke-miterlimit="10" x1="19" y1="25" x2="19" y2="30" stroke-linejoin="square"/>
<line data-color="color-2" fill="none" stroke="#444444" stroke-width="2" stroke-linecap="square" stroke-miterlimit="10" x1="13" y1="30" x2="13" y2="25" stroke-linejoin="square"/>
<line data-color="color-2" fill="none" stroke="#444444" stroke-width="2" stroke-linecap="square" stroke-miterlimit="10" x1="9" y1="30" x2="23" y2="30" stroke-linejoin="square"/>
<line data-color="color-2" fill="none" stroke="#444444" stroke-width="2" stroke-linecap="square" stroke-miterlimit="10" x1="15" y1="6" x2="17" y2="6" stroke-linejoin="square"/>
<path fill="none" stroke="#444444" stroke-width="2" stroke-linecap="square" stroke-miterlimit="10" d="M29,25H3c-1.1,0-2-0.9-2-2
	V4c0-1.1,0.9-2,2-2h26c1.1,0,2,0.9,2,2v19C31,24.1,30.1,25,29,25z" stroke-linejoin="square"/>
<line fill="none" stroke="#444444" stroke-width="2" stroke-linecap="square" stroke-miterlimit="10" x1="1" y1="19" x2="31" y2="19" stroke-linejoin="square"/>
</g><g  transform="translate(144, 16)">
<line data-color="color-2" fill="none" stroke="#444444" stroke-width="2" stroke-linecap="square" stroke-miterlimit="10" x1="6" y1="27" x2="13" y2="27" stroke-linejoin="square"/>
<polyline data-color="color-2" fill="none" stroke="#444444" stroke-width="2" stroke-linecap="square" stroke-miterlimit="10" points="
	13,23 1,23 1,5 13,5 " stroke-linejoin="square"/>
<polyline data-color="color-2" fill="none" stroke="#444444" stroke-width="2" stroke-linecap="square" stroke-miterlimit="10" points="
	13,19 5,19 5,9 13,9 " stroke-linejoin="square"/>
<rect x="13" y="1" fill="none" stroke="#444444" stroke-width="2" stroke-linecap="square" stroke-miterlimit="10" width="18" height="30" stroke-linejoin="square"/>
<line fill="none" stroke="#444444" stroke-width="2" stroke-linecap="square" stroke-miterlimit="10" x1="19" y1="8" x2="25" y2="8" stroke-linejoin="square"/>
<line fill="none" stroke="#444444" stroke-width="2" stroke-linecap="square" stroke-miterlimit="10" x1="19" y1="13" x2="25" y2="13" stroke-linejoin="square"/>
<circle fill="none" stroke="#444444" stroke-width="2" stroke-linecap="square" stroke-miterlimit="10" cx="22" cy="21" r="3" stroke-linejoin="square"/>
</g><g  transform="translate(208, 16)">
<line data-color="color-2" fill="none" stroke="#444444" stroke-width="2" stroke-linecap="square" stroke-miterlimit="10" x1="8" y1="28" x2="24" y2="28" stroke-linejoin="square"/>
<polygon data-color="color-2" fill="none" stroke="#444444" stroke-width="2" stroke-linecap="square" stroke-miterlimit="10" points="
	13,10 19,14 13,18 " stroke-linejoin="square"/>
<rect x="1" y="4" fill="none" stroke="#444444" stroke-width="2" stroke-linecap="square" stroke-miterlimit="10" width="30" height="19" stroke-linejoin="square"/>
</g><g  transform="translate(272, 16)">
<path data-color="color-2" fill="none" stroke="#444444" stroke-width="2" stroke-linecap="square" stroke-miterlimit="10" d="M19,1L19,1
	c4.4,0,8,3.6,8,8v0" stroke-linejoin="square"/>
<path data-color="color-2" fill="none" stroke="#444444" stroke-width="2" stroke-linecap="square" stroke-miterlimit="10" d="M5,23L5,23
	c0,4.4,3.6,8,8,8h0" stroke-linejoin="square"/>
<path fill="none" stroke="#444444" stroke-width="2" stroke-linecap="square" stroke-miterlimit="10" d="M12,19H3c-1.1,0-2-0.9-2-2
	V3c0-1.1,0.9-2,2-2h9c1.1,0,2,0.9,2,2v14C14,18.1,13.1,19,12,19z" stroke-linejoin="square"/>
<path fill="none" stroke="#444444" stroke-width="2" stroke-linecap="square" stroke-miterlimit="10" d="M29,31h-9c-1.1,0-2-0.9-2-2
	V15c0-1.1,0.9-2,2-2h9c1.1,0,2,0.9,2,2v14C31,30.1,30.1,31,29,31z" stroke-linejoin="square"/>
<line fill="none" stroke="#444444" stroke-width="2" stroke-linecap="square" stroke-miterlimit="10" x1="1" y1="5" x2="14" y2="5" stroke-linejoin="square"/>
<line fill="none" stroke="#444444" stroke-width="2" stroke-linecap="square" stroke-miterlimit="10" x1="1" y1="13" x2="14" y2="13" stroke-linejoin="square"/>
<line fill="none" stroke="#444444" stroke-width="2" stroke-linecap="square" stroke-miterlimit="10" x1="7" y1="16" x2="8" y2="16" stroke-linejoin="square"/>
<line fill="none" stroke="#444444" stroke-width="2" stroke-linecap="square" stroke-miterlimit="10" x1="18" y1="17" x2="31" y2="17" stroke-linejoin="square"/>
<line fill="none" stroke="#444444" stroke-width="2" stroke-linecap="square" stroke-miterlimit="10" x1="18" y1="25" x2="31" y2="25" stroke-linejoin="square"/>
<line fill="none" stroke="#444444" stroke-width="2" stroke-linecap="square" stroke-miterlimit="10" x1="24" y1="28" x2="25" y2="28" stroke-linejoin="square"/>
</g><g  transform="translate(336, 16)">
<polyline data-color="color-2" fill="none" stroke="#444444" stroke-width="2" stroke-linecap="square" stroke-miterlimit="10" points="
	7,8 7,1 25,1 25,8 " stroke-linejoin="square"/>
<polyline fill="none" stroke="#444444" stroke-width="2" stroke-linecap="square" stroke-miterlimit="10" points="7,24 1,24 1,8 
	31,8 31,24 25,24 " stroke-linejoin="square"/>
<rect data-color="color-2" x="7" y="16" fill="none" stroke="#444444" stroke-width="2" stroke-linecap="square" stroke-miterlimit="10" width="18" height="15" stroke-linejoin="square"/>
<line data-color="color-2" fill="none" stroke="#444444" stroke-width="2" stroke-linecap="square" stroke-miterlimit="10" x1="12" y1="21" x2="20" y2="21" stroke-linejoin="square"/>
<line data-color="color-2" fill="none" stroke="#444444" stroke-width="2" stroke-linecap="square" stroke-miterlimit="10" x1="12" y1="26" x2="20" y2="26" stroke-linejoin="square"/>
</g><g  transform="translate(400, 16)">
<path data-cap="butt" fill="none" stroke="#444444" stroke-width="2" stroke-miterlimit="10" d="M22.4,5H29c1.1,0,2,0.9,2,2v22
	c0,1.1-0.9,2-2,2H3c-1.1,0-2-0.9-2-2V7c0-1.1,0.9-2,2-2h6.6" stroke-linejoin="square" stroke-linecap="butt"/>
<polyline data-cap="butt" fill="none" stroke="#444444" stroke-width="2" stroke-miterlimit="10" points="23,9 27,9 27,27 5,27 5,9 
	9,9 " stroke-linejoin="square" stroke-linecap="butt"/>
<line data-cap="butt" fill="none" stroke="#444444" stroke-width="2" stroke-miterlimit="10" x1="5" y1="27" x2="13.3" y2="16" stroke-linejoin="square" stroke-linecap="butt"/>
<line data-cap="butt" fill="none" stroke="#444444" stroke-width="2" stroke-miterlimit="10" x1="27" y1="27" x2="18.7" y2="16" stroke-linejoin="square" stroke-linecap="butt"/>
<path data-color="color-2" fill="none" stroke="#444444" stroke-width="2" stroke-linecap="square" stroke-miterlimit="10" d="M23,7.8
	C23,12,16,19,16,19S9,12,9,7.8C9,3.5,12.6,1,16,1S23,3.5,23,7.8z" stroke-linejoin="square"/>
<circle data-color="color-2" fill="none" stroke="#444444" stroke-width="2" stroke-linecap="square" stroke-miterlimit="10" cx="16" cy="8" r="2" stroke-linejoin="square"/>
<line fill="none" stroke="#444444" stroke-width="2" stroke-linecap="square" stroke-miterlimit="10" x1="16" y1="27" x2="16" y2="24" stroke-linejoin="square"/>
</g><g  transform="translate(464, 16)">
<path fill="none" stroke="#444444" stroke-width="2" stroke-linecap="square" stroke-miterlimit="10" d="M23,29H9c-4.4,0-8-3.6-8-8
	v0c0-4.4,3.6-8,8-8h14c4.4,0,8,3.6,8,8v0C31,25.4,27.4,29,23,29z" stroke-linejoin="square"/>
<line data-color="color-2" fill="none" stroke="#444444" stroke-width="2" stroke-linecap="square" stroke-miterlimit="10" x1="9" y1="18" x2="9" y2="24" stroke-linejoin="square"/>
<line data-color="color-2" fill="none" stroke="#444444" stroke-width="2" stroke-linecap="square" stroke-miterlimit="10" x1="6" y1="21" x2="12" y2="21" stroke-linejoin="square"/>
<line data-color="color-2" fill="none" stroke="#444444" stroke-width="2" stroke-linecap="square" stroke-miterlimit="10" x1="22" y1="20" x2="24" y2="18" stroke-linejoin="square"/>
<line data-color="color-2" fill="none" stroke="#444444" stroke-width="2" stroke-linecap="square" stroke-miterlimit="10" x1="23" y1="24" x2="25" y2="22" stroke-linejoin="square"/>
<line data-color="color-2" fill="none" stroke="#444444" stroke-width="2" stroke-linecap="square" stroke-miterlimit="10" x1="16" y1="9" x2="16" y2="3" stroke-linejoin="square"/>
</g><g  transform="translate(528, 16)">
<path data-cap="butt" fill="none" stroke="#444444" stroke-width="2" stroke-miterlimit="10" d="M23.9,25.3l4.8,3.6
	c1,0.8,2.5-0.1,2.3-1.4l-2.8-14.1c-0.4-2.2-2.3-3.7-4.5-3.7c-1.2,0-2.4,0.5-3.3,1.4L19.5,12h-6.9l-0.9-0.9c-0.9-0.9-2-1.4-3.3-1.4
	c-2.2,0-4.1,1.6-4.5,3.7L1,27.5c-0.3,1.3,1.2,2.2,2.3,1.4l4.8-3.6" stroke-linejoin="square" stroke-linecap="butt"/>
<line data-color="color-2" fill="none" stroke="#444444" stroke-width="2" stroke-linecap="square" stroke-miterlimit="10" x1="16" y1="8" x2="16" y2="2" stroke-linejoin="square"/>
<line fill="none" stroke="#444444" stroke-width="2" stroke-linecap="square" stroke-miterlimit="10" x1="19" y1="23" x2="13" y2="23" stroke-linejoin="square"/>
<circle data-color="color-2" fill="none" stroke="#444444" stroke-width="2" stroke-linecap="square" stroke-miterlimit="10" cx="10" cy="23" r="3" stroke-linejoin="square"/>
<circle data-color="color-2" fill="none" stroke="#444444" stroke-width="2" stroke-linecap="square" stroke-miterlimit="10" cx="22" cy="23" r="3" stroke-linejoin="square"/>
</g><g  transform="translate(592, 16)">
<line data-cap="butt" data-color="color-2" fill="none" stroke="#444444" stroke-width="2" stroke-miterlimit="10" x1="23" y1="28" x2="29" y2="22" stroke-linejoin="square" stroke-linecap="butt"/>
<line data-cap="butt" data-color="color-2" fill="none" stroke="#444444" stroke-width="2" stroke-miterlimit="10" x1="12" y1="5" x2="6" y2="11" stroke-linejoin="square" stroke-linecap="butt"/>
<polyline data-color="color-2" fill="none" stroke="#444444" stroke-width="2" stroke-linecap="square" stroke-miterlimit="10" points="
	9.5,14.5 3,8 9,2 15.5,8.5 " stroke-linejoin="square"/>
<polyline data-color="color-2" fill="none" stroke="#444444" stroke-width="2" stroke-linecap="square" stroke-miterlimit="10" points="
	22.5,15.5 29,22 30,29 23,28 16.5,21.5 " stroke-linejoin="square"/>
<rect x="10.6" y="1.4" transform="matrix(0.7071 0.7071 -0.7071 0.7071 15.5 -6.4203)" fill="none" stroke="#444444" stroke-width="2" stroke-linecap="square" stroke-miterlimit="10" width="9.9" height="28.3" stroke-linejoin="square"/>
<line fill="none" stroke="#444444" stroke-width="2" stroke-linecap="square" stroke-miterlimit="10" x1="12" y1="12" x2="15" y2="15" stroke-linejoin="square"/>
<line fill="none" stroke="#444444" stroke-width="2" stroke-linecap="square" stroke-miterlimit="10" x1="9" y1="15" x2="11" y2="17" stroke-linejoin="square"/>
<line fill="none" stroke="#444444" stroke-width="2" stroke-linecap="square" stroke-miterlimit="10" x1="18" y1="6" x2="21" y2="9" stroke-linejoin="square"/>
<line fill="none" stroke="#444444" stroke-width="2" stroke-linecap="square" stroke-miterlimit="10" x1="15" y1="9" x2="17" y2="11" stroke-linejoin="square"/>
<line fill="none" stroke="#444444" stroke-width="2" stroke-linecap="square" stroke-miterlimit="10" x1="6" y1="18" x2="9" y2="21" stroke-linejoin="square"/>
</g><g  transform="translate(16, 80)">
<path data-cap="butt" data-color="color-2" fill="none" stroke="#444444" stroke-width="2" stroke-miterlimit="10" d="M19,9.4c4.7,1.3,8,5.5,8,10.6v1" stroke-linejoin="square" stroke-linecap="butt"/>
<path data-cap="butt" data-color="color-2" fill="none" stroke="#444444" stroke-width="2" stroke-miterlimit="10" d="M5,21v-1c0-5,3.4-9.3,8-10.6" stroke-linejoin="square" stroke-linecap="butt"/>
<line data-color="color-2" fill="none" stroke="#444444" stroke-width="2" stroke-linecap="square" stroke-miterlimit="10" x1="7" y1="8" x2="13" y2="8" stroke-linejoin="square"/>
<line data-color="color-2" fill="none" stroke="#444444" stroke-width="2" stroke-linecap="square" stroke-miterlimit="10" x1="19" y1="8" x2="25" y2="8" stroke-linejoin="square"/>
<circle fill="none" stroke="#444444" stroke-width="2" stroke-linecap="square" stroke-miterlimit="10" cx="4" cy="8" r="3" stroke-linejoin="square"/>
<circle fill="none" stroke="#444444" stroke-width="2" stroke-linecap="square" stroke-miterlimit="10" cx="28" cy="8" r="3" stroke-linejoin="square"/>
<rect x="13" y="5" fill="none" stroke="#444444" stroke-width="2" stroke-linecap="square" stroke-miterlimit="10" width="6" height="6" stroke-linejoin="square"/>
<rect x="2" y="21" fill="none" stroke="#444444" stroke-width="2" stroke-linecap="square" stroke-miterlimit="10" width="6" height="6" stroke-linejoin="square"/>
<rect x="24" y="21" fill="none" stroke="#444444" stroke-width="2" stroke-linecap="square" stroke-miterlimit="10" width="6" height="6" stroke-linejoin="square"/>
</g><g  transform="translate(80, 80)">
<line data-cap="butt" data-color="color-2" fill="none" stroke="#444444" stroke-width="2" stroke-miterlimit="10" x1="22" y1="5" x2="27" y2="10" stroke-linejoin="square" stroke-linecap="butt"/>
<path fill="none" stroke="#444444" stroke-width="2" stroke-linecap="square" stroke-miterlimit="10" d="M17,20l-5-5L23.5,3.5
	c1.4-1.4,3.6-1.4,5,0l0,0c1.4,1.4,1.4,3.6,0,5L17,20z" stroke-linejoin="square"/>
<path data-color="color-2" fill="none" stroke="#444444" stroke-width="2" stroke-linecap="square" stroke-miterlimit="10" d="M12.1,20
	c-1.5-1.5-4-1.5-5.5,0c-1,1-1.1,2.2-1.1,3.1c0,1-0.7,1.9-2.4,1.9c2.4,2.4,6.6,2.8,9,0.4C13.7,23.9,13.4,21.4,12.1,20z" stroke-linejoin="square"/>
</g><g  transform="translate(144, 80)">
<polygon fill="none" stroke="#444444" stroke-width="2" stroke-linecap="square" stroke-miterlimit="10" points="3,3 3,10 5,10 8,7 
	14,7 14,24 11,27 11,29 21,29 21,27 18,24 18,7 24,7 27,10 29,10 29,3 " stroke-linejoin="square"/>
</g><g  transform="translate(208, 80)">
<polyline data-cap="butt" fill="none" stroke="#444444" stroke-width="2" stroke-miterlimit="10" points="16,7 6,11 3,29 21,26 25,16 
	" stroke-linejoin="square" stroke-linecap="butt"/>
<line data-cap="butt" fill="none" stroke="#444444" stroke-width="2" stroke-miterlimit="10" x1="3" y1="29" x2="11.6" y2="20.4" stroke-linejoin="square" stroke-linecap="butt"/>
<rect data-color="color-2" x="12.8" y="7.9" transform="matrix(-0.7071 -0.7071 0.7071 -0.7071 30.4853 32.6274)" fill="none" stroke="#444444" stroke-width="2" stroke-linecap="square" stroke-miterlimit="10" width="18.4" height="4.2" stroke-linejoin="square"/>
<circle fill="none" stroke="#444444" stroke-width="2" stroke-linecap="square" stroke-miterlimit="10" cx="13" cy="19" r="2" stroke-linejoin="square"/>
</g><g  transform="translate(272, 80)">
<path data-cap="butt" fill="none" stroke="#444444" stroke-width="2" stroke-miterlimit="10" d="M3.3,16.9l15.3,11.2
	c1.1,1.1,4.6-0.5,7.7-3.6s4.7-6.5,3.6-7.7L18.6,1.6" stroke-linejoin="square" stroke-linecap="butt"/>
<path data-color="color-2" fill="none" stroke="#444444" stroke-width="2" stroke-linecap="square" stroke-miterlimit="10" d="M2,28
	c0-1.1,2-4,2-4s2,2.9,2,4s-0.9,2-2,2S2,29.1,2,28z" stroke-linejoin="square"/>
<path data-cap="butt" fill="none" stroke="#444444" stroke-width="2" stroke-miterlimit="10" d="M18,15h4.5c3.6,0,6.5-2.9,6.5-6.5v0
	C29,4.9,26.1,2,22.5,2h-3.6" stroke-linejoin="square" stroke-linecap="butt"/>
<ellipse transform="matrix(0.7071 -0.7071 0.7071 0.7071 -3.3394 10.4609)" fill="none" stroke="#444444" stroke-width="2" stroke-linecap="square" stroke-miterlimit="10" cx="11" cy="9.3" rx="10.8" ry="4.3" stroke-linejoin="square"/>
</g><g  transform="translate(336, 80)">
<line data-cap="butt" data-color="color-2" fill="none" stroke="#444444" stroke-width="2" stroke-miterlimit="10" x1="11" y1="16" x2="19" y2="16" stroke-linejoin="square" stroke-linecap="butt"/>
<path fill="none" stroke="#444444" stroke-width="2" stroke-linecap="square" stroke-miterlimit="10" d="M26,9l2-2
	c1.1-1.1,1.1-2.9,0-4l0,0c-1.1-1.1-2.9-1.1-4,0l-2,2l-3-3l-3,3l10,10l3-3L26,9z" stroke-linejoin="square"/>
<polyline fill="none" stroke="#444444" stroke-width="2" stroke-linecap="square" stroke-miterlimit="10" points="19,8 8,19 8,23 
	12,23 23,12 " stroke-linejoin="square"/>
<path data-color="color-2" fill="none" stroke="#444444" stroke-width="2" stroke-linecap="square" stroke-miterlimit="10" d="M9,29
	c0,1.1-0.9,2-2,2s-2-0.9-2-2s2-3,2-3S9,27.9,9,29z" stroke-linejoin="square"/>
</g><g  transform="translate(400, 80)">
<path data-cap="butt" fill="none" stroke="#444444" stroke-width="2" stroke-miterlimit="10" d="M25,10.6V29c0,1.1-0.9,2-2,2H7
	c-1.1,0-2-0.9-2-2V3c0-1.1,0.9-2,2-2h16c1.1,0,2,0.9,2,2v1.6" stroke-linejoin="square" stroke-linecap="butt"/>
<polyline data-cap="butt" data-color="color-2" fill="none" stroke="#444444" stroke-width="2" stroke-miterlimit="10" points="22,13.6 22,23 8,23 
	8,5 22,5 22,7.6 " stroke-linejoin="square" stroke-linecap="butt"/>
<circle data-color="color-2" fill="none" stroke="#444444" stroke-width="2" stroke-linecap="square" stroke-miterlimit="10" cx="15" cy="27" r="1" stroke-linejoin="square"/>
<path fill="none" stroke="#444444" stroke-width="2" stroke-linecap="square" stroke-miterlimit="10" d="M21.5,14.2l-3-3L26,3.7
	c0.8-0.8,2.2-0.8,3,0l0,0c0.8,0.8,0.8,2.2,0,3L21.5,14.2z" stroke-linejoin="square"/>
<path fill="none" stroke="#444444" stroke-width="2" stroke-linecap="square" stroke-miterlimit="10" d="M18.2,14.1
	c-1-1-2.7-1-3.8,0c-0.7,0.7-0.8,1.5-0.8,2.2c0,0.7-0.5,1.3-1.7,1.3c1.7,1.7,4.6,1.9,6.2,0.3C19.3,16.8,19.2,15.1,18.2,14.1z" stroke-linejoin="square"/>
</g><g  transform="translate(464, 80)">
<polyline data-cap="butt" fill="none" stroke="#444444" stroke-width="2" stroke-miterlimit="10" points="10,6 11,1 21,1 22,6 " stroke-linejoin="square" stroke-linecap="butt"/>
<polyline data-cap="butt" fill="none" stroke="#444444" stroke-width="2" stroke-miterlimit="10" points="22,26 21,31 11,31 10,26 " stroke-linejoin="square" stroke-linecap="butt"/>
<path fill="none" stroke="#444444" stroke-width="2" stroke-linecap="square" stroke-miterlimit="10" d="M24,26H8c-1.1,0-2-0.9-2-2
	V8c0-1.1,0.9-2,2-2h16c1.1,0,2,0.9,2,2v16C26,25.1,25.1,26,24,26z" stroke-linejoin="square"/>
<polyline fill="none" stroke="#444444" stroke-width="2" stroke-linecap="square" stroke-miterlimit="10" points="26,14 28,14 
	28,18 26,18 " stroke-linejoin="square"/>
<polyline data-color="color-2" fill="none" stroke="#444444" stroke-width="2" stroke-linecap="square" stroke-miterlimit="10" points="
	14,13 11,16 14,19 " stroke-linejoin="square"/>
<polyline data-color="color-2" fill="none" stroke="#444444" stroke-width="2" stroke-linecap="square" stroke-miterlimit="10" points="
	18,13 21,16 18,19 " stroke-linejoin="square"/>
</g><g  transform="translate(528, 80)">
<path fill="none" stroke="#444444" stroke-width="2" stroke-linecap="square" stroke-miterlimit="10" d="M1,4c0-1.7,1.3-3,3-3
	s3,1.3,3,3v2H1V4z" stroke-linejoin="square"/>
<path data-cap="butt" fill="none" stroke="#444444" stroke-width="2" stroke-miterlimit="10" d="M26,4c0-1.7-1.3-3-3-3H4
	c1.7,0,3,1.3,3,3v24c0,1.7,1.3,3,3,3h16" stroke-linejoin="square" stroke-linecap="butt"/>
<line data-cap="butt" fill="none" stroke="#444444" stroke-width="2" stroke-miterlimit="10" x1="26" y1="26" x2="26" y2="9.8" stroke-linejoin="square" stroke-linecap="butt"/>
<path fill="none" stroke="#444444" stroke-width="2" stroke-linecap="square" stroke-miterlimit="10" d="M13,28c0,1.7-1.3,3-3,3h18
	c1.7,0,3-1.3,3-3v-2H13V28z" stroke-linejoin="square"/>
<path data-color="color-2" fill="none" stroke="#444444" stroke-width="2" stroke-linecap="square" stroke-miterlimit="10" d="M21.9,14
	l-3-3l7.5-7.5c0.8-0.8,2.2-0.8,3,0l0,0c0.8,0.8,0.8,2.2,0,3L21.9,14z" stroke-linejoin="square"/>
<path data-color="color-2" fill="none" stroke="#444444" stroke-width="2" stroke-linecap="square" stroke-miterlimit="10" d="M18.6,13.9
	c-1-1-2.7-1-3.8,0c-0.7,0.7-0.8,1.5-0.8,2.2c0,0.7-0.5,1.3-1.7,1.3c1.7,1.7,4.6,1.9,6.2,0.3C19.7,16.6,19.5,14.9,18.6,13.9z" stroke-linejoin="square"/>
</g><g  transform="translate(592, 80)">
<path fill="none" stroke="#444444" stroke-width="2" stroke-linecap="square" stroke-miterlimit="10" d="M23.5,14h-15
	C4.9,14,2,11.1,2,7.5v0C2,3.9,4.9,1,8.5,1h15C27.1,1,30,3.9,30,7.5v0C30,11.1,27.1,14,23.5,14z" stroke-linejoin="square"/>
<path data-color="color-2" fill="none" stroke="#444444" stroke-width="2" stroke-linecap="square" stroke-miterlimit="10" d="M23.5,31
	h-15C4.9,31,2,28.1,2,24.5v0C2,20.9,4.9,18,8.5,18h15c3.6,0,6.5,2.9,6.5,6.5v0C30,28.1,27.1,31,23.5,31z" stroke-linejoin="square"/>
<circle fill="none" stroke="#444444" stroke-width="2" stroke-linecap="square" stroke-miterlimit="10" cx="8.5" cy="7.5" r="3.5" stroke-linejoin="square"/>
<circle data-color="color-2" fill="none" stroke="#444444" stroke-width="2" stroke-linecap="square" stroke-miterlimit="10" cx="23.5" cy="24.5" r="3.5" stroke-linejoin="square"/>
</g><g  transform="translate(16, 144)">
<line fill="none" stroke="#444444" stroke-width="2" stroke-linecap="square" stroke-miterlimit="10" x1="17" y1="5" x2="31" y2="5" stroke-linejoin="square"/>
<line fill="none" stroke="#444444" stroke-width="2" stroke-linecap="square" stroke-miterlimit="10" x1="1" y1="5" x2="8" y2="5" stroke-linejoin="square"/>
<rect x="8" y="1" fill="none" stroke="#444444" stroke-width="2" stroke-linecap="square" stroke-miterlimit="10" width="5" height="8" stroke-linejoin="square"/>
<line fill="none" stroke="#444444" stroke-width="2" stroke-linecap="square" stroke-miterlimit="10" x1="17" y1="27" x2="31" y2="27" stroke-linejoin="square"/>
<line fill="none" stroke="#444444" stroke-width="2" stroke-linecap="square" stroke-miterlimit="10" x1="1" y1="27" x2="8" y2="27" stroke-linejoin="square"/>
<rect x="8" y="23" fill="none" stroke="#444444" stroke-width="2" stroke-linecap="square" stroke-miterlimit="10" width="5" height="8" stroke-linejoin="square"/>
<line data-color="color-2" fill="none" stroke="#444444" stroke-width="2" stroke-linecap="square" stroke-miterlimit="10" x1="28" y1="16" x2="31" y2="16" stroke-linejoin="square"/>
<line data-color="color-2" fill="none" stroke="#444444" stroke-width="2" stroke-linecap="square" stroke-miterlimit="10" x1="1" y1="16" x2="19" y2="16" stroke-linejoin="square"/>
<rect data-color="color-2" x="19" y="12" fill="none" stroke="#444444" stroke-width="2" stroke-linecap="square" stroke-miterlimit="10" width="5" height="8" stroke-linejoin="square"/>
</g><g  transform="translate(80, 144)">
<line fill="none" stroke="#444444" stroke-width="2" stroke-linecap="square" stroke-miterlimit="10" x1="17" y1="5" x2="31" y2="5" stroke-linejoin="square"/>
<line fill="none" stroke="#444444" stroke-width="2" stroke-linecap="square" stroke-miterlimit="10" x1="1" y1="5" x2="5" y2="5" stroke-linejoin="square"/>
<line data-color="color-2" fill="none" stroke="#444444" stroke-width="2" stroke-linecap="square" stroke-miterlimit="10" x1="28" y1="16" x2="31" y2="16" stroke-linejoin="square"/>
<line data-color="color-2" fill="none" stroke="#444444" stroke-width="2" stroke-linecap="square" stroke-miterlimit="10" x1="1" y1="16" x2="16" y2="16" stroke-linejoin="square"/>
<circle fill="none" stroke="#444444" stroke-width="2" stroke-linecap="square" stroke-miterlimit="10" cx="9" cy="5" r="4" stroke-linejoin="square"/>
<line fill="none" stroke="#444444" stroke-width="2" stroke-linecap="square" stroke-miterlimit="10" x1="17" y1="27" x2="31" y2="27" stroke-linejoin="square"/>
<line fill="none" stroke="#444444" stroke-width="2" stroke-linecap="square" stroke-miterlimit="10" x1="1" y1="27" x2="5" y2="27" stroke-linejoin="square"/>
<circle fill="none" stroke="#444444" stroke-width="2" stroke-linecap="square" stroke-miterlimit="10" cx="9" cy="27" r="4" stroke-linejoin="square"/>
<circle data-color="color-2" fill="none" stroke="#444444" stroke-width="2" stroke-linecap="square" stroke-miterlimit="10" cx="20" cy="16" r="4" stroke-linejoin="square"/>
</g><g  transform="translate(144, 144)">
<path data-cap="butt" data-color="color-2" fill="none" stroke="#444444" stroke-width="2" stroke-miterlimit="10" d="M12,6.6c1.2-0.5,2.6-0.8,4-0.8
	c5.6,0,10.2,4.6,10.2,10.2" stroke-linejoin="square" stroke-linecap="butt"/>
<path data-cap="butt" data-color="color-2" fill="none" stroke="#444444" stroke-width="2" stroke-miterlimit="10" d="M5.8,16c0-1.4,0.3-2.8,0.8-4" stroke-linejoin="square" stroke-linecap="butt"/>
<line data-color="color-2" fill="none" stroke="#444444" stroke-width="2" stroke-linecap="square" stroke-miterlimit="10" x1="13.9" y1="13.9" x2="8.4" y2="8.4" stroke-linejoin="square"/>
<circle fill="none" stroke="#444444" stroke-width="2" stroke-linecap="square" stroke-miterlimit="10" cx="16" cy="16" r="15" stroke-linejoin="square"/>
<circle data-color="color-2" fill="none" stroke="#444444" stroke-width="2" stroke-linecap="square" stroke-miterlimit="10" cx="16" cy="16" r="3" stroke-linejoin="square"/>
</g><g  transform="translate(208, 144)">
<path data-cap="butt" fill="none" stroke="#444444" stroke-width="2" stroke-miterlimit="10" d="M10,13V7c0-3.3,2.7-6,6-6h0
	c3.3,0,6,2.7,6,6v6" stroke-linejoin="square" stroke-linecap="butt"/>
<circle fill="none" stroke="#444444" stroke-width="2" stroke-linecap="square" stroke-miterlimit="10" cx="16" cy="21" r="10" stroke-linejoin="square"/>
<line data-color="color-2" fill="none" stroke="#444444" stroke-width="2" stroke-linecap="square" stroke-miterlimit="10" x1="16" y1="22" x2="16" y2="25" stroke-linejoin="square"/>
<circle data-color="color-2" fill="none" stroke="#444444" stroke-width="2" stroke-linecap="square" stroke-miterlimit="10" cx="16" cy="19" r="3" stroke-linejoin="square"/>
</g><g  transform="translate(272, 144)">
<path data-cap="butt" fill="none" stroke="#444444" stroke-width="2" stroke-miterlimit="10" d="M10,13V7c0-3.3,2.7-6,6-6h0
	c3.3,0,6,2.7,6,6" stroke-linejoin="square" stroke-linecap="butt"/>
<circle fill="none" stroke="#444444" stroke-width="2" stroke-linecap="square" stroke-miterlimit="10" cx="16" cy="21" r="10" stroke-linejoin="square"/>
<line data-color="color-2" fill="none" stroke="#444444" stroke-width="2" stroke-linecap="square" stroke-miterlimit="10" x1="16" y1="22" x2="16" y2="25" stroke-linejoin="square"/>
<circle data-color="color-2" fill="none" stroke="#444444" stroke-width="2" stroke-linecap="square" stroke-miterlimit="10" cx="16" cy="19" r="3" stroke-linejoin="square"/>
</g><g  transform="translate(336, 144)">
<polyline data-cap="butt" fill="none" stroke="#444444" stroke-width="2" stroke-miterlimit="10" points="23.1,19.5 30.6,27 27,30.6 
	19.5,23.1 " stroke-linejoin="square" stroke-linecap="butt"/>
<circle fill="none" stroke="#444444" stroke-width="2" stroke-linecap="square" stroke-miterlimit="10" cx="13" cy="13" r="12" stroke-linejoin="square"/>
</g><g  transform="translate(400, 144)">
<polyline data-cap="butt" fill="none" stroke="#444444" stroke-width="2" stroke-miterlimit="10" points="23.1,19.5 30.6,27 27,30.6 
	19.5,23.1 " stroke-linejoin="square" stroke-linecap="butt"/>
<circle fill="none" stroke="#444444" stroke-width="2" stroke-linecap="square" stroke-miterlimit="10" cx="13" cy="13" r="12" stroke-linejoin="square"/>
<line data-color="color-2" fill="none" stroke="#444444" stroke-width="2" stroke-linecap="square" stroke-miterlimit="10" x1="13" y1="9" x2="13" y2="17" stroke-linejoin="square"/>
<line data-color="color-2" fill="none" stroke="#444444" stroke-width="2" stroke-linecap="square" stroke-miterlimit="10" x1="17" y1="13" x2="9" y2="13" stroke-linejoin="square"/>
</g><g  transform="translate(464, 144)">
<polyline data-cap="butt" fill="none" stroke="#444444" stroke-width="2" stroke-miterlimit="10" points="23.1,19.5 30.6,27 27,30.6 
	19.5,23.1 " stroke-linejoin="square" stroke-linecap="butt"/>
<circle fill="none" stroke="#444444" stroke-width="2" stroke-linecap="square" stroke-miterlimit="10" cx="13" cy="13" r="12" stroke-linejoin="square"/>
<line data-color="color-2" fill="none" stroke="#444444" stroke-width="2" stroke-linecap="square" stroke-miterlimit="10" x1="17" y1="13" x2="9" y2="13" stroke-linejoin="square"/>
</g><g  transform="translate(528, 144)">
<polyline fill="none" stroke="#444444" stroke-width="2" stroke-linecap="square" stroke-miterlimit="10" points="27,6 27,31 5,31 
	5,6 " stroke-linejoin="square"/>
<line data-color="color-2" fill="none" stroke="#444444" stroke-width="2" stroke-linecap="square" stroke-miterlimit="10" x1="16" y1="13" x2="16" y2="24" stroke-linejoin="square"/>
<line data-color="color-2" fill="none" stroke="#444444" stroke-width="2" stroke-linecap="square" stroke-miterlimit="10" x1="11" y1="13" x2="11" y2="24" stroke-linejoin="square"/>
<line data-color="color-2" fill="none" stroke="#444444" stroke-width="2" stroke-linecap="square" stroke-miterlimit="10" x1="21" y1="13" x2="21" y2="24" stroke-linejoin="square"/>
<polyline data-color="color-2" fill="none" stroke="#444444" stroke-width="2" stroke-linecap="square" stroke-miterlimit="10" points="
	11,6 11,1 21,1 21,6 " stroke-linejoin="square"/>
<line fill="none" stroke="#444444" stroke-width="2" stroke-linecap="square" stroke-miterlimit="10" x1="30" y1="6" x2="2" y2="6" stroke-linejoin="square"/>
</g><g  transform="translate(592, 144)">
<polyline data-cap="butt" fill="none" stroke="#444444" stroke-width="2" stroke-miterlimit="10" points="5,12.4 5,30 13,30 13,22 
	19,22 19,30 27,30 27,12.4 " stroke-linejoin="square" stroke-linecap="butt"/>
<polyline data-color="color-2" fill="none" stroke="#444444" stroke-width="2" stroke-linecap="square" stroke-miterlimit="10" points="
	2,15 16,3 30,15 " stroke-linejoin="square"/>
<rect data-color="color-2" x="13" y="12" fill="none" stroke="#444444" stroke-width="2" stroke-linecap="square" stroke-miterlimit="10" width="6" height="5" stroke-linejoin="square"/>
</g><g  transform="translate(16, 208)">
<polyline data-cap="butt" fill="none" stroke="#444444" stroke-width="2" stroke-miterlimit="10" points="30,2 10,18 10,28 15.4,21.9 
	" stroke-linejoin="square" stroke-linecap="butt"/>
<polygon fill="none" stroke="#444444" stroke-width="2" stroke-linecap="square" stroke-miterlimit="10" points="2,12 30,2 25,29 
	" stroke-linejoin="square"/>
</g><g  transform="translate(80, 208)">
<line fill="none" stroke="#444444" stroke-width="2" stroke-linecap="square" stroke-miterlimit="10" x1="31" y1="11" x2="1" y2="11" stroke-linejoin="square"/>
<rect x="1" y="4" fill="none" stroke="#444444" stroke-width="2" stroke-linecap="square" stroke-miterlimit="10" width="30" height="27" stroke-linejoin="square"/>
<line data-color="color-2" fill="none" stroke="#444444" stroke-width="2" stroke-linecap="square" stroke-miterlimit="10" x1="16" y1="1" x2="16" y2="7" stroke-linejoin="square"/>
<line data-color="color-2" fill="none" stroke="#444444" stroke-width="2" stroke-linecap="square" stroke-miterlimit="10" x1="8" y1="1" x2="8" y2="7" stroke-linejoin="square"/>
<line data-color="color-2" fill="none" stroke="#444444" stroke-width="2" stroke-linecap="square" stroke-miterlimit="10" x1="24" y1="1" x2="24" y2="7" stroke-linejoin="square"/>
</g><g  transform="translate(144, 208)">
<line fill="none" stroke="#444444" stroke-width="2" stroke-linecap="square" stroke-miterlimit="10" x1="31" y1="11" x2="1" y2="11" stroke-linejoin="square"/>
<rect x="1" y="4" fill="none" stroke="#444444" stroke-width="2" stroke-linecap="square" stroke-miterlimit="10" width="30" height="27" stroke-linejoin="square"/>
<line data-color="color-2" fill="none" stroke="#444444" stroke-width="2" stroke-linecap="square" stroke-miterlimit="10" x1="16" y1="1" x2="16" y2="7" stroke-linejoin="square"/>
<line data-color="color-2" fill="none" stroke="#444444" stroke-width="2" stroke-linecap="square" stroke-miterlimit="10" x1="8" y1="1" x2="8" y2="7" stroke-linejoin="square"/>
<line data-color="color-2" fill="none" stroke="#444444" stroke-width="2" stroke-linecap="square" stroke-miterlimit="10" x1="24" y1="1" x2="24" y2="7" stroke-linejoin="square"/>
<polygon data-color="color-2" fill="none" stroke="#444444" stroke-width="2" stroke-linecap="square" stroke-miterlimit="10" points="
	7,16 7,21 7,26 19,26 19,21 25,21 25,16 " stroke-linejoin="square"/>
<line data-color="color-2" fill="none" stroke="#444444" stroke-width="2" stroke-linecap="square" stroke-miterlimit="10" x1="19" y1="16" x2="19" y2="21" stroke-linejoin="square"/>
<line data-color="color-2" fill="none" stroke="#444444" stroke-width="2" stroke-linecap="square" stroke-miterlimit="10" x1="13" y1="17" x2="13" y2="26" stroke-linejoin="square"/>
<line data-color="color-2" fill="none" stroke="#444444" stroke-width="2" stroke-linecap="square" stroke-miterlimit="10" x1="19" y1="21" x2="7" y2="21" stroke-linejoin="square"/>
</g><g  transform="translate(208, 208)">
<line fill="none" stroke="#444444" stroke-width="2" stroke-linecap="square" stroke-miterlimit="10" x1="31" y1="11" x2="1" y2="11" stroke-linejoin="square"/>
<rect x="1" y="4" fill="none" stroke="#444444" stroke-width="2" stroke-linecap="square" stroke-miterlimit="10" width="30" height="27" stroke-linejoin="square"/>
<line data-color="color-2" fill="none" stroke="#444444" stroke-width="2" stroke-linecap="square" stroke-miterlimit="10" x1="16" y1="1" x2="16" y2="7" stroke-linejoin="square"/>
<line data-color="color-2" fill="none" stroke="#444444" stroke-width="2" stroke-linecap="square" stroke-miterlimit="10" x1="8" y1="1" x2="8" y2="7" stroke-linejoin="square"/>
<line data-color="color-2" fill="none" stroke="#444444" stroke-width="2" stroke-linecap="square" stroke-miterlimit="10" x1="24" y1="1" x2="24" y2="7" stroke-linejoin="square"/>
<polyline data-color="color-2" fill="none" stroke="#444444" stroke-width="2" stroke-linecap="square" stroke-miterlimit="10" points="
	10,21 14,25 22,17 " stroke-linejoin="square"/>
</g><g  transform="translate(272, 208)">
<path data-cap="butt" data-color="color-2" fill="none" stroke="#444444" stroke-width="2" stroke-miterlimit="10" d="M12.5,18l4.9,8.4
	c0.8,1.3,0.3,3-1,3.7l0,0c-1.3,0.8-3,0.3-3.7-1L6.1,18" stroke-linejoin="square" stroke-linecap="butt"/>
<path data-cap="butt" data-color="color-2" fill="none" stroke="#444444" stroke-width="2" stroke-miterlimit="10" d="M20.7,7
	c2.7,0.3,4.9,2.7,4.9,5.5c0,2.8-2.2,5-4.9,5.3" stroke-linejoin="square" stroke-linecap="butt"/>
<path fill="none" stroke="#444444" stroke-width="2" stroke-linecap="square" stroke-miterlimit="10" d="M9,7L4,7
	c-1.5,0-3,2.5-3,5.5c0,3,1.5,5.5,3,5.5h5" stroke-linejoin="square"/>
<path data-cap="butt" fill="none" stroke="#444444" stroke-width="2" stroke-miterlimit="10" d="M25.5,1c-4,0-7.6,2.7-9.5,6H9
	c-1.5,0-2.5,2.5-2.5,5.5c0,3,1,5.5,2.5,5.5h7c1.9,3.3,5.5,6,9.5,6" stroke-linejoin="square" stroke-linecap="butt"/>
<ellipse fill="none" stroke="#444444" stroke-width="2" stroke-linecap="square" stroke-miterlimit="10" cx="25.5" cy="12.5" rx="5.5" ry="11.5" stroke-linejoin="square"/>
</g><g  transform="translate(336, 208)">
<polyline data-color="color-2" fill="none" stroke="#444444" stroke-width="2" stroke-linecap="square" stroke-miterlimit="10" points="
	13,6 1,6 1,31 26,31 26,19 " stroke-linejoin="square"/>
<line data-color="color-2" fill="none" stroke="#444444" stroke-width="2" stroke-linecap="square" stroke-miterlimit="10" x1="22" y1="5" x2="27" y2="10" stroke-linejoin="square"/>
<polygon fill="none" stroke="#444444" stroke-width="2" stroke-linecap="square" stroke-miterlimit="10" points="15,22 10,22 10,17 
	25,2 30,7 " stroke-linejoin="square"/>
</g><g  transform="translate(400, 208)">
<line data-cap="butt" data-color="color-2" fill="none" stroke="#444444" stroke-width="2" stroke-miterlimit="10" x1="3" y1="22" x2="10" y2="29" stroke-linejoin="square" stroke-linecap="butt"/>
<line data-cap="butt" data-color="color-2" fill="none" stroke="#444444" stroke-width="2" stroke-miterlimit="10" x1="6.5" y1="25.5" x2="21.5" y2="10.5" stroke-linejoin="square" stroke-linecap="butt"/>
<line data-color="color-2" fill="none" stroke="#444444" stroke-width="2" stroke-linecap="square" stroke-miterlimit="10" x1="21" y1="4" x2="28" y2="11" stroke-linejoin="square"/>
<line data-color="color-2" fill="none" stroke="#444444" stroke-width="2" stroke-linecap="square" stroke-miterlimit="10" x1="18" y1="7" x2="25" y2="14" stroke-linejoin="square"/>
<path fill="none" stroke="#444444" stroke-width="2" stroke-linecap="square" stroke-miterlimit="10" d="M10,29l-8,1l1-8L22.6,2.4
	c0.8-0.8,2-0.8,2.8,0l4.2,4.2c0.8,0.8,0.8,2,0,2.8L10,29z" stroke-linejoin="square"/>
</g><g  transform="translate(464, 208)">
<path fill="none" stroke="#444444" stroke-width="2" stroke-linecap="square" stroke-miterlimit="10" d="M16.7,7c5-5,13.3-5,13.3-5
	s-0.1,8.3-5,13.3c-5,5-11,2.8-11,2.8S11.8,11.9,16.7,7z" stroke-linejoin="square"/>
<line fill="none" stroke="#444444" stroke-width="2" stroke-linecap="square" stroke-miterlimit="10" x1="21" y1="11" x2="10" y2="22" stroke-linejoin="square"/>
<polyline data-color="color-2" fill="none" stroke="#444444" stroke-width="2" stroke-linecap="square" stroke-miterlimit="10" points="
	29,20 29,31 1,31 1,3 12,3 " stroke-linejoin="square"/>
</g><g  transform="translate(528, 208)">
<polyline data-cap="butt" data-color="color-2" fill="none" stroke="#444444" stroke-width="2" stroke-miterlimit="10" points="5,9 16,18 27,9 " stroke-linejoin="square" stroke-linecap="butt"/>
<rect x="1" y="5" fill="none" stroke="#444444" stroke-width="2" stroke-linecap="square" stroke-miterlimit="10" width="30" height="22" stroke-linejoin="square"/>
<line data-cap="butt" data-color="color-2" fill="none" stroke="#444444" stroke-width="2" stroke-miterlimit="10" x1="5" y1="22" x2="9" y2="17" stroke-linejoin="square" stroke-linecap="butt"/>
<line data-cap="butt" data-color="color-2" fill="none" stroke="#444444" stroke-width="2" stroke-miterlimit="10" x1="27" y1="22" x2="23" y2="17" stroke-linejoin="square" stroke-linecap="butt"/>
</g><g  transform="translate(592, 208)">
<path fill="none" stroke="#444444" stroke-width="2" stroke-linecap="square" stroke-miterlimit="10" d="M24,8v14c0,4.4-3.6,8-8,8h0
	c-4.4,0-8-3.6-8-8V7.5c0-3,2.5-5.5,5.5-5.5h0c3,0,5.5,2.5,5.5,5.5V21c0,1.7-1.3,3-3,3h0c-1.7,0-3-1.3-3-3V8" stroke-linejoin="square"/>
</g><g  transform="translate(16, 272)">
<path fill="none" stroke="#444444" stroke-width="2" stroke-linecap="square" stroke-miterlimit="10" d="M22.8,1
	C20,1,17.5,2.5,16,4.7C14.5,2.5,12,1,9.2,1C4.7,1,1,4.7,1,9.3C1,17.6,16,30,16,30S31,17.6,31,9.3C31,4.7,27.3,1,22.8,1z" stroke-linejoin="square"/>
</g><g  transform="translate(80, 272)">
<path data-cap="butt" fill="none" stroke="#444444" stroke-width="2" stroke-miterlimit="10" d="M27.6,17.6c2-2.8,3.4-5.8,3.4-8.3
	C31,4.7,27.3,1,22.8,1C20,1,17.5,2.5,16,4.7C14.5,2.5,12,1,9.2,1C4.7,1,1,4.7,1,9.3C1,17.6,16,30,16,30s1.7-1.4,4-3.7" stroke-linejoin="square" stroke-linecap="butt"/>
<circle data-color="color-2" fill="none" stroke="#444444" stroke-width="2" stroke-linecap="square" stroke-miterlimit="10" cx="25" cy="23" r="6" stroke-linejoin="square"/>
<line data-color="color-2" fill="none" stroke="#444444" stroke-width="2" stroke-linecap="square" stroke-miterlimit="10" x1="25" y1="21" x2="25" y2="25" stroke-linejoin="square"/>
<line data-color="color-2" fill="none" stroke="#444444" stroke-width="2" stroke-linecap="square" stroke-miterlimit="10" x1="23" y1="23" x2="27" y2="23" stroke-linejoin="square"/>
</g><g  transform="translate(144, 272)">
<path data-cap="butt" fill="none" stroke="#444444" stroke-width="2" stroke-miterlimit="10" d="M27.8,17.6c2-2.8,3.4-5.8,3.4-8.3
	C31.2,4.7,27.5,1,23,1c-2.8,0-5.4,1.5-6.8,3.7C14.7,2.5,12.2,1,9.4,1C4.8,1,1.2,4.7,1.2,9.3c0,8.3,15,20.7,15,20.7s1.7-1.4,4-3.7" stroke-linejoin="square" stroke-linecap="butt"/>
<circle data-color="color-2" fill="none" stroke="#444444" stroke-width="2" stroke-linecap="square" stroke-miterlimit="10" cx="25" cy="23" r="6" stroke-linejoin="square"/>
<line data-color="color-2" fill="none" stroke="#444444" stroke-width="2" stroke-linecap="square" stroke-miterlimit="10" x1="23" y1="23" x2="27" y2="23" stroke-linejoin="square"/>
</g><g  transform="translate(208, 272)">
<polyline data-color="color-2" fill="none" stroke="#444444" stroke-width="2" stroke-linecap="square" stroke-miterlimit="10" points="
	16,12 16,18 22,18 " stroke-linejoin="square"/>
<line data-cap="butt" fill="none" stroke="#444444" stroke-width="2" stroke-miterlimit="10" x1="2" y1="31" x2="7" y2="26" stroke-linejoin="square" stroke-linecap="butt"/>
<line data-cap="butt" fill="none" stroke="#444444" stroke-width="2" stroke-miterlimit="10" x1="30" y1="31" x2="25" y2="26" stroke-linejoin="square" stroke-linecap="butt"/>
<circle fill="none" stroke="#444444" stroke-width="2" stroke-linecap="square" stroke-miterlimit="10" cx="16" cy="18" r="12" stroke-linejoin="square"/>
<path data-color="color-2" fill="none" stroke="#444444" stroke-width="2" stroke-linecap="square" stroke-miterlimit="10" d="M12.4,2.8
	C11.2,1.7,9.6,1,7.8,1C4.1,1,1,4.1,1,7.8c0,1.1,0.3,2.1,0.7,3C3.9,6.8,7.8,3.8,12.4,2.8z" stroke-linejoin="square"/>
<path data-color="color-2" fill="none" stroke="#444444" stroke-width="2" stroke-linecap="square" stroke-miterlimit="10" d="M19.6,2.8
	C20.8,1.7,22.4,1,24.2,1C27.9,1,31,4.1,31,7.8c0,1.1-0.3,2.1-0.7,3C28.1,6.8,24.2,3.8,19.6,2.8z" stroke-linejoin="square"/>
</g><g  transform="translate(272, 272)">
<polyline fill="none" stroke="#444444" stroke-width="2" stroke-linecap="square" stroke-miterlimit="10" points="1,1 5,1 5,21 
	30,21 " stroke-linejoin="square"/>
<circle data-color="color-2" fill="none" stroke="#444444" stroke-width="2" stroke-linecap="square" stroke-miterlimit="10" cx="7" cy="28" r="3" stroke-linejoin="square"/>
<circle data-color="color-2" fill="none" stroke="#444444" stroke-width="2" stroke-linecap="square" stroke-miterlimit="10" cx="28" cy="28" r="3" stroke-linejoin="square"/>
<polyline fill="none" stroke="#444444" stroke-width="2" stroke-linecap="square" stroke-miterlimit="10" points="5,5 28,5 25,17 
	5,17 " stroke-linejoin="square"/>
</g><g  transform="translate(336, 272)">
<polyline fill="none" stroke="#444444" stroke-width="2" stroke-linecap="square" stroke-miterlimit="10" points="1,1 5,1 5,21 
	30,21 " stroke-linejoin="square"/>
<circle data-color="color-2" fill="none" stroke="#444444" stroke-width="2" stroke-linecap="square" stroke-miterlimit="10" cx="7" cy="28" r="3" stroke-linejoin="square"/>
<circle data-color="color-2" fill="none" stroke="#444444" stroke-width="2" stroke-linecap="square" stroke-miterlimit="10" cx="28" cy="28" r="3" stroke-linejoin="square"/>
<polyline fill="none" stroke="#444444" stroke-width="2" stroke-linecap="square" stroke-miterlimit="10" points="20,5 28,5 25,17 
	5,17 " stroke-linejoin="square"/>
<line fill="none" stroke="#444444" stroke-width="2" stroke-linecap="square" stroke-miterlimit="10" x1="5" y1="5" x2="12" y2="5" stroke-linejoin="square"/>
<line data-cap="butt" data-color="color-2" fill="none" stroke="#444444" stroke-width="2" stroke-miterlimit="10" x1="16" y1="1" x2="16" y2="13" stroke-linejoin="square" stroke-linecap="butt"/>
<polyline data-color="color-2" fill="none" stroke="#444444" stroke-width="2" stroke-linecap="square" stroke-miterlimit="10" points="
	20,9 16,13 12,9 " stroke-linejoin="square"/>
</g><g  transform="translate(400, 272)">
<path data-cap="butt" fill="none" stroke="#444444" stroke-width="2" stroke-miterlimit="10" d="M7,28l3.4,1.7C12.1,30.5,14,31,16,31
	h10c1.7,0,3.2-1.2,3.5-3L31,16c0-1.7-1.3-3-3-3h-8V8c0-2.9-1.8-5.9-4.7-6.8C14.7,1,14,1.5,14,2.2V8l-7,9" stroke-linejoin="square" stroke-linecap="butt"/>
<rect data-color="color-2" x="1" y="14" fill="none" stroke="#444444" stroke-width="2" stroke-linecap="square" stroke-miterlimit="10" width="6" height="17" stroke-linejoin="square"/>
</g><g  transform="translate(464, 272)">
<rect x="1" y="4" fill="none" stroke="#444444" stroke-width="2" stroke-linecap="square" stroke-miterlimit="10" width="30" height="24" stroke-linejoin="square"/>
<line fill="none" stroke="#444444" stroke-width="2" stroke-linecap="square" stroke-miterlimit="10" x1="1" y1="8" x2="31" y2="8" stroke-linejoin="square"/>
<line fill="none" stroke="#444444" stroke-width="2" stroke-linecap="square" stroke-miterlimit="10" x1="5" y1="4" x2="5" y2="8" stroke-linejoin="square"/>
<line data-color="color-2" fill="none" stroke="#444444" stroke-width="2" stroke-linecap="square" stroke-miterlimit="10" x1="16" y1="14" x2="16" y2="22" stroke-linejoin="square"/>
<line data-color="color-2" fill="none" stroke="#444444" stroke-width="2" stroke-linecap="square" stroke-miterlimit="10" x1="20" y1="18" x2="12" y2="18" stroke-linejoin="square"/>
</g><g  transform="translate(528, 272)">
<rect x="1" y="4" fill="none" stroke="#444444" stroke-width="2" stroke-linecap="square" stroke-miterlimit="10" width="30" height="24" stroke-linejoin="square"/>
<line fill="none" stroke="#444444" stroke-width="2" stroke-linecap="square" stroke-miterlimit="10" x1="1" y1="8" x2="31" y2="8" stroke-linejoin="square"/>
<line fill="none" stroke="#444444" stroke-width="2" stroke-linecap="square" stroke-miterlimit="10" x1="5" y1="4" x2="5" y2="8" stroke-linejoin="square"/>
<line data-color="color-2" fill="none" stroke="#444444" stroke-width="2" stroke-linecap="square" stroke-miterlimit="10" x1="20" y1="18" x2="12" y2="18" stroke-linejoin="square"/>
</g><g  transform="translate(592, 272)">
<path fill="none" stroke="#444444" stroke-width="2" stroke-linecap="square" stroke-miterlimit="10" d="M19,31h-6c-3.3,0-6-2.7-6-6
	V7c0-3.3,2.7-6,6-6h6c3.3,0,6,2.7,6,6v18C25,28.3,22.3,31,19,31z" stroke-linejoin="square"/>
<line data-color="color-2" fill="none" stroke="#444444" stroke-width="2" stroke-linecap="square" stroke-miterlimit="10" x1="11" y1="11" x2="21" y2="11" stroke-linejoin="square"/>
<line data-color="color-2" fill="none" stroke="#444444" stroke-width="2" stroke-linecap="square" stroke-miterlimit="10" x1="16" y1="5" x2="16" y2="8" stroke-linejoin="square"/>
</g></svg>