<svg xmlns="http://www.w3.org/2000/svg" xmlns:xlink="http://www.w3.org/1999/xlink" x="0px" y="0px" width="640px" height="320px" viewBox="0 0 640 320"><g  transform="translate(16, 16)">
<rect data-color="color-2" x="4.2" y="1.6" transform="matrix(0.7071 0.7071 -0.7071 0.7071 7.1287 -3.5386)" fill="#444444" width="7.2" height="10.5"/>
<polygon fill="#444444" points="22,0.6 18,4.6 20.4,7 19,8.4 16.6,6 14,8.6 16.4,11 15,12.4 12.6,10 10,12.6 12.4,15 11,16.4 
	8.6,14 6,16.6 8.4,19 7,20.4 4.6,18 0.6,22 9,30.4 30.4,9 "/>
<polygon data-color="color-2" fill="#444444" points="31.2,30.2 30.1,22.4 23.4,29.1 "/>
<rect data-color="color-2" x="20.9" y="17.2" transform="matrix(0.7071 0.7071 -0.7071 0.7071 22.75 -10.0092)" fill="#444444" width="5.2" height="10.5"/>
</g><g  transform="translate(80, 16)">
<path data-color="color-2" fill="#444444" d="M28,22h-2v-1c0-4.5-3-8.5-7.3-9.6l0.5-1.9C24.4,10.9,28,15.6,28,21V22z"/>
<path data-color="color-2" fill="#444444" d="M6,22H4v-1c0-5.3,3.6-10.1,8.7-11.5l0.5,1.9C9,12.6,6,16.6,6,21V22z"/>
<rect data-color="color-2" x="6" y="7" fill="#444444" width="8" height="2"/>
<rect data-color="color-2" x="18" y="7" fill="#444444" width="8" height="2"/>
<path fill="#444444" d="M4,12c2.2,0,4-1.8,4-4S6.2,4,4,4S0,5.8,0,8S1.8,12,4,12z"/>
<path fill="#444444" d="M28,12c2.2,0,4-1.8,4-4s-1.8-4-4-4s-4,1.8-4,4S25.8,12,28,12z"/>
<rect x="12" y="4" fill="#444444" width="8" height="8"/>
<rect x="1" y="21" fill="#444444" width="8" height="8"/>
<rect x="23" y="21" fill="#444444" width="8" height="8"/>
</g><g  transform="translate(144, 16)">
<path data-color="color-2" fill="#444444" d="M12.8,19.3c-0.9-0.9-2.2-1.4-3.5-1.4c-1.3,0-2.5,0.5-3.4,1.4c-1.3,1.3-1.4,2.8-1.4,3.9
	c0,0.7-0.8,0.9-1.4,0.9l-2.4,0l1.7,1.7c1.5,1.5,3.5,2.3,5.6,2.3c1.9,0,3.6-0.7,4.8-1.9C14.8,24.2,14.4,21,12.8,19.3z"/>
<path data-color="color-2" fill="#444444" d="M27.7,9.3l0.8-0.8c1.4-1.4,1.4-3.6,0-5c-1.4-1.4-3.6-1.4-5,0l-0.8,0.8L27.7,9.3z"/>
<rect x="12.6" y="9.3" transform="matrix(0.7071 -0.7071 0.7071 0.7071 -3.4809 17.3033)" fill="#444444" width="13.1" height="7.1"/>
</g><g  transform="translate(208, 16)">
<polygon fill="#444444" points="2,2 2,10 4.4,10 7.4,7 13,7 13,24.6 10,27.6 10,30 22,30 22,27.6 19,24.6 19,7 24.5,7 26.5,10 
	30,10 30,2 "/>
</g><g  transform="translate(272, 16)">
<path fill="#444444" d="M12.2,7.4l-7.1,2.8l-3,18.2l8.2-8.2C10.1,19.9,10,19.5,10,19c0-0.8,0.3-1.6,0.9-2.1c1.1-1.1,3.1-1.1,4.2,0
	c0.6,0.6,0.9,1.3,0.9,2.1s-0.3,1.6-0.9,2.1C14.6,21.7,13.8,22,13,22c-0.5,0-0.9-0.1-1.3-0.3l-8.2,8.2l18.2-3l2.8-7.1L12.2,7.4z"/>
<rect data-color="color-2" x="18.9" y="-0.2" transform="matrix(0.7071 -0.7071 0.7071 0.7071 -0.6274 18.4853)" fill="#444444" width="6.2" height="20.4"/>
</g><g  transform="translate(336, 16)">
<path data-color="color-2" fill="#444444" d="M4.8,23.4L4,22.2l-0.8,1.2C2.5,24.4,1,26.7,1,28c0,1.7,1.3,3,3,3s3-1.3,3-3
	C7,26.7,5.5,24.4,4.8,23.4z"/>
<path fill="#444444" d="M30.6,16.3l-2.3-3.1c1-1.3,1.6-2.9,1.6-4.7C30,4.4,26.6,1,22.5,1h-3.1c0,0-0.1-0.1-0.1-0.1
	C18.8,0.3,17.9,0,16.9,0c-2.6,0-6.4,2.2-9.8,5.5c-4.1,4.1-7.1,9.7-4.6,12.2c0,0,15.4,11.3,15.4,11.3c0.5,0.4,1,0.6,1.7,0.6
	c2.1,0,5-1.9,7.3-4.2c1.6-1.6,2.9-3.3,3.6-4.9C31.7,18.1,31.2,16.9,30.6,16.3z M28,8.5c0,1.1-0.3,2.1-0.9,3L20.9,3h1.6
	C25.5,3,28,5.5,28,8.5z M8.6,6.9C12,3.5,15.2,2,16.9,2c0.4,0,0.8,0.1,1,0.3c0.5,0.5,0.4,1.8-0.3,3.3c-0.8,1.9-2.4,4-4.3,6
	C9,15.9,5,17.2,4,16.2C3,15.3,4.3,11.2,8.6,6.9z"/>
</g><g  transform="translate(400, 16)">
<path data-color="color-2" fill="#444444" d="M27.4,9l1.3-1.3C29.4,7,29.8,6,29.8,5s-0.4-2-1.1-2.7c-1.4-1.4-4-1.4-5.4,0L22,3.6l-3-3
	L15.6,4L27,15.4l3.4-3.4L27.4,9z"/>
<path data-color="color-2" fill="#444444" d="M7.7,25.3L7,24.6l-0.7,0.7C5.8,25.8,4,27.6,4,29c0,1.7,1.3,3,3,3s3-1.3,3-3
	C10,27.6,8.2,25.8,7.7,25.3z"/>
<polygon fill="#444444" points="17.2,8.4 7,18.6 7,24 12.4,24 22.6,13.8 "/>
</g><g  transform="translate(464, 16)">
<path fill="#444444" d="M24,14.5V24H8V4h14.8l1.8-1.8c0.5-0.5,1.1-0.9,1.8-1C25.8,0.5,25,0,24,0H8C6.3,0,5,1.3,5,3v26
	c0,1.7,1.3,3,3,3h16c1.7,0,3-1.3,3-3V11.5L24,14.5z M16,30c-1.1,0-2-0.9-2-2s0.9-2,2-2s2,0.9,2,2S17.1,30,16,30z"/>
<path data-color="color-2" fill="#444444" d="M29,3.7c-0.8-0.8-2.2-0.8-3,0l-7.5,7.5l3,3L29,6.7C29.8,5.8,29.8,4.5,29,3.7z M14.8,13.8
	C14.1,14.4,14,15.3,14,16c0,0.7-0.5,1.3-1.7,1.3c1.7,1.7,4.6,1.9,6.2,0.3c1.1-1.1,1-2.8,0-3.8C17.5,12.7,15.8,12.7,14.8,13.8z"/>
</g><g  transform="translate(528, 16)">
<rect data-color="color-2" x="10" fill="#444444" width="12" height="3"/>
<rect data-color="color-2" x="10" y="29" fill="#444444" width="12" height="3"/>
<path fill="#444444" d="M29,13h-2V8c0-1.7-1.3-3-3-3H8C6.3,5,5,6.3,5,8v16c0,1.7,1.3,3,3,3h16c1.7,0,3-1.3,3-3v-5h2V13z M14.4,19
	L13,20.4L8.6,16l4.4-4.4l1.4,1.4l-3,3L14.4,19z M19,20.4L17.6,19l3-3l-3-3l1.4-1.4l4.4,4.4L19,20.4z"/>
</g><g  transform="translate(592, 16)">
<path fill="#444444" d="M27,12.8l-3.1,3.1c0,0-0.9,1.3-1.5,2c-1.1,1.1-2.6,1.7-4.2,1.7c0,0,0,0,0,0c-1.8,0-3.9-1.1-4.8-2
	s-1.6-2.3-1.6-2.3s2.4-0.5,2.7-1.1s0.3-1.9,1.3-2.9c0.7-0.7,1.5-1.1,2.4-1.3l8.2-8.2C25.6,0.7,24.4,0,23,0H4C1.8,0,0,1.8,0,4v3h6v21
	c0,2.2,1.8,4,4,4h18c2.2,0,4-1.8,4-4v-3h-5V12.8z M6,5H2V4c0-1.1,0.9-2,2-2s2,0.9,2,2V5z M30,27v1c0,1.1-0.9,2-2,2H13.5
	c0.3-0.6,0.5-1.3,0.5-2v-1H30z"/>
<path data-color="color-2" fill="#444444" d="M31.4,2.6L31.4,2.6c-0.8-0.8-2.2-0.8-3,0l-7.5,7.5l3,3l7.5-7.5C32.2,4.8,32.2,3.4,31.4,2.6z
	 M17.2,12.7c-0.7,0.7-0.8,1.5-0.8,2.2c0,0.7-0.5,1.3-1.7,1.3c1.7,1.7,4.6,1.9,6.2,0.3c1.1-1.1,1-2.8,0-3.8
	C19.9,11.7,18.2,11.7,17.2,12.7z"/>
</g><g  transform="translate(16, 80)">
<path fill="#444444" d="M31.4,27.2L28.7,21H3.3l-2.8,6.3c-0.2,0.6-0.1,1.3,0.2,1.8c0.4,0.5,1,0.9,1.6,0.9h27.1
	c0.7,0,1.3-0.3,1.6-0.9C31.6,28.6,31.7,27.9,31.4,27.2z"/>
<path data-color="color-2" fill="#444444" d="M29,5c0-1.7-1.3-3-3-3H6C4.3,2,3,3.3,3,5v14h26V5z M25,15H7V6h18V15z"/>
</g><g  transform="translate(80, 80)">
<path fill="#444444" d="M32,18V4c0-1.7-1.3-3-3-3H3C1.3,1,0,2.3,0,4v14H32z M14,5h4v2h-4V5z"/>
<path data-color="color-2" fill="#444444" d="M0,20v3c0,1.7,1.3,3,3,3h9v3H8v2h4h8h4v-2h-4v-3h9c1.7,0,3-1.3,3-3v-3H0z"/>
</g><g  transform="translate(144, 80)">
<rect data-color="color-2" x="5" y="26" fill="#444444" width="5" height="2"/>
<polygon data-color="color-2" fill="#444444" points="10,20 4,20 4,8 10,8 10,4 0,4 0,24 10,24 "/>
<path fill="#444444" d="M12,0v32h20V0H12z M22,25c-2.2,0-4-1.8-4-4s1.8-4,4-4s4,1.8,4,4S24.2,25,22,25z M26,14h-8v-2h8V14z M26,9h-8
	V7h8V9z"/>
</g><g  transform="translate(208, 80)">
<rect data-color="color-2" x="7" y="27" fill="#444444" width="18" height="2"/>
<path fill="#444444" d="M0,3v21h32V3H0z M12,19.9V8.1l8.8,5.9L12,19.9z"/>
</g><g  transform="translate(272, 80)">
<path data-color="color-2" fill="#444444" d="M28,10h-2V9c0-3.9-3.1-7-7-7h-1V0h1c5,0,9,4,9,9V10z"/>
<path data-color="color-2" fill="#444444" d="M14,32h-1c-5,0-9-4-9-9v-1h2v1c0,3.9,3.1,7,7,7h1V32z"/>
<rect y="5" fill="#444444" width="15" height="7"/>
<path fill="#444444" d="M0,14v3c0,1.7,1.3,3,3,3h9c1.7,0,3-1.3,3-3v-3H0z M9,18H6v-2h3V18z"/>
<path fill="#444444" d="M12,0H3C1.3,0,0,1.3,0,3h15C15,1.3,13.7,0,12,0z"/>
<path fill="#444444" d="M29,12h-9c-1.7,0-3,1.3-3,3h15C32,13.3,30.7,12,29,12z"/>
<rect x="17" y="17" fill="#444444" width="15" height="7"/>
<path fill="#444444" d="M17,26v3c0,1.7,1.3,3,3,3h9c1.7,0,3-1.3,3-3v-3H17z M26,30h-3v-2h3V30z"/>
</g><g  transform="translate(336, 80)">
<path fill="#444444" d="M32,7h-6V0H6v7H0v18h6v7h20v-7h6V7z M8,2h16v5H8V2z M24,30H8V17h16V30z"/>
<rect data-color="color-2" x="11" y="20" fill="#444444" width="10" height="2"/>
<rect data-color="color-2" x="11" y="25" fill="#444444" width="10" height="2"/>
</g><g  transform="translate(400, 80)">
<path fill="#444444" d="M29,4h-6c-1.4-2.6-4.3-4-7-4s-5.6,1.4-7,4H3C1.3,4,0,5.3,0,7v22c0,1.7,1.3,3,3,3h26c1.7,0,3-1.3,3-3V7
	C32,5.3,30.7,4,29,4z M23.9,9H27v16.3L20,16C21.6,13.9,23.4,11.3,23.9,9z M15,23v4H6.2l7.1-9.4c1,1.1,1.7,1.9,2,2.1l0.7,0.7l0.7-0.7
	c0.2-0.2,1-1,2-2.1l7.1,9.4H17v-4H15z M16,2c2.9,0,6,2.2,6,5.8c0,2.8-3.8,7.4-6,9.7c-2.2-2.3-6-7-6-9.7C10,4.2,13.1,2,16,2z M8.1,9
	c0.5,2.3,2.2,4.9,3.9,7l-7,9.3V9H8.1z"/>
<circle data-color="color-2" fill="#444444" cx="16" cy="8" r="3"/>
</g><g  transform="translate(464, 80)">
<path fill="#444444" d="M23,12H9c-5,0-9,4-9,9s4,9,9,9h14c5,0,9-4,9-9S28,12,23,12z M13,22h-3v3H8v-3H5v-2h3v-3h2v3h3V22z M24,16.6
	l1.4,1.4L22,21.4L20.6,20L24,16.6z M23,25.4L21.6,24l3.4-3.4l1.4,1.4L23,25.4z"/>
<rect data-color="color-2" x="15" y="2" fill="#444444" width="2" height="8"/>
</g><g  transform="translate(528, 80)">
<rect data-color="color-2" x="15" y="1" fill="#444444" width="2" height="8"/>
<path fill="#444444" d="M32,27.3l-2.8-14.1c-0.5-2.6-2.8-4.5-5.5-4.5c-1.5,0-2.9,0.6-4,1.7L19,11H13l-0.6-0.6
	c-1.1-1.1-2.5-1.7-4-1.7c-2.7,0-5,1.9-5.5,4.5L0,27.3c-0.2,1,0.2,2,1.1,2.5c0.4,0.3,0.8,0.4,1.3,0.4c0.5,0,1-0.2,1.5-0.5l3.4-2.6
	C8.1,27.7,9,28,10,28c1.9,0,3.6-1.1,4.4-2.7l3.2,0c0.8,1.6,2.5,2.7,4.4,2.7c1,0,1.9-0.3,2.7-0.8l3.4,2.6c0.8,0.6,1.9,0.7,2.7,0.1
	C31.7,29.3,32.2,28.3,32,27.3z M10,26c-1.7,0-3-1.3-3-3s1.3-3,3-3s3,1.3,3,3S11.7,26,10,26z M19,23c0-1.7,1.3-3,3-3s3,1.3,3,3
	s-1.3,3-3,3S19,24.7,19,23z"/>
</g><g  transform="translate(592, 80)">
<path fill="#444444" d="M23.5,0h-15C4.4,0,1,3.4,1,7.5S4.4,15,8.5,15h15c4.1,0,7.5-3.4,7.5-7.5S27.6,0,23.5,0z M8.5,12
	C6,12,4,10,4,7.5S6,3,8.5,3S13,5,13,7.5S11,12,8.5,12z"/>
<path data-color="color-2" fill="#444444" d="M23.5,17h-15C4.4,17,1,20.4,1,24.5S4.4,32,8.5,32h15c4.1,0,7.5-3.4,7.5-7.5S27.6,17,23.5,17z
	 M23.5,29C21,29,19,27,19,24.5s2-4.5,4.5-4.5s4.5,2,4.5,4.5S26,29,23.5,29z"/>
</g><g  transform="translate(16, 144)">
<rect x="16" y="4" fill="#444444" width="16" height="2"/>
<polygon fill="#444444" points="7,10 14,10 14,0 7,0 7,4 0,4 0,6 7,6 "/>
<rect x="16" y="26" fill="#444444" width="16" height="2"/>
<polygon fill="#444444" points="7,26 0,26 0,28 7,28 7,32 14,32 14,22 7,22 "/>
<rect data-color="color-2" x="27" y="15" fill="#444444" width="5" height="2"/>
<polygon data-color="color-2" fill="#444444" points="18,21 25,21 25,11 18,11 18,15 0,15 0,17 18,17 "/>
</g><g  transform="translate(80, 144)">
<rect x="16" y="4" fill="#444444" width="16" height="2"/>
<rect data-color="color-2" x="27" y="15" fill="#444444" width="5" height="2"/>
<path fill="#444444" d="M9,10c2.8,0,5-2.2,5-5s-2.2-5-5-5C6.6,0,4.6,1.7,4.1,4H0v2h4.1C4.6,8.3,6.6,10,9,10z"/>
<rect x="16" y="26" fill="#444444" width="16" height="2"/>
<path fill="#444444" d="M9,22c-2.4,0-4.4,1.7-4.9,4H0v2h4.1c0.5,2.3,2.5,4,4.9,4c2.8,0,5-2.2,5-5S11.8,22,9,22z"/>
<path data-color="color-2" fill="#444444" d="M20,21c2.8,0,5-2.2,5-5s-2.2-5-5-5c-2.4,0-4.4,1.7-4.9,4H0v2h15.1C15.6,19.3,17.6,21,20,21z"/>
</g><g  transform="translate(144, 144)">
<path fill="#444444" d="M16,0C7.2,0,0,7.2,0,16s7.2,16,16,16s16-7.2,16-16S24.8,0,16,0z M6.8,16h-2c0-1.5,0.3-3,0.9-4.4l1.8,0.8
	C7.1,13.5,6.8,14.7,6.8,16z M16,20c-2.2,0-4-1.8-4-4c0-0.7,0.2-1.4,0.6-2L6.9,8.4l1.4-1.4l5.6,5.6c0.6-0.4,1.3-0.6,2-0.6
	c2.2,0,4,1.8,4,4S18.2,20,16,20z M25.2,16c0-5.1-4.1-9.2-9.2-9.2c-1.3,0-2.5,0.2-3.6,0.7l-0.8-1.8C13,5.1,14.5,4.8,16,4.8
	c6.2,0,11.2,5,11.2,11.2H25.2z"/>
</g><g  transform="translate(208, 144)">
<path fill="#444444" d="M23,12.5V7c0-3.9-3.1-7-7-7S9,3.1,9,7v5.5c-2.4,2-4,5.1-4,8.5c0,6.1,4.9,11,11,11s11-4.9,11-11
	C27,17.6,25.4,14.5,23,12.5z M17,22.9V26h-2v-3.1c-1.7-0.4-3-2-3-3.9c0-2.2,1.8-4,4-4s4,1.8,4,4C20,20.9,18.7,22.4,17,22.9z
	 M21,11.2c-1.5-0.8-3.2-1.2-5-1.2s-3.5,0.4-5,1.2V7c0-2.8,2.2-5,5-5s5,2.2,5,5V11.2z"/>
</g><g  transform="translate(272, 144)">
<path fill="#444444" d="M16,10c-1.8,0-3.5,0.4-5,1.2V7c0-2.8,2.2-5,5-5s5,2.2,5,5h2c0-3.9-3.1-7-7-7S9,3.1,9,7v5.5
	c-2.4,2-4,5.1-4,8.5c0,6.1,4.9,11,11,11s11-4.9,11-11S22.1,10,16,10z M17,22.9V26h-2v-3.1c-1.7-0.4-3-2-3-3.9c0-2.2,1.8-4,4-4
	s4,1.8,4,4C20,20.9,18.7,22.4,17,22.9z"/>
</g><g  transform="translate(336, 144)">
<path fill="#444444" d="M32,27l-7.7-7.7c1.1-1.9,1.7-4.1,1.7-6.4c0-7.2-5.8-13-13-13S0,5.8,0,13s5.8,13,13,13c2.3,0,4.5-0.6,6.4-1.7
	L27,32L32,27z"/>
</g><g  transform="translate(400, 144)">
<path fill="#444444" d="M24.3,19.4c1.1-1.9,1.7-4.1,1.7-6.4c0-7.2-5.8-13-13-13S0,5.8,0,13s5.8,13,13,13c2.3,0,4.5-0.6,6.4-1.7
	L27,32L32,27L24.3,19.4z M18,14h-4v4h-2v-4H8v-2h4V8h2v4h4V14z"/>
</g><g  transform="translate(464, 144)">
<path fill="#444444" d="M24.3,19.4c1.1-1.9,1.7-4.1,1.7-6.4c0-7.2-5.8-13-13-13S0,5.8,0,13s5.8,13,13,13c2.3,0,4.5-0.6,6.4-1.7
	L27,32L32,27L24.3,19.4z M18,14H8v-2h10V14z"/>
</g><g  transform="translate(528, 144)">
<path fill="#444444" d="M28,5h-2h-4V0H10v5H6H4H1v2h3v25h24V7h3V5H28z M12,26h-2V13h2V26z M12,2h8v3h-8V2z M17,26h-2V13h2V26z
	 M22,26h-2V13h2V26z"/>
</g><g  transform="translate(592, 144)">
<path fill="#444444" d="M16,1.7L16,1.7L16,1.7L0.6,14.9l1.3,1.5L4,14.6V31h9v-8h6v8h9V14.6l2.1,1.8l1.3-1.5L16,1.7z M19,18h-6v-5h6
	V18z"/>
</g><g  transform="translate(16, 208)">
<polygon fill="#444444" points="0,11.2 6.6,16.1 19.1,9.5 9,18 9,30 15.7,22.8 25.8,30.3 31.4,0 "/>
</g><g  transform="translate(80, 208)">
<polygon data-color="color-2" fill="#444444" points="32,8 32,3 25,3 25,0 23,0 23,3 17,3 17,0 15,0 15,3 9,3 9,0 7,0 7,3 0,3 0,8 "/>
<rect y="10" fill="#444444" width="32" height="22"/>
</g><g  transform="translate(144, 208)">
<polygon data-color="color-2" fill="#444444" points="32,8 32,3 25,3 25,0 23,0 23,3 17,3 17,0 15,0 15,3 9,3 9,0 7,0 7,3 0,3 0,8 "/>
<path fill="#444444" d="M0,10v22h32V10H0z M11,27H5v-5h6V27z M11,20H5v-5h6V20z M19,27h-6v-5h6V27z M19,20h-6v-5h6V20z M27,20h-6v-5
	h6V20z"/>
</g><g  transform="translate(208, 208)">
<polygon data-color="color-2" fill="#444444" points="32,8 32,3 25,3 25,0 23,0 23,3 17,3 17,0 15,0 15,3 9,3 9,0 7,0 7,3 0,3 0,8 "/>
<path fill="#444444" d="M0,10v22h32V10H0z M14,26.4L8.6,21l1.4-1.4l4,4l8-8l1.4,1.4L14,26.4z"/>
</g><g  transform="translate(272, 208)">
<path fill="#444444" d="M25.5,0c-3.8,0-7.7,2.3-10.1,6H4c-2.2,0-4,3-4,6.5S1.8,19,4,19h1.6l6.2,10.7c0.7,1.2,1.9,1.8,3.2,1.8
	c0.6,0,1.3-0.2,1.9-0.5c1.8-1,2.4-3.3,1.3-5.1l-4-6.9h1.2c2.3,3.7,6.2,6,10.1,6c3.6,0,6.5-5.5,6.5-12.5S29.1,0,25.5,0z M25.5,23
	c-1.5,0-3.1-2.1-3.9-5.4c2.2-0.7,3.9-2.7,3.9-5.1c0-2.4-1.7-4.6-3.9-5.3C22.5,4,24.1,2,25.5,2C27.6,2,30,6.3,30,12.5
	S27.6,23,25.5,23z"/>
</g><g  transform="translate(336, 208)">
<polygon data-color="color-2" fill="#444444" points="25,30 2,30 2,7 14,7 14,5 0,5 0,32 27,32 27,18 25,18 "/>
<rect x="24.7" y="2.1" transform="matrix(-0.7071 0.7071 -0.7071 -0.7071 48.9809 -8.9956)" fill="#444444" width="3.2" height="7.1"/>
<polygon fill="#444444" points="21.3,5.7 10,17 10,22 15,22 26.3,10.7 "/>
</g><g  transform="translate(400, 208)">
<path fill="#444444" d="M30.3,5.9l-4.2-4.2c-1.1-1.1-3.1-1.1-4.2,0L2.1,21.5l-1.2,9.6l9.6-1.2l19.8-19.8C31.5,9,31.5,7,30.3,5.9z
	 M7.9,25.5l13.6-13.6l2.1,2.1L10,27.6L7.9,25.5z M4.4,22L18,8.4l2.1,2.1L6.5,24.1L4.4,22z M19.4,7L21,5.4l5.6,5.6L25,12.6L19.4,7z"/>
</g><g  transform="translate(464, 208)">
<polygon data-color="color-2" fill="#444444" points="30,32 0,32 0,2 13,2 13,4 2,4 2,30 28,30 28,19 30,19 "/>
<path fill="#444444" d="M30,1c-0.4,0-8.8,0.1-14,5.3c-3.1,3.1-3.6,6.7-3.5,9.1l6.4-3.7L8.6,22l1.4,1.4l4.2-4.2
	c0.6,0.2,1.7,0.4,3,0.4c2.2,0,5.5-0.6,8.4-3.6C30.9,10.8,31,2.4,31,2l0-1L30,1z"/>
</g><g  transform="translate(528, 208)">
<path fill="#444444" d="M0,4v24h32V4H0z M5.8,22.6l-1.6-1.2l4-5l1.6,1.2L5.8,22.6z M4.4,9.8l1.3-1.5L16,16.7l10.4-8.5l1.3,1.5
	L16,19.3L4.4,9.8z M26.2,22.6l-4-5l1.6-1.2l4,5L26.2,22.6z"/>
</g><g  transform="translate(592, 208)">
<path fill="#444444" d="M16,31c-5,0-9-4-9-9V7.5C7,3.9,9.9,1,13.5,1S20,3.9,20,7.5V21c0,2.2-1.8,4-4,4s-4-1.8-4-4V7h2v14
	c0,1.1,0.9,2,2,2s2-0.9,2-2V7.5C18,5,16,3,13.5,3S9,5,9,7.5V22c0,3.9,3.1,7,7,7s7-3.1,7-7V7h2v15C25,27,21,31,16,31z"/>
</g><g  transform="translate(16, 272)">
<path fill="#444444" d="M22.8,0c-2.6,0-5.1,1.1-6.8,3.1C14.3,1.1,11.8,0,9.2,0C4.1,0,0,4.2,0,9.3c0,8.7,14.7,21,15.4,21.5l0.6,0.5
	l0.6-0.5C17.3,30.3,32,17.9,32,9.3C32,4.2,27.9,0,22.8,0z"/>
</g><g  transform="translate(80, 272)">
<path fill="#444444" d="M29,17.3c2-3,3-5.7,3-8C32,4.2,27.9,0,22.8,0c-2.6,0-5.1,1.1-6.8,3.1C14.3,1.1,11.8,0,9.2,0
	C4.1,0,0,4.2,0,9.3c0,8.7,14.7,21,15.4,21.5l0.6,0.5l0.6-0.5c0.1-0.1,1.4-1.2,3.3-3C21.2,29.2,23,30,25,30c3.9,0,7-3.1,7-7
	C32,20.6,30.8,18.6,29,17.3z M25,28c-2.8,0-5-2.2-5-5s2.2-5,5-5s5,2.2,5,5S27.8,28,25,28z"/>
<polygon data-color="color-2" fill="#444444" points="26,20 24,20 24,22 22,22 22,24 24,24 24,26 26,26 26,24 28,24 28,22 26,22 "/>
</g><g  transform="translate(144, 272)">
<path fill="#444444" d="M29.2,17.4c2-3.1,3-5.8,3-8.1C32.2,4.2,28.1,0,23,0c-2.6,0-5.1,1.1-6.8,3.1C14.5,1.1,12,0,9.4,0
	C4.3,0,0.2,4.2,0.2,9.3c0,8.7,14.7,21,15.4,21.5l0.6,0.5l0.6-0.5c0.1-0.1,1.4-1.1,3.2-2.9c1.3,1.3,3,2.1,5,2.1c3.9,0,7-3.1,7-7
	C32,20.7,30.9,18.7,29.2,17.4z M25,28c-2.8,0-5-2.2-5-5s2.2-5,5-5s5,2.2,5,5S27.8,28,25,28z"/>
<rect data-color="color-2" x="22" y="22" fill="#444444" width="6" height="2"/>
</g><g  transform="translate(208, 272)">
<path data-color="color-2" fill="#444444" d="M2.6,11.3c2.1-3.8,5.8-6.6,10-7.5l1.9-0.4L13,2c-1.5-1.3-3.3-2-5.2-2C3.5,0,0,3.5,0,7.8
	c0,1.2,0.3,2.3,0.8,3.4l0.8,1.7L2.6,11.3z"/>
<path data-color="color-2" fill="#444444" d="M24.2,0c-1.9,0-3.8,0.7-5.2,2l-1.4,1.3l1.9,0.4c4.2,1,7.9,3.7,10,7.5l0.9,1.7l0.8-1.7
	C31.7,10.1,32,9,32,7.8C32,3.5,28.5,0,24.2,0z"/>
<path fill="#444444" d="M26.3,25.9C28,23.7,29,21,29,18c0-7.2-5.8-13-13-13S3,10.8,3,18c0,3,1,5.7,2.7,7.9l-4.4,4.4l1.4,1.4L7,27.4
	c2.3,2.2,5.5,3.6,9,3.6s6.6-1.4,9-3.6l4.3,4.3l1.4-1.4L26.3,25.9z M23,19h-8v-8h2v6h6V19z"/>
</g><g  transform="translate(272, 272)">
<polygon fill="#444444" points="6,20 6,18 25.8,18 29.3,4 6,4 6,0 0,0 0,2 4,2 4,4 4,6 4,16 4,18 4,22 31,22 31,20 "/>
<circle data-color="color-2" fill="#444444" cx="7" cy="28" r="3"/>
<circle data-color="color-2" fill="#444444" cx="28" cy="28" r="3"/>
</g><g  transform="translate(336, 272)">
<circle data-color="color-2" fill="#444444" cx="7" cy="28" r="3"/>
<circle data-color="color-2" fill="#444444" cx="28" cy="28" r="3"/>
<polygon fill="#444444" points="6,20 6,18 25.8,18 29.3,4 17,4 17,10.6 20,7.6 21.4,9 16,14.4 10.6,9 12,7.6 15,10.6 15,4 6,4 6,0 
	0,0 0,2 4,2 4,4 4,6 4,16 4,18 4,22 31,22 31,20 "/>
</g><g  transform="translate(400, 272)">
<path fill="#444444" d="M28,12h-7V8c0-3.1-1.9-6.7-5.4-7.7c-0.6-0.2-1.3-0.1-1.8,0.3C13.3,1,13,1.5,13,2.2v5.5l-5,6.4v15.5l1.9,1
	c1.9,0.9,4,1.4,6.1,1.4h10c2.2,0,4.1-1.6,4.5-3.9l1.5-12l0-0.1C32,13.8,30.2,12,28,12z"/>
<rect data-color="color-2" y="13" fill="#444444" width="6" height="19"/>
</g><g  transform="translate(464, 272)">
<rect data-color="color-2" x="6" y="3" fill="#444444" width="26" height="3"/>
<rect data-color="color-2" y="3" fill="#444444" width="4" height="3"/>
<path fill="#444444" d="M6,8H4H0v21h32V8H6z M21,19h-4v4h-2v-4h-4v-2h4v-4h2v4h4V19z"/>
</g><g  transform="translate(528, 272)">
<rect data-color="color-2" y="3" fill="#444444" width="4" height="3"/>
<rect data-color="color-2" x="6" y="3" fill="#444444" width="26" height="3"/>
<path fill="#444444" d="M6,8H4H0v21h32V8H6z M21,19H11v-2h10V19z"/>
</g><g  transform="translate(592, 272)">
<path fill="#444444" d="M19,0h-6C9.1,0,6,3.1,6,7v18c0,3.9,3.1,7,7,7h6c3.9,0,7-3.1,7-7V7C26,3.1,22.9,0,19,0z M15,4h2v4h-2V4z
	 M22,12H10v-2h12V12z"/>
</g></svg>