<svg xmlns="http://www.w3.org/2000/svg" xmlns:xlink="http://www.w3.org/1999/xlink" x="0px" y="0px" width="960px" height="480px" viewBox="0 0 960 480"><g  transform="translate(24, 24)">
<path data-color="color-2" fill="#444444" d="M45.4,40.7L40.6,31H7.4l-4.8,9.7c-0.5,0.9-0.4,2,0.1,2.9C3.2,44.5,4.2,45,5.2,45h37.5
	c1,0,2-0.5,2.6-1.4C45.9,42.7,45.9,41.6,45.4,40.7z"/>
<path fill="#444444" d="M38,3H10C8.3,3,7,4.3,7,6v23h34V6C41,4.3,39.7,3,38,3z M35,23H13V9h22V23z"/>
</g><g  transform="translate(120, 24)">
<path fill="#444444" d="M47,29V6c0-2.8-2.2-5-5-5H6C3.2,1,1,3.2,1,6v23H47z M21,7h6v2h-6V7z"/>
<path data-color="color-2" fill="#444444" d="M1,31v3c0,2.8,2.2,5,5,5h12v6h-7v2h7h12h7v-2h-7v-6h12c2.8,0,5-2.2,5-5v-3H1z"/>
</g><g  transform="translate(216, 24)">
<rect data-color="color-2" x="5" y="41" fill="#444444" width="14" height="2"/>
<polygon data-color="color-2" fill="#444444" points="15,29 7,29 7,11 15,11 15,5 1,5 1,35 15,35 "/>
<path fill="#444444" d="M17,1v46h30V1H17z M32,37c-2.8,0-5-2.2-5-5s2.2-5,5-5s5,2.2,5,5S34.8,37,32,37z M37,21H27v-2h10V21z M37,13
	H27v-2h10V13z"/>
</g><g  transform="translate(312, 24)">
<rect data-color="color-2" x="11" y="40" fill="#444444" width="26" height="2"/>
<path fill="#444444" d="M1,6v30h46V6H1z M19,29V13l10.7,8L19,29z"/>
</g><g  transform="translate(408, 24)">
<path data-color="color-2" fill="#444444" d="M39,13h-2v-1c0-5-4-9-9-9h-1V1h1c6.1,0,11,4.9,11,11V13z"/>
<path data-color="color-2" fill="#444444" d="M21,47h-1c-6.1,0-11-4.9-11-11v-1h2v1c0,5,4,9,9,9h1V47z"/>
<path fill="#444444" d="M16,1H6C3.2,1,1,3.2,1,6h20C21,3.2,18.8,1,16,1z"/>
<rect x="1" y="8" fill="#444444" width="20" height="11"/>
<path fill="#444444" d="M1,21v3c0,2.8,2.2,5,5,5h10c2.8,0,5-2.2,5-5v-3H1z"/>
<path fill="#444444" d="M27,39v3c0,2.8,2.2,5,5,5h10c2.8,0,5-2.2,5-5v-3H27z"/>
<path fill="#444444" d="M42,19H32c-2.8,0-5,2.2-5,5h20C47,21.2,44.8,19,42,19z"/>
<rect x="27" y="26" fill="#444444" width="20" height="11"/>
</g><g  transform="translate(504, 24)">
<path fill="#444444" d="M47,11h-8V1H9v10H1v26h8v10h30V37h8V11z M11,3h26v8H11V3z M37,45H11V25h26V45z"/>
<rect data-color="color-2" x="17" y="31" fill="#444444" width="14" height="2"/>
<rect data-color="color-2" x="17" y="37" fill="#444444" width="14" height="2"/>
</g><g  transform="translate(600, 24)">
<circle data-color="color-2" fill="#444444" cx="24" cy="12" r="3"/>
<path fill="#444444" d="M40,7h-6.2c-1.9-3.8-5.9-6-9.8-6s-7.9,2.2-9.8,6H8c-3.9,0-7,3.1-7,7v26c0,3.9,3.1,7,7,7h32c3.9,0,7-3.1,7-7
	V14C47,10.1,43.9,7,40,7z M24,3c4.4,0,9,3.4,9,9c0,4.4-6,11.6-9,14.8c-3-3.2-9-10.5-9-14.8C15,6.4,19.6,3,24,3z M8,38.3V14h5.3
	c0.8,3.2,3.3,6.9,5.6,9.9L8,38.3z M25,39h-2v-6h2V39z M40,38.3L29.2,23.9c2.3-2.9,4.8-6.6,5.6-9.9H40V38.3z"/>
</g><g  transform="translate(696, 24)">
<path fill="#444444" d="M34,17H14C6.8,17,1,22.8,1,30s5.8,13,13,13h20c7.2,0,13-5.8,13-13S41.2,17,34,17z M19,31h-4v4h-2v-4H9v-2h4
	v-4h2v4h4V31z M32,29.4L30.6,28l3.4-3.4l1.4,1.4L32,29.4z M36,35.4L34.6,34l3.4-3.4l1.4,1.4L36,35.4z"/>
<rect data-color="color-2" x="23" y="3" fill="#444444" width="2" height="8"/>
</g><g  transform="translate(792, 24)">
<rect data-color="color-2" x="23" y="5" fill="#444444" width="2" height="8"/>
<path fill="#444444" d="M46,40.7L42,21c-0.7-3.5-3.8-6-7.3-6c-2,0-3.9,0.8-5.3,2.2L27.6,19h-7.2l-1.8-1.8c-1.4-1.4-3.3-2.2-5.3-2.2
	c-3.6,0-6.6,2.5-7.3,6L2,40.7c-0.2,1.2,0.3,2.5,1.3,3.1c0.5,0.3,1,0.5,1.6,0.5c0.6,0,1.3-0.2,1.8-0.6l7-5.2c0.7,0.3,1.4,0.6,2.3,0.6
	c1.5,0,2.9-0.7,3.8-1.8l8.5,0c0.9,1.1,2.3,1.8,3.8,1.8c0.8,0,1.6-0.2,2.3-0.6l7,5.2c1,0.8,2.3,0.8,3.4,0.1
	C45.7,43.1,46.2,41.9,46,40.7z M16,37c-1.7,0-3-1.3-3-3s1.3-3,3-3s3,1.3,3,3S17.7,37,16,37z M29,34c0-1.7,1.3-3,3-3s3,1.3,3,3
	s-1.3,3-3,3S29,35.7,29,34z"/>
</g><g  transform="translate(888, 24)">
<rect data-color="color-2" x="6.7" y="2.1" transform="matrix(0.7071 0.7071 -0.7071 0.7071 8.793 -3.6422)" fill="#444444" width="4.2" height="13.3"/>
<rect data-color="color-2" x="7.6" y="10.6" transform="matrix(0.7071 -0.7071 0.7071 0.7071 -5.9203 14.2928)" fill="#444444" width="13.3" height="7.3"/>
<polygon data-color="color-2" fill="#444444" points="45.3,45.3 43.1,34.3 34.3,43.1 "/>
<rect data-color="color-2" x="29.8" y="27.6" transform="matrix(0.7071 0.7071 -0.7071 0.7071 34.2057 -14.1692)" fill="#444444" width="8.7" height="13.3"/>
<path fill="#444444" d="M34,2.6l-5,5l3.4,3.4L31,12.4L27.6,9L24,12.6l2.4,2.4L25,16.4L22.6,14L19,17.6l4.4,4.4L22,23.4L17.6,19
	L14,22.6l2.4,2.4L15,26.4L12.6,24L9,27.6l4.4,4.4L12,33.4L7.6,29l-5,5L14,45.4L45.4,14L34,2.6z M38,16c-1.1,0-2-0.9-2-2
	c0-1.1,0.9-2,2-2s2,0.9,2,2C40,15.1,39.1,16,38,16z"/>
</g><g  transform="translate(24, 120)">
<rect data-color="color-2" x="9" y="11" fill="#444444" width="12" height="2"/>
<rect data-color="color-2" x="27" y="11" fill="#444444" width="12" height="2"/>
<path data-color="color-2" fill="#444444" d="M43,33h-2v-1c0-8-5.4-14.8-13.2-16.6l-1-0.2l0.4-2l1,0.2C36.9,15.4,43,23.1,43,32V33z"/>
<path data-color="color-2" fill="#444444" d="M7,33H5v-1c0-8.9,6.1-16.6,14.8-18.5l1-0.2l0.4,2l-1,0.2C12.4,17.2,7,24,7,32V33z"/>
<path fill="#444444" d="M6,7c-2.8,0-5,2.2-5,5s2.2,5,5,5s5-2.2,5-5S8.8,7,6,7z"/>
<path fill="#444444" d="M42,17c2.8,0,5-2.2,5-5s-2.2-5-5-5s-5,2.2-5,5S39.2,17,42,17z"/>
<rect x="19" y="7" fill="#444444" width="10" height="10"/>
<rect x="1" y="31" fill="#444444" width="10" height="10"/>
<rect x="37" y="31" fill="#444444" width="10" height="10"/>
</g><g  transform="translate(120, 120)">
<path data-color="color-2" fill="#444444" d="M11.6,29.1c-1.9,0-3.6,0.7-4.9,2.1c-2.5,2.5-3.1,11-3.1,12l-0.1,1.1l1.1-0.1
	c1-0.1,9.4-0.6,12-3.1c1.3-1.3,2.1-3.1,2.1-4.9s-0.7-3.6-2.1-4.9C15.2,29.8,13.4,29.1,11.6,29.1z"/>
<rect x="17" y="14.5" transform="matrix(0.7071 -0.7071 0.7071 0.7071 -5.6482 25.7782)" fill="#444444" width="22.6" height="10.5"/>
<path data-color="color-2" fill="#444444" d="M43.7,4.3c-1-1-2.3-1.5-3.7-1.5s-2.7,0.5-3.7,1.5L34,6.6l7.4,7.4l2.3-2.3
	C45.8,9.7,45.8,6.3,43.7,4.3z"/>
</g><g  transform="translate(216, 120)">
<polygon fill="#444444" points="1,1 1,13 4.5,13 8.5,7 20,7 20,39.4 13,43.4 13,47 35,47 35,43.4 28,39.4 28,7 39.5,7 43.5,13 
	47,13 47,1 "/>
</g><g  transform="translate(312, 120)">
<rect data-color="color-2" x="28.2" y="0.9" transform="matrix(0.7071 -0.7071 0.7071 0.7071 -1.9411 27.3137)" fill="#444444" width="7.7" height="30.3"/>
<path fill="#444444" d="M20.1,12.4l-13,4.9l-4,26.3l10.8-10.8c-1.3-1.9-1.1-4.6,0.6-6.3c0.9-0.9,2.2-1.5,3.5-1.5s2.6,0.5,3.5,1.5
	c1.9,1.9,1.9,5.1,0,7.1C20.6,34.5,19.3,35,18,35c-1,0-1.9-0.3-2.8-0.8L4.5,44.9l26.3-4l4.9-13L20.1,12.4z"/>
</g><g  transform="translate(408, 120)">
<path fill="#444444" d="M42.4,23.4l-2.1-2.9c1.7-1.6,2.8-3.9,2.8-6.5c0-5-4-9-9-9h-5.1c0,0-2.1-2.9-2.1-2.9C26,1.4,25,1,23.7,1
	C20.2,1,15,3.9,10.5,8.5c-2.9,2.9-5.2,6.1-6.5,9.1c-1.4,3.2-1.3,5.8,0.1,7.2c0,0,0.5,0.4,0.7,0.5l20.6,15.1c0.5,0.5,1.3,0.7,2.1,0.7
	c2.7,0,6.7-2.5,9.9-5.8C41.5,31.2,44.6,25.7,42.4,23.4z M34,7c3.9,0,7,3.1,7,7c0,1.9-0.8,3.6-2,4.9L30.3,7H34z M5.8,18.3
	c1.2-2.7,3.3-5.7,6-8.4C16,5.8,20.8,3,23.7,3c0.7,0,1.3,0.2,1.6,0.5c0.8,0.8,0.7,2.7-0.3,5c-1.2,2.7-3.3,5.7-6,8.4
	c-4.1,4.1-8.9,6.9-11.8,6.9c-0.7,0-1.3-0.2-1.6-0.5C4.7,22.5,4.8,20.7,5.8,18.3z"/>
<path data-color="color-2" fill="#444444" d="M6,30.2l-0.8,1.2C4.5,32.4,1,37.6,1,40c0,2.8,2.2,5,5,5s5-2.2,5-5c0-2.4-3.5-7.6-4.2-8.6
	L6,30.2z"/>
</g><g  transform="translate(504, 120)">
<path fill="#444444" d="M41.4,14l2.3-2.3c1-1,1.5-2.3,1.5-3.7c0-1.4-0.5-2.7-1.5-3.7c-1-1-2.3-1.5-3.7-1.5c-1.4,0-2.7,0.5-3.7,1.5
	L34,6.6l-4-4L24.6,8L40,23.4l5.4-5.4L41.4,14z"/>
<polygon data-color="color-2" fill="#444444" points="13.6,27 11,29.6 11,37 18.4,37 28.4,27 "/>
<path data-color="color-2" fill="#444444" d="M11.8,40.4L11,39.2l-0.8,1.2C9.5,41.4,8,43.7,8,45c0,1.7,1.3,3,3,3s3-1.3,3-3
	C14,43.7,12.5,41.4,11.8,40.4z"/>
<polygon fill="#444444" points="27.2,13.4 15.6,25 30.4,25 34.6,20.8 "/>
</g><g  transform="translate(600, 120)">
<path fill="#444444" d="M33,23.8V32H15V7h18v3.2l5.7-5.7C38.1,2.5,36.2,1,34,1H14c-2.8,0-5,2.2-5,5v36c0,2.8,2.2,5,5,5h20
	c2.8,0,5-2.2,5-5V17.8L33,23.8z M24,42c-1.7,0-3-1.3-3-3s1.3-3,3-3s3,1.3,3,3S25.7,42,24,42z"/>
<path data-color="color-2" fill="#444444" d="M46.8,3.2L46.8,3.2c-1.1-1.1-2.9-1.1-4,0l-14,14l4,4l14-14C47.9,6.1,47.9,4.3,46.8,3.2z
	 M23.2,21.2c-1.6,1.6-1.4,7.1-1.4,7.1s5.5,0.1,7.1-1.4c1.6-1.6,1.6-4.1,0-5.7C27.3,19.6,24.7,19.6,23.2,21.2z"/>
</g><g  transform="translate(696, 120)">
<polygon data-color="color-2" fill="#444444" points="32.8,1 15.2,1 13.7,7 34.3,7 "/>
<polygon data-color="color-2" fill="#444444" points="15.2,47 32.8,47 34.3,41 13.7,41 "/>
<path fill="#444444" d="M39,19v-7c0-1.7-1.3-3-3-3H12c-1.7,0-3,1.3-3,3v24c0,1.7,1.3,3,3,3h24c1.7,0,3-1.3,3-3v-7h4V19H39z M21.4,28
	L20,29.4L14.6,24l5.4-5.4l1.4,1.4l-4,4L21.4,28z M28,29.4L26.6,28l4-4l-4-4l1.4-1.4l5.4,5.4L28,29.4z"/>
</g><g  transform="translate(792, 120)">
<path fill="#444444" d="M41,15.9v-0.2l-7.9,7.9l-0.9-0.9c0,0.3,0.1,0.6,0.1,0.9c0,1.6-0.6,3.1-1.8,4.2c-1.7,1.7-5.3,2-8.1,2l-0.4,0
	l-1.9-0.1L20,28c0-1.5,0-6.5,2-8.5c1.1-1.1,2.6-1.8,4.2-1.8c0.3,0,0.6,0,0.9,0.1l-0.9-0.9L39.7,3.3C38.6,1.9,36.9,1,35,1H7
	C3.7,1,1,3.7,1,7v2h10v32c0,3.3,2.7,6,6,6h24c3.3,0,6-2.7,6-6v-3h-6V15.9z M3,7c0-2.2,1.8-4,4-4s4,1.8,4,4H3z M45,40v1
	c0,2.2-1.8,4-4,4H21.4c0.9-0.9,1.6-2.2,1.6-4v-1H45z"/>
<path data-color="color-2" fill="#444444" d="M47.1,2.8c-1.1-1.1-2.9-1.1-4,0l-14,14l4,4l14-14C48.2,5.7,48.2,3.9,47.1,2.8z M23.4,20.8
	c-1.6,1.6-1.4,7.1-1.4,7.1s5.5,0.1,7.1-1.4c1.6-1.6,1.6-4.1,0-5.7C27.5,19.3,25,19.3,23.4,20.8z"/>
</g><g  transform="translate(888, 120)">
<path data-color="color-2" fill="#444444" d="M35,27H13C7.5,27,3,31.5,3,37s4.5,10,10,10h22c5.5,0,10-4.5,10-10S40.5,27,35,27z M35,44
	c-3.9,0-7-3.1-7-7s3.1-7,7-7s7,3.1,7,7S38.9,44,35,44z"/>
<path fill="#444444" d="M35,1H13C7.5,1,3,5.5,3,11s4.5,10,10,10h22c5.5,0,10-4.5,10-10S40.5,1,35,1z M13,18c-3.9,0-7-3.1-7-7
	s3.1-7,7-7s7,3.1,7,7S16.9,18,13,18z"/>
</g><g  transform="translate(24, 216)">
<polygon fill="#444444" points="7,15 17,15 17,1 7,1 7,7 1,7 1,9 7,9 "/>
<polygon data-color="color-2" fill="#444444" points="27,31 37,31 37,17 27,17 27,23 1,23 1,25 27,25 "/>
<polygon fill="#444444" points="7,39 1,39 1,41 7,41 7,47 17,47 17,33 7,33 "/>
<rect x="20" y="7" fill="#444444" width="27" height="2"/>
<rect data-color="color-2" x="40" y="23" fill="#444444" width="7" height="2"/>
<rect x="20" y="39" fill="#444444" width="27" height="2"/>
</g><g  transform="translate(120, 216)">
<path fill="#444444" d="M14,15c3.9,0,7-3.1,7-7s-3.1-7-7-7c-3.5,0-6.4,2.6-6.9,6H1v2h6.1C7.6,12.4,10.5,15,14,15z"/>
<path data-color="color-2" fill="#444444" d="M30,31c3.9,0,7-3.1,7-7s-3.1-7-7-7c-3.5,0-6.4,2.6-6.9,6H1v2h22.1C23.6,28.4,26.5,31,30,31z"/>
<path fill="#444444" d="M14,33c-3.5,0-6.4,2.6-6.9,6H1v2h6.1c0.5,3.4,3.4,6,6.9,6c3.9,0,7-3.1,7-7S17.9,33,14,33z"/>
<rect x="24" y="7" fill="#444444" width="23" height="2"/>
<rect data-color="color-2" x="40" y="23" fill="#444444" width="7" height="2"/>
<rect x="24" y="39" fill="#444444" width="23" height="2"/>
</g><g  transform="translate(216, 216)">
<path fill="#444444" d="M24,1C11.3,1,1,11.3,1,24s10.3,23,23,23s23-10.3,23-23S36.7,1,24,1z M13,24h-2c0-1.5,0.2-2.9,0.7-4.3
	l1.9,0.7C13.2,21.5,13,22.7,13,24z M24,29c-2.8,0-5-2.2-5-5c0-1,0.3-2,0.8-2.8L12.6,14l1.4-1.4l7.2,7.2C22,19.3,23,19,24,19
	c2.8,0,5,2.2,5,5S26.8,29,24,29z M35,24c0-6.1-4.9-11-11-11c-1.3,0-2.5,0.2-3.7,0.6l-0.7-1.9c1.4-0.5,2.8-0.7,4.3-0.7
	c7.2,0,13,5.8,13,13H35z"/>
</g><g  transform="translate(312, 216)">
<path fill="#444444" d="M35,21.8V12c0-6.1-4.9-11-11-11S13,5.9,13,12v9.8c-2.5,2.7-4,6.2-4,10.2c0,8.3,6.7,15,15,15s15-6.7,15-15
	C39,28.1,37.5,24.5,35,21.8z M25,34.9V39h-2v-4.1c-2.3-0.5-4-2.5-4-4.9c0-2.8,2.2-5,5-5s5,2.2,5,5C29,32.4,27.3,34.4,25,34.9z
	 M33,20c-2.5-1.9-5.6-3-9-3s-6.5,1.1-9,3v-8c0-5,4-9,9-9s9,4,9,9V20z"/>
</g><g  transform="translate(408, 216)">
<path fill="#444444" d="M24,17c-3.4,0-6.5,1.1-9,3v-8c0-5,4-9,9-9s9,4,9,9h2c0-6.1-4.9-11-11-11S13,5.9,13,12v9.8
	c-2.5,2.7-4,6.2-4,10.2c0,8.3,6.7,15,15,15s15-6.7,15-15S32.3,17,24,17z M25,34.9V39h-2v-4.1c-2.3-0.5-4-2.5-4-4.9c0-2.8,2.2-5,5-5
	s5,2.2,5,5C29,32.4,27.3,34.4,25,34.9z"/>
</g><g  transform="translate(504, 216)">
<path fill="#444444" d="M20,39c3.9,0,7.4-1.2,10.4-3.1l9.6,9.6l5.4-5.4l-9.6-9.6c2-3,3.1-6.6,3.1-10.4C39,9.5,30.5,1,20,1
	S1,9.5,1,20S9.5,39,20,39z"/>
</g><g  transform="translate(600, 216)">
<path fill="#444444" d="M35.9,30.4c2-3,3.1-6.6,3.1-10.4C39,9.5,30.5,1,20,1S1,9.5,1,20s8.5,19,19,19c3.9,0,7.4-1.2,10.4-3.1
	l9.6,9.6l5.4-5.4L35.9,30.4z M27,21h-6v6h-2v-6h-6v-2h6v-6h2v6h6V21z"/>
</g><g  transform="translate(696, 216)">
<path fill="#444444" d="M35.9,30.4c2-3,3.1-6.6,3.1-10.4C39,9.5,30.5,1,20,1S1,9.5,1,20s8.5,19,19,19c3.9,0,7.4-1.2,10.4-3.1
	l9.6,9.6l5.4-5.4L35.9,30.4z M27,21H13v-2h14V21z"/>
</g><g  transform="translate(792, 216)">
<path fill="#444444" d="M41,9h-2h-6V1H15v8H9H7H1v2h6v36h34V11h6V9H41z M17,38h-2V20h2V38z M17,3h14v6H17V3z M25,38h-2V20h2V38z
	 M33,38h-2V20h2V38z"/>
</g><g  transform="translate(888, 216)">
<polygon data-color="color-2" fill="#444444" points="45.3,24.7 24,5.4 2.7,24.7 1.3,23.3 24,2.6 46.7,23.3 "/>
<path fill="#444444" d="M24,8.1L7,23.5V45h13V35h8v10h13V23.5L24,8.1z M28,28h-8v-8h8V28z"/>
</g><g  transform="translate(24, 312)">
<polygon fill="#444444" points="2,20 9.8,25.8 27,17 13,28.2 13,28.2 13,28.2 13,45 21.7,34.7 36.7,46 45.4,2.6 "/>
</g><g  transform="translate(120, 312)">
<rect x="1" y="16" fill="#444444" width="46" height="31"/>
<polygon data-color="color-2" fill="#444444" points="37,1 35,1 35,5 25,5 25,1 23,1 23,5 13,5 13,1 11,1 11,5 1,5 1,14 47,14 47,5 37,5 
	"/>
</g><g  transform="translate(216, 312)">
<polygon data-color="color-2" fill="#444444" points="37,1 35,1 35,5 25,5 25,1 23,1 23,5 13,5 13,1 11,1 11,5 1,5 1,14 47,14 47,5 37,5 
	"/>
<path fill="#444444" d="M1,16v31h46V16H1z M17,41H9v-8h8V41z M17,30H9v-8h8V30z M28,41h-8v-8h8V41z M28,30h-8v-8h8V30z M39,30h-8v-8
	h8V30z"/>
</g><g  transform="translate(312, 312)">
<polygon data-color="color-2" fill="#444444" points="37,5 37,1 35,1 35,5 25,5 25,1 23,1 23,5 13,5 13,1 11,1 11,5 1,5 1,14 47,14 47,5 
	"/>
<path fill="#444444" d="M1,16v31h46V16H1z M20,39.4L12.6,32l1.4-1.4l6,6l14-14l1.4,1.4L20,39.4z"/>
</g><g  transform="translate(408, 312)">
<path fill="#444444" d="M38,1c-5.8,0-11.3,3.1-14.4,8H15h-1H6c-2.9,0-5,3.9-5,9s2.1,9,5,9h2.9l9.4,16.1c0.9,1.6,2.6,2.5,4.3,2.5
	c0.9,0,1.7-0.2,2.5-0.7c2.4-1.4,3.2-4.5,1.8-6.8l-6.4-11h3.2c3.1,4.9,8.6,8,14.4,8c5,0,9-7.5,9-17S43,1,38,1z M31,18L31,18
	C31,18,31,18,31,18C31,18,31,18,31,18z M38,33c-2.5,0-4.7-3-6-7.3c3.4-0.9,6-4,6-7.7s-2.5-6.8-6-7.7C33.3,6,35.5,3,38,3
	c3.8,0,7,6.9,7,15S41.8,33,38,33z"/>
</g><g  transform="translate(504, 312)">
<polygon data-color="color-2" fill="#444444" points="37,45 3,45 3,11 19,11 19,9 1,9 1,47 39,47 39,29 37,29 "/>
<polygon fill="#444444" points="31.6,8 14,25.6 14,34 22.4,34 40,16.4 "/>
<rect x="36.4" y="2.8" transform="matrix(-0.7071 0.7071 -0.7071 -0.7071 73.1482 -12.713)" fill="#444444" width="5.7" height="11.9"/>
</g><g  transform="translate(600, 312)">
<path fill="#444444" d="M43.9,8.5l-4.3-4.3c-0.9-0.9-2.2-1.5-3.5-1.5s-2.6,0.5-3.5,1.5L32,4.6L30.6,6L28,8.6L26.6,10L5.1,31.5
	L2.8,45.2l13.7-2.3L38,21.4l1.4-1.4l2.6-2.6l1.4-1.4l0.5-0.5C45.8,13.6,45.8,10.4,43.9,8.5z M9.5,42.1l-3.6-3.6l0.7-4.4l7.3,7.3
	L9.5,42.1z M13.7,35.7l-1.4-1.4l18-18l1.4,1.4L13.7,35.7z M38,18.6L29.4,10L32,7.4l8.6,8.6L38,18.6z"/>
</g><g  transform="translate(696, 312)">
<polygon data-color="color-2" fill="#444444" points="43,47 1,47 1,5 19,5 19,7 3,7 3,45 41,45 41,29 43,29 "/>
<path fill="#444444" d="M43.9,3c-0.5,0-13.3,0.9-20.6,8.3c-4.4,4.4-5.1,9.5-5,12.9L28.5,18l-16,16l1.4,1.4l6.3-6.3
	c0.8,0.2,2.4,0.6,4.5,0.6c3.1,0,7.8-0.9,11.9-5C44.1,17.3,45,4.6,45,4.1l0.1-1.1L43.9,3z"/>
</g><g  transform="translate(792, 312)">
<path fill="#444444" d="M1,5v38h46V5H1z M10,35.4L8.6,34l5.4-5.4l1.4,1.4L10,35.4z M38,35.4L32.6,30l1.4-1.4l5.4,5.4L38,35.4z
	 M24,29.4L8.6,14l1.4-1.4l14,14l14-14l1.4,1.4L24,29.4z"/>
</g><g  transform="translate(888, 312)">
<path fill="#444444" d="M23,47c-7.7,0-14-6.3-14-14V11C9,5.5,13.5,1,19,1s10,4.5,10,10v20c0,3.3-2.7,6-6,6s-6-2.7-6-6V13h2v18
	c0,2.2,1.8,4,4,4s4-1.8,4-4V11c0-4.4-3.6-8-8-8s-8,3.6-8,8v22c0,6.6,5.4,12,12,12s12-5.4,12-12V7h2v26C37,40.7,30.7,47,23,47z"/>
</g><g  transform="translate(24, 408)">
<path fill="#444444" d="M34,1c-3.9,0-7.5,1.7-10,4.7C21.5,2.7,17.9,1,14,1C6.8,1,1,6.8,1,14c0,12.3,21.5,30,22.4,30.8l0.6,0.5
	l0.6-0.5C25.5,44,47,26.3,47,14C47,6.8,41.2,1,34,1z"/>
</g><g  transform="translate(120, 408)">
<path fill="#444444" d="M34,1c-3.9,0-7.5,1.7-10,4.7C21.5,2.7,17.9,1,14,1C6.8,1,1,6.8,1,14c0,12.3,21.5,30,22.4,30.8l0.6,0.5
	l0.6-0.5c0.1-0.1,2-1.6,4.6-4.1c1.9,1.5,4.2,2.3,6.7,2.3c6.1,0,11-4.9,11-11c0-3.1-1.3-6-3.4-8c2.3-3.8,3.4-7.2,3.4-10
	C47,6.8,41.2,1,34,1z M45,32c0,5-4,9-9,9s-9-4-9-9s4-9,9-9S45,27,45,32z"/>
<polygon data-color="color-2" fill="#444444" points="37,27 35,27 35,31 31,31 31,33 35,33 35,37 37,37 37,33 41,33 41,31 37,31 "/>
</g><g  transform="translate(216, 408)">
<path fill="#444444" d="M43.6,24c2.3-3.8,3.4-7.2,3.4-10c0-7.2-5.8-13-13-13c-3.9,0-7.5,1.7-10,4.7C21.5,2.7,17.9,1,14,1
	C6.8,1,1,6.8,1,14c0,12.3,21.5,30,22.4,30.8l0.6,0.5l0.6-0.5c0.1-0.1,2-1.6,4.6-4.1c1.9,1.5,4.2,2.3,6.7,2.3c6.1,0,11-4.9,11-11
	C47,28.9,45.7,26,43.6,24z M36,41c-5,0-9-4-9-9s4-9,9-9s9,4,9,9S41,41,36,41z"/>
<rect data-color="color-2" x="31" y="31" fill="#444444" width="10" height="2"/>
</g><g  transform="translate(312, 408)">
<path data-color="color-2" fill="#444444" d="M12,1C5.9,1,1,5.9,1,12c0,1.6,0.4,3.2,1.1,4.8L3,18.5l0.9-1.7c3.2-5.7,8.7-9.8,15-11.2
	l1.9-0.4l-1.4-1.3C17.3,2,14.7,1,12,1z"/>
<path data-color="color-2" fill="#444444" d="M36,1c-2.7,0-5.3,1-7.4,2.9l-1.4,1.3l1.9,0.4c6.3,1.4,11.8,5.5,15,11.2l0.9,1.7l0.8-1.7
	c0.8-1.5,1.1-3.2,1.1-4.8C47,5.9,42.1,1,36,1z"/>
<path fill="#444444" d="M43,28c0-10.5-8.5-19-19-19S5,17.5,5,28c0,4.9,1.9,9.3,4.9,12.7l-4.6,4.6l1.4,1.4l4.6-4.6
	c3.4,3,7.8,4.9,12.7,4.9s9.3-1.9,12.7-4.9l4.6,4.6l1.4-1.4l-4.6-4.6C41.1,37.3,43,32.9,43,28z M33,29H23V19h2v8h8V29z"/>
</g><g  transform="translate(408, 408)">
<polygon fill="#444444" points="9,27 38.8,27 43.2,7 9,7 9,1 1,1 1,3 7,3 7,7 7,9 7,25 7,27 7,33 47,33 47,31 9,31 "/>
<path data-color="color-2" fill="#444444" d="M12,37c-2.8,0-5,2.2-5,5s2.2,5,5,5s5-2.2,5-5S14.8,37,12,37z"/>
<path data-color="color-2" fill="#444444" d="M42,37c-2.8,0-5,2.2-5,5s2.2,5,5,5s5-2.2,5-5S44.8,37,42,37z"/>
</g><g  transform="translate(504, 408)">
<path data-color="color-2" fill="#444444" d="M12,37c-2.8,0-5,2.2-5,5s2.2,5,5,5s5-2.2,5-5S14.8,37,12,37z"/>
<path data-color="color-2" fill="#444444" d="M42,37c-2.8,0-5,2.2-5,5s2.2,5,5,5s5-2.2,5-5S44.8,37,42,37z"/>
<polygon fill="#444444" points="9,31 9,27 38.8,27 43.2,7 25,7 25,17.6 30,12.6 31.4,14 24,21.4 16.6,14 18,12.6 23,17.6 23,7 9,7 
	9,1 1,1 1,3 7,3 7,7 7,9 7,25 7,27 7,33 47,33 47,31 "/>
</g><g  transform="translate(600, 408)">
<rect data-color="color-2" x="3" y="21" fill="#444444" width="8" height="24"/>
<path fill="#444444" d="M40,19h-9v-5c0-3.5-2.1-8.6-5.5-10.6C25,3.2,24.5,3,24,3c-1.6,0-3,1.3-3,3v7.6l-8,9.6v18.4l3.1,1.5
	c2.4,1.2,5.2,1.9,7.9,1.9h14c2.7,0,5-2.2,5-4.9l2-15.9l0-0.1C45,21.2,42.8,19,40,19z"/>
</g><g  transform="translate(696, 408)">
<rect data-color="color-2" x="11" y="3" fill="#444444" width="36" height="6"/>
<rect data-color="color-2" x="1" y="3" fill="#444444" width="8" height="6"/>
<path fill="#444444" d="M11,11H9H1v34h46V11H11z M31,29h-6v6h-2v-6h-6v-2h6v-6h2v6h6V29z"/>
</g><g  transform="translate(792, 408)">
<rect data-color="color-2" x="1" y="3" fill="#444444" width="8" height="6"/>
<path fill="#444444" d="M11,11H9H1v34h46V11H11z M31,29H17v-2h14V29z"/>
<rect data-color="color-2" x="11" y="3" fill="#444444" width="36" height="6"/>
</g><g  transform="translate(888, 408)">
<path fill="#444444" d="M28,1h-8C13.9,1,9,5.9,9,12v24c0,6.1,4.9,11,11,11h8c6.1,0,11-4.9,11-11V12C39,5.9,34.1,1,28,1z M33,19h-8
	h-2h-8v-2h8V9h2v8h8V19z"/>
</g></svg>