<svg xmlns="http://www.w3.org/2000/svg" xmlns:xlink="http://www.w3.org/1999/xlink" x="0px" y="0px" width="960px" height="480px" viewBox="0 0 960 480"><g  transform="translate(24, 24)">
<path data-color="color-2" fill="#444444" d="M45.4,40.7l-4.6-9.1C40.7,31.2,40.4,31,40,31H8c-0.4,0-0.7,0.2-0.9,0.6l-4.6,9.1
	c-0.5,0.9-0.4,2,0.1,2.9C3.2,44.5,4.2,45,5.2,45h37.5c1,0,2-0.5,2.6-1.4C45.9,42.7,45.9,41.6,45.4,40.7z"/>
<path fill="#444444" d="M38,3H10C8.3,3,7,4.3,7,6v22c0,0.6,0.4,1,1,1h32c0.6,0,1-0.4,1-1V6C41,4.3,39.7,3,38,3z M35,22
	c0,0.6-0.4,1-1,1H14c-0.6,0-1-0.4-1-1V10c0-0.6,0.4-1,1-1h20c0.6,0,1,0.4,1,1V22z"/>
</g><g  transform="translate(120, 24)">
<path fill="#444444" d="M47,29V6c0-2.8-2.2-5-5-5H6C3.2,1,1,3.2,1,6v23H47z M22,7h4c0.6,0,1,0.4,1,1s-0.4,1-1,1h-4c-0.6,0-1-0.4-1-1
	S21.4,7,22,7z"/>
<path data-color="color-2" fill="#444444" d="M1,31v3c0,2.8,2.2,5,5,5h12v6h-6c-0.6,0-1,0.4-1,1s0.4,1,1,1h7h10h7c0.6,0,1-0.4,1-1
	s-0.4-1-1-1h-6v-6h12c2.8,0,5-2.2,5-5v-3H1z"/>
</g><g  transform="translate(216, 24)">
<path data-color="color-2" fill="#444444" d="M15,41H6c-0.6,0-1,0.4-1,1s0.4,1,1,1h9V41z"/>
<path data-color="color-2" fill="#444444" d="M15,29H8c-0.6,0-1-0.4-1-1V12c0-0.6,0.4-1,1-1h7V5H2C1.4,5,1,5.4,1,6v28c0,0.6,0.4,1,1,1h13
	V29z"/>
<path fill="#444444" d="M46,1H18c-0.6,0-1,0.4-1,1v44c0,0.6,0.4,1,1,1h28c0.6,0,1-0.4,1-1V2C47,1.4,46.6,1,46,1z M32,37
	c-2.8,0-5-2.2-5-5s2.2-5,5-5s5,2.2,5,5S34.8,37,32,37z M36,21h-8c-0.6,0-1-0.4-1-1s0.4-1,1-1h8c0.6,0,1,0.4,1,1S36.6,21,36,21z
	 M36,13h-8c-0.6,0-1-0.4-1-1s0.4-1,1-1h8c0.6,0,1,0.4,1,1S36.6,13,36,13z"/>
</g><g  transform="translate(312, 24)">
<path data-color="color-2" fill="#444444" d="M36,42H12c-0.6,0-1-0.4-1-1s0.4-1,1-1h24c0.6,0,1,0.4,1,1S36.6,42,36,42z"/>
<path fill="#444444" d="M46,6H2C1.4,6,1,6.4,1,7v28c0,0.6,0.4,1,1,1h44c0.6,0,1-0.4,1-1V7C47,6.4,46.6,6,46,6z M28.6,21.8l-8,6
	C20.4,27.9,20.2,28,20,28c-0.2,0-0.3,0-0.4-0.1C19.2,27.7,19,27.4,19,27V15c0-0.4,0.2-0.7,0.6-0.9c0.3-0.2,0.7-0.1,1,0.1l8,6
	c0.3,0.2,0.4,0.5,0.4,0.8S28.9,21.6,28.6,21.8z"/>
</g><g  transform="translate(408, 24)">
<path data-color="color-2" fill="#444444" d="M38,13c-0.6,0-1-0.4-1-1c0-5-4-9-9-9c-0.6,0-1-0.4-1-1s0.4-1,1-1c6.1,0,11,4.9,11,11
	C39,12.6,38.6,13,38,13z"/>
<path data-color="color-2" fill="#444444" d="M20,47c-6.1,0-11-4.9-11-11c0-0.6,0.4-1,1-1s1,0.4,1,1c0,5,4,9,9,9c0.6,0,1,0.4,1,1
	S20.6,47,20,47z"/>
<path fill="#444444" d="M16,1H6C3.2,1,1,3.2,1,6h20C21,3.2,18.8,1,16,1z"/>
<rect x="1" y="8" fill="#444444" width="20" height="11"/>
<path fill="#444444" d="M1,24c0,2.8,2.2,5,5,5h10c2.8,0,5-2.2,5-5v-3H1V24z"/>
<rect x="27" y="26" fill="#444444" width="20" height="11"/>
<path fill="#444444" d="M42,19H32c-2.8,0-5,2.2-5,5h20C47,21.2,44.8,19,42,19z"/>
<path fill="#444444" d="M27,39v3c0,2.8,2.2,5,5,5h10c2.8,0,5-2.2,5-5v-3H27z"/>
</g><g  transform="translate(504, 24)">
<path fill="#444444" d="M46,11h-7V2c0-0.6-0.4-1-1-1H10C9.4,1,9,1.4,9,2v9H2c-0.6,0-1,0.4-1,1v24c0,0.6,0.4,1,1,1h7v9
	c0,0.6,0.4,1,1,1h28c0.6,0,1-0.4,1-1v-9h7c0.6,0,1-0.4,1-1V12C47,11.4,46.6,11,46,11z M11,3h26v8H11V3z M37,45H11V25h26V45z"/>
<path data-color="color-2" fill="#444444" d="M18,33h12c0.6,0,1-0.4,1-1s-0.4-1-1-1H18c-0.6,0-1,0.4-1,1S17.4,33,18,33z"/>
<path data-color="color-2" fill="#444444" d="M18,39h12c0.6,0,1-0.4,1-1s-0.4-1-1-1H18c-0.6,0-1,0.4-1,1S17.4,39,18,39z"/>
</g><g  transform="translate(600, 24)">
<circle data-color="color-2" fill="#444444" cx="24" cy="12" r="3"/>
<path fill="#444444" d="M40,7h-6.2c-1.9-3.8-5.9-6-9.8-6s-7.9,2.2-9.8,6H8c-3.9,0-7,3.1-7,7v26c0,3.9,3.1,7,7,7h32c3.9,0,7-3.1,7-7
	V14C47,10.1,43.9,7,40,7z M24,3c4.4,0,9,3.4,9,9c0,4.4-6,11.6-9,14.8c-3-3.2-9-10.5-9-14.8C15,6.4,19.6,3,24,3z M8,38.3V15
	c0-0.6,0.4-1,1-1h4.3c0.8,3.2,3.3,6.9,5.6,9.9L8,38.3z M25,37c0,0.6-0.4,1-1,1s-1-0.4-1-1v-5c0-0.6,0.4-1,1-1s1,0.4,1,1V37z
	 M40,38.3L29.2,23.9c2.3-2.9,4.8-6.6,5.6-9.9H39c0.6,0,1,0.4,1,1V38.3z"/>
</g><g  transform="translate(696, 24)">
<path fill="#444444" d="M34,17H14C6.8,17,1,22.8,1,30s5.8,13,13,13h20c7.2,0,13-5.8,13-13S41.2,17,34,17z M18,31h-3v3
	c0,0.6-0.4,1-1,1s-1-0.4-1-1v-3h-3c-0.6,0-1-0.4-1-1s0.4-1,1-1h3v-3c0-0.6,0.4-1,1-1s1,0.4,1,1v3h3c0.6,0,1,0.4,1,1S18.6,31,18,31z
	 M32.7,28.7C32.5,28.9,32.3,29,32,29s-0.5-0.1-0.7-0.3c-0.4-0.4-0.4-1,0-1.4l2-2c0.4-0.4,1-0.4,1.4,0s0.4,1,0,1.4L32.7,28.7z
	 M38.7,32.7l-2,2C36.5,34.9,36.3,35,36,35s-0.5-0.1-0.7-0.3c-0.4-0.4-0.4-1,0-1.4l2-2c0.4-0.4,1-0.4,1.4,0S39.1,32.3,38.7,32.7z"/>
<path data-color="color-2" fill="#444444" d="M24,11c-0.6,0-1-0.4-1-1V4c0-0.6,0.4-1,1-1s1,0.4,1,1v6C25,10.6,24.6,11,24,11z"/>
</g><g  transform="translate(792, 24)">
<path data-color="color-2" fill="#444444" d="M24,13c0.6,0,1-0.4,1-1V6c0-0.6-0.4-1-1-1s-1,0.4-1,1v6C23,12.6,23.4,13,24,13z"/>
<path fill="#444444" d="M46,40.7L42,21c-0.7-3.5-3.8-6-7.3-6c-2,0-3.9,0.8-5.3,2.2L27.6,19h-7.2l-1.8-1.8c-1.4-1.4-3.3-2.2-5.3-2.2
	c-3.6,0-6.6,2.5-7.3,6L2,40.7c-0.2,1.2,0.3,2.5,1.3,3.1c0.5,0.3,1,0.5,1.6,0.5c0.6,0,1.3-0.2,1.8-0.6l7-5.2c0.7,0.3,1.4,0.6,2.3,0.6
	c1.5,0,2.9-0.7,3.8-1.8l8.5,0c0.9,1.1,2.3,1.8,3.8,1.8c0.8,0,1.6-0.2,2.3-0.6l7,5.2c1,0.8,2.3,0.8,3.4,0.1
	C45.7,43.1,46.2,41.9,46,40.7z M16,37c-1.7,0-3-1.3-3-3s1.3-3,3-3s3,1.3,3,3S17.7,37,16,37z M29,34c0-1.7,1.3-3,3-3s3,1.3,3,3
	s-1.3,3-3,3S29,35.7,29,34z"/>
</g><g  transform="translate(888, 24)">
<path data-color="color-2" fill="#444444" d="M5.6,15L15,5.6l-2.3-2.3c-0.4-0.4-1-0.4-1.4,0l-8,8c-0.4,0.4-0.4,1,0,1.4L5.6,15z"/>
<rect data-color="color-2" x="7.6" y="10.6" transform="matrix(0.7071 -0.7071 0.7071 0.7071 -5.9203 14.293)" fill="#444444" width="13.3" height="7.3"/>
<rect data-color="color-2" x="29.8" y="27.6" transform="matrix(0.7071 0.7071 -0.7071 0.7071 34.207 -14.169)" fill="#444444" width="8.7" height="13.3"/>
<path data-color="color-2" fill="#444444" d="M43.1,34.3l-8.8,8.8l9.5,1.9c0.1,0,0.1,0,0.2,0c0.3,0,0.5-0.1,0.7-0.3
	c0.2-0.2,0.3-0.6,0.3-0.9L43.1,34.3z"/>
<path fill="#444444" d="M44.7,13.3l-10-10c-0.4-0.4-1-0.4-1.4,0L29,7.6l2.7,2.7c0.4,0.4,0.4,1,0,1.4C31.5,11.9,31.3,12,31,12
	c-0.3,0-0.5-0.1-0.7-0.3L27.6,9L24,12.6l1.7,1.7c0.4,0.4,0.4,1,0,1.4C25.5,15.9,25.3,16,25,16s-0.5-0.1-0.7-0.3L22.6,14L19,17.6
	l3.7,3.7c0.4,0.4,0.4,1,0,1.4C22.5,22.9,22.3,23,22,23s-0.5-0.1-0.7-0.3L17.6,19L14,22.6l1.7,1.7c0.4,0.4,0.4,1,0,1.4
	C15.5,25.9,15.3,26,15,26s-0.5-0.1-0.7-0.3L12.6,24L9,27.6l3.7,3.7c0.4,0.4,0.4,1,0,1.4C12.5,32.9,12.3,33,12,33s-0.5-0.1-0.7-0.3
	L7.6,29l-4.3,4.3c-0.4,0.4-0.4,1,0,1.4l10,10c0.2,0.2,0.5,0.3,0.7,0.3s0.5-0.1,0.7-0.3l30-30C45.1,14.3,45.1,13.7,44.7,13.3z M38,16
	c-1.1,0-2-0.9-2-2c0-1.1,0.9-2,2-2s2,0.9,2,2C40,15.1,39.1,16,38,16z"/>
</g><g  transform="translate(24, 120)">
<path data-color="color-2" fill="#444444" d="M20,13H10c-0.6,0-1-0.4-1-1s0.4-1,1-1h10c0.6,0,1,0.4,1,1S20.6,13,20,13z"/>
<path data-color="color-2" fill="#444444" d="M38,13H28c-0.6,0-1-0.4-1-1s0.4-1,1-1h10c0.6,0,1,0.4,1,1S38.6,13,38,13z"/>
<path data-color="color-2" fill="#444444" d="M42,33c-0.6,0-1-0.4-1-1c0-8-5.4-14.8-13.2-16.6c-0.5-0.1-0.9-0.7-0.8-1.2
	c0.1-0.5,0.7-0.9,1.2-0.8C36.9,15.4,43,23.1,43,32C43,32.6,42.6,33,42,33z"/>
<path data-color="color-2" fill="#444444" d="M6,33c-0.6,0-1-0.4-1-1c0-8.9,6.1-16.6,14.8-18.5c0.5-0.1,1.1,0.2,1.2,0.8
	c0.1,0.5-0.2,1.1-0.8,1.2C12.4,17.2,7,24,7,32C7,32.6,6.6,33,6,33z"/>
<path fill="#444444" d="M6,7c-2.8,0-5,2.2-5,5s2.2,5,5,5s5-2.2,5-5S8.8,7,6,7z"/>
<path fill="#444444" d="M42,17c2.8,0,5-2.2,5-5s-2.2-5-5-5s-5,2.2-5,5S39.2,17,42,17z"/>
<path fill="#444444" d="M28,7h-8c-0.6,0-1,0.4-1,1v8c0,0.6,0.4,1,1,1h8c0.6,0,1-0.4,1-1V8C29,7.4,28.6,7,28,7z"/>
<path fill="#444444" d="M10,31H2c-0.6,0-1,0.4-1,1v8c0,0.6,0.4,1,1,1h8c0.6,0,1-0.4,1-1v-8C11,31.4,10.6,31,10,31z"/>
<path fill="#444444" d="M46,31h-8c-0.6,0-1,0.4-1,1v8c0,0.6,0.4,1,1,1h8c0.6,0,1-0.4,1-1v-8C47,31.4,46.6,31,46,31z"/>
</g><g  transform="translate(120, 120)">
<path data-color="color-2" fill="#444444" d="M11.6,29.1c-1.9,0-3.6,0.7-4.9,2.1c-2.5,2.5-3.1,11-3.1,12c0,0.3,0.1,0.6,0.3,0.8
	c0.2,0.2,0.4,0.3,0.7,0.3c0,0,0,0,0.1,0c1-0.1,9.4-0.6,12-3.1c1.3-1.3,2.1-3.1,2.1-4.9s-0.7-3.6-2.1-4.9
	C15.2,29.8,13.4,29.1,11.6,29.1z"/>
<path data-color="color-2" fill="#444444" d="M43.7,4.3c-1-1-2.3-1.5-3.7-1.5s-2.7,0.5-3.7,1.5L34,6.6l7.4,7.4l2.3-2.3
	C45.8,9.7,45.8,6.3,43.7,4.3z"/>
<path fill="#444444" d="M32.6,8L17.3,23.3c-0.4,0.4-0.4,1,0,1.4l6,6c0.2,0.2,0.5,0.3,0.7,0.3s0.5-0.1,0.7-0.3L40,15.4L32.6,8z"/>
</g><g  transform="translate(216, 120)">
<path fill="#444444" d="M46,1H2C1.4,1,1,1.4,1,2v10c0,0.6,0.4,1,1,1h2c0.3,0,0.6-0.2,0.8-0.4L8.5,7H20v32.4l-6.5,3.7
	C13.2,43.3,13,43.6,13,44v2c0,0.6,0.4,1,1,1h20c0.6,0,1-0.4,1-1v-2c0-0.4-0.2-0.7-0.5-0.9L28,39.4V7h11.5l3.7,5.6
	c0.2,0.3,0.5,0.4,0.8,0.4h2c0.6,0,1-0.4,1-1V2C47,1.4,46.6,1,46,1z"/>
</g><g  transform="translate(312, 120)">
<path fill="#444444" d="M20.1,12.4L7.6,17.1c-0.3,0.1-0.6,0.4-0.6,0.8L3.5,40.5c-0.1,1,1,1.5,1.7,0.9l8.6-8.6
	c-1.3-1.9-1.1-4.6,0.6-6.3c0.9-0.9,2.2-1.5,3.5-1.5c1.6,0,3.2,0.8,4.1,2.2c1.2,1.7,1.2,4,0,5.7c-1,1.4-2.5,2.2-4.1,2.2
	c-1,0-1.9-0.3-2.8-0.8l-8.6,8.6c-0.7,0.7-0.1,1.8,0.9,1.7L30.2,41c0.4-0.1,0.7-0.3,0.8-0.6l4.7-12.5L20.1,12.4z"/>
<path data-color="color-2" fill="#444444" d="M44.7,23.3l-20-20c-0.4-0.4-1-0.4-1.4,0l-4,4c-0.4,0.4-0.4,1,0,1.4l20,20
	c0.2,0.2,0.5,0.3,0.7,0.3s0.5-0.1,0.7-0.3l4-4C45.1,24.3,45.1,23.7,44.7,23.3z"/>
</g><g  transform="translate(408, 120)">
<path data-color="color-2" fill="#444444" d="M6.8,31.4c-0.4-0.5-1.3-0.5-1.6,0C4.5,32.4,1,37.6,1,40c0,2.8,2.2,5,5,5s5-2.2,5-5
	C11,37.6,7.5,32.4,6.8,31.4z"/>
<path fill="#444444" d="M42.4,23.4l-2.1-2.9c1.7-1.6,2.8-3.9,2.8-6.5c0-5-4-9-9-9h-5c0,0-0.1,0-0.1,0l-1.6-2.2
	c-0.1-0.2-0.2-0.3-0.4-0.5l-0.1-0.1c0,0,0,0,0,0c0,0,0-0.1-0.1-0.1C26,1.4,25,1,23.7,1C20.2,1,15,3.9,10.5,8.5
	c-2.9,2.9-5.2,6.1-6.5,9.1c-1.4,3.2-1.3,5.8,0.1,7.2c0,0,21.3,15.6,21.3,15.6c0.5,0.5,1.3,0.7,2.1,0.7c2.7,0,6.7-2.5,9.9-5.8
	C41.5,31.2,44.6,25.7,42.4,23.4z M34,7c3.9,0,7,3.1,7,7c0,1.9-0.8,3.6-2,4.9L30.3,7H34z M5.8,18.3c1.2-2.7,3.3-5.7,6-8.4
	C16,5.8,20.8,3,23.7,3c0.7,0,1.3,0.2,1.6,0.5c0.8,0.8,0.7,2.7-0.3,5c-1.2,2.7-3.3,5.7-6,8.4c-4.1,4.1-8.9,6.9-11.8,6.9
	c-0.7,0-1.3-0.2-1.6-0.5C4.7,22.5,4.8,20.7,5.8,18.3z"/>
</g><g  transform="translate(504, 120)">
<path fill="#444444" d="M41.4,14l2.3-2.3c1-1,1.5-2.3,1.5-3.7c0-1.4-0.5-2.7-1.5-3.7c-1-1-2.3-1.5-3.7-1.5c-1.4,0-2.7,0.5-3.7,1.5
	L34,6.6l-3.3-3.3c-0.4-0.4-1-0.4-1.4,0l-4,4c-0.4,0.4-0.4,1,0,1.4l14,14c0.2,0.2,0.5,0.3,0.7,0.3s0.5-0.1,0.7-0.3l4-4
	c0.4-0.4,0.4-1,0-1.4L41.4,14z"/>
<path data-color="color-2" fill="#444444" d="M11.8,40.4c-0.4-0.5-1.3-0.5-1.6,0C9.5,41.4,8,43.7,8,45c0,1.7,1.3,3,3,3s3-1.3,3-3
	C14,43.7,12.5,41.4,11.8,40.4z"/>
<polygon fill="#444444" points="30.4,25 34.6,20.8 27.2,13.4 15.6,25 "/>
<path data-color="color-2" fill="#444444" d="M13.6,27l-2.3,2.3C11.1,29.5,11,29.7,11,30v6c0,0.6,0.4,1,1,1h6c0.3,0,0.5-0.1,0.7-0.3l9.7-9.7
	H13.6z"/>
</g><g  transform="translate(600, 120)">
<path fill="#444444" d="M35.7,21.2c-0.7,0.7-1.7,1.1-2.7,1.2V31c0,0.6-0.4,1-1,1H16c-0.6,0-1-0.4-1-1V8c0-0.6,0.4-1,1-1h16
	c0.6,0,1,0.4,1,1v2.2l5.7-5.7C38.1,2.5,36.2,1,34,1H14c-2.8,0-5,2.2-5,5v36c0,2.8,2.2,5,5,5h20c2.8,0,5-2.2,5-5V17.8L35.7,21.2z
	 M24,42c-1.7,0-3-1.3-3-3s1.3-3,3-3s3,1.3,3,3S25.7,42,24,42z"/>
<path data-color="color-2" fill="#444444" d="M46.8,3.2L46.8,3.2c-1.1-1.1-2.9-1.1-4,0L30.3,15.8c-0.8,0.8-0.8,2,0,2.8l1.2,1.2
	c0.8,0.8,2,0.8,2.8,0L46.8,7.2C47.9,6.1,47.9,4.3,46.8,3.2z M23.2,21.2c-0.9,0.9-1.2,3.2-1.4,4.9c-0.1,1.2,0.9,2.2,2.1,2.1
	c1.7-0.1,4-0.4,4.9-1.4c1.6-1.6,1.6-4.1,0-5.7C27.3,19.6,24.7,19.6,23.2,21.2z"/>
</g><g  transform="translate(696, 120)">
<path data-color="color-2" fill="#444444" d="M15,7h18c0,0,0,0,0,0c0.6,0,1-0.4,1-1c0-0.2,0-0.3-0.1-0.4l-1-3.8C32.9,1.3,32.5,1,32,1H16
	c-0.5,0-0.9,0.3-1,0.8l-1,4c-0.1,0.3,0,0.6,0.2,0.9C14.4,6.9,14.7,7,15,7z"/>
<path data-color="color-2" fill="#444444" d="M33,41H15c-0.3,0-0.6,0.1-0.8,0.4C14,41.6,14,41.9,14,42.2l1,4c0.1,0.4,0.5,0.8,1,0.8h16
	c0.5,0,0.9-0.3,1-0.8l1-4c0.1-0.3,0-0.6-0.2-0.9C33.6,41.1,33.3,41,33,41z"/>
<path fill="#444444" d="M42,19h-3v-7c0-1.7-1.3-3-3-3H12c-1.7,0-3,1.3-3,3v24c0,1.7,1.3,3,3,3h24c1.7,0,3-1.3,3-3v-7h3
	c0.6,0,1-0.4,1-1v-8C43,19.4,42.6,19,42,19z M20.7,27.3c0.4,0.4,0.4,1,0,1.4C20.5,28.9,20.3,29,20,29s-0.5-0.1-0.7-0.3l-4-4
	c-0.4-0.4-0.4-1,0-1.4l4-4c0.4-0.4,1-0.4,1.4,0s0.4,1,0,1.4L17.4,24L20.7,27.3z M32.7,24.7l-4,4C28.5,28.9,28.3,29,28,29
	s-0.5-0.1-0.7-0.3c-0.4-0.4-0.4-1,0-1.4l3.3-3.3l-3.3-3.3c-0.4-0.4-0.4-1,0-1.4s1-0.4,1.4,0l4,4C33.1,23.7,33.1,24.3,32.7,24.7z"/>
</g><g  transform="translate(792, 120)">
<path fill="#444444" d="M46,38h-5V15.7l-5.1,5.1c-0.8,0.8-1.8,1.2-2.8,1.2c-0.4,0-0.8-0.1-1.1-0.2c0.2,0.6,0.3,1.2,0.3,1.8
	c0,1.6-0.6,3.1-1.8,4.2c-1.1,1.1-3.1,1.7-6.2,1.9c-0.1,0-0.2,0-0.3,0c0,0,0,0,0,0c-1.1,0-2.2-0.5-2.9-1.3c-0.8-0.8-1.1-1.9-1.1-3
	c0.2-3.1,0.8-5.1,1.9-6.2c1.1-1.1,2.6-1.8,4.2-1.8c0.6,0,1.2,0.1,1.8,0.3c-0.1-0.4-0.2-0.7-0.2-1.1c0-1.1,0.4-2.1,1.2-2.8L39.7,3.3
	C38.6,1.9,36.9,1,35,1H7C3.7,1,1,3.7,1,7v1c0,0.6,0.4,1,1,1h9v32c0,3.3,2.7,6,6,6h23h1c3.3,0,6-2.7,6-6v-2C47,38.4,46.6,38,46,38z
	 M3,7c0-2.2,1.8-4,4-4s4,1.8,4,4H3z M45,41c0,2.2-1.8,4-4,4H21.4c0.9-0.9,1.6-2.2,1.6-4v-1h22V41z"/>
<path data-color="color-2" fill="#444444" d="M47.1,2.8c-1.1-1.1-2.9-1.1-4,0L30.5,15.4c-0.8,0.8-0.8,2,0,2.8l1.2,1.2c0.8,0.8,2,0.8,2.8,0
	L47.1,6.8C48.2,5.7,48.2,3.9,47.1,2.8z M23.4,20.8c-0.9,0.9-1.2,3.2-1.4,4.9c-0.1,1.2,0.9,2.2,2.1,2.1c1.7-0.1,4-0.4,4.9-1.4
	c1.6-1.6,1.6-4.1,0-5.7C27.5,19.3,25,19.3,23.4,20.8z"/>
</g><g  transform="translate(888, 120)">
<path data-color="color-2" fill="#444444" d="M35,27H13C7.5,27,3,31.5,3,37s4.5,10,10,10h22c5.5,0,10-4.5,10-10S40.5,27,35,27z M35,44
	c-3.9,0-7-3.1-7-7s3.1-7,7-7s7,3.1,7,7S38.9,44,35,44z"/>
<path fill="#444444" d="M35,1H13C7.5,1,3,5.5,3,11s4.5,10,10,10h22c5.5,0,10-4.5,10-10S40.5,1,35,1z M13,18c-3.9,0-7-3.1-7-7
	s3.1-7,7-7s7,3.1,7,7S16.9,18,13,18z"/>
</g><g  transform="translate(24, 216)">
<path fill="#444444" d="M16,33H8c-0.6,0-1,0.4-1,1v5H2c-0.6,0-1,0.4-1,1s0.4,1,1,1h5v5c0,0.6,0.4,1,1,1h8c0.6,0,1-0.4,1-1V34
	C17,33.4,16.6,33,16,33z"/>
<path fill="#444444" d="M46,7H21c-0.6,0-1,0.4-1,1s0.4,1,1,1h25c0.6,0,1-0.4,1-1S46.6,7,46,7z"/>
<path fill="#444444" d="M2,9h5v5c0,0.6,0.4,1,1,1h8c0.6,0,1-0.4,1-1V2c0-0.6-0.4-1-1-1H8C7.4,1,7,1.4,7,2v5H2C1.4,7,1,7.4,1,8
	S1.4,9,2,9z"/>
<path data-color="color-2" fill="#444444" d="M46,23h-5c-0.6,0-1,0.4-1,1s0.4,1,1,1h5c0.6,0,1-0.4,1-1S46.6,23,46,23z"/>
<path data-color="color-2" fill="#444444" d="M2,25h25v5c0,0.6,0.4,1,1,1h8c0.6,0,1-0.4,1-1V18c0-0.6-0.4-1-1-1h-8c-0.6,0-1,0.4-1,1v5H2
	c-0.6,0-1,0.4-1,1S1.4,25,2,25z"/>
<path fill="#444444" d="M46,39H21c-0.6,0-1,0.4-1,1s0.4,1,1,1h25c0.6,0,1-0.4,1-1S46.6,39,46,39z"/>
</g><g  transform="translate(120, 216)">
<path fill="#444444" d="M14,33c-3.5,0-6.4,2.6-6.9,6H2c-0.6,0-1,0.4-1,1s0.4,1,1,1h5.1c0.5,3.4,3.4,6,6.9,6c3.9,0,7-3.1,7-7
	S17.9,33,14,33z"/>
<path fill="#444444" d="M46,7H25c-0.6,0-1,0.4-1,1s0.4,1,1,1h21c0.6,0,1-0.4,1-1S46.6,7,46,7z"/>
<path fill="#444444" d="M2,9h5.1c0.5,3.4,3.4,6,6.9,6c3.9,0,7-3.1,7-7s-3.1-7-7-7c-3.5,0-6.4,2.6-6.9,6H2C1.4,7,1,7.4,1,8S1.4,9,2,9
	z"/>
<path data-color="color-2" fill="#444444" d="M46,23h-5c-0.6,0-1,0.4-1,1s0.4,1,1,1h5c0.6,0,1-0.4,1-1S46.6,23,46,23z"/>
<path data-color="color-2" fill="#444444" d="M2,25h21.1c0.5,3.4,3.4,6,6.9,6c3.9,0,7-3.1,7-7s-3.1-7-7-7c-3.5,0-6.4,2.6-6.9,6H2
	c-0.6,0-1,0.4-1,1S1.4,25,2,25z"/>
<path fill="#444444" d="M46,39H25c-0.6,0-1,0.4-1,1s0.4,1,1,1h21c0.6,0,1-0.4,1-1S46.6,39,46,39z"/>
</g><g  transform="translate(216, 216)">
<path fill="#444444" d="M24,1C11.3,1,1,11.3,1,24s10.3,23,23,23s23-10.3,23-23S36.7,1,24,1z M13.6,20.3C13.2,21.5,13,22.7,13,24
	c0,0.6-0.4,1-1,1s-1-0.4-1-1c0-1.5,0.2-2.9,0.7-4.3c0.2-0.5,0.8-0.8,1.3-0.6C13.5,19.2,13.8,19.8,13.6,20.3z M24,29
	c-2.8,0-5-2.2-5-5c0-1,0.3-2,0.8-2.8l-6.5-6.5c-0.4-0.4-0.4-1,0-1.4s1-0.4,1.4,0l6.5,6.5C22,19.3,23,19,24,19c2.8,0,5,2.2,5,5
	S26.8,29,24,29z M36,25c-0.6,0-1-0.4-1-1c0-6.1-4.9-11-11-11c-1.3,0-2.5,0.2-3.7,0.6c-0.5,0.2-1.1-0.1-1.3-0.6
	c-0.2-0.5,0.1-1.1,0.6-1.3c1.4-0.5,2.8-0.7,4.3-0.7c7.2,0,13,5.8,13,13C37,24.6,36.6,25,36,25z"/>
</g><g  transform="translate(312, 216)">
<path fill="#444444" d="M35,21.8V12c0-6.1-4.9-11-11-11S13,5.9,13,12v9.8c-2.5,2.7-4,6.2-4,10.2c0,8.3,6.7,15,15,15s15-6.7,15-15
	C39,28.1,37.5,24.5,35,21.8z M25,34.9V38c0,0.6-0.4,1-1,1s-1-0.4-1-1v-3.1c-2.3-0.5-4-2.5-4-4.9c0-2.8,2.2-5,5-5s5,2.2,5,5
	C29,32.4,27.3,34.4,25,34.9z M33,20c-2.5-1.9-5.6-3-9-3s-6.5,1.1-9,3v-8c0-5,4-9,9-9s9,4,9,9V20z"/>
</g><g  transform="translate(408, 216)">
<path fill="#444444" d="M24,17c-3.4,0-6.5,1.1-9,3v-8c0-5,4-9,9-9s9,4,9,9c0,0.6,0.4,1,1,1s1-0.4,1-1c0-6.1-4.9-11-11-11
	S13,5.9,13,12v9.8c-2.5,2.7-4,6.2-4,10.2c0,8.3,6.7,15,15,15s15-6.7,15-15S32.3,17,24,17z M25,34.9V38c0,0.6-0.4,1-1,1s-1-0.4-1-1
	v-3.1c-2.3-0.5-4-2.5-4-4.9c0-2.8,2.2-5,5-5s5,2.2,5,5C29,32.4,27.3,34.4,25,34.9z"/>
</g><g  transform="translate(504, 216)">
<path fill="#444444" d="M44.7,39.3l-8.9-8.9c2-3,3.1-6.6,3.1-10.4C39,9.5,30.5,1,20,1S1,9.5,1,20s8.5,19,19,19
	c3.9,0,7.4-1.2,10.4-3.1l8.9,8.9c0.2,0.2,0.5,0.3,0.7,0.3s0.5-0.1,0.7-0.3l4-4C45.1,40.3,45.1,39.7,44.7,39.3z"/>
</g><g  transform="translate(600, 216)">
<path fill="#444444" d="M44.7,39.3l-8.9-8.9c2-3,3.1-6.6,3.1-10.4C39,9.5,30.5,1,20,1S1,9.5,1,20s8.5,19,19,19
	c3.9,0,7.4-1.2,10.4-3.1l8.9,8.9c0.2,0.2,0.5,0.3,0.7,0.3s0.5-0.1,0.7-0.3l4-4C45.1,40.3,45.1,39.7,44.7,39.3z M26,21h-5v5
	c0,0.6-0.4,1-1,1s-1-0.4-1-1v-5h-5c-0.6,0-1-0.4-1-1s0.4-1,1-1h5v-5c0-0.6,0.4-1,1-1s1,0.4,1,1v5h5c0.6,0,1,0.4,1,1S26.6,21,26,21z"/>
</g><g  transform="translate(696, 216)">
<path fill="#444444" d="M44.7,39.3l-8.9-8.9c2-3,3.1-6.6,3.1-10.4C39,9.5,30.5,1,20,1S1,9.5,1,20s8.5,19,19,19
	c3.9,0,7.4-1.2,10.4-3.1l8.9,8.9c0.2,0.2,0.5,0.3,0.7,0.3s0.5-0.1,0.7-0.3l4-4C45.1,40.3,45.1,39.7,44.7,39.3z M26,21H14
	c-0.6,0-1-0.4-1-1s0.4-1,1-1h12c0.6,0,1,0.4,1,1S26.6,21,26,21z"/>
</g><g  transform="translate(792, 216)">
<path fill="#444444" d="M46,9H33V2c0-0.6-0.4-1-1-1H16c-0.6,0-1,0.4-1,1v7H2c-0.6,0-1,0.4-1,1s0.4,1,1,1h5v35c0,0.6,0.4,1,1,1h32
	c0.6,0,1-0.4,1-1V11h5c0.6,0,1-0.4,1-1S46.6,9,46,9z M17,37c0,0.6-0.4,1-1,1s-1-0.4-1-1V21c0-0.6,0.4-1,1-1s1,0.4,1,1V37z M17,3h14
	v6H17V3z M25,37c0,0.6-0.4,1-1,1s-1-0.4-1-1V21c0-0.6,0.4-1,1-1s1,0.4,1,1V37z M33,37c0,0.6-0.4,1-1,1s-1-0.4-1-1V21
	c0-0.6,0.4-1,1-1s1,0.4,1,1V37z"/>
</g><g  transform="translate(888, 216)">
<path data-color="color-2" fill="#444444" d="M46,25c-0.2,0-0.5-0.1-0.7-0.3L24,5.4L2.7,24.7c-0.4,0.4-1,0.3-1.4-0.1
	c-0.4-0.4-0.3-1,0.1-1.4l22-20c0.4-0.3,1-0.3,1.3,0l22,20c0.4,0.4,0.4,1,0.1,1.4C46.5,24.9,46.3,25,46,25z"/>
<path fill="#444444" d="M24,8.1L7,23.5V44c0,0.6,0.4,1,1,1h11c0.6,0,1-0.4,1-1v-9h8v9c0,0.6,0.4,1,1,1h11c0.6,0,1-0.4,1-1V23.5
	L24,8.1z M28,27c0,0.6-0.4,1-1,1h-6c-0.6,0-1-0.4-1-1v-6c0-0.6,0.4-1,1-1h6c0.6,0,1,0.4,1,1V27z"/>
</g><g  transform="translate(24, 312)">
<path fill="#444444" d="M3.4,21l6.3,4.8l12.9-6.6c0.5-0.3,1,0.5,0.5,0.8L13,28.2h0l0,0v14c0,0.9,1.2,1.4,1.8,0.6l6.9-8.2L35.4,45
	c0.6,0.4,1.4,0.1,1.6-0.6l8-40c0.2-0.8-0.6-1.4-1.4-1.1l-40,16C2.9,19.6,2.8,20.6,3.4,21z"/>
</g><g  transform="translate(120, 312)">
<path fill="#444444" d="M46,16H2c-0.6,0-1,0.4-1,1v29c0,0.6,0.4,1,1,1h44c0.6,0,1-0.4,1-1V17C47,16.4,46.6,16,46,16z"/>
<path data-color="color-2" fill="#444444" d="M46,5h-9V2c0-0.6-0.4-1-1-1s-1,0.4-1,1v3H25V2c0-0.6-0.4-1-1-1s-1,0.4-1,1v3H13V2
	c0-0.6-0.4-1-1-1s-1,0.4-1,1v3H2C1.4,5,1,5.4,1,6v7c0,0.6,0.4,1,1,1h44c0.6,0,1-0.4,1-1V6C47,5.4,46.6,5,46,5z"/>
</g><g  transform="translate(216, 312)">
<path data-color="color-2" fill="#444444" d="M46,5h-9V2c0-0.6-0.4-1-1-1s-1,0.4-1,1v3H25V2c0-0.6-0.4-1-1-1s-1,0.4-1,1v3H13V2
	c0-0.6-0.4-1-1-1s-1,0.4-1,1v3H2C1.4,5,1,5.4,1,6v7c0,0.6,0.4,1,1,1h44c0.6,0,1-0.4,1-1V6C47,5.4,46.6,5,46,5z"/>
<path fill="#444444" d="M46,16H2c-0.6,0-1,0.4-1,1v29c0,0.6,0.4,1,1,1h44c0.6,0,1-0.4,1-1V17C47,16.4,46.6,16,46,16z M17,40
	c0,0.6-0.4,1-1,1h-6c-0.6,0-1-0.4-1-1v-6c0-0.6,0.4-1,1-1h6c0.6,0,1,0.4,1,1V40z M17,29c0,0.6-0.4,1-1,1h-6c-0.6,0-1-0.4-1-1v-6
	c0-0.6,0.4-1,1-1h6c0.6,0,1,0.4,1,1V29z M28,40c0,0.6-0.4,1-1,1h-6c-0.6,0-1-0.4-1-1v-6c0-0.6,0.4-1,1-1h6c0.6,0,1,0.4,1,1V40z
	 M28,29c0,0.6-0.4,1-1,1h-6c-0.6,0-1-0.4-1-1v-6c0-0.6,0.4-1,1-1h6c0.6,0,1,0.4,1,1V29z M39,29c0,0.6-0.4,1-1,1h-6c-0.6,0-1-0.4-1-1
	v-6c0-0.6,0.4-1,1-1h6c0.6,0,1,0.4,1,1V29z"/>
</g><g  transform="translate(312, 312)">
<path data-color="color-2" fill="#444444" d="M46,5h-9V2c0-0.6-0.4-1-1-1s-1,0.4-1,1v3H25V2c0-0.6-0.4-1-1-1s-1,0.4-1,1v3H13V2
	c0-0.6-0.4-1-1-1s-1,0.4-1,1v3H2C1.4,5,1,5.4,1,6v7c0,0.6,0.4,1,1,1h44c0.6,0,1-0.4,1-1V6C47,5.4,46.6,5,46,5z"/>
<path fill="#444444" d="M46,16H2c-0.6,0-1,0.4-1,1v29c0,0.6,0.4,1,1,1h44c0.6,0,1-0.4,1-1V17C47,16.4,46.6,16,46,16z M34.7,24.7
	l-14,14C20.5,38.9,20.3,39,20,39s-0.5-0.1-0.7-0.3l-6-6c-0.4-0.4-0.4-1,0-1.4s1-0.4,1.4,0l5.3,5.3l13.3-13.3c0.4-0.4,1-0.4,1.4,0
	S35.1,24.3,34.7,24.7z"/>
</g><g  transform="translate(408, 312)">
<path fill="#444444" d="M38,1c-5.8,0-11.3,3.1-14.4,8H14H6c-2.9,0-5,3.9-5,9s2.1,9,5,9h2.9l9.4,16.1c0.9,1.6,2.6,2.5,4.3,2.5
	c0.9,0,1.7-0.2,2.5-0.7c2.4-1.4,3.2-4.5,1.8-6.8l-6.4-11h3.2c3.1,4.9,8.6,8,14.4,8c5,0,9-7.5,9-17S43,1,38,1z M31,18L31,18
	C31,18,31,18,31,18C31,18,31,18,31,18z M38,33c-2.5,0-4.7-3-6-7.3c3.4-0.9,6-4,6-7.7s-2.5-6.8-6-7.7C33.3,6,35.5,3,38,3
	c3.8,0,7,6.9,7,15S41.8,33,38,33z"/>
</g><g  transform="translate(504, 312)">
<path data-color="color-2" fill="#444444" d="M38,29c-0.6,0-1,0.4-1,1v15H3V11h15c0.6,0,1-0.4,1-1s-0.4-1-1-1H2c-0.6,0-1,0.4-1,1v36
	c0,0.6,0.4,1,1,1h36c0.6,0,1-0.4,1-1V30C39,29.4,38.6,29,38,29z"/>
<path fill="#444444" d="M31.6,8L14.3,25.3C14.1,25.5,14,25.7,14,26v7c0,0.6,0.4,1,1,1h7c0.3,0,0.5-0.1,0.7-0.3L40,16.4L31.6,8z"/>
<path data-color="color-2" fill="#444444" d="M44.7,10.3l-7-7c-0.4-0.4-1-0.4-1.4,0L33,6.6l8.4,8.4l3.3-3.3C45.1,11.3,45.1,10.7,44.7,10.3z
	"/>
</g><g  transform="translate(600, 312)">
<path fill="#444444" d="M43.7,8.6l-4.3-4.3c-0.9-0.9-2.2-1.5-3.5-1.5c-1.3,0-2.6,0.5-3.5,1.5L5.1,31.5C5,31.6,5,31.7,4.9,31.8
	c0,0,0,0.1,0,0.1c0,0,0,0.1,0,0.1l-2,12c-0.1,0.3,0.1,0.6,0.3,0.9c0.2,0.2,0.4,0.3,0.7,0.3c0.1,0,0.1,0,0.2,0l12-2c0,0,0.1,0,0.1,0
	c0,0,0.1,0,0.1,0c0.1,0,0.2-0.1,0.3-0.2l27.2-27.2C45.7,13.8,45.7,10.6,43.7,8.6z M9.3,42.2l-3.6-3.6l0.7-4.4l7.3,7.3L9.3,42.2z
	 M30.7,18.7L14.4,35c-0.2,0.2-0.5,0.3-0.7,0.3c-0.3,0-0.5-0.1-0.7-0.3c-0.4-0.4-0.4-1,0-1.4l16.3-16.3c0.4-0.4,1-0.4,1.4,0
	S31.1,18.3,30.7,18.7z M37.8,18.8l-8.6-8.6l2.6-2.6l8.6,8.6L37.8,18.8z"/>
</g><g  transform="translate(696, 312)">
<path data-color="color-2" fill="#444444" d="M42,47H2c-0.6,0-1-0.4-1-1V6c0-0.6,0.4-1,1-1h16c0.6,0,1,0.4,1,1s-0.4,1-1,1H3v38h38V30
	c0-0.6,0.4-1,1-1s1,0.4,1,1v16C43,46.6,42.6,47,42,47z"/>
<path fill="#444444" d="M44.7,3.3C44.5,3.1,44.2,3,43.9,3c-0.5,0-13.3,0.9-20.6,8.3c-4.4,4.4-5.1,9.5-5,12.9l6.7-4
	c0.5-0.3,1,0.4,0.6,0.8L13.3,33.3c-0.4,0.4-0.4,1,0,1.4c0.2,0.2,0.5,0.3,0.7,0.3s0.5-0.1,0.7-0.3l5.6-5.6c0.8,0.2,2.4,0.6,4.5,0.6
	c3.1,0,7.8-0.9,11.9-5C44.1,17.3,45,4.6,45,4.1C45,3.8,44.9,3.5,44.7,3.3z"/>
</g><g  transform="translate(792, 312)">
<path fill="#444444" d="M46,5H2C1.4,5,1,5.4,1,6v36c0,0.6,0.4,1,1,1h44c0.6,0,1-0.4,1-1V6C47,5.4,46.6,5,46,5z M14.7,30.7l-4,4
	C10.5,34.9,10.3,35,10,35s-0.5-0.1-0.7-0.3c-0.4-0.4-0.4-1,0-1.4l4-4c0.4-0.4,1-0.4,1.4,0S15.1,30.3,14.7,30.7z M38.7,34.7
	C38.5,34.9,38.3,35,38,35s-0.5-0.1-0.7-0.3l-4-4c-0.4-0.4-0.4-1,0-1.4s1-0.4,1.4,0l4,4C39.1,33.7,39.1,34.3,38.7,34.7z M38.7,14.7
	l-14,14C24.5,28.9,24.3,29,24,29s-0.5-0.1-0.7-0.3l-14-14c-0.4-0.4-0.4-1,0-1.4s1-0.4,1.4,0L24,26.6l13.3-13.3c0.4-0.4,1-0.4,1.4,0
	S39.1,14.3,38.7,14.7z"/>
</g><g  transform="translate(888, 312)">
<path fill="#444444" d="M23,47c-7.7,0-14-6.3-14-14V11C9,5.5,13.5,1,19,1s10,4.5,10,10v20c0,3.3-2.7,6-6,6s-6-2.7-6-6V14
	c0-0.6,0.4-1,1-1s1,0.4,1,1v17c0,2.2,1.8,4,4,4s4-1.8,4-4V11c0-4.4-3.6-8-8-8s-8,3.6-8,8v22c0,6.6,5.4,12,12,12s12-5.4,12-12V8
	c0-0.6,0.4-1,1-1s1,0.4,1,1v25C37,40.7,30.7,47,23,47z"/>
</g><g  transform="translate(24, 408)">
<path fill="#444444" d="M34,1c-3.9,0-7.5,1.7-10,4.7C21.5,2.7,17.9,1,14,1C6.8,1,1,6.8,1,14c0,12.3,21.5,30,22.4,30.8
	c0.2,0.2,0.4,0.2,0.6,0.2s0.4-0.1,0.6-0.2C25.5,44,47,26.3,47,14C47,6.8,41.2,1,34,1z"/>
</g><g  transform="translate(120, 408)">
<path fill="#444444" d="M34,1c-3.9,0-7.5,1.7-10,4.7C21.5,2.7,17.9,1,14,1C6.8,1,1,6.8,1,14c0,12.3,21.5,30,22.4,30.8
	c0.2,0.2,0.4,0.2,0.6,0.2s0.4-0.1,0.6-0.2c0.1-0.1,2-1.6,4.6-4.1c1.9,1.5,4.2,2.3,6.7,2.3c6.1,0,11-4.9,11-11c0-3.1-1.3-6-3.4-8
	c2.3-3.8,3.4-7.2,3.4-10C47,6.8,41.2,1,34,1z M45,32c0,5-4,9-9,9s-9-4-9-9s4-9,9-9S45,27,45,32z"/>
<path data-color="color-2" fill="#444444" d="M40,31h-3v-3c0-0.6-0.4-1-1-1s-1,0.4-1,1v3h-3c-0.6,0-1,0.4-1,1s0.4,1,1,1h3v3
	c0,0.6,0.4,1,1,1s1-0.4,1-1v-3h3c0.6,0,1-0.4,1-1S40.6,31,40,31z"/>
</g><g  transform="translate(216, 408)">
<path fill="#444444" d="M43.6,24c2.3-3.8,3.4-7.2,3.4-10c0-7.2-5.8-13-13-13c-3.9,0-7.5,1.7-10,4.7C21.5,2.7,17.9,1,14,1
	C6.8,1,1,6.8,1,14c0,12.3,21.5,30,22.4,30.8c0.2,0.2,0.4,0.2,0.6,0.2s0.4-0.1,0.6-0.2c0.1-0.1,2-1.6,4.6-4.1
	c1.9,1.5,4.2,2.3,6.7,2.3c6.1,0,11-4.9,11-11C47,28.9,45.7,26,43.6,24z M36,41c-5,0-9-4-9-9s4-9,9-9s9,4,9,9S41,41,36,41z"/>
<path data-color="color-2" fill="#444444" d="M40,31h-8c-0.6,0-1,0.4-1,1s0.4,1,1,1h8c0.6,0,1-0.4,1-1S40.6,31,40,31z"/>
</g><g  transform="translate(312, 408)">
<path data-color="color-2" fill="#444444" d="M18.9,5.6c0.4-0.1,0.7-0.4,0.7-0.7s0-0.7-0.3-1C17.3,2,14.7,1,12,1C5.9,1,1,5.9,1,12
	c0,1.6,0.4,3.2,1.1,4.8c0.2,0.3,0.5,0.6,0.9,0.6c0,0,0,0,0,0c0.4,0,0.7-0.2,0.9-0.5C7.1,11.1,12.6,7,18.9,5.6z"/>
<path data-color="color-2" fill="#444444" d="M36,1c-2.7,0-5.3,1-7.4,2.9c-0.3,0.3-0.4,0.6-0.3,1s0.4,0.6,0.7,0.7
	c6.3,1.4,11.8,5.5,15,11.2c0.2,0.3,0.5,0.5,0.9,0.5c0,0,0,0,0,0c0.4,0,0.7-0.2,0.9-0.6c0.8-1.5,1.1-3.2,1.1-4.8C47,5.9,42.1,1,36,1z
	"/>
<path fill="#444444" d="M38.1,40.7c3-3.4,4.9-7.8,4.9-12.7c0-10.5-8.5-19-19-19S5,17.5,5,28c0,4.9,1.9,9.3,4.9,12.7l-4.6,4.6
	c-0.4,0.4-0.4,1,0,1.4C5.5,46.9,5.7,47,6,47s0.5-0.1,0.7-0.3l4.6-4.6c3.4,3,7.8,4.9,12.7,4.9s9.3-1.9,12.7-4.9l4.6,4.6
	c0.2,0.2,0.5,0.3,0.7,0.3s0.5-0.1,0.7-0.3c0.4-0.4,0.4-1,0-1.4L38.1,40.7z M32,29h-8c-0.6,0-1-0.4-1-1v-8c0-0.6,0.4-1,1-1s1,0.4,1,1
	v7h7c0.6,0,1,0.4,1,1S32.6,29,32,29z"/>
</g><g  transform="translate(408, 408)">
<path fill="#444444" d="M46,31H9v-4h29c0.5,0,0.9-0.3,1-0.8l4-18c0.1-0.3,0-0.6-0.2-0.8C42.6,7.1,42.3,7,42,7H9V2c0-0.6-0.4-1-1-1H2
	C1.4,1,1,1.4,1,2s0.4,1,1,1h5v29c0,0.6,0.4,1,1,1h38c0.6,0,1-0.4,1-1S46.6,31,46,31z"/>
<path data-color="color-2" fill="#444444" d="M12,37c-2.8,0-5,2.2-5,5s2.2,5,5,5s5-2.2,5-5S14.8,37,12,37z"/>
<path data-color="color-2" fill="#444444" d="M42,37c-2.8,0-5,2.2-5,5s2.2,5,5,5s5-2.2,5-5S44.8,37,42,37z"/>
</g><g  transform="translate(504, 408)">
<path data-color="color-2" fill="#444444" d="M12,37c-2.8,0-5,2.2-5,5s2.2,5,5,5s5-2.2,5-5S14.8,37,12,37z"/>
<path data-color="color-2" fill="#444444" d="M42,37c-2.8,0-5,2.2-5,5s2.2,5,5,5s5-2.2,5-5S44.8,37,42,37z"/>
<path fill="#444444" d="M46,31H9v-4h29c0.5,0,0.9-0.3,1-0.8l4-18c0.1-0.3,0-0.6-0.2-0.8C42.6,7.1,42.3,7,42,7H25v10.6l4.3-4.3
	c0.4-0.4,1-0.4,1.4,0s0.4,1,0,1.4l-6,6c-0.1,0.1-0.2,0.2-0.3,0.2C24.3,21,24.1,21,24,21s-0.3,0-0.4-0.1c-0.1-0.1-0.2-0.1-0.3-0.2
	l-6-6c-0.4-0.4-0.4-1,0-1.4s1-0.4,1.4,0l4.3,4.3V7H9V2c0-0.6-0.4-1-1-1H2C1.4,1,1,1.4,1,2s0.4,1,1,1h5v29c0,0.6,0.4,1,1,1h38
	c0.6,0,1-0.4,1-1S46.6,31,46,31z"/>
</g><g  transform="translate(600, 408)">
<path fill="#444444" d="M40,19h-9v-5c0-3.5-2.1-8.6-5.5-10.6C25,3.2,24.5,3,24,3c-1.6,0-3,1.3-3,3v7.6l-8,9.6v18.4l3.1,1.5
	c2.4,1.2,5.2,1.9,7.9,1.9h14c2.7,0,5-2.2,5-4.9l2-15.9c0,0,0-0.1,0-0.1C45,21.2,42.8,19,40,19z"/>
<path data-color="color-2" fill="#444444" d="M10,21H4c-0.6,0-1,0.4-1,1v22c0,0.6,0.4,1,1,1h6c0.6,0,1-0.4,1-1V22C11,21.4,10.6,21,10,21z"/>
</g><g  transform="translate(696, 408)">
<path data-color="color-2" fill="#444444" d="M9,9V3H2C1.4,3,1,3.4,1,4v5H9z"/>
<path data-color="color-2" fill="#444444" d="M11,9h36V4c0-0.6-0.4-1-1-1H11V9z"/>
<path fill="#444444" d="M1,11v33c0,0.6,0.4,1,1,1h44c0.6,0,1-0.4,1-1V11H1z M18,27h5v-5c0-0.6,0.4-1,1-1s1,0.4,1,1v5h5
	c0.6,0,1,0.4,1,1s-0.4,1-1,1h-5v5c0,0.6-0.4,1-1,1s-1-0.4-1-1v-5h-5c-0.6,0-1-0.4-1-1S17.4,27,18,27z"/>
</g><g  transform="translate(792, 408)">
<path fill="#444444" d="M1,11v33c0,0.6,0.4,1,1,1h44c0.6,0,1-0.4,1-1V11H1z M18,27h12c0.6,0,1,0.4,1,1s-0.4,1-1,1H18
	c-0.6,0-1-0.4-1-1S17.4,27,18,27z"/>
<path data-color="color-2" fill="#444444" d="M11,9h36V4c0-0.6-0.4-1-1-1H11V9z"/>
<path data-color="color-2" fill="#444444" d="M9,9V3H2C1.4,3,1,3.4,1,4v5H9z"/>
</g><g  transform="translate(888, 408)">
<path fill="#444444" d="M28,1h-8C13.9,1,9,5.9,9,12v24c0,6.1,4.9,11,11,11h8c6.1,0,11-4.9,11-11V12C39,5.9,34.1,1,28,1z M32,19H16
	c-0.6,0-1-0.4-1-1s0.4-1,1-1h7v-7c0-0.6,0.4-1,1-1s1,0.4,1,1v7h7c0.6,0,1,0.4,1,1S32.6,19,32,19z"/>
</g></svg>