<svg xmlns="http://www.w3.org/2000/svg" xmlns:xlink="http://www.w3.org/1999/xlink" x="0px" y="0px" width="1280px" height="640px" viewBox="0 0 1280 640"><g  transform="translate(32, 32)">
<path data-color="color-2" fill="#444444" d="M61.9,54.9l-5-11.3C56.8,43.2,56.4,43,56,43H8c-0.4,0-0.8,0.2-0.9,0.6l-5,11.4
	c-0.3,0.9-0.2,2,0.3,2.8C3,58.5,3.9,59,4.9,59h54.2c1,0,1.9-0.5,2.5-1.3C62.1,56.9,62.3,55.9,61.9,54.9z"/>
<path fill="#444444" d="M8,41h48c0.6,0,1-0.4,1-1V10c0-2.8-2.2-5-5-5H12c-2.8,0-5,2.2-5,5v30C7,40.6,7.4,41,8,41z M15,14
	c0-0.6,0.4-1,1-1h32c0.6,0,1,0.4,1,1v18c0,0.6-0.4,1-1,1H16c-0.6,0-1-0.4-1-1V14z"/>
</g><g  transform="translate(160, 32)">
<path fill="#444444" d="M63,37V8c0-2.8-2.2-5-5-5H6C3.2,3,1,5.2,1,8v29H63z M30,11h4c0.6,0,1,0.4,1,1s-0.4,1-1,1h-4
	c-0.6,0-1-0.4-1-1S29.4,11,30,11z"/>
<path data-color="color-2" fill="#444444" d="M1,39v7c0,2.8,2.2,5,5,5h19v8h-7c-0.6,0-1,0.4-1,1s0.4,1,1,1h8h12h8c0.6,0,1-0.4,1-1
	s-0.4-1-1-1h-7v-8h19c2.8,0,5-2.2,5-5v-7H1z"/>
</g><g  transform="translate(288, 32)">
<path data-color="color-2" fill="#444444" d="M23,39H10c-0.6,0-1-0.4-1-1V18c0-0.6,0.4-1,1-1h13V9H2c-0.6,0-1,0.4-1,1v36c0,0.6,0.4,1,1,1
	h21V39z"/>
<path data-color="color-2" fill="#444444" d="M23,53H12c-0.6,0-1,0.4-1,1s0.4,1,1,1h11V53z"/>
<path fill="#444444" d="M62,1H26c-0.6,0-1,0.4-1,1v60c0,0.6,0.4,1,1,1h36c0.6,0,1-0.4,1-1V2C63,1.4,62.6,1,62,1z M44,49
	c-3.9,0-7-3.1-7-7s3.1-7,7-7s7,3.1,7,7S47.9,49,44,49z M50,27H38c-0.6,0-1-0.4-1-1s0.4-1,1-1h12c0.6,0,1,0.4,1,1S50.6,27,50,27z
	 M50,17H38c-0.6,0-1-0.4-1-1s0.4-1,1-1h12c0.6,0,1,0.4,1,1S50.6,17,50,17z"/>
</g><g  transform="translate(416, 32)">
<path data-color="color-2" fill="#444444" d="M48,57H16c-0.6,0-1-0.4-1-1s0.4-1,1-1h32c0.6,0,1,0.4,1,1S48.6,57,48,57z"/>
<path fill="#444444" d="M62,7H2C1.4,7,1,7.4,1,8v38c0,0.6,0.4,1,1,1h60c0.6,0,1-0.4,1-1V8C63,7.4,62.6,7,62,7z M38.6,28.8l-12,8
	C26.4,36.9,26.2,37,26,37c-0.2,0-0.3,0-0.5-0.1C25.2,36.7,25,36.4,25,36V20c0-0.4,0.2-0.7,0.5-0.9c0.3-0.2,0.7-0.2,1,0l12,8
	c0.3,0.2,0.4,0.5,0.4,0.8S38.8,28.6,38.6,28.8z"/>
</g><g  transform="translate(544, 32)">
<path data-color="color-2" fill="#444444" d="M54,19c-0.6,0-1-0.4-1-1c0-8.3-6.7-15-15-15c-0.6,0-1-0.4-1-1s0.4-1,1-1c9.4,0,17,7.6,17,17
	C55,18.6,54.6,19,54,19z"/>
<path data-color="color-2" fill="#444444" d="M26,63c-9.4,0-17-7.6-17-17c0-0.6,0.4-1,1-1s1,0.4,1,1c0,8.3,6.7,15,15,15c0.6,0,1,0.4,1,1
	S26.6,63,26,63z"/>
<path fill="#444444" d="M29,9V6c0-2.8-2.2-5-5-5H6C3.2,1,1,3.2,1,6v3H29z"/>
<path fill="#444444" d="M1,27v7c0,2.8,2.2,5,5,5h18c2.8,0,5-2.2,5-5v-7H1z M16,33h-2c-0.6,0-1-0.4-1-1s0.4-1,1-1h2c0.6,0,1,0.4,1,1
	S16.6,33,16,33z"/>
<rect x="1" y="11" fill="#444444" width="28" height="14"/>
<path fill="#444444" d="M63,33v-3c0-2.8-2.2-5-5-5H40c-2.8,0-5,2.2-5,5v3H63z"/>
<path fill="#444444" d="M35,51v7c0,2.8,2.2,5,5,5h18c2.8,0,5-2.2,5-5v-7H35z M50,57h-2c-0.6,0-1-0.4-1-1s0.4-1,1-1h2
	c0.6,0,1,0.4,1,1S50.6,57,50,57z"/>
<rect x="35" y="35" fill="#444444" width="28" height="14"/>
</g><g  transform="translate(672, 32)">
<path fill="#444444" d="M62,15H51V2c0-0.6-0.4-1-1-1H14c-0.6,0-1,0.4-1,1v13H2c-0.6,0-1,0.4-1,1v32c0,0.6,0.4,1,1,1h11v13
	c0,0.6,0.4,1,1,1h36c0.6,0,1-0.4,1-1V49h11c0.6,0,1-0.4,1-1V16C63,15.4,62.6,15,62,15z M15,3h34v12H15V3z M49,61H15V33h34V61z"/>
<path data-color="color-2" fill="#444444" d="M40,43H24c-0.6,0-1-0.4-1-1s0.4-1,1-1h16c0.6,0,1,0.4,1,1S40.6,43,40,43z"/>
<path data-color="color-2" fill="#444444" d="M40,53H24c-0.6,0-1-0.4-1-1s0.4-1,1-1h16c0.6,0,1,0.4,1,1S40.6,53,40,53z"/>
</g><g  transform="translate(800, 32)">
<path data-color="color-2" fill="#444444" d="M32,21c2.8,0,5-2.2,5-5s-2.2-5-5-5s-5,2.2-5,5S29.2,21,32,21z"/>
<path fill="#444444" d="M58,9H45.4C42.8,3.9,37.4,1,32,1S21.2,3.9,18.6,9H6c-2.8,0-5,2.2-5,5v44c0,2.8,2.2,5,5,5h52c2.8,0,5-2.2,5-5
	V14C63,11.2,60.8,9,58,9z M32,3c6.4,0,13,4.7,13,12.6c0,6.9-10.2,18-13,20.9c-2.8-2.9-13-14.1-13-20.9C19,7.7,25.6,3,32,3z M10,52.3
	V19c0-0.6,0.4-1,1-1h6.3c1,4.5,4.7,9.8,8,14L10,52.3z M33,53c0,0.6-0.4,1-1,1s-1-0.4-1-1v-6c0-0.6,0.4-1,1-1s1,0.4,1,1V53z M54,52.3
	L38.7,32c3.3-4.1,7-9.4,8-14H53c0.6,0,1,0.4,1,1V52.3z"/>
</g><g  transform="translate(928, 32)">
<path fill="#444444" d="M46,25H18C8.6,25,1,32.6,1,42s7.6,17,17,17h28c9.4,0,17-7.6,17-17S55.4,25,46,25z M24,43h-5v5
	c0,0.6-0.4,1-1,1s-1-0.4-1-1v-5h-5c-0.6,0-1-0.4-1-1s0.4-1,1-1h5v-5c0-0.6,0.4-1,1-1s1,0.4,1,1v5h5c0.6,0,1,0.4,1,1S24.6,43,24,43z
	 M44,41c-0.3,0-0.5-0.1-0.7-0.3c-0.4-0.4-0.4-1,0-1.4l4-4c0.4-0.4,1-0.4,1.4,0s0.4,1,0,1.4l-4,4C44.5,40.9,44.3,41,44,41z
	 M50.7,44.7l-4,4C46.5,48.9,46.3,49,46,49s-0.5-0.1-0.7-0.3c-0.4-0.4-0.4-1,0-1.4l4-4c0.4-0.4,1-0.4,1.4,0S51.1,44.3,50.7,44.7z"/>
<path data-color="color-2" fill="#444444" d="M32,19c-0.6,0-1-0.4-1-1V6c0-0.6,0.4-1,1-1s1,0.4,1,1v12C33,18.6,32.6,19,32,19z"/>
</g><g  transform="translate(1056, 32)">
<path data-color="color-2" fill="#444444" d="M32,17c0.6,0,1-0.4,1-1V4c0-0.6-0.4-1-1-1s-1,0.4-1,1v12C31,16.6,31.4,17,32,17z"/>
<path fill="#444444" d="M62.9,54.9l-5.6-28.1c-1-4.8-5.2-8.3-10.1-8.3c-2.7,0-5.3,1.1-7.3,3L38.5,23h-13L24,21.5
	c-1.9-1.9-4.5-3-7.3-3c-4.9,0-9.1,3.5-10.1,8.3L1.1,54.9c-0.3,1.6,0.4,3.2,1.7,4c0.6,0.4,1.3,0.6,2.1,0.6c0.8,0,1.6-0.3,2.3-0.8
	l9.1-6.8c1.1,0.7,2.4,1.1,3.8,1.1c2.1,0,3.9-0.9,5.2-2.3l13.6,0c1.3,1.4,3.1,2.3,5.2,2.3c1.4,0,2.7-0.4,3.8-1.1l9.1,6.8
	c1.3,1,3,1,4.4,0.2C62.6,58,63.2,56.5,62.9,54.9z M20,51c-2.8,0-5-2.2-5-5s2.2-5,5-5s5,2.2,5,5S22.8,51,20,51z M39,46
	c0-2.8,2.2-5,5-5s5,2.2,5,5s-2.2,5-5,5S39,48.8,39,46z"/>
</g><g  transform="translate(1184, 32)">
<rect data-color="color-2" x="37.8" y="35.6" transform="matrix(0.7071 0.7071 -0.7071 0.7071 44.2928 -19.5183)" fill="#444444" width="15.8" height="16.1"/>
<path data-color="color-2" fill="#444444" d="M58.1,45.3L47.3,56.1L58.8,58c0.1,0,0.1,0,0.2,0c0,0,0,0,0,0c0.6,0,1-0.4,1-1
	c0-0.1,0-0.2-0.1-0.4L58.1,45.3z"/>
<rect data-color="color-2" x="12.7" y="14.4" transform="matrix(0.7071 -0.7071 0.7071 0.7071 -7.1985 20.2072)" fill="#444444" width="16.1" height="8.7"/>
<path data-color="color-2" fill="#444444" d="M22,8.6l-4.3-4.3c-0.4-0.4-1-0.4-1.4,0l-10,10c-0.4,0.4-0.4,1,0,1.4l4.3,4.3L22,8.6z"/>
<path fill="#444444" d="M57.7,16.3l-12-12c-0.4-0.4-1-0.4-1.4,0L37,11.6l3.7,3.7c0.4,0.4,0.4,1,0,1.4C40.5,16.9,40.3,17,40,17
	s-0.5-0.1-0.7-0.3L35.6,13L31,17.6l1.7,1.7c0.4,0.4,0.4,1,0,1.4C32.5,20.9,32.3,21,32,21s-0.5-0.1-0.7-0.3L29.6,19L25,23.6l3.7,3.7
	c0.4,0.4,0.4,1,0,1.4C28.5,28.9,28.3,29,28,29s-0.5-0.1-0.7-0.3L23.6,25L19,29.6l1.7,1.7c0.4,0.4,0.4,1,0,1.4
	C20.5,32.9,20.3,33,20,33s-0.5-0.1-0.7-0.3L17.6,31L13,35.6l3.7,3.7c0.4,0.4,0.4,1,0,1.4C16.5,40.9,16.3,41,16,41s-0.5-0.1-0.7-0.3
	L11.6,37l-7.3,7.3c-0.4,0.4-0.4,1,0,1.4l12,12c0.2,0.2,0.5,0.3,0.7,0.3s0.5-0.1,0.7-0.3l40-40C58.1,17.3,58.1,16.7,57.7,16.3z
	 M49.5,19c-1.4,0-2.5-1.1-2.5-2.5s1.1-2.5,2.5-2.5s2.5,1.1,2.5,2.5S50.9,19,49.5,19z"/>
</g><g  transform="translate(32, 160)">
<path data-color="color-2" fill="#444444" d="M54,45c-0.6,0-1-0.4-1-1v-2c0-9.4-6.3-17.7-15.4-20.2c-0.5-0.1-0.8-0.7-0.7-1.2
	c0.1-0.5,0.7-0.8,1.2-0.7C48.1,22.6,55,31.7,55,42v2C55,44.6,54.6,45,54,45z"/>
<path data-color="color-2" fill="#444444" d="M10,45c-0.6,0-1-0.4-1-1v-2c0-10.2,6.9-19.3,16.7-22.1c0.5-0.2,1.1,0.2,1.2,0.7
	c0.2,0.5-0.2,1.1-0.7,1.2C17.3,24.4,11,32.7,11,42v2C11,44.6,10.6,45,10,45z"/>
<path data-color="color-2" fill="#444444" d="M26,17H14c-0.6,0-1-0.4-1-1s0.4-1,1-1h12c0.6,0,1,0.4,1,1S26.6,17,26,17z"/>
<path data-color="color-2" fill="#444444" d="M50,17H38c-0.6,0-1-0.4-1-1s0.4-1,1-1h12c0.6,0,1,0.4,1,1S50.6,17,50,17z"/>
<path fill="#444444" d="M8,23c3.9,0,7-3.1,7-7s-3.1-7-7-7s-7,3.1-7,7S4.1,23,8,23z"/>
<path fill="#444444" d="M56,23c3.9,0,7-3.1,7-7s-3.1-7-7-7s-7,3.1-7,7S52.1,23,56,23z"/>
<path fill="#444444" d="M38,9H26c-0.6,0-1,0.4-1,1v12c0,0.6,0.4,1,1,1h12c0.6,0,1-0.4,1-1V10C39,9.4,38.6,9,38,9z"/>
<path fill="#444444" d="M16,43H4c-0.6,0-1,0.4-1,1v12c0,0.6,0.4,1,1,1h12c0.6,0,1-0.4,1-1V44C17,43.4,16.6,43,16,43z"/>
<path fill="#444444" d="M60,43H48c-0.6,0-1,0.4-1,1v12c0,0.6,0.4,1,1,1h12c0.6,0,1-0.4,1-1V44C61,43.4,60.6,43,60,43z"/>
</g><g  transform="translate(160, 160)">
<path data-color="color-2" fill="#444444" d="M24.8,39.4c-1.7-1.7-3.9-2.6-6.2-2.6c-2.3,0-4.5,0.9-6.1,2.5c-2.2,2.2-2.5,4.9-2.4,7
	c0,1.7-1.4,2.8-3.8,2.8c-0.4,0-0.8,0.3-0.9,0.6c-0.2,0.4-0.1,0.8,0.2,1.1c2.8,2.8,6.6,4.3,10.6,4.3h0c3.4,0,6.6-1.2,8.8-3.5
	C28.6,48.1,27.8,42.4,24.8,39.4z"/>
<path data-color="color-2" fill="#444444" d="M57,7c-2.8-2.8-7.2-2.8-10,0l-2.3,2.3l10,10L57,17C59.8,14.2,59.8,9.8,57,7z"/>
<path fill="#444444" d="M43.3,10.7L25.4,28.6c-0.8,0.8-0.8,2,0,2.8l7.2,7.2c0.8,0.8,2,0.8,2.8,0l17.9-17.9L43.3,10.7z"/>
</g><g  transform="translate(288, 160)">
<path fill="#444444" d="M58,5H6C5.4,5,5,5.4,5,6v12c0,0.6,0.4,1,1,1h2c0.3,0,0.5-0.1,0.7-0.3l5.7-5.7H27v36.6l-5.7,5.7
	C21.1,55.5,21,55.7,21,56v2c0,0.6,0.4,1,1,1h20c0.6,0,1-0.4,1-1v-2c0-0.3-0.1-0.5-0.3-0.7L37,49.6V13h12.5l3.7,5.6
	c0.2,0.3,0.5,0.4,0.8,0.4h4c0.6,0,1-0.4,1-1V6C59,5.4,58.6,5,58,5z"/>
</g><g  transform="translate(416, 160)">
<path fill="#444444" d="M28.2,14.4l-16.6,6.6c-0.3,0.1-0.6,0.4-0.6,0.8L5.6,54.4c-0.2,1,1,1.6,1.7,0.9l14.6-14.6
	c-1.3-1.9-1.1-4.6,0.6-6.3c0.9-0.9,2.2-1.5,3.5-1.5c1.6,0,3.2,0.8,4.1,2.2c1.2,1.7,1.2,4,0,5.7c-1,1.4-2.5,2.2-4.1,2.2
	c-1,0-1.9-0.3-2.8-0.8L8.7,56.7c-0.7,0.7-0.1,1.9,0.9,1.7L42.2,53c0.3-0.1,0.6-0.3,0.8-0.6l6.6-16.6L28.2,14.4z"/>
<path data-color="color-2" fill="#444444" d="M60.7,29.3l-26-26c-0.4-0.4-1-0.4-1.4,0l-6,6c-0.4,0.4-0.4,1,0,1.4l26,26
	c0.2,0.2,0.5,0.3,0.7,0.3s0.5-0.1,0.7-0.3l6-6C61.1,30.3,61.1,29.7,60.7,29.3z"/>
</g><g  transform="translate(544, 160)">
<path fill="#444444" d="M60.5,33.2l-5.1-6.9c2.2-2.5,3.6-5.7,3.6-9.3c0-7.7-6.3-14-14-14h-6.6C38.3,2.9,38,2.5,38,2.5
	c-1-1-2.4-1.5-4.1-1.5c-4.9,0-12.3,4.2-18.8,10.7c-9,9-13,19-9.2,22.9c0,0,0.7,0.6,1,0.7l29.8,21.8c0.7,0.6,1.6,1,2.7,1
	c1.3,0,2.8-0.4,4.5-1.2c3-1.4,6.4-3.9,9.4-7C59.1,44.1,63.5,36.4,60.5,33.2z M57,17c0,2.9-1,5.6-2.8,7.7L39.8,5H45
	C51.6,5,57,10.4,57,17z M16.5,13.1c6-6,13-10.1,17.4-10.1c1.2,0,2.1,0.3,2.7,0.9C39.7,7.1,34.3,17,27.3,24c-6,6-13,10.1-17.4,10.1
	c-1.2,0-2.1-0.3-2.7-0.9C4.1,30,9.6,20,16.5,13.1z"/>
<path data-color="color-2" fill="#444444" d="M8.8,47.4c-0.4-0.5-1.3-0.5-1.6,0C6.5,48.4,3,53.6,3,56c0,2.8,2.2,5,5,5s5-2.2,5-5
	C13,53.6,9.5,48.4,8.8,47.4z"/>
</g><g  transform="translate(672, 160)">
<path fill="#444444" d="M58.7,23.3L53.4,18l3.3-3.3c2.6-2.6,2.6-6.8,0-9.4C55.4,4,53.8,3.3,52,3.3S48.6,4,47.3,5.3L44,8.6l-5.3-5.3
	c-0.4-0.4-1-0.4-1.4,0l-4,4c-0.4,0.4-0.4,1,0,1.4l20,20c0.2,0.2,0.5,0.3,0.7,0.3s0.5-0.1,0.7-0.3l4-4C59.1,24.3,59.1,23.7,58.7,23.3
	z"/>
<path data-color="color-2" fill="#444444" d="M14.7,51.3c-0.4-0.4-1-0.4-1.4,0C12.6,52,9,55.5,9,58c0,2.8,2.2,5,5,5s5-2.2,5-5
	C19,55.5,15.4,52,14.7,51.3z"/>
<polygon fill="#444444" points="40.4,31 46.6,24.8 37.2,15.4 21.6,31 "/>
<path data-color="color-2" fill="#444444" d="M19.6,33l-4.3,4.3C15.1,37.5,15,37.7,15,38v8c0,0.6,0.4,1,1,1h8c0.3,0,0.5-0.1,0.7-0.3
	L38.4,33H19.6z"/>
</g><g  transform="translate(800, 160)">
<path fill="#444444" d="M47,27.1V46c0,0.6-0.4,1-1,1H18c-0.6,0-1-0.4-1-1V10c0-0.6,0.4-1,1-1h28c0.4,0,0.7,0.2,0.9,0.6l3.7-3.7
	c0.6-0.6,1.4-1.1,2.2-1.4C52.1,2.5,50.2,1,48,1H16c-2.8,0-5,2.2-5,5v52c0,2.8,2.2,5,5,5h32c2.8,0,5-2.2,5-5V21.1L47,27.1z M32,59
	c-1.7,0-3-1.3-3-3s1.3-3,3-3s3,1.3,3,3S33.7,59,32,59z"/>
<path data-color="color-2" fill="#444444" d="M58,7.3c-1.7-1.7-4.3-1.7-6,0L38.4,20.9c-0.8,0.8-0.8,2,0,2.8l3.2,3.2c0.8,0.8,2,0.8,2.8,0
	L58,13.3C59.6,11.7,59.6,9,58,7.3z M29.5,27.5c-1.3,1.3-1.5,3-1.5,4.4c0,0.9-0.4,1.8-1.4,2.3c-0.7,0.4-0.9,1.4-0.2,1.8
	c3.4,2,7.9,1.9,10.7-0.8c2.2-2.2,1.9-5.7,0-7.6C35,25.5,31.6,25.5,29.5,27.5z"/>
</g><g  transform="translate(928, 160)">
<path fill="#444444" d="M20,9h24c0,0,0,0,0,0c0.6,0,1-0.4,1-1c0-0.2,0-0.3-0.1-0.5l-1.9-5.8C42.8,1.3,42.4,1,42,1H22
	c-0.4,0-0.8,0.3-0.9,0.7l-2,6C18.9,8,19,8.3,19.2,8.6S19.7,9,20,9z"/>
<path fill="#444444" d="M44,55H20c-0.3,0-0.6,0.2-0.8,0.4s-0.2,0.6-0.1,0.9l2,6c0.1,0.4,0.5,0.7,0.9,0.7h20c0.4,0,0.8-0.3,0.9-0.7
	l2-6c0.1-0.3,0.1-0.6-0.1-0.9S44.3,55,44,55z"/>
<path fill="#444444" d="M56,27h-3V16c0-2.8-2.2-5-5-5H16c-2.8,0-5,2.2-5,5v32c0,2.8,2.2,5,5,5h32c2.8,0,5-2.2,5-5V37h3
	c0.6,0,1-0.4,1-1v-8C57,27.4,56.6,27,56,27z M47,46c0,0.6-0.4,1-1,1H18c-0.6,0-1-0.4-1-1V18c0-0.6,0.4-1,1-1h28c0.6,0,1,0.4,1,1V46z
	"/>
<path data-color="color-2" fill="#444444" d="M28,39c-0.3,0-0.5-0.1-0.7-0.3l-6-6c-0.4-0.4-0.4-1,0-1.4l6-6c0.4-0.4,1-0.4,1.4,0
	s0.4,1,0,1.4L23.4,32l5.3,5.3c0.4,0.4,0.4,1,0,1.4C28.5,38.9,28.3,39,28,39z"/>
<path data-color="color-2" fill="#444444" d="M36,39c-0.3,0-0.5-0.1-0.7-0.3c-0.4-0.4-0.4-1,0-1.4l5.3-5.3l-5.3-5.3c-0.4-0.4-0.4-1,0-1.4
	s1-0.4,1.4,0l6,6c0.4,0.4,0.4,1,0,1.4l-6,6C36.5,38.9,36.3,39,36,39z"/>
</g><g  transform="translate(1056, 160)">
<path fill="#444444" d="M62,51h-9V23.8l-2.4,2.4c-0.8,0.8-1.8,1.2-2.8,1.2s-2.1-0.4-2.8-1.2l-0.3-0.3c0.5,1,0.7,2,0.8,3.1
	c0.1,2-0.7,3.9-2.1,5.4c-1.8,1.8-4.3,2.8-7.1,2.8c-2.1,0-4.2-0.6-6-1.7c-0.9-0.6-1.5-1.6-1.4-2.7c0.1-1.1,0.7-2.1,1.7-2.6
	c0.3-0.1,0.3-0.2,0.3-0.4c0-1.6,0.2-3.9,2.1-5.8c1.4-1.4,3.2-2.2,5.2-2.2c1.2,0,2.3,0.3,3.3,0.8c-1.2-1.6-1.1-3.8,0.3-5.3l11-11
	C52.1,3.3,49.3,1,46,1H8C4.1,1,1,4.1,1,8v4c0,0.6,0.4,1,1,1h11v43c0,3.9,3.1,7,7,7h32h4c3.9,0,7-3.1,7-7v-4C63,51.4,62.6,51,62,51z
	 M13,11H3V8c0-2.8,2.2-5,5-5s5,2.2,5,5V11z M61,56c0,2.8-2.2,5-5,5H24.9c1.3-1.3,2.1-3,2.1-5v-3h34V56z"/>
<path data-color="color-2" fill="#444444" d="M62.4,5c-1.7-1.4-4.3-1.2-5.8,0.4L43.2,18.8c-0.8,0.8-0.8,2,0,2.8l3.2,3.2
	c0.8,0.8,2,0.8,2.8,0l13.6-13.6C64.5,9.5,64.4,6.6,62.4,5z M34.3,25.5c-1.3,1.3-1.5,3-1.5,4.4c0,0.9-0.4,1.8-1.4,2.3
	c-0.7,0.4-0.9,1.4-0.2,1.8c3.4,2,7.9,1.9,10.7-0.8c2.2-2.2,1.9-5.7,0-7.6C39.8,23.4,36.4,23.4,34.3,25.5z"/>
</g><g  transform="translate(1184, 160)">
<path fill="#444444" d="M47,1H17C9.3,1,3,7.3,3,15s6.3,14,14,14h30c7.7,0,14-6.3,14-14S54.7,1,47,1z M17,23c-4.4,0-8-3.6-8-8
	s3.6-8,8-8s8,3.6,8,8S21.4,23,17,23z"/>
<path data-color="color-2" fill="#444444" d="M47,35H17C9.3,35,3,41.3,3,49s6.3,14,14,14h30c7.7,0,14-6.3,14-14S54.7,35,47,35z M47,57
	c-4.4,0-8-3.6-8-8s3.6-8,8-8s8,3.6,8,8S51.4,57,47,57z"/>
</g><g  transform="translate(32, 288)">
<path fill="#444444" d="M62,9H34c-0.6,0-1,0.4-1,1s0.4,1,1,1h28c0.6,0,1-0.4,1-1S62.6,9,62,9z"/>
<path fill="#444444" d="M2,11h13v7c0,0.6,0.4,1,1,1h10c0.6,0,1-0.4,1-1V2c0-0.6-0.4-1-1-1H16c-0.6,0-1,0.4-1,1v7H2c-0.6,0-1,0.4-1,1
	S1.4,11,2,11z"/>
<path fill="#444444" d="M62,53H34c-0.6,0-1,0.4-1,1s0.4,1,1,1h28c0.6,0,1-0.4,1-1S62.6,53,62,53z"/>
<path fill="#444444" d="M26,45H16c-0.6,0-1,0.4-1,1v7H2c-0.6,0-1,0.4-1,1s0.4,1,1,1h13v7c0,0.6,0.4,1,1,1h10c0.6,0,1-0.4,1-1V46
	C27,45.4,26.6,45,26,45z"/>
<path data-color="color-2" fill="#444444" d="M62,31h-6c-0.6,0-1,0.4-1,1s0.4,1,1,1h6c0.6,0,1-0.4,1-1S62.6,31,62,31z"/>
<path data-color="color-2" fill="#444444" d="M2,33h35v7c0,0.6,0.4,1,1,1h10c0.6,0,1-0.4,1-1V24c0-0.6-0.4-1-1-1H38c-0.6,0-1,0.4-1,1v7H2
	c-0.6,0-1,0.4-1,1S1.4,33,2,33z"/>
</g><g  transform="translate(160, 288)">
<path fill="#444444" d="M62,9H34c-0.6,0-1,0.4-1,1s0.4,1,1,1h28c0.6,0,1-0.4,1-1S62.6,9,62,9z"/>
<path fill="#444444" d="M2,11h7.1c0.5,4.5,4.3,8,8.9,8c5,0,9-4,9-9s-4-9-9-9c-4.6,0-8.4,3.5-8.9,8H2c-0.6,0-1,0.4-1,1S1.4,11,2,11z"/>
<path data-color="color-2" fill="#444444" d="M62,31h-6c-0.6,0-1,0.4-1,1s0.4,1,1,1h6c0.6,0,1-0.4,1-1S62.6,31,62,31z"/>
<path data-color="color-2" fill="#444444" d="M2,33h29.1c0.5,4.5,4.3,8,8.9,8c5,0,9-4,9-9s-4-9-9-9c-4.6,0-8.4,3.5-8.9,8H2
	c-0.6,0-1,0.4-1,1S1.4,33,2,33z"/>
<path fill="#444444" d="M62,53H34c-0.6,0-1,0.4-1,1s0.4,1,1,1h28c0.6,0,1-0.4,1-1S62.6,53,62,53z"/>
<path fill="#444444" d="M18,45c-4.6,0-8.4,3.5-8.9,8H2c-0.6,0-1,0.4-1,1s0.4,1,1,1h7.1c0.5,4.5,4.3,8,8.9,8c5,0,9-4,9-9S23,45,18,45
	z"/>
</g><g  transform="translate(288, 288)">
<path fill="#444444" d="M32,1C14.9,1,1,14.9,1,32s13.9,31,31,31s31-13.9,31-31S49.1,1,32,1z M14.2,24.4c-1,2.4-1.6,5-1.6,7.6
	c0,0.6-0.4,1-1,1s-1-0.4-1-1c0-2.9,0.6-5.7,1.7-8.4c0.2-0.5,0.8-0.7,1.3-0.5C14.2,23.3,14.4,23.9,14.2,24.4z M32,39
	c-3.9,0-7-3.1-7-7c0-1.6,0.5-3,1.4-4.2L16,17.4c-0.4-0.4-0.4-1,0-1.4s1-0.4,1.4,0l10.4,10.4C29,25.5,30.4,25,32,25c3.9,0,7,3.1,7,7
	S35.9,39,32,39z M52.4,33c-0.6,0-1-0.4-1-1c0-10.7-8.7-19.4-19.4-19.4c-2.6,0-5.2,0.5-7.6,1.6c-0.5,0.2-1.1,0-1.3-0.5
	c-0.2-0.5,0-1.1,0.5-1.3c2.7-1.1,5.5-1.7,8.4-1.7c11.8,0,21.4,9.6,21.4,21.4C53.4,32.6,52.9,33,52.4,33z"/>
</g><g  transform="translate(416, 288)">
<path fill="#444444" d="M45,25.5V14c0-7.2-5.8-13-13-13S19,6.8,19,14v11.5c-4.9,3.8-8,9.8-8,16.5c0,11.6,9.4,21,21,21s21-9.4,21-21
	C53,35.3,49.9,29.4,45,25.5z M33,44.9V50c0,0.6-0.4,1-1,1s-1-0.4-1-1v-5.1c-3.4-0.5-6-3.4-6-6.9c0-3.9,3.1-7,7-7s7,3.1,7,7
	C39,41.5,36.4,44.4,33,44.9z M43,24.1c-3.2-2-7-3.1-11-3.1s-7.8,1.2-11,3.1V14c0-6.1,4.9-11,11-11s11,4.9,11,11V24.1z"/>
</g><g  transform="translate(544, 288)">
<path fill="#444444" d="M32,21c-4,0-7.8,1.2-11,3.1V14c0-6.1,4.9-11,11-11s11,4.9,11,11c0,0.6,0.4,1,1,1s1-0.4,1-1
	c0-7.2-5.8-13-13-13S19,6.8,19,14v11.5c-4.9,3.8-8,9.8-8,16.5c0,11.6,9.4,21,21,21s21-9.4,21-21S43.6,21,32,21z M33,44.9V50
	c0,0.6-0.4,1-1,1s-1-0.4-1-1v-5.1c-3.4-0.5-6-3.4-6-6.9c0-3.9,3.1-7,7-7s7,3.1,7,7C39,41.5,36.4,44.4,33,44.9z"/>
</g><g  transform="translate(672, 288)">
<path fill="#444444" d="M61.8,53.3L47.4,38.9C49.7,35.1,51,30.7,51,26C51,12.2,39.8,1,26,1S1,12.2,1,26s11.2,25,25,25
	c4.7,0,9.1-1.3,12.9-3.6l14.4,14.4c0.2,0.2,0.4,0.3,0.7,0.3s0.5-0.1,0.7-0.3l7.1-7.1C62.2,54.4,62.2,53.7,61.8,53.3z"/>
</g><g  transform="translate(800, 288)">
<path fill="#444444" d="M61.8,53.3L47.4,38.9C49.7,35.1,51,30.7,51,26C51,12.2,39.8,1,26,1S1,12.2,1,26s11.2,25,25,25
	c4.7,0,9.1-1.3,12.9-3.6l14.4,14.4c0.2,0.2,0.4,0.3,0.7,0.3s0.5-0.1,0.7-0.3l7.1-7.1c0.2-0.2,0.3-0.4,0.3-0.7S62,53.5,61.8,53.3z
	 M34,27h-7v7c0,0.6-0.4,1-1,1s-1-0.4-1-1v-7h-7c-0.6,0-1-0.4-1-1s0.4-1,1-1h7v-7c0-0.6,0.4-1,1-1s1,0.4,1,1v7h7c0.6,0,1,0.4,1,1
	S34.6,27,34,27z"/>
</g><g  transform="translate(928, 288)">
<path fill="#444444" d="M61.8,53.3L47.4,38.9C49.7,35.1,51,30.7,51,26C51,12.2,39.8,1,26,1S1,12.2,1,26s11.2,25,25,25
	c4.7,0,9.1-1.3,12.9-3.6l14.4,14.4c0.2,0.2,0.4,0.3,0.7,0.3s0.5-0.1,0.7-0.3l7.1-7.1c0.2-0.2,0.3-0.4,0.3-0.7S62,53.5,61.8,53.3z
	 M34,27H18c-0.6,0-1-0.4-1-1s0.4-1,1-1h16c0.6,0,1,0.4,1,1S34.6,27,34,27z"/>
</g><g  transform="translate(1056, 288)">
<path fill="#444444" d="M60,11H43V2c0-0.6-0.4-1-1-1H22c-0.6,0-1,0.4-1,1v9H4c-0.6,0-1,0.4-1,1s0.4,1,1,1h5v49c0,0.6,0.4,1,1,1h44
	c0.6,0,1-0.4,1-1V13h5c0.6,0,1-0.4,1-1S60.6,11,60,11z M23,48c0,0.6-0.4,1-1,1s-1-0.4-1-1V26c0-0.6,0.4-1,1-1s1,0.4,1,1V48z M23,3
	h18v8H23V3z M33,48c0,0.6-0.4,1-1,1s-1-0.4-1-1V26c0-0.6,0.4-1,1-1s1,0.4,1,1V48z M43,48c0,0.6-0.4,1-1,1s-1-0.4-1-1V26
	c0-0.6,0.4-1,1-1s1,0.4,1,1V48z"/>
</g><g  transform="translate(1184, 288)">
<path data-color="color-2" fill="#444444" d="M4,31c-0.3,0-0.6-0.1-0.8-0.3c-0.4-0.4-0.3-1,0.1-1.4l28-24c0.4-0.3,0.9-0.3,1.3,0l28,24
	c0.4,0.4,0.5,1,0.1,1.4c-0.4,0.4-1,0.5-1.4,0.1L32,7.3L4.7,30.8C4.5,30.9,4.2,31,4,31z"/>
<path fill="#444444" d="M32,10L9,29.7V60c0,0.6,0.4,1,1,1h15c0.6,0,1-0.4,1-1V45h12v15c0,0.6,0.4,1,1,1h15c0.6,0,1-0.4,1-1V29.7
	L32,10z M38,36c0,0.6-0.4,1-1,1H27c-0.6,0-1-0.4-1-1v-8c0-0.6,0.4-1,1-1h10c0.6,0,1,0.4,1,1V36z"/>
</g><g  transform="translate(32, 416)">
<path fill="#444444" d="M3.5,25l12.1,8.8l16.8-9.1c0.5-0.3,1,0.4,0.6,0.8L19,37v19.4c0,0.9,1.1,1.4,1.7,0.7l10.3-11.6L49.5,59
	c0.6,0.4,1.4,0.1,1.6-0.6l10-54c0.1-0.8-0.6-1.4-1.3-1.1l-56,20C3,23.6,2.9,24.6,3.5,25z"/>
</g><g  transform="translate(160, 416)">
<path data-color="color-2" fill="#444444" d="M63,19V8c0-0.6-0.4-1-1-1H49V2c0-0.6-0.4-1-1-1s-1,0.4-1,1v5H33V2c0-0.6-0.4-1-1-1
	s-1,0.4-1,1v5H17V2c0-0.6-0.4-1-1-1s-1,0.4-1,1v5H2C1.4,7,1,7.4,1,8v11H63z"/>
<path fill="#444444" d="M1,21v41c0,0.6,0.4,1,1,1h60c0.6,0,1-0.4,1-1V21H1z"/>
</g><g  transform="translate(288, 416)">
<path data-color="color-2" fill="#444444" d="M63,19V8c0-0.6-0.4-1-1-1H49V2c0-0.6-0.4-1-1-1s-1,0.4-1,1v5H33V2c0-0.6-0.4-1-1-1s-1,0.4-1,1
	v5H17V2c0-0.6-0.4-1-1-1s-1,0.4-1,1v5H2C1.4,7,1,7.4,1,8v11H63z"/>
<path fill="#444444" d="M1,21v41c0,0.6,0.4,1,1,1h60c0.6,0,1-0.4,1-1V21H1z M23,53c0,0.6-0.4,1-1,1H12c-0.6,0-1-0.4-1-1v-8
	c0-0.6,0.4-1,1-1h10c0.6,0,1,0.4,1,1V53z M23,40c0,0.6-0.4,1-1,1H12c-0.6,0-1-0.4-1-1v-8c0-0.6,0.4-1,1-1h10c0.6,0,1,0.4,1,1V40z
	 M38,53c0,0.6-0.4,1-1,1H27c-0.6,0-1-0.4-1-1v-8c0-0.6,0.4-1,1-1h10c0.6,0,1,0.4,1,1V53z M38,40c0,0.6-0.4,1-1,1H27
	c-0.6,0-1-0.4-1-1v-8c0-0.6,0.4-1,1-1h10c0.6,0,1,0.4,1,1V40z M53,40c0,0.6-0.4,1-1,1H42c-0.6,0-1-0.4-1-1v-8c0-0.6,0.4-1,1-1h10
	c0.6,0,1,0.4,1,1V40z"/>
</g><g  transform="translate(416, 416)">
<path data-color="color-2" fill="#444444" d="M63,19V8c0-0.6-0.4-1-1-1H49V2c0-0.6-0.4-1-1-1s-1,0.4-1,1v5H33V2c0-0.6-0.4-1-1-1
	s-1,0.4-1,1v5H17V2c0-0.6-0.4-1-1-1s-1,0.4-1,1v5H2C1.4,7,1,7.4,1,8v11H63z"/>
<path fill="#444444" d="M1,21v41c0,0.6,0.4,1,1,1h60c0.6,0,1-0.4,1-1V21H1z M44.7,33.7l-16,16C28.5,49.9,28.3,50,28,50
	s-0.5-0.1-0.7-0.3l-8-8c-0.4-0.4-0.4-1,0-1.4s1-0.4,1.4,0l7.3,7.3l15.3-15.3c0.4-0.4,1-0.4,1.4,0S45.1,33.3,44.7,33.7z"/>
</g><g  transform="translate(544, 416)">
<path fill="#444444" d="M51,1c-7.5,0-15.1,4.7-19.6,12H18L8,13c-3.7,0-7,5.6-7,12c0,6.4,3.3,12,7,12h10h13.4
	c4.4,7.3,12.1,12,19.6,12c6.7,0,12-10.5,12-24S57.7,1,51,1z M51,47c-3.7,0-7-4.7-8.7-11.5c4.9-1.1,8.8-5.3,8.8-10.5
	c0-5.2-3.8-9.7-8.7-10.8C44.1,7.6,47.4,3,51,3c5.4,0,10,10.1,10,22S56.4,47,51,47z"/>
<path data-color="color-2" fill="#444444" d="M27.8,39h-15l11.6,19.8c0.9,1.5,2.3,2.5,3.9,3c0.5,0.1,1.1,0.2,1.6,0.2c1.1,0,2.3-0.3,3.3-0.9
	c3.1-1.8,4.1-5.8,2.3-8.8L27.8,39z"/>
</g><g  transform="translate(672, 416)">
<path data-color="color-2" fill="#444444" d="M52,37c-0.6,0-1,0.4-1,1v23H3V13h23c0.6,0,1-0.4,1-1s-0.4-1-1-1H2c-0.6,0-1,0.4-1,1v50
	c0,0.6,0.4,1,1,1h50c0.6,0,1-0.4,1-1V38C53,37.4,52.6,37,52,37z"/>
<path fill="#444444" d="M42.6,10L19.3,33.3C19.1,33.5,19,33.7,19,34v10c0,0.6,0.4,1,1,1h10c0.3,0,0.5-0.1,0.7-0.3L54,21.4L42.6,10z"/>
<path data-color="color-2" fill="#444444" d="M60.7,13.3l-10-10c-0.4-0.4-1-0.4-1.4,0L44,8.6L55.4,20l5.3-5.3C61.1,14.3,61.1,13.7,60.7,13.3z"/>
</g><g  transform="translate(800, 416)">
<path fill="#444444" d="M59.9,12.5l-8.3-8.3c-0.9-0.9-2.2-1.5-3.5-1.5s-2.6,0.5-3.5,1.5L5.3,43.3c-0.1,0.1-0.2,0.2-0.2,0.3
	c0,0,0,0.1,0,0.1c0,0.1,0,0.1,0,0.2l-2,16c0,0.3,0.1,0.6,0.3,0.8C3.5,60.9,3.7,61,4,61c0,0,0.1,0,0.1,0l16-2c0.1,0,0.1,0,0.2,0
	c0,0,0.1,0,0.1,0c0.1,0,0.2-0.1,0.3-0.2l30-30c0,0,0,0,0,0s0,0,0,0l6-6l0,0l0,0l3.2-3.2c0.9-0.9,1.5-2.2,1.5-3.5
	S60.8,13.4,59.9,12.5z M10.6,58.2l-4.8-4.8l0.9-7.3l11.1,11.1L10.6,58.2z M40.7,24.7l-24,24C16.5,48.9,16.3,49,16,49
	s-0.5-0.1-0.7-0.3c-0.4-0.4-0.4-1,0-1.4l24-24c0.4-0.4,1-0.4,1.4,0S41.1,24.3,40.7,24.7z M50,26.6L37.4,14L42,9.4L54.6,22L50,26.6z"/>
</g><g  transform="translate(928, 416)">
<path data-color="color-2" fill="#444444" d="M58,63H2c-0.6,0-1-0.4-1-1V6c0-0.6,0.4-1,1-1h22c0.6,0,1,0.4,1,1s-0.4,1-1,1H3v54h54V40
	c0-0.6,0.4-1,1-1s1,0.4,1,1v22C59,62.6,58.6,63,58,63z"/>
<path fill="#444444" d="M60.7,3.3C60.5,3.1,60.3,3,60,3c-0.7,0-17.2,0.2-27.3,10.3c-6.8,6.8-7.1,14.7-6.5,19.3l11.7-7.9L19.3,43.3
	c-0.4,0.4-0.4,1,0,1.4c0.2,0.2,0.5,0.3,0.7,0.3s0.5-0.1,0.7-0.3l7.4-7.4c1.1,0.3,3.4,0.9,6.3,0.9c4.3,0,10.6-1.2,16.2-6.8
	C60.8,21.2,61,4.7,61,4C61,3.7,60.9,3.5,60.7,3.3z"/>
</g><g  transform="translate(1056, 416)">
<path fill="#444444" d="M62,9H2c-0.6,0-1,0.4-1,1v44c0,0.6,0.4,1,1,1h60c0.6,0,1-0.4,1-1V10C63,9.4,62.6,9,62,9z M18.8,34.6l-8,10
	C10.6,44.9,10.3,45,10,45c-0.2,0-0.4-0.1-0.6-0.2c-0.4-0.3-0.5-1-0.2-1.4l8-10c0.3-0.4,1-0.5,1.4-0.2C19.1,33.6,19.1,34.2,18.8,34.6
	z M54.6,44.8C54.4,44.9,54.2,45,54,45c-0.3,0-0.6-0.1-0.8-0.4l-8-10c-0.3-0.4-0.3-1.1,0.2-1.4c0.4-0.3,1.1-0.3,1.4,0.2l8,10
	C55.1,43.8,55.1,44.4,54.6,44.8z M54.6,18.8l-22,18C32.4,36.9,32.2,37,32,37s-0.4-0.1-0.6-0.2l-22-18c-0.4-0.4-0.5-1-0.1-1.4
	c0.4-0.4,1-0.5,1.4-0.1L32,34.7l21.4-17.5c0.4-0.3,1.1-0.3,1.4,0.1C55.1,17.8,55.1,18.4,54.6,18.8z"/>
</g><g  transform="translate(1184, 416)">
<path fill="#444444" d="M32,61c-9.4,0-17-7.6-17-17V15c0-6.6,5.4-12,12-12s12,5.4,12,12v27c0,3.9-3.1,7-7,7s-7-3.1-7-7V16
	c0-0.6,0.4-1,1-1s1,0.4,1,1v26c0,2.8,2.2,5,5,5s5-2.2,5-5V15c0-5.5-4.5-10-10-10S17,9.5,17,15v29c0,8.3,6.7,15,15,15s15-6.7,15-15
	V16c0-0.6,0.4-1,1-1s1,0.4,1,1v28C49,53.4,41.4,61,32,61z"/>
</g><g  transform="translate(32, 544)">
<path fill="#444444" d="M45.6,1C40.3,1,35.3,3.5,32,7.7C28.7,3.5,23.7,1,18.4,1C8.8,1,1,8.9,1,18.6c0,16.8,29.1,41.2,30.4,42.2
	c0.2,0.2,0.4,0.2,0.6,0.2s0.5-0.1,0.6-0.2c1.2-1,30.4-25.4,30.4-42.2C63,8.9,55.2,1,45.6,1z"/>
</g><g  transform="translate(160, 544)">
<path fill="#444444" d="M45.6,1C40.3,1,35.3,3.5,32,7.7C28.7,3.5,23.7,1,18.4,1C8.8,1,1,8.9,1,18.6c0,16.8,29.1,41.2,30.4,42.2
	c0.2,0.2,0.4,0.2,0.6,0.2s0.5-0.1,0.6-0.2c0,0,3.1-2.6,7.3-6.6c2.4,2.9,6,4.8,10.1,4.8c7.2,0,13-5.8,13-13c0-4.7-2.5-8.9-6.3-11.1
	c4.2-6.3,6.3-11.8,6.3-16.3C63,8.9,55.2,1,45.6,1z M61,46c0,6.1-4.9,11-11,11s-11-4.9-11-11s4.9-11,11-11S61,39.9,61,46z"/>
<path data-color="color-2" fill="#444444" d="M49,42v3h-3c-0.6,0-1,0.4-1,1s0.4,1,1,1h3v3c0,0.6,0.4,1,1,1s1-0.4,1-1v-3h3c0.6,0,1-0.4,1-1
	s-0.4-1-1-1h-3v-3c0-0.6-0.4-1-1-1S49,41.4,49,42z"/>
</g><g  transform="translate(288, 544)">
<path fill="#444444" d="M56.9,35c4.2-6.3,6.4-11.9,6.4-16.5C63.4,8.9,55.6,1,46,1c-5.4,0-10.4,2.5-13.6,6.7C29.1,3.5,24.1,1,18.7,1
	C9.2,1,1.4,8.9,1.4,18.6c0,16.8,29.1,41.2,30.4,42.2c0.2,0.2,0.4,0.2,0.6,0.2s0.5-0.1,0.6-0.2c0,0,3-2.5,7.1-6.4
	C42.5,57.2,46,59,50,59c7.2,0,13-5.8,13-13C63,41.4,60.6,37.3,56.9,35z M50,57c-6.1,0-11-4.9-11-11s4.9-11,11-11s11,4.9,11,11
	S56.1,57,50,57z"/>
<path data-color="color-2" fill="#444444" d="M54,45h-8c-0.6,0-1,0.4-1,1s0.4,1,1,1h8c0.6,0,1-0.4,1-1S54.6,45,54,45z"/>
</g><g  transform="translate(416, 544)">
<path data-color="color-2" fill="#444444" d="M3.4,22.6c0.4,0,0.7-0.2,0.9-0.5C8.7,14.2,16.2,8.5,25,6.5c0.4-0.1,0.7-0.4,0.7-0.7
	s0-0.7-0.3-1C22.7,2.4,19.2,1,15.6,1C7.6,1,1,7.6,1,15.6c0,2.2,0.5,4.3,1.5,6.4C2.7,22.3,3,22.6,3.4,22.6
	C3.4,22.6,3.4,22.6,3.4,22.6z"/>
<path data-color="color-2" fill="#444444" d="M48.4,1c-3.6,0-7.1,1.4-9.8,3.8c-0.3,0.3-0.4,0.6-0.3,1s0.4,0.6,0.7,0.7
	c8.8,2,16.3,7.6,20.7,15.5c0.2,0.3,0.5,0.5,0.9,0.5c0,0,0,0,0,0c0.4,0,0.7-0.2,0.9-0.6c1-2.1,1.5-4.2,1.5-6.4C63,7.6,56.4,1,48.4,1z
	"/>
<path fill="#444444" d="M60.7,61.3l-9.4-9.4C54.9,47.6,57,42,57,36c0-13.8-11.2-25-25-25S7,22.2,7,36c0,6,2.1,11.6,5.7,15.9
	l-9.4,9.4c-0.4,0.4-0.4,1,0,1.4C3.5,62.9,3.7,63,4,63s0.5-0.1,0.7-0.3l9.3-9.3C18.6,58.1,25,61,32,61s13.4-2.9,18-7.6l9.3,9.3
	c0.2,0.2,0.5,0.3,0.7,0.3s0.5-0.1,0.7-0.3C61.1,62.3,61.1,61.7,60.7,61.3z M44,37H32c-0.6,0-1-0.4-1-1V24c0-0.6,0.4-1,1-1s1,0.4,1,1
	v11h11c0.6,0,1,0.4,1,1S44.6,37,44,37z"/>
</g><g  transform="translate(544, 544)">
<path fill="#444444" d="M9,42c0,0.6,0.4,1,1,1h50c0.6,0,1-0.4,1-1s-0.4-1-1-1H11v-6h39c0.5,0,0.9-0.3,1-0.8l6-24
	c0.1-0.3,0-0.6-0.2-0.9S56.3,9,56,9H11V2c0-0.6-0.4-1-1-1H2C1.4,1,1,1.4,1,2s0.4,1,1,1h7V42z"/>
<circle data-color="color-2" fill="#444444" cx="14" cy="54" r="6"/>
<circle data-color="color-2" fill="#444444" cx="56" cy="54" r="6"/>
</g><g  transform="translate(672, 544)">
<circle data-color="color-2" fill="#444444" cx="14" cy="54" r="6"/>
<circle data-color="color-2" fill="#444444" cx="56" cy="54" r="6"/>
<path fill="#444444" d="M60,41H11v-6h39c0.5,0,0.9-0.3,1-0.8l6-24c0.1-0.3,0-0.6-0.2-0.9C56.6,9.1,56.3,9,56,9H33v14.6l6.3-6.3
	c0.4-0.4,1-0.4,1.4,0s0.4,1,0,1.4l-8,8c-0.1,0.1-0.2,0.2-0.3,0.2C32.3,27,32.1,27,32,27s-0.3,0-0.4-0.1c-0.1-0.1-0.2-0.1-0.3-0.2
	l-8-8c-0.4-0.4-0.4-1,0-1.4s1-0.4,1.4,0l6.3,6.3V9H11V2c0-0.6-0.4-1-1-1H2C1.4,1,1,1.4,1,2s0.4,1,1,1h7v39c0,0.6,0.4,1,1,1h50
	c0.6,0,1-0.4,1-1S60.6,41,60,41z"/>
</g><g  transform="translate(800, 544)">
<path data-color="color-2" fill="#444444" d="M12,27H2c-0.6,0-1,0.4-1,1v34c0,0.6,0.4,1,1,1h10c0.6,0,1-0.4,1-1V28C13,27.4,12.6,27,12,27z
	"/>
<path fill="#444444" d="M56,25H41v-9c0-5.8-3.5-12.6-10.1-14.5c-0.3-0.1-0.6-0.1-0.9-0.1c-1.7,0-3,1.3-3,3v11.3L15,31.1v26.5
	l5.3,2.6C23.9,62,28,63,32,63h20c3.9,0,7.3-2.9,8-6.9l3-24c0,0,0-0.1,0-0.1C63,28.1,59.9,25,56,25z"/>
</g><g  transform="translate(928, 544)">
<path data-color="color-2" fill="#444444" d="M11,13h52V8c0-0.6-0.4-1-1-1H11V13z"/>
<path data-color="color-2" fill="#444444" d="M9,13V7H2C1.4,7,1,7.4,1,8v5H9z"/>
<path fill="#444444" d="M1,15v41c0,0.6,0.4,1,1,1h60c0.6,0,1-0.4,1-1V15H1z M40,36h-7v7c0,0.6-0.4,1-1,1s-1-0.4-1-1v-7h-7
	c-0.6,0-1-0.4-1-1s0.4-1,1-1h7v-7c0-0.6,0.4-1,1-1s1,0.4,1,1v7h7c0.6,0,1,0.4,1,1S40.6,36,40,36z"/>
</g><g  transform="translate(1056, 544)">
<path data-color="color-2" fill="#444444" d="M9,13V7H2C1.4,7,1,7.4,1,8v5H9z"/>
<path data-color="color-2" fill="#444444" d="M11,13h52V8c0-0.6-0.4-1-1-1H11V13z"/>
<path fill="#444444" d="M1,15v41c0,0.6,0.4,1,1,1h60c0.6,0,1-0.4,1-1V15H1z M40,36H24c-0.6,0-1-0.4-1-1s0.4-1,1-1h16
	c0.6,0,1,0.4,1,1S40.6,36,40,36z"/>
</g><g  transform="translate(1184, 544)">
<path fill="#444444" d="M38,1H26c-7.2,0-13,5.8-13,13v36c0,7.2,5.8,13,13,13h12c7.2,0,13-5.8,13-13V14C51,6.8,45.2,1,38,1z M31,10
	c0-0.6,0.4-1,1-1s1,0.4,1,1v7c0,0.6-0.4,1-1,1s-1-0.4-1-1V10z M42,23H22c-0.6,0-1-0.4-1-1s0.4-1,1-1h20c0.6,0,1,0.4,1,1
	S42.6,23,42,23z"/>
</g></svg>