<svg xmlns="http://www.w3.org/2000/svg" xmlns:xlink="http://www.w3.org/1999/xlink" x="0px" y="0px" width="1280px" height="640px" viewBox="0 0 1280 640"><g  transform="translate(32, 32)">
<line data-cap="butt" data-color="color-2" fill="none" stroke="#444444" stroke-width="2" stroke-miterlimit="10" x1="46" y1="56" x2="58" y2="44" stroke-linejoin="square" stroke-linecap="butt"/>
<line data-cap="butt" data-color="color-2" fill="none" stroke="#444444" stroke-width="2" stroke-miterlimit="10" x1="24" y1="10" x2="12" y2="22" stroke-linejoin="square" stroke-linecap="butt"/>
<polyline data-color="color-2" fill="none" stroke="#444444" stroke-width="2" stroke-linecap="square" stroke-miterlimit="10" points="
	19,29 6,16 18,4 31,17 " stroke-linejoin="square"/>
<polyline data-color="color-2" fill="none" stroke="#444444" stroke-width="2" stroke-linecap="square" stroke-miterlimit="10" points="
	45,31 58,44 60,58 46,56 33,43 " stroke-linejoin="square"/>
<rect x="21.1" y="2.7" transform="matrix(0.7071 0.7071 -0.7071 0.7071 31 -12.8406)" fill="none" stroke="#444444" stroke-width="2" stroke-linecap="square" stroke-miterlimit="10" width="19.8" height="56.6" stroke-linejoin="square"/>
<line fill="none" stroke="#444444" stroke-width="2" stroke-linecap="square" stroke-miterlimit="10" x1="24" y1="24" x2="30" y2="30" stroke-linejoin="square"/>
<line fill="none" stroke="#444444" stroke-width="2" stroke-linecap="square" stroke-miterlimit="10" x1="18" y1="30" x2="22" y2="34" stroke-linejoin="square"/>
<line fill="none" stroke="#444444" stroke-width="2" stroke-linecap="square" stroke-miterlimit="10" x1="36" y1="12" x2="42" y2="18" stroke-linejoin="square"/>
<line fill="none" stroke="#444444" stroke-width="2" stroke-linecap="square" stroke-miterlimit="10" x1="30" y1="18" x2="34" y2="22" stroke-linejoin="square"/>
<line fill="none" stroke="#444444" stroke-width="2" stroke-linecap="square" stroke-miterlimit="10" x1="12" y1="36" x2="18" y2="42" stroke-linejoin="square"/>
</g><g  transform="translate(160, 32)">
<path data-cap="butt" data-color="color-2" fill="none" stroke="#444444" stroke-width="2" stroke-miterlimit="10" d="M37.9,18.8
	C47.2,21.4,54,29.9,54,40v2" stroke-linejoin="square" stroke-linecap="butt"/>
<path data-cap="butt" data-color="color-2" fill="none" stroke="#444444" stroke-width="2" stroke-miterlimit="10" d="M10,42v-2
	c0-10.1,6.7-18.5,15.9-21.2" stroke-linejoin="square" stroke-linecap="butt"/>
<line data-color="color-2" fill="none" stroke="#444444" stroke-width="2" stroke-linecap="square" stroke-miterlimit="10" x1="14" y1="16" x2="26" y2="16" stroke-linejoin="square"/>
<line data-color="color-2" fill="none" stroke="#444444" stroke-width="2" stroke-linecap="square" stroke-miterlimit="10" x1="38" y1="16" x2="50" y2="16" stroke-linejoin="square"/>
<circle fill="none" stroke="#444444" stroke-width="2" stroke-linecap="square" stroke-miterlimit="10" cx="8" cy="16" r="6" stroke-linejoin="square"/>
<circle fill="none" stroke="#444444" stroke-width="2" stroke-linecap="square" stroke-miterlimit="10" cx="56" cy="16" r="6" stroke-linejoin="square"/>
<rect x="26" y="10" fill="none" stroke="#444444" stroke-width="2" stroke-linecap="square" stroke-miterlimit="10" width="12" height="12" stroke-linejoin="square"/>
<rect x="4" y="42" fill="none" stroke="#444444" stroke-width="2" stroke-linecap="square" stroke-miterlimit="10" width="12" height="12" stroke-linejoin="square"/>
<rect x="48" y="42" fill="none" stroke="#444444" stroke-width="2" stroke-linecap="square" stroke-miterlimit="10" width="12" height="12" stroke-linejoin="square"/>
</g><g  transform="translate(288, 32)">
<line data-cap="butt" data-color="color-2" fill="none" stroke="#444444" stroke-width="2" stroke-miterlimit="10" x1="44" y1="10" x2="54" y2="20" stroke-linejoin="square" stroke-linecap="butt"/>
<path fill="none" stroke="#444444" stroke-width="2" stroke-linecap="square" stroke-miterlimit="10" d="M34,40L24,30L47,7
	c2.8-2.8,7.2-2.8,10,0l0,0c2.8,2.8,2.8,7.2,0,10L34,40z" stroke-linejoin="square"/>
<path data-color="color-2" fill="none" stroke="#444444" stroke-width="2" stroke-linecap="square" stroke-miterlimit="10" d="M24.1,40.1
	c-3-3-7.9-3.1-10.9-0.1C11.3,42,11,44.3,11,46.3c0,2-1.4,3.8-4.8,3.8c4.8,4.8,13.3,5.6,18,0.9C27.4,47.8,26.9,42.9,24.1,40.1z" stroke-linejoin="square"/>
</g><g  transform="translate(416, 32)">
<polygon fill="none" stroke="#444444" stroke-width="2" stroke-linecap="square" stroke-miterlimit="10" points="6,6 6,20 10,20 
	16,14 28,14 28,48 22,54 22,58 42,58 42,54 36,48 36,14 48,14 54,20 58,20 58,6 " stroke-linejoin="square"/>
</g><g  transform="translate(544, 32)">
<polyline data-cap="butt" fill="none" stroke="#444444" stroke-width="2" stroke-miterlimit="10" points="32,14 12,22 6,58 42,52 
	50,32 " stroke-linejoin="square" stroke-linecap="butt"/>
<line data-cap="butt" fill="none" stroke="#444444" stroke-width="2" stroke-miterlimit="10" x1="6" y1="58" x2="23.2" y2="40.8" stroke-linejoin="square" stroke-linecap="butt"/>
<rect data-color="color-2" x="25.6" y="15.8" transform="matrix(-0.7071 -0.7071 0.7071 -0.7071 60.9706 65.2548)" fill="none" stroke="#444444" stroke-width="2" stroke-linecap="square" stroke-miterlimit="10" width="36.8" height="8.5" stroke-linejoin="square"/>
<circle fill="none" stroke="#444444" stroke-width="2" stroke-linecap="square" stroke-miterlimit="10" cx="26" cy="38" r="4" stroke-linejoin="square"/>
</g><g  transform="translate(672, 32)">
<rect data-color="color-2" x="16" y="14" fill="none" stroke="#444444" stroke-width="2" stroke-linecap="square" stroke-miterlimit="10" width="32" height="20" stroke-linejoin="square"/>
<path fill="none" stroke="#444444" stroke-width="2" stroke-linecap="square" stroke-miterlimit="10" d="M56,42H8L3,55.3
	C2.5,56.6,3.5,58,4.9,58h54.2c1.4,0,2.4-1.4,1.9-2.7L56,42z" stroke-linejoin="square"/>
<path fill="none" stroke="#444444" stroke-width="2" stroke-linecap="square" stroke-miterlimit="10" d="M56,42V10c0-2.2-1.8-4-4-4
	H12c-2.2,0-4,1.8-4,4v32" stroke-linejoin="square"/>
</g><g  transform="translate(800, 32)">
<line data-color="color-2" fill="none" stroke="#444444" stroke-width="2" stroke-linecap="square" stroke-miterlimit="10" x1="38" y1="50" x2="38" y2="60" stroke-linejoin="square"/>
<line data-color="color-2" fill="none" stroke="#444444" stroke-width="2" stroke-linecap="square" stroke-miterlimit="10" x1="26" y1="60" x2="26" y2="50" stroke-linejoin="square"/>
<line data-color="color-2" fill="none" stroke="#444444" stroke-width="2" stroke-linecap="square" stroke-miterlimit="10" x1="18" y1="60" x2="46" y2="60" stroke-linejoin="square"/>
<line data-color="color-2" fill="none" stroke="#444444" stroke-width="2" stroke-linecap="square" stroke-miterlimit="10" x1="30" y1="12" x2="34" y2="12" stroke-linejoin="square"/>
<path fill="none" stroke="#444444" stroke-width="2" stroke-linecap="square" stroke-miterlimit="10" d="M58,50H6c-2.2,0-4-1.8-4-4
	V8c0-2.2,1.8-4,4-4h52c2.2,0,4,1.8,4,4v38C62,48.2,60.2,50,58,50z" stroke-linejoin="square"/>
<line fill="none" stroke="#444444" stroke-width="2" stroke-linecap="square" stroke-miterlimit="10" x1="2" y1="38" x2="62" y2="38" stroke-linejoin="square"/>
</g><g  transform="translate(928, 32)">
<line data-color="color-2" fill="none" stroke="#444444" stroke-width="2" stroke-linecap="square" stroke-miterlimit="10" x1="12" y1="54" x2="26" y2="54" stroke-linejoin="square"/>
<polyline data-color="color-2" fill="none" stroke="#444444" stroke-width="2" stroke-linecap="square" stroke-miterlimit="10" points="
	26,46 2,46 2,10 26,10 " stroke-linejoin="square"/>
<polyline data-color="color-2" fill="none" stroke="#444444" stroke-width="2" stroke-linecap="square" stroke-miterlimit="10" points="
	26,38 10,38 10,18 26,18 " stroke-linejoin="square"/>
<rect x="26" y="2" fill="none" stroke="#444444" stroke-width="2" stroke-linecap="square" stroke-miterlimit="10" width="36" height="60" stroke-linejoin="square"/>
<line fill="none" stroke="#444444" stroke-width="2" stroke-linecap="square" stroke-miterlimit="10" x1="38" y1="16" x2="50" y2="16" stroke-linejoin="square"/>
<line fill="none" stroke="#444444" stroke-width="2" stroke-linecap="square" stroke-miterlimit="10" x1="38" y1="26" x2="50" y2="26" stroke-linejoin="square"/>
<circle fill="none" stroke="#444444" stroke-width="2" stroke-linecap="square" stroke-miterlimit="10" cx="44" cy="42" r="6" stroke-linejoin="square"/>
</g><g  transform="translate(1056, 32)">
<line data-color="color-2" fill="none" stroke="#444444" stroke-width="2" stroke-linecap="square" stroke-miterlimit="10" x1="16" y1="56" x2="48" y2="56" stroke-linejoin="square"/>
<polygon data-color="color-2" fill="none" stroke="#444444" stroke-width="2" stroke-linecap="square" stroke-miterlimit="10" points="
	26,20 38,28 26,36 " stroke-linejoin="square"/>
<rect x="2" y="8" fill="none" stroke="#444444" stroke-width="2" stroke-linecap="square" stroke-miterlimit="10" width="60" height="38" stroke-linejoin="square"/>
</g><g  transform="translate(1184, 32)">
<path fill="none" stroke="#444444" stroke-width="2" stroke-linecap="square" stroke-miterlimit="10" d="M24,38H6c-2.2,0-4-1.8-4-4
	V6c0-2.2,1.8-4,4-4h18c2.2,0,4,1.8,4,4v28C28,36.2,26.2,38,24,38z" stroke-linejoin="square"/>
<path fill="none" stroke="#444444" stroke-width="2" stroke-linecap="square" stroke-miterlimit="10" d="M58,62H40c-2.2,0-4-1.8-4-4
	V30c0-2.2,1.8-4,4-4h18c2.2,0,4,1.8,4,4v28C62,60.2,60.2,62,58,62z" stroke-linejoin="square"/>
<path data-color="color-2" fill="none" stroke="#444444" stroke-width="2" stroke-linecap="square" stroke-miterlimit="10" d="M38,2L38,2
	c8.8,0,16,7.2,16,16v0" stroke-linejoin="square"/>
<path data-color="color-2" fill="none" stroke="#444444" stroke-width="2" stroke-linecap="square" stroke-miterlimit="10" d="M10,46
	L10,46c0,8.8,7.2,16,16,16h0" stroke-linejoin="square"/>
<line fill="none" stroke="#444444" stroke-width="2" stroke-linecap="square" stroke-miterlimit="10" x1="2" y1="10" x2="28" y2="10" stroke-linejoin="square"/>
<line fill="none" stroke="#444444" stroke-width="2" stroke-linecap="square" stroke-miterlimit="10" x1="2" y1="26" x2="28" y2="26" stroke-linejoin="square"/>
<line fill="none" stroke="#444444" stroke-width="2" stroke-linecap="square" stroke-miterlimit="10" x1="14" y1="32" x2="16" y2="32" stroke-linejoin="square"/>
<line fill="none" stroke="#444444" stroke-width="2" stroke-linecap="square" stroke-miterlimit="10" x1="36" y1="34" x2="62" y2="34" stroke-linejoin="square"/>
<line fill="none" stroke="#444444" stroke-width="2" stroke-linecap="square" stroke-miterlimit="10" x1="36" y1="50" x2="62" y2="50" stroke-linejoin="square"/>
<line fill="none" stroke="#444444" stroke-width="2" stroke-linecap="square" stroke-miterlimit="10" x1="48" y1="56" x2="50" y2="56" stroke-linejoin="square"/>
</g><g  transform="translate(32, 160)">
<path data-cap="butt" fill="none" stroke="#444444" stroke-width="2" stroke-miterlimit="10" d="M6.6,33.9l30.7,22.5
	c2.3,2.3,9.1-0.9,15.3-7.2s9.4-13.1,7.2-15.3L37.3,3.2" stroke-linejoin="square" stroke-linecap="butt"/>
<path data-color="color-2" fill="none" stroke="#444444" stroke-width="2" stroke-linecap="square" stroke-miterlimit="10" d="M4,56
	c0-2.2,4-8,4-8s4,5.8,4,8s-1.8,4-4,4S4,58.2,4,56z" stroke-linejoin="square"/>
<path data-cap="butt" fill="none" stroke="#444444" stroke-width="2" stroke-miterlimit="10" d="M36,30h9c7.2,0,13-5.8,13-13v0
	c0-7.2-5.8-13-13-13h-7.2" stroke-linejoin="square" stroke-linecap="butt"/>
<ellipse transform="matrix(0.7071 -0.7071 0.7071 0.7071 -6.6787 20.9218)" fill="none" stroke="#444444" stroke-width="2" stroke-linecap="square" stroke-miterlimit="10" cx="21.9" cy="18.5" rx="21.7" ry="8.7" stroke-linejoin="square"/>
</g><g  transform="translate(160, 160)">
<polyline data-color="color-2" fill="none" stroke="#444444" stroke-width="2" stroke-linecap="square" stroke-miterlimit="10" points="
	14,16 14,2 50,2 50,16 " stroke-linejoin="square"/>
<polyline fill="none" stroke="#444444" stroke-width="2" stroke-linecap="square" stroke-miterlimit="10" points="14,48 2,48 2,16 
	62,16 62,48 50,48 " stroke-linejoin="square"/>
<rect data-color="color-2" x="14" y="32" fill="none" stroke="#444444" stroke-width="2" stroke-linecap="square" stroke-miterlimit="10" width="36" height="30" stroke-linejoin="square"/>
<line data-color="color-2" fill="none" stroke="#444444" stroke-width="2" stroke-linecap="square" stroke-miterlimit="10" x1="24" y1="42" x2="40" y2="42" stroke-linejoin="square"/>
<line data-color="color-2" fill="none" stroke="#444444" stroke-width="2" stroke-linecap="square" stroke-miterlimit="10" x1="24" y1="52" x2="40" y2="52" stroke-linejoin="square"/>
</g><g  transform="translate(288, 160)">
<line data-cap="butt" data-color="color-2" fill="none" stroke="#444444" stroke-width="2" stroke-miterlimit="10" x1="22" y1="32" x2="38" y2="32" stroke-linejoin="square" stroke-linecap="butt"/>
<path fill="none" stroke="#444444" stroke-width="2" stroke-linecap="square" stroke-miterlimit="10" d="M52,18l4-4
	c2.2-2.2,2.2-5.8,0-8l0,0c-2.2-2.2-5.8-2.2-8,0l-4,4l-6-6l-6,6l20,20l6-6L52,18z" stroke-linejoin="square"/>
<polyline fill="none" stroke="#444444" stroke-width="2" stroke-linecap="square" stroke-miterlimit="10" points="38,16 16,38 
	16,46 24,46 46,24 " stroke-linejoin="square"/>
<path data-color="color-2" fill="none" stroke="#444444" stroke-width="2" stroke-linecap="square" stroke-miterlimit="10" d="M18,58
	c0,2.2-1.8,4-4,4s-4-1.8-4-4s4-6,4-6S18,55.8,18,58z" stroke-linejoin="square"/>
</g><g  transform="translate(416, 160)">
<path data-cap="butt" fill="none" stroke="#444444" stroke-width="2" stroke-miterlimit="10" d="M44.8,10H58c2.2,0,4,1.8,4,4v44
	c0,2.2-1.8,4-4,4H6c-2.2,0-4-1.8-4-4V14c0-2.2,1.8-4,4-4h13.2" stroke-linejoin="square" stroke-linecap="butt"/>
<polyline data-cap="butt" fill="none" stroke="#444444" stroke-width="2" stroke-miterlimit="10" points="46,18 54,18 54,54 10,54 
	10,18 18,18 " stroke-linejoin="square" stroke-linecap="butt"/>
<line data-cap="butt" fill="none" stroke="#444444" stroke-width="2" stroke-miterlimit="10" x1="10" y1="54" x2="26.6" y2="31.9" stroke-linejoin="square" stroke-linecap="butt"/>
<line data-cap="butt" fill="none" stroke="#444444" stroke-width="2" stroke-miterlimit="10" x1="54" y1="54" x2="37.4" y2="31.9" stroke-linejoin="square" stroke-linecap="butt"/>
<path data-color="color-2" fill="none" stroke="#444444" stroke-width="2" stroke-linecap="square" stroke-miterlimit="10" d="M46,15.6
	C46,24.1,32,38,32,38S18,24.1,18,15.6C18,7,25.2,2,32,2S46,7,46,15.6z" stroke-linejoin="square"/>
<circle data-color="color-2" fill="none" stroke="#444444" stroke-width="2" stroke-linecap="square" stroke-miterlimit="10" cx="32" cy="16" r="4" stroke-linejoin="square"/>
<line fill="none" stroke="#444444" stroke-width="2" stroke-linecap="square" stroke-miterlimit="10" x1="32" y1="54" x2="32" y2="48" stroke-linejoin="square"/>
</g><g  transform="translate(544, 160)">
<path fill="none" stroke="#444444" stroke-width="2" stroke-linecap="square" stroke-miterlimit="10" d="M46,58H18
	C9.2,58,2,50.8,2,42v0c0-8.8,7.2-16,16-16h28c8.8,0,16,7.2,16,16v0C62,50.8,54.8,58,46,58z" stroke-linejoin="square"/>
<line data-color="color-2" fill="none" stroke="#444444" stroke-width="2" stroke-linecap="square" stroke-miterlimit="10" x1="18" y1="36" x2="18" y2="48" stroke-linejoin="square"/>
<line data-color="color-2" fill="none" stroke="#444444" stroke-width="2" stroke-linecap="square" stroke-miterlimit="10" x1="12" y1="42" x2="24" y2="42" stroke-linejoin="square"/>
<line data-color="color-2" fill="none" stroke="#444444" stroke-width="2" stroke-linecap="square" stroke-miterlimit="10" x1="44" y1="40" x2="48" y2="36" stroke-linejoin="square"/>
<line data-color="color-2" fill="none" stroke="#444444" stroke-width="2" stroke-linecap="square" stroke-miterlimit="10" x1="46" y1="48" x2="50" y2="44" stroke-linejoin="square"/>
<line data-color="color-2" fill="none" stroke="#444444" stroke-width="2" stroke-linecap="square" stroke-miterlimit="10" x1="32" y1="18" x2="32" y2="6" stroke-linejoin="square"/>
</g><g  transform="translate(672, 160)">
<path data-cap="butt" fill="none" stroke="#444444" stroke-width="2" stroke-miterlimit="10" d="M50,21.2V58c0,2.2-1.8,4-4,4H14
	c-2.2,0-4-1.8-4-4V6c0-2.2,1.8-4,4-4h32c2.2,0,4,1.8,4,4v3.2" stroke-linejoin="square" stroke-linecap="butt"/>
<polyline data-cap="butt" fill="none" stroke="#444444" stroke-width="2" stroke-miterlimit="10" points="44,27.2 44,46 16,46 16,10 
	44,10 44,15.2 " stroke-linejoin="square" stroke-linecap="butt"/>
<circle fill="none" stroke="#444444" stroke-width="2" stroke-linecap="square" stroke-miterlimit="10" cx="30" cy="54" r="2" stroke-linejoin="square"/>
<path data-color="color-2" fill="none" stroke="#444444" stroke-width="2" stroke-linecap="square" stroke-miterlimit="10" d="M43,28.3
	l-6-6l15-15c1.7-1.7,4.3-1.7,6,0l0,0c1.7,1.7,1.7,4.3,0,6L43,28.3z" stroke-linejoin="square"/>
<path data-color="color-2" fill="none" stroke="#444444" stroke-width="2" stroke-linecap="square" stroke-miterlimit="10" d="M36.4,28.2
	c-2.1-2.1-5.5-2.1-7.6,0c-1.3,1.3-1.5,3-1.5,4.4c0,1.4-1,2.6-3.4,2.7c3.3,3.3,9.1,3.8,12.4,0.5C38.6,33.6,38.3,30.1,36.4,28.2z" stroke-linejoin="square"/>
</g><g  transform="translate(800, 160)">
<path data-cap="butt" fill="none" stroke="#444444" stroke-width="2" stroke-miterlimit="10" d="M47.8,50.7l9.6,7.3
	c2.1,1.6,5-0.3,4.5-2.9l-5.6-28.1c-0.9-4.3-4.7-7.5-9.1-7.5c-2.5,0-4.8,1-6.5,2.7L38.9,24H25.1l-1.8-1.8c-1.7-1.7-4.1-2.7-6.5-2.7
	c-4.4,0-8.2,3.1-9.1,7.5L2.1,55.1c-0.5,2.6,2.4,4.4,4.5,2.9l9.7-7.3" stroke-linejoin="square" stroke-linecap="butt"/>
<line data-color="color-2" fill="none" stroke="#444444" stroke-width="2" stroke-linecap="square" stroke-miterlimit="10" x1="32" y1="16" x2="32" y2="4" stroke-linejoin="square"/>
<line fill="none" stroke="#444444" stroke-width="2" stroke-linecap="square" stroke-miterlimit="10" x1="38" y1="46" x2="26" y2="46" stroke-linejoin="square"/>
<circle data-color="color-2" fill="none" stroke="#444444" stroke-width="2" stroke-linecap="square" stroke-miterlimit="10" cx="20" cy="46" r="6" stroke-linejoin="square"/>
<circle data-color="color-2" fill="none" stroke="#444444" stroke-width="2" stroke-linecap="square" stroke-miterlimit="10" cx="44" cy="46" r="6" stroke-linejoin="square"/>
</g><g  transform="translate(928, 160)">
<polyline data-cap="butt" fill="none" stroke="#444444" stroke-width="2" stroke-miterlimit="10" points="20,12 22,2 42,2 44,12 " stroke-linejoin="square" stroke-linecap="butt"/>
<polyline data-cap="butt" fill="none" stroke="#444444" stroke-width="2" stroke-miterlimit="10" points="44,52 42,62 22,62 20,52 " stroke-linejoin="square" stroke-linecap="butt"/>
<path fill="none" stroke="#444444" stroke-width="2" stroke-linecap="square" stroke-miterlimit="10" d="M48,52H16c-2.2,0-4-1.8-4-4
	V16c0-2.2,1.8-4,4-4h32c2.2,0,4,1.8,4,4v32C52,50.2,50.2,52,48,52z" stroke-linejoin="square"/>
<path fill="none" stroke="#444444" stroke-width="2" stroke-linecap="square" stroke-miterlimit="10" d="M44,52" stroke-linejoin="square"/>
<polyline fill="none" stroke="#444444" stroke-width="2" stroke-linecap="square" stroke-miterlimit="10" points="52,28 56,28 
	56,36 52,36 " stroke-linejoin="square"/>
<polyline data-color="color-2" fill="none" stroke="#444444" stroke-width="2" stroke-linecap="square" stroke-miterlimit="10" points="
	28,26 22,32 28,38 " stroke-linejoin="square"/>
<polyline data-color="color-2" fill="none" stroke="#444444" stroke-width="2" stroke-linecap="square" stroke-miterlimit="10" points="
	36,26 42,32 36,38 " stroke-linejoin="square"/>
</g><g  transform="translate(1056, 160)">
<path fill="none" stroke="#444444" stroke-width="2" stroke-linecap="square" stroke-miterlimit="10" d="M2,8c0-3.3,2.7-6,6-6
	s6,2.7,6,6v4H2V8z" stroke-linejoin="square"/>
<path data-cap="butt" fill="none" stroke="#444444" stroke-width="2" stroke-miterlimit="10" d="M52,8c0-3.3-2.7-6-6-6H8
	c3.3,0,6,2.7,6,6v48c0,3.3,2.7,6,6,6h32" stroke-linejoin="square" stroke-linecap="butt"/>
<line data-cap="butt" fill="none" stroke="#444444" stroke-width="2" stroke-miterlimit="10" x1="52" y1="52" x2="52" y2="19.6" stroke-linejoin="square" stroke-linecap="butt"/>
<path fill="none" stroke="#444444" stroke-width="2" stroke-linecap="square" stroke-miterlimit="10" d="M26,56c0,3.3-2.7,6-6,6h36
	c3.3,0,6-2.7,6-6v-4H26V56z" stroke-linejoin="square"/>
<path data-color="color-2" fill="none" stroke="#444444" stroke-width="2" stroke-linecap="square" stroke-miterlimit="10" d="M43.8,28
	l-6-6l15-15c1.7-1.7,4.3-1.7,6,0l0,0c1.7,1.7,1.7,4.3,0,6L43.8,28z" stroke-linejoin="square"/>
<path data-color="color-2" fill="none" stroke="#444444" stroke-width="2" stroke-linecap="square" stroke-miterlimit="10" d="M37.2,27.9
	c-2.1-2.1-5.5-2.1-7.6,0c-1.3,1.3-1.5,3-1.5,4.4c0,1.4-1,2.6-3.4,2.7c3.3,3.3,9.1,3.8,12.4,0.5C39.4,33.2,39.1,29.8,37.2,27.9z" stroke-linejoin="square"/>
</g><g  transform="translate(1184, 160)">
<path fill="none" stroke="#444444" stroke-width="2" stroke-linecap="square" stroke-miterlimit="10" d="M47,28H17
	C9.8,28,4,22.2,4,15v0C4,7.8,9.8,2,17,2h30c7.2,0,13,5.8,13,13v0C60,22.2,54.2,28,47,28z" stroke-linejoin="square"/>
<path data-color="color-2" fill="none" stroke="#444444" stroke-width="2" stroke-linecap="square" stroke-miterlimit="10" d="M47,62H17
	C9.8,62,4,56.2,4,49v0c0-7.2,5.8-13,13-13h30c7.2,0,13,5.8,13,13v0C60,56.2,54.2,62,47,62z" stroke-linejoin="square"/>
<circle fill="none" stroke="#444444" stroke-width="2" stroke-linecap="square" stroke-miterlimit="10" cx="17" cy="15" r="7" stroke-linejoin="square"/>
<circle data-color="color-2" fill="none" stroke="#444444" stroke-width="2" stroke-linecap="square" stroke-miterlimit="10" cx="47" cy="49" r="7" stroke-linejoin="square"/>
</g><g  transform="translate(32, 288)">
<line fill="none" stroke="#444444" stroke-width="2" stroke-linecap="square" stroke-miterlimit="10" x1="34" y1="10" x2="62" y2="10" stroke-linejoin="square"/>
<line fill="none" stroke="#444444" stroke-width="2" stroke-linecap="square" stroke-miterlimit="10" x1="2" y1="10" x2="16" y2="10" stroke-linejoin="square"/>
<rect x="16" y="2" fill="none" stroke="#444444" stroke-width="2" stroke-linecap="square" stroke-miterlimit="10" width="10" height="16" stroke-linejoin="square"/>
<line fill="none" stroke="#444444" stroke-width="2" stroke-linecap="square" stroke-miterlimit="10" x1="34" y1="54" x2="62" y2="54" stroke-linejoin="square"/>
<line fill="none" stroke="#444444" stroke-width="2" stroke-linecap="square" stroke-miterlimit="10" x1="2" y1="54" x2="16" y2="54" stroke-linejoin="square"/>
<rect x="16" y="46" fill="none" stroke="#444444" stroke-width="2" stroke-linecap="square" stroke-miterlimit="10" width="10" height="16" stroke-linejoin="square"/>
<line data-color="color-2" fill="none" stroke="#444444" stroke-width="2" stroke-linecap="square" stroke-miterlimit="10" x1="56" y1="32" x2="62" y2="32" stroke-linejoin="square"/>
<line data-color="color-2" fill="none" stroke="#444444" stroke-width="2" stroke-linecap="square" stroke-miterlimit="10" x1="2" y1="32" x2="38" y2="32" stroke-linejoin="square"/>
<rect data-color="color-2" x="38" y="24" fill="none" stroke="#444444" stroke-width="2" stroke-linecap="square" stroke-miterlimit="10" width="10" height="16" stroke-linejoin="square"/>
</g><g  transform="translate(160, 288)">
<line fill="none" stroke="#444444" stroke-width="2" stroke-linecap="square" stroke-miterlimit="10" x1="34" y1="10" x2="62" y2="10" stroke-linejoin="square"/>
<line fill="none" stroke="#444444" stroke-width="2" stroke-linecap="square" stroke-miterlimit="10" x1="2" y1="10" x2="10" y2="10" stroke-linejoin="square"/>
<line data-color="color-2" fill="none" stroke="#444444" stroke-width="2" stroke-linecap="square" stroke-miterlimit="10" x1="56" y1="32" x2="62" y2="32" stroke-linejoin="square"/>
<line data-color="color-2" fill="none" stroke="#444444" stroke-width="2" stroke-linecap="square" stroke-miterlimit="10" x1="2" y1="32" x2="32" y2="32" stroke-linejoin="square"/>
<circle fill="none" stroke="#444444" stroke-width="2" stroke-linecap="square" stroke-miterlimit="10" cx="18" cy="10" r="8" stroke-linejoin="square"/>
<line fill="none" stroke="#444444" stroke-width="2" stroke-linecap="square" stroke-miterlimit="10" x1="34" y1="54" x2="62" y2="54" stroke-linejoin="square"/>
<line fill="none" stroke="#444444" stroke-width="2" stroke-linecap="square" stroke-miterlimit="10" x1="2" y1="54" x2="10" y2="54" stroke-linejoin="square"/>
<circle fill="none" stroke="#444444" stroke-width="2" stroke-linecap="square" stroke-miterlimit="10" cx="18" cy="54" r="8" stroke-linejoin="square"/>
<circle data-color="color-2" fill="none" stroke="#444444" stroke-width="2" stroke-linecap="square" stroke-miterlimit="10" cx="40" cy="32" r="8" stroke-linejoin="square"/>
</g><g  transform="translate(288, 288)">
<path data-cap="butt" data-color="color-2" fill="none" stroke="#444444" stroke-width="2" stroke-miterlimit="10" d="M24,13.3c2.5-1.1,5.2-1.6,8-1.6
	c11.2,0,20.4,9.1,20.4,20.4" stroke-linejoin="square" stroke-linecap="butt"/>
<path data-cap="butt" data-color="color-2" fill="none" stroke="#444444" stroke-width="2" stroke-miterlimit="10" d="M11.6,32c0-2.8,0.6-5.5,1.6-8" stroke-linejoin="square" stroke-linecap="butt"/>
<line data-color="color-2" fill="none" stroke="#444444" stroke-width="2" stroke-linecap="square" stroke-miterlimit="10" x1="27.8" y1="27.8" x2="16.7" y2="16.7" stroke-linejoin="square"/>
<circle fill="none" stroke="#444444" stroke-width="2" stroke-linecap="square" stroke-miterlimit="10" cx="32" cy="32" r="30" stroke-linejoin="square"/>
<circle data-color="color-2" fill="none" stroke="#444444" stroke-width="2" stroke-linecap="square" stroke-miterlimit="10" cx="32" cy="32" r="6" stroke-linejoin="square"/>
</g><g  transform="translate(416, 288)">
<path data-cap="butt" fill="none" stroke="#444444" stroke-width="2" stroke-miterlimit="10" d="M20,26V14c0-6.6,5.4-12,12-12h0
	c6.6,0,12,5.4,12,12v12" stroke-linejoin="square" stroke-linecap="butt"/>
<circle fill="none" stroke="#444444" stroke-width="2" stroke-linecap="square" stroke-miterlimit="10" cx="32" cy="42" r="20" stroke-linejoin="square"/>
<line data-color="color-2" fill="none" stroke="#444444" stroke-width="2" stroke-linecap="square" stroke-miterlimit="10" x1="32" y1="44" x2="32" y2="50" stroke-linejoin="square"/>
<circle data-color="color-2" fill="none" stroke="#444444" stroke-width="2" stroke-linecap="square" stroke-miterlimit="10" cx="32" cy="38" r="6" stroke-linejoin="square"/>
</g><g  transform="translate(544, 288)">
<path data-cap="butt" fill="none" stroke="#444444" stroke-width="2" stroke-miterlimit="10" d="M20,26V14c0-6.6,5.4-12,12-12h0
	c6.6,0,12,5.4,12,12" stroke-linejoin="square" stroke-linecap="butt"/>
<circle fill="none" stroke="#444444" stroke-width="2" stroke-linecap="square" stroke-miterlimit="10" cx="32" cy="42" r="20" stroke-linejoin="square"/>
<line data-color="color-2" fill="none" stroke="#444444" stroke-width="2" stroke-linecap="square" stroke-miterlimit="10" x1="32" y1="44" x2="32" y2="50" stroke-linejoin="square"/>
<circle data-color="color-2" fill="none" stroke="#444444" stroke-width="2" stroke-linecap="square" stroke-miterlimit="10" cx="32" cy="38" r="6" stroke-linejoin="square"/>
</g><g  transform="translate(672, 288)">
<polyline data-cap="butt" fill="none" stroke="#444444" stroke-width="2" stroke-miterlimit="10" points="46.1,39 61.1,54.1 
	54.1,61.1 39,46.1 " stroke-linejoin="square" stroke-linecap="butt"/>
<circle fill="none" stroke="#444444" stroke-width="2" stroke-linecap="square" stroke-miterlimit="10" cx="26" cy="26" r="24" stroke-linejoin="square"/>
</g><g  transform="translate(800, 288)">
<polyline data-cap="butt" fill="none" stroke="#444444" stroke-width="2" stroke-miterlimit="10" points="46.1,39 61.1,54.1 
	54.1,61.1 39,46.1 " stroke-linejoin="square" stroke-linecap="butt"/>
<circle fill="none" stroke="#444444" stroke-width="2" stroke-linecap="square" stroke-miterlimit="10" cx="26" cy="26" r="24" stroke-linejoin="square"/>
<line data-color="color-2" fill="none" stroke="#444444" stroke-width="2" stroke-linecap="square" stroke-miterlimit="10" x1="26" y1="18" x2="26" y2="34" stroke-linejoin="square"/>
<line data-color="color-2" fill="none" stroke="#444444" stroke-width="2" stroke-linecap="square" stroke-miterlimit="10" x1="34" y1="26" x2="18" y2="26" stroke-linejoin="square"/>
</g><g  transform="translate(928, 288)">
<polyline data-cap="butt" fill="none" stroke="#444444" stroke-width="2" stroke-miterlimit="10" points="46.1,39 61.1,54.1 
	54.1,61.1 39,46.1 " stroke-linejoin="square" stroke-linecap="butt"/>
<circle fill="none" stroke="#444444" stroke-width="2" stroke-linecap="square" stroke-miterlimit="10" cx="26" cy="26" r="24" stroke-linejoin="square"/>
<line data-color="color-2" fill="none" stroke="#444444" stroke-width="2" stroke-linecap="square" stroke-miterlimit="10" x1="34" y1="26" x2="18" y2="26" stroke-linejoin="square"/>
</g><g  transform="translate(1056, 288)">
<polyline data-color="color-2" fill="none" stroke="#444444" stroke-width="2" stroke-linecap="square" stroke-miterlimit="10" points="
	22,12 22,2 42,2 42,12 " stroke-linejoin="square"/>
<polyline fill="none" stroke="#444444" stroke-width="2" stroke-linecap="square" stroke-miterlimit="10" points="54,12 54,62 
	10,62 10,12 " stroke-linejoin="square"/>
<line data-color="color-2" fill="none" stroke="#444444" stroke-width="2" stroke-linecap="square" stroke-miterlimit="10" x1="32" y1="26" x2="32" y2="48" stroke-linejoin="square"/>
<line data-color="color-2" fill="none" stroke="#444444" stroke-width="2" stroke-linecap="square" stroke-miterlimit="10" x1="22" y1="26" x2="22" y2="48" stroke-linejoin="square"/>
<line data-color="color-2" fill="none" stroke="#444444" stroke-width="2" stroke-linecap="square" stroke-miterlimit="10" x1="42" y1="26" x2="42" y2="48" stroke-linejoin="square"/>
<line fill="none" stroke="#444444" stroke-width="2" stroke-linecap="square" stroke-miterlimit="10" x1="60" y1="12" x2="4" y2="12" stroke-linejoin="square"/>
</g><g  transform="translate(1184, 288)">
<polyline data-cap="butt" fill="none" stroke="#444444" stroke-width="2" stroke-miterlimit="10" points="10,24.9 10,60 26,60 26,44 
	38,44 38,60 54,60 54,24.9 " stroke-linejoin="square" stroke-linecap="butt"/>
<polyline data-color="color-2" fill="none" stroke="#444444" stroke-width="2" stroke-linecap="square" stroke-miterlimit="10" points="
	4,30 32,6 60,30 " stroke-linejoin="square"/>
<rect data-color="color-2" x="26" y="24" fill="none" stroke="#444444" stroke-width="2" stroke-linecap="square" stroke-miterlimit="10" width="12" height="10" stroke-linejoin="square"/>
</g><g  transform="translate(32, 416)">
<polyline data-cap="butt" fill="none" stroke="#444444" stroke-width="2" stroke-miterlimit="10" points="60,4 20,36 20,56 30.9,43.8 
	" stroke-linejoin="square" stroke-linecap="butt"/>
<polygon fill="none" stroke="#444444" stroke-width="2" stroke-linecap="square" stroke-miterlimit="10" points="4,24 60,4 50,58 
	" stroke-linejoin="square"/>
</g><g  transform="translate(160, 416)">
<line fill="none" stroke="#444444" stroke-width="2" stroke-linecap="square" stroke-miterlimit="10" x1="62" y1="22" x2="2" y2="22" stroke-linejoin="square"/>
<rect x="2" y="8" fill="none" stroke="#444444" stroke-width="2" stroke-linecap="square" stroke-miterlimit="10" width="60" height="54" stroke-linejoin="square"/>
<line data-color="color-2" fill="none" stroke="#444444" stroke-width="2" stroke-linecap="square" stroke-miterlimit="10" x1="32" y1="2" x2="32" y2="14" stroke-linejoin="square"/>
<line data-color="color-2" fill="none" stroke="#444444" stroke-width="2" stroke-linecap="square" stroke-miterlimit="10" x1="16" y1="2" x2="16" y2="14" stroke-linejoin="square"/>
<line data-color="color-2" fill="none" stroke="#444444" stroke-width="2" stroke-linecap="square" stroke-miterlimit="10" x1="48" y1="2" x2="48" y2="14" stroke-linejoin="square"/>
</g><g  transform="translate(288, 416)">
<line fill="none" stroke="#444444" stroke-width="2" stroke-linecap="square" stroke-miterlimit="10" x1="62" y1="22" x2="2" y2="22" stroke-linejoin="square"/>
<rect x="2" y="8" fill="none" stroke="#444444" stroke-width="2" stroke-linecap="square" stroke-miterlimit="10" width="60" height="54" stroke-linejoin="square"/>
<line data-color="color-2" fill="none" stroke="#444444" stroke-width="2" stroke-linecap="square" stroke-miterlimit="10" x1="32" y1="2" x2="32" y2="14" stroke-linejoin="square"/>
<line data-color="color-2" fill="none" stroke="#444444" stroke-width="2" stroke-linecap="square" stroke-miterlimit="10" x1="16" y1="2" x2="16" y2="14" stroke-linejoin="square"/>
<line data-color="color-2" fill="none" stroke="#444444" stroke-width="2" stroke-linecap="square" stroke-miterlimit="10" x1="48" y1="2" x2="48" y2="14" stroke-linejoin="square"/>
<polygon data-color="color-2" fill="none" stroke="#444444" stroke-width="2" stroke-linecap="square" stroke-miterlimit="10" points="
	14,32 14,42 14,52 38,52 38,42 50,42 50,32 " stroke-linejoin="square"/>
<line data-color="color-2" fill="none" stroke="#444444" stroke-width="2" stroke-linecap="square" stroke-miterlimit="10" x1="38" y1="32" x2="38" y2="42" stroke-linejoin="square"/>
<line data-color="color-2" fill="none" stroke="#444444" stroke-width="2" stroke-linecap="square" stroke-miterlimit="10" x1="26" y1="34" x2="26" y2="52" stroke-linejoin="square"/>
<line data-color="color-2" fill="none" stroke="#444444" stroke-width="2" stroke-linecap="square" stroke-miterlimit="10" x1="38" y1="42" x2="14" y2="42" stroke-linejoin="square"/>
</g><g  transform="translate(416, 416)">
<line fill="none" stroke="#444444" stroke-width="2" stroke-linecap="square" stroke-miterlimit="10" x1="62" y1="22" x2="2" y2="22" stroke-linejoin="square"/>
<rect x="2" y="8" fill="none" stroke="#444444" stroke-width="2" stroke-linecap="square" stroke-miterlimit="10" width="60" height="54" stroke-linejoin="square"/>
<line data-color="color-2" fill="none" stroke="#444444" stroke-width="2" stroke-linecap="square" stroke-miterlimit="10" x1="32" y1="2" x2="32" y2="14" stroke-linejoin="square"/>
<line data-color="color-2" fill="none" stroke="#444444" stroke-width="2" stroke-linecap="square" stroke-miterlimit="10" x1="16" y1="2" x2="16" y2="14" stroke-linejoin="square"/>
<line data-color="color-2" fill="none" stroke="#444444" stroke-width="2" stroke-linecap="square" stroke-miterlimit="10" x1="48" y1="2" x2="48" y2="14" stroke-linejoin="square"/>
<polyline data-color="color-2" fill="none" stroke="#444444" stroke-width="2" stroke-linecap="square" stroke-miterlimit="10" points="
	20,42 28,50 44,34 " stroke-linejoin="square"/>
</g><g  transform="translate(544, 416)">
<path data-cap="butt" data-color="color-2" fill="none" stroke="#444444" stroke-width="2" stroke-miterlimit="10" d="M24.9,36l9.8,16.8
	c1.5,2.6,0.7,5.9-1.9,7.5l0,0c-2.6,1.5-5.9,0.7-7.5-1.9L12.3,36" stroke-linejoin="square" stroke-linecap="butt"/>
<path data-cap="butt" data-color="color-2" fill="none" stroke="#444444" stroke-width="2" stroke-miterlimit="10" d="M41.3,14
	c5.4,0.7,9.8,5.4,9.8,11c0,5.6-4.5,10-9.8,10.6" stroke-linejoin="square" stroke-linecap="butt"/>
<path fill="none" stroke="#444444" stroke-width="2" stroke-linecap="square" stroke-miterlimit="10" d="M18,14L8,14c-3,0-6,5-6,11
	c0,6,3,11,6,11h10" stroke-linejoin="square"/>
<path data-cap="butt" fill="none" stroke="#444444" stroke-width="2" stroke-miterlimit="10" d="M51,2c-8.1,0-15.2,5.5-19,12H18
	c-3,0-5.1,5-5.1,11c0,6,2.1,11,5.1,11h14c3.8,6.5,10.9,12,19,12" stroke-linejoin="square" stroke-linecap="butt"/>
<ellipse fill="none" stroke="#444444" stroke-width="2" stroke-linecap="square" stroke-miterlimit="10" cx="51" cy="25" rx="11" ry="23" stroke-linejoin="square"/>
</g><g  transform="translate(672, 416)">
<polyline data-color="color-2" fill="none" stroke="#444444" stroke-width="2" stroke-linecap="square" stroke-miterlimit="10" points="
	26,12 2,12 2,62 52,62 52,38 " stroke-linejoin="square"/>
<line data-color="color-2" fill="none" stroke="#444444" stroke-width="2" stroke-linecap="square" stroke-miterlimit="10" x1="44" y1="10" x2="54" y2="20" stroke-linejoin="square"/>
<polygon fill="none" stroke="#444444" stroke-width="2" stroke-linecap="square" stroke-miterlimit="10" points="30,44 20,44 20,34 
	50,4 60,14 " stroke-linejoin="square"/>
</g><g  transform="translate(800, 416)">
<line data-cap="butt" data-color="color-2" fill="none" stroke="#444444" stroke-width="2" stroke-miterlimit="10" x1="6" y1="44" x2="20" y2="58" stroke-linejoin="square" stroke-linecap="butt"/>
<line data-cap="butt" data-color="color-2" fill="none" stroke="#444444" stroke-width="2" stroke-miterlimit="10" x1="13" y1="51" x2="43" y2="21" stroke-linejoin="square" stroke-linecap="butt"/>
<line data-color="color-2" fill="none" stroke="#444444" stroke-width="2" stroke-linecap="square" stroke-miterlimit="10" x1="42" y1="8" x2="56" y2="22" stroke-linejoin="square"/>
<line data-color="color-2" fill="none" stroke="#444444" stroke-width="2" stroke-linecap="square" stroke-miterlimit="10" x1="36" y1="14" x2="50" y2="28" stroke-linejoin="square"/>
<path fill="none" stroke="#444444" stroke-width="2" stroke-linecap="square" stroke-miterlimit="10" d="M20,58L4,60l2-16L45.2,4.8
	c1.6-1.6,4.1-1.6,5.7,0l8.3,8.3c1.6,1.6,1.6,4.1,0,5.7L20,58z" stroke-linejoin="square"/>
</g><g  transform="translate(928, 416)">
<path fill="none" stroke="#444444" stroke-width="2" stroke-linecap="square" stroke-miterlimit="10" d="M33.4,14
	C43.3,4.1,60,4,60,4s-0.1,16.7-10,26.6c-10,10-22.1,5.5-22.1,5.5S23.6,23.9,33.4,14z" stroke-linejoin="square"/>
<line fill="none" stroke="#444444" stroke-width="2" stroke-linecap="square" stroke-miterlimit="10" x1="42" y1="22" x2="20" y2="44" stroke-linejoin="square"/>
<polyline data-color="color-2" fill="none" stroke="#444444" stroke-width="2" stroke-linecap="square" stroke-miterlimit="10" points="
	58,40 58,62 2,62 2,6 24,6 " stroke-linejoin="square"/>
</g><g  transform="translate(1056, 416)">
<polyline data-cap="butt" data-color="color-2" fill="none" stroke="#444444" stroke-width="2" stroke-miterlimit="10" points="10,18 32,36 54,18 " stroke-linejoin="square" stroke-linecap="butt"/>
<rect x="2" y="10" fill="none" stroke="#444444" stroke-width="2" stroke-linecap="square" stroke-miterlimit="10" width="60" height="44" stroke-linejoin="square"/>
<line data-cap="butt" data-color="color-2" fill="none" stroke="#444444" stroke-width="2" stroke-miterlimit="10" x1="10" y1="44" x2="18" y2="34" stroke-linejoin="square" stroke-linecap="butt"/>
<line data-cap="butt" data-color="color-2" fill="none" stroke="#444444" stroke-width="2" stroke-miterlimit="10" x1="54" y1="44" x2="46" y2="34" stroke-linejoin="square" stroke-linecap="butt"/>
</g><g  transform="translate(1184, 416)">
<path fill="none" stroke="#444444" stroke-width="2" stroke-linecap="square" stroke-miterlimit="10" d="M48,16v28
	c0,8.8-7.2,16-16,16h0c-8.8,0-16-7.2-16-16V15c0-6.1,4.9-11,11-11h0c6.1,0,11,4.9,11,11v27c0,3.3-2.7,6-6,6h0c-3.3,0-6-2.7-6-6V16" stroke-linejoin="square"/>
</g><g  transform="translate(32, 544)">
<path fill="none" stroke="#444444" stroke-width="2" stroke-linecap="square" stroke-miterlimit="10" d="M45.6,2
	C39.9,2,34.9,4.9,32,9.4C29.1,4.9,24.1,2,18.4,2C9.3,2,2,9.4,2,18.6C2,35.1,32,60,32,60s30-24.9,30-41.4C62,9.4,54.7,2,45.6,2z" stroke-linejoin="square"/>
</g><g  transform="translate(160, 544)">
<path data-cap="butt" fill="none" stroke="#444444" stroke-width="2" stroke-miterlimit="10" d="M55.3,35.2c3.9-5.7,6.7-11.5,6.7-16.6
	C62,9.4,54.7,2,45.6,2C39.9,2,34.9,4.9,32,9.4C29.1,4.9,24.1,2,18.4,2C9.3,2,2,9.4,2,18.6C2,35.1,32,60,32,60s3.5-2.9,8.1-7.3" stroke-linejoin="square" stroke-linecap="butt"/>
<circle data-color="color-2" fill="none" stroke="#444444" stroke-width="2" stroke-linecap="square" stroke-miterlimit="10" cx="50" cy="46" r="12" stroke-linejoin="square"/>
<line data-color="color-2" fill="none" stroke="#444444" stroke-width="2" stroke-linecap="square" stroke-miterlimit="10" x1="50" y1="42" x2="50" y2="50" stroke-linejoin="square"/>
<line data-color="color-2" fill="none" stroke="#444444" stroke-width="2" stroke-linecap="square" stroke-miterlimit="10" x1="46" y1="46" x2="54" y2="46" stroke-linejoin="square"/>
</g><g  transform="translate(288, 544)">
<path data-cap="butt" fill="none" stroke="#444444" stroke-width="2" stroke-miterlimit="10" d="M55.6,35.2c3.9-5.7,6.7-11.5,6.7-16.6
	C62.4,9.4,55,2,46,2c-5.7,0-10.7,2.9-13.6,7.4C29.4,4.9,24.4,2,18.7,2C9.7,2,2.4,9.4,2.4,18.6c0,16.6,30,41.4,30,41.4
	s3.5-2.9,8.1-7.3" stroke-linejoin="square" stroke-linecap="butt"/>
<circle data-color="color-2" fill="none" stroke="#444444" stroke-width="2" stroke-linecap="square" stroke-miterlimit="10" cx="50" cy="46" r="12" stroke-linejoin="square"/>
<line data-color="color-2" fill="none" stroke="#444444" stroke-width="2" stroke-linecap="square" stroke-miterlimit="10" x1="46" y1="46" x2="54" y2="46" stroke-linejoin="square"/>
</g><g  transform="translate(416, 544)">
<polyline data-color="color-2" fill="none" stroke="#444444" stroke-width="2" stroke-linecap="square" stroke-miterlimit="10" points="
	32,24 32,36 44,36 " stroke-linejoin="square"/>
<line data-cap="butt" fill="none" stroke="#444444" stroke-width="2" stroke-miterlimit="10" x1="4" y1="62" x2="14" y2="52" stroke-linejoin="square" stroke-linecap="butt"/>
<line data-cap="butt" fill="none" stroke="#444444" stroke-width="2" stroke-miterlimit="10" x1="60" y1="62" x2="50" y2="52" stroke-linejoin="square" stroke-linecap="butt"/>
<circle fill="none" stroke="#444444" stroke-width="2" stroke-linecap="square" stroke-miterlimit="10" cx="32" cy="36" r="24" stroke-linejoin="square"/>
<path data-color="color-2" fill="none" stroke="#444444" stroke-width="2" stroke-linecap="square" stroke-miterlimit="10" d="M24.8,5.6
	C22.3,3.4,19.2,2,15.6,2C8.1,2,2,8.1,2,15.6c0,2.1,0.5,4.1,1.4,5.9C7.9,13.6,15.6,7.6,24.8,5.6z" stroke-linejoin="square"/>
<path data-color="color-2" fill="none" stroke="#444444" stroke-width="2" stroke-linecap="square" stroke-miterlimit="10" d="M39.2,5.6
	C41.7,3.4,44.8,2,48.4,2C55.9,2,62,8.1,62,15.6c0,2.1-0.5,4.1-1.4,5.9C56.1,13.6,48.4,7.6,39.2,5.6z" stroke-linejoin="square"/>
</g><g  transform="translate(544, 544)">
<polyline fill="none" stroke="#444444" stroke-width="2" stroke-linecap="square" stroke-miterlimit="10" points="2,2 10,2 10,42 
	60,42 " stroke-linejoin="square"/>
<circle data-color="color-2" fill="none" stroke="#444444" stroke-width="2" stroke-linecap="square" stroke-miterlimit="10" cx="14" cy="56" r="6" stroke-linejoin="square"/>
<circle data-color="color-2" fill="none" stroke="#444444" stroke-width="2" stroke-linecap="square" stroke-miterlimit="10" cx="56" cy="56" r="6" stroke-linejoin="square"/>
<polyline fill="none" stroke="#444444" stroke-width="2" stroke-linecap="square" stroke-miterlimit="10" points="10,10 56,10 
	50,34 10,34 " stroke-linejoin="square"/>
</g><g  transform="translate(672, 544)">
<polyline fill="none" stroke="#444444" stroke-width="2" stroke-linecap="square" stroke-miterlimit="10" points="2,2 10,2 10,42 
	60,42 " stroke-linejoin="square"/>
<circle data-color="color-2" fill="none" stroke="#444444" stroke-width="2" stroke-linecap="square" stroke-miterlimit="10" cx="14" cy="56" r="6" stroke-linejoin="square"/>
<circle data-color="color-2" fill="none" stroke="#444444" stroke-width="2" stroke-linecap="square" stroke-miterlimit="10" cx="56" cy="56" r="6" stroke-linejoin="square"/>
<polyline fill="none" stroke="#444444" stroke-width="2" stroke-linecap="square" stroke-miterlimit="10" points="40,10 56,10 
	50,34 10,34 " stroke-linejoin="square"/>
<line fill="none" stroke="#444444" stroke-width="2" stroke-linecap="square" stroke-miterlimit="10" x1="10" y1="10" x2="24" y2="10" stroke-linejoin="square"/>
<line data-cap="butt" data-color="color-2" fill="none" stroke="#444444" stroke-width="2" stroke-miterlimit="10" x1="32" y1="2" x2="32" y2="26" stroke-linejoin="square" stroke-linecap="butt"/>
<polyline data-color="color-2" fill="none" stroke="#444444" stroke-width="2" stroke-linecap="square" stroke-miterlimit="10" points="
	40,18 32,26 24,18 " stroke-linejoin="square"/>
</g><g  transform="translate(800, 544)">
<path data-cap="butt" fill="none" stroke="#444444" stroke-width="2" stroke-miterlimit="10" d="M14,56l6.7,3.4
	C24.2,61.1,28.1,62,32,62h20c3.3,0,6.4-2.4,7-6l3-24c0-3.3-2.7-6-6-6H40V16c0-5.7-3.5-11.9-9.4-13.6C29.3,2.1,28,3,28,4.3V16L14,34" stroke-linejoin="square" stroke-linecap="butt"/>
<rect data-color="color-2" x="2" y="28" fill="none" stroke="#444444" stroke-width="2" stroke-linecap="square" stroke-miterlimit="10" width="12" height="34" stroke-linejoin="square"/>
</g><g  transform="translate(928, 544)">
<rect x="2" y="8" fill="none" stroke="#444444" stroke-width="2" stroke-linecap="square" stroke-miterlimit="10" width="60" height="48" stroke-linejoin="square"/>
<line fill="none" stroke="#444444" stroke-width="2" stroke-linecap="square" stroke-miterlimit="10" x1="2" y1="16" x2="62" y2="16" stroke-linejoin="square"/>
<line fill="none" stroke="#444444" stroke-width="2" stroke-linecap="square" stroke-miterlimit="10" x1="10" y1="8" x2="10" y2="16" stroke-linejoin="square"/>
<line data-color="color-2" fill="none" stroke="#444444" stroke-width="2" stroke-linecap="square" stroke-miterlimit="10" x1="32" y1="28" x2="32" y2="44" stroke-linejoin="square"/>
<line data-color="color-2" fill="none" stroke="#444444" stroke-width="2" stroke-linecap="square" stroke-miterlimit="10" x1="40" y1="36" x2="24" y2="36" stroke-linejoin="square"/>
</g><g  transform="translate(1056, 544)">
<rect x="2" y="8" fill="none" stroke="#444444" stroke-width="2" stroke-linecap="square" stroke-miterlimit="10" width="60" height="48" stroke-linejoin="square"/>
<line fill="none" stroke="#444444" stroke-width="2" stroke-linecap="square" stroke-miterlimit="10" x1="2" y1="16" x2="62" y2="16" stroke-linejoin="square"/>
<line fill="none" stroke="#444444" stroke-width="2" stroke-linecap="square" stroke-miterlimit="10" x1="10" y1="8" x2="10" y2="16" stroke-linejoin="square"/>
<line data-color="color-2" fill="none" stroke="#444444" stroke-width="2" stroke-linecap="square" stroke-miterlimit="10" x1="40" y1="36" x2="24" y2="36" stroke-linejoin="square"/>
</g><g  transform="translate(1184, 544)">
<path fill="none" stroke="#444444" stroke-width="2" stroke-linecap="square" stroke-miterlimit="10" d="M38,62H26
	c-6.6,0-12-5.4-12-12V14c0-6.6,5.4-12,12-12h12c6.6,0,12,5.4,12,12v36C50,56.6,44.6,62,38,62z" stroke-linejoin="square"/>
<line data-color="color-2" fill="none" stroke="#444444" stroke-width="2" stroke-linecap="square" stroke-miterlimit="10" x1="22" y1="22" x2="42" y2="22" stroke-linejoin="square"/>
<line data-color="color-2" fill="none" stroke="#444444" stroke-width="2" stroke-linecap="square" stroke-miterlimit="10" x1="32" y1="10" x2="32" y2="16" stroke-linejoin="square"/>
</g></svg>