<svg xmlns="http://www.w3.org/2000/svg" xmlns:xlink="http://www.w3.org/1999/xlink" x="0px" y="0px" width="1280px" height="640px" viewBox="0 0 1280 640"><g  transform="translate(32, 32)">
<path data-color="color-2" fill="#444444" d="M61.9,54.9L56.7,43H7.3L2.1,54.9c-0.3,0.9-0.2,2,0.3,2.8C3,58.5,3.9,59,4.9,59h54.2
	c1,0,1.9-0.5,2.5-1.3C62.1,56.9,62.3,55.9,61.9,54.9z"/>
<path fill="#444444" d="M52,5H12c-2.8,0-5,2.2-5,5v31h50V10C57,7.2,54.8,5,52,5z M49,33H15V13h34V33z"/>
</g><g  transform="translate(160, 32)">
<path fill="#444444" d="M63,37V8c0-2.8-2.2-5-5-5H6C3.2,3,1,5.2,1,8v29H63z M29,11h6v2h-6V11z"/>
<path data-color="color-2" fill="#444444" d="M1,39v7c0,2.8,2.2,5,5,5h19v8h-8v2h8h14h8v-2h-8v-8h19c2.8,0,5-2.2,5-5v-7H1z"/>
</g><g  transform="translate(288, 32)">
<path fill="#444444" d="M25,1v62h38V1H25z M44,49c-3.9,0-7-3.1-7-7s3.1-7,7-7s7,3.1,7,7S47.9,49,44,49z M51,27H37v-2h14V27z M51,17
	H37v-2h14V17z"/>
<rect data-color="color-2" x="11" y="53" fill="#444444" width="12" height="2"/>
<polygon data-color="color-2" fill="#444444" points="23,39 9,39 9,17 23,17 23,9 1,9 1,47 23,47 "/>
</g><g  transform="translate(416, 32)">
<rect data-color="color-2" x="15" y="55" fill="#444444" width="34" height="2"/>
<path fill="#444444" d="M1,7v40h62V7H1z M25,37.9V18.1L39.8,28L25,37.9z"/>
</g><g  transform="translate(544, 32)">
<path data-color="color-2" fill="#444444" d="M55,19h-2v-1c0-8.3-6.7-15-15-15h-1V1h1c9.4,0,17,7.6,17,17V19z"/>
<path data-color="color-2" fill="#444444" d="M27,63h-1c-9.4,0-17-7.6-17-17v-1h2v1c0,8.3,6.7,15,15,15h1V63z"/>
<rect x="1" y="11" fill="#444444" width="28" height="14"/>
<path fill="#444444" d="M29,9V6c0-2.8-2.2-5-5-5H6C3.2,1,1,3.2,1,6v3H29z"/>
<path fill="#444444" d="M1,27v7c0,2.8,2.2,5,5,5h18c2.8,0,5-2.2,5-5v-7H1z M17,33h-4v-2h4V33z"/>
<path fill="#444444" d="M63,33v-3c0-2.8-2.2-5-5-5H40c-2.8,0-5,2.2-5,5v3H63z"/>
<rect x="35" y="35" fill="#444444" width="28" height="14"/>
<path fill="#444444" d="M35,51v7c0,2.8,2.2,5,5,5h18c2.8,0,5-2.2,5-5v-7H35z M51,57h-4v-2h4V57z"/>
</g><g  transform="translate(672, 32)">
<path fill="#444444" d="M63,15H51V1H13v14H1v34h12v14h38V49h12V15z M15,3h34v12H15V3z M49,61H15V33h34V61z"/>
<rect data-color="color-2" x="23" y="41" fill="#444444" width="18" height="2"/>
<rect data-color="color-2" x="23" y="51" fill="#444444" width="18" height="2"/>
</g><g  transform="translate(800, 32)">
<path data-color="color-2" fill="#444444" d="M32,21c2.8,0,5-2.2,5-5s-2.2-5-5-5s-5,2.2-5,5S29.2,21,32,21z"/>
<path fill="#444444" d="M58,9H45.4C42.8,3.9,37.4,1,32,1S21.2,3.9,18.6,9H6c-2.8,0-5,2.2-5,5v44c0,2.8,2.2,5,5,5h52c2.8,0,5-2.2,5-5
	V14C63,11.2,60.8,9,58,9z M32,3c6.4,0,13,4.7,13,12.6c0,6.9-10.2,18-13,20.9c-2.8-2.9-13-14.1-13-20.9C19,7.7,25.6,3,32,3z M10,52.3
	V18h7.3c1,4.5,4.7,9.8,8,14L10,52.3z M33,54h-2v-8h2V54z M54,52.3L38.7,32c3.3-4.1,7-9.4,8-14H54V52.3z"/>
</g><g  transform="translate(928, 32)">
<path fill="#444444" d="M46,25H18C8.6,25,1,32.6,1,42s7.6,17,17,17h28c9.4,0,17-7.6,17-17S55.4,25,46,25z M25,43h-6v6h-2v-6h-6v-2h6
	v-6h2v6h6V43z M42.6,40l5.4-5.4l1.4,1.4L44,41.4L42.6,40z M46,49.4L44.6,48l5.4-5.4l1.4,1.4L46,49.4z"/>
<rect data-color="color-2" x="31" y="5" fill="#444444" width="2" height="14"/>
</g><g  transform="translate(1056, 32)">
<rect data-color="color-2" x="31" y="3" fill="#444444" width="2" height="14"/>
<path fill="#444444" d="M62.9,54.9l-5.6-28.1c-1-4.8-5.2-8.3-10.1-8.3c-2.7,0-5.3,1.1-7.3,3L38.5,23h-13L24,21.5
	c-1.9-1.9-4.5-3-7.3-3c-4.9,0-9.1,3.5-10.1,8.3L1.1,54.9c-0.3,1.6,0.4,3.2,1.7,4c0.6,0.4,1.3,0.6,2.1,0.6c0.8,0,1.6-0.3,2.3-0.8
	l9.1-6.8c1.1,0.7,2.4,1.1,3.8,1.1c2.1,0,3.9-0.9,5.2-2.3l13.6,0c1.3,1.4,3.1,2.3,5.2,2.3c1.4,0,2.7-0.4,3.8-1.1l9.1,6.8
	c1.3,1,3,1,4.4,0.2C62.6,58,63.2,56.5,62.9,54.9z M20,51c-2.8,0-5-2.2-5-5s2.2-5,5-5s5,2.2,5,5S22.8,51,20,51z M39,46
	c0-2.8,2.2-5,5-5s5,2.2,5,5s-2.2,5-5,5S39,48.8,39,46z"/>
</g><g  transform="translate(1184, 32)">
<rect data-color="color-2" x="37.8" y="35.6" transform="matrix(0.7071 0.7071 -0.7071 0.7071 44.2929 -19.5183)" fill="#444444" width="15.8" height="16.1"/>
<polygon data-color="color-2" fill="#444444" points="47.3,56.1 60.2,58.2 58.1,45.3 "/>
<rect data-color="color-2" x="10.3" y="3.7" transform="matrix(0.7071 0.7071 -0.7071 0.7071 12.3788 -6.299)" fill="#444444" width="7.1" height="16.1"/>
<rect data-color="color-2" x="12.7" y="14.4" transform="matrix(0.7071 -0.7071 0.7071 0.7071 -7.1985 20.2071)" fill="#444444" width="16.1" height="8.7"/>
<path fill="#444444" d="M45,3.6l-8,8l4.4,4.4L40,17.4L35.6,13L31,17.6l2.4,2.4L32,21.4L29.6,19L25,23.6l4.4,4.4L28,29.4L23.6,25
	L19,29.6l2.4,2.4L20,33.4L17.6,31L13,35.6l4.4,4.4L16,41.4L11.6,37l-8,8L17,58.4L58.4,17L45,3.6z M49.5,19c-1.4,0-2.5-1.1-2.5-2.5
	s1.1-2.5,2.5-2.5s2.5,1.1,2.5,2.5S50.9,19,49.5,19z"/>
</g><g  transform="translate(32, 160)">
<path data-color="color-2" fill="#444444" d="M55,44h-2v-2c0-9.4-6.3-17.7-15.4-20.2l0.5-1.9C48.1,22.6,55,31.7,55,42V44z"/>
<path data-color="color-2" fill="#444444" d="M11,44H9v-2c0-10.2,6.9-19.3,16.7-22.1l0.5,1.9C17.3,24.4,11,32.7,11,42V44z"/>
<rect x="3" y="43" fill="#444444" width="14" height="14"/>
<rect x="47" y="43" fill="#444444" width="14" height="14"/>
<rect data-color="color-2" x="13" y="15" fill="#444444" width="14" height="2"/>
<rect data-color="color-2" x="37" y="15" fill="#444444" width="14" height="2"/>
<path fill="#444444" d="M8,23c3.9,0,7-3.1,7-7s-3.1-7-7-7s-7,3.1-7,7S4.1,23,8,23z"/>
<path fill="#444444" d="M56,23c3.9,0,7-3.1,7-7s-3.1-7-7-7s-7,3.1-7,7S52.1,23,56,23z"/>
<rect x="25" y="9" fill="#444444" width="14" height="14"/>
</g><g  transform="translate(160, 160)">
<path data-color="color-2" fill="#444444" d="M18.6,36.8c-2.3,0-4.5,0.9-6.1,2.5c-2.2,2.2-2.5,4.9-2.4,7c0,1.7-1.4,2.8-3.8,2.8l-2.4,0
	l1.7,1.7c2.8,2.8,6.6,4.3,10.6,4.3h0c3.4,0,6.6-1.2,8.8-3.5c3.7-3.7,2.9-9.4-0.1-12.4C23.2,37.7,21,36.8,18.6,36.8z"/>
<rect x="31.6" y="11.7" transform="matrix(-0.7071 -0.7071 0.7071 -0.7071 48.046 70.6084)" fill="#444444" width="14.1" height="27.3"/>
<path data-color="color-2" fill="#444444" d="M57,7c-2.8-2.8-7.2-2.8-10,0l-2.3,2.3l10,10L57,17C59.8,14.2,59.8,9.8,57,7z"/>
</g><g  transform="translate(288, 160)">
<polygon fill="#444444" points="5,5 5,19 8.4,19 14.4,13 27,13 27,49.6 21,55.6 21,59 43,59 43,55.6 37,49.6 37,13 49.5,13 53.5,19 
	59,19 59,5 "/>
</g><g  transform="translate(416, 160)">
<rect data-color="color-2" x="38.8" y="0.6" transform="matrix(0.7071 -0.7071 0.7071 0.7071 -1.2548 36.9706)" fill="#444444" width="10.5" height="38.8"/>
<path fill="#444444" d="M28.2,14.4l-17.1,6.8l-6,36.2l16.8-16.8c-1.3-1.9-1.1-4.6,0.6-6.3c0.9-0.9,2.2-1.5,3.5-1.5s2.6,0.5,3.5,1.5
	c1.9,1.9,1.9,5.1,0,7.1C28.6,42.5,27.3,43,26,43c-1,0-1.9-0.3-2.8-0.8L6.5,58.9l36.2-6l6.8-17.1L28.2,14.4z"/>
</g><g  transform="translate(544, 160)">
<path fill="#444444" d="M60.5,33.2l-5.1-6.9c2.2-2.5,3.6-5.7,3.6-9.3c0-7.7-6.3-14-14-14h-6.6C38.3,2.9,38,2.5,38,2.5
	c-1-1-2.4-1.5-4.1-1.5c-4.9,0-12.3,4.2-18.8,10.7c-9,9-13,19-9.2,22.9c0,0,0.7,0.6,1,0.7l29.8,21.8c0.7,0.6,1.6,1,2.7,1
	c1.3,0,2.8-0.4,4.5-1.2c3-1.4,6.4-3.9,9.4-7C59.1,44.1,63.5,36.4,60.5,33.2z M57,17c0,2.9-1,5.6-2.8,7.7L39.8,5H45
	C51.6,5,57,10.4,57,17z M16.5,13.1c6-6,13-10.1,17.4-10.1c1.2,0,2.1,0.3,2.7,0.9C39.7,7.1,34.3,17,27.3,24c-6,6-13,10.1-17.4,10.1
	c-1.2,0-2.1-0.3-2.7-0.9C4.1,30,9.6,20,16.5,13.1z"/>
<path data-color="color-2" fill="#444444" d="M8,46.2l-0.8,1.2C6.5,48.4,3,53.6,3,56c0,2.8,2.2,5,5,5s5-2.2,5-5c0-2.4-3.5-7.6-4.2-8.6
	L8,46.2z"/>
</g><g  transform="translate(672, 160)">
<path fill="#444444" d="M53.4,18l3.3-3.3c2.6-2.6,2.6-6.8,0-9.4C55.4,4,53.8,3.3,52,3.3S48.6,4,47.3,5.3L44,8.6l-6-6L32.6,8L54,29.4
	l5.4-5.4L53.4,18z"/>
<path data-color="color-2" fill="#444444" d="M14.7,51.3L14,50.6l-0.7,0.7C12.6,52,9,55.5,9,58c0,2.8,2.2,5,5,5s5-2.2,5-5
	C19,55.5,15.4,52,14.7,51.3z"/>
<polygon data-color="color-2" fill="#444444" points="19.6,33 15,37.6 15,47 24.4,47 38.4,33 "/>
<polygon fill="#444444" points="40.4,31 46.6,24.8 37.2,15.4 21.6,31 "/>
</g><g  transform="translate(800, 160)">
<path fill="#444444" d="M47,27.1V47H17V9h30l3.6-3.1c0.6-0.6,1.4-1.1,2.2-1.4C52.1,2.5,50.2,1,48,1H16c-2.8,0-5,2.2-5,5v52
	c0,2.8,2.2,5,5,5h32c2.8,0,5-2.2,5-5V21.1L47,27.1z M32,59c-1.7,0-3-1.3-3-3s1.3-3,3-3s3,1.3,3,3S33.7,59,32,59z"/>
<path data-color="color-2" fill="#444444" d="M58,7.3c-1.7-1.7-4.3-1.7-6,0l-15,15l6,6l15-15C59.6,11.7,59.6,9,58,7.3z M29.5,27.5
	c-1.3,1.3-1.5,3-1.5,4.4c0,1.4-1,2.6-3.4,2.7c3.3,3.3,9.1,3.8,12.4,0.5c2.2-2.2,1.9-5.7,0-7.6C35,25.5,31.6,25.5,29.5,27.5z"/>
</g><g  transform="translate(928, 160)">
<polygon fill="#444444" points="42.7,1 21.3,1 18.6,9 45.4,9 "/>
<polygon fill="#444444" points="21.3,63 42.7,63 45.4,55 18.6,55 "/>
<path fill="#444444" d="M53,27V16c0-2.8-2.2-5-5-5H16c-2.8,0-5,2.2-5,5v32c0,2.8,2.2,5,5,5h32c2.8,0,5-2.2,5-5V37h4V27H53z M47,47
	H17V17h30V47z"/>
<polygon data-color="color-2" fill="#444444" points="29.4,38 23.4,32 29.4,26 28,24.6 20.6,32 28,39.4 "/>
<polygon data-color="color-2" fill="#444444" points="36,39.4 43.4,32 36,24.6 34.6,26 40.6,32 34.6,38 "/>
</g><g  transform="translate(1056, 160)">
<path fill="#444444" d="M53,23.8l-5.2,5.2l-3.1-3.1c0.5,1,0.7,2,0.8,3.1c0.1,2-0.7,3.9-2.1,5.4c-1.8,1.8-4.3,2.8-7.1,2.8
	c-3.1,0-6.4-1.6-7.8-3c-1.3-1.4-1.4-3.6-1.4-3.6s3.6,0.8,3.9-0.7c0.2-1.6,0.2-3.9,2.1-5.8c1.4-1.4,3.2-2.2,5.2-2.2
	c1.1,0,2.3,0.3,3.3,0.8l-2.4-2.4L52.8,6.4C52.1,3.3,49.3,1,46,1H8C4.1,1,1,4.1,1,8v5h12v43c0,3.9,3.1,7,7,7h33h3c3.9,0,7-3.1,7-7v-5
	H53V23.8z M13,11H3V8c0-2.8,2.2-5,5-5s5,2.2,5,5V11z M61,53v3c0,2.8-2.2,5-5,5H24.9c1.3-1.3,2.1-3,2.1-5v-3H61z"/>
<path data-color="color-2" fill="#444444" d="M62.8,5.2c-1.7-1.7-4.3-1.7-6,0l-15,15l6,6l15-15C64.4,9.6,64.4,6.9,62.8,5.2z M34.3,25.5
	c-1.3,1.3-1.5,3-1.5,4.4c0,1.4-1,2.6-3.4,2.7c3.3,3.3,9.1,3.8,12.4,0.5c2.2-2.2,1.9-5.7,0-7.6C39.8,23.4,36.4,23.4,34.3,25.5z"/>
</g><g  transform="translate(1184, 160)">
<path fill="#444444" d="M47,1H17C9.3,1,3,7.3,3,15s6.3,14,14,14h30c7.7,0,14-6.3,14-14S54.7,1,47,1z M17,23c-4.4,0-8-3.6-8-8
	s3.6-8,8-8s8,3.6,8,8S21.4,23,17,23z"/>
<path data-color="color-2" fill="#444444" d="M47,35H17C9.3,35,3,41.3,3,49s6.3,14,14,14h30c7.7,0,14-6.3,14-14S54.7,35,47,35z M47,57
	c-4.4,0-8-3.6-8-8s3.6-8,8-8s8,3.6,8,8S51.4,57,47,57z"/>
</g><g  transform="translate(32, 288)">
<rect x="33" y="9" fill="#444444" width="30" height="2"/>
<polygon fill="#444444" points="15,19 27,19 27,1 15,1 15,9 1,9 1,11 15,11 "/>
<rect x="33" y="53" fill="#444444" width="30" height="2"/>
<polygon fill="#444444" points="15,53 1,53 1,55 15,55 15,63 27,63 27,45 15,45 "/>
<rect data-color="color-2" x="55" y="31" fill="#444444" width="8" height="2"/>
<polygon data-color="color-2" fill="#444444" points="37,41 49,41 49,23 37,23 37,31 1,31 1,33 37,33 "/>
</g><g  transform="translate(160, 288)">
<rect x="33" y="9" fill="#444444" width="30" height="2"/>
<rect data-color="color-2" x="55" y="31" fill="#444444" width="8" height="2"/>
<path fill="#444444" d="M18,19c5,0,9-4,9-9s-4-9-9-9c-4.6,0-8.4,3.5-8.9,8H1v2h8.1C9.6,15.5,13.4,19,18,19z"/>
<rect x="33" y="53" fill="#444444" width="30" height="2"/>
<path fill="#444444" d="M18,45c-4.6,0-8.4,3.5-8.9,8H1v2h8.1c0.5,4.5,4.3,8,8.9,8c5,0,9-4,9-9S23,45,18,45z"/>
<path data-color="color-2" fill="#444444" d="M40,41c5,0,9-4,9-9s-4-9-9-9c-4.6,0-8.4,3.5-8.9,8H1v2h30.1C31.6,37.5,35.4,41,40,41z"/>
</g><g  transform="translate(288, 288)">
<path fill="#444444" d="M32,1C14.9,1,1,14.9,1,32s13.9,31,31,31s31-13.9,31-31S49.1,1,32,1z M12.6,32h-2c0-2.9,0.6-5.7,1.7-8.4
	l1.8,0.8C13.2,26.8,12.6,29.4,12.6,32z M32,39c-3.9,0-7-3.1-7-7c0-1.6,0.5-3,1.4-4.2L15.3,16.7l1.4-1.4l11.1,11.1
	C29,25.5,30.4,25,32,25c3.9,0,7,3.1,7,7S35.9,39,32,39z M51.4,32c0-10.7-8.7-19.4-19.4-19.4c-2.6,0-5.2,0.5-7.6,1.6l-0.8-1.8
	c2.7-1.1,5.5-1.7,8.4-1.7c11.8,0,21.4,9.6,21.4,21.4H51.4z"/>
</g><g  transform="translate(416, 288)">
<path fill="#444444" d="M45,25.5V14c0-7.2-5.8-13-13-13S19,6.8,19,14v11.5c-4.9,3.8-8,9.8-8,16.5c0,11.6,9.4,21,21,21s21-9.4,21-21
	C53,35.3,49.9,29.4,45,25.5z M33,44.9V51h-2v-6.1c-3.4-0.5-6-3.4-6-6.9c0-3.9,3.1-7,7-7s7,3.1,7,7C39,41.5,36.4,44.4,33,44.9z
	 M43,24.1c-3.2-2-7-3.1-11-3.1s-7.8,1.2-11,3.1V14c0-6.1,4.9-11,11-11s11,4.9,11,11V24.1z"/>
</g><g  transform="translate(544, 288)">
<path fill="#444444" d="M32,21c-4,0-7.8,1.2-11,3.1V14c0-6.1,4.9-11,11-11s11,4.9,11,11h2c0-7.2-5.8-13-13-13S19,6.8,19,14v11.5
	c-4.9,3.8-8,9.8-8,16.5c0,11.6,9.4,21,21,21s21-9.4,21-21S43.6,21,32,21z M33,44.9V51h-2v-6.1c-3.4-0.5-6-3.4-6-6.9c0-3.9,3.1-7,7-7
	s7,3.1,7,7C39,41.5,36.4,44.4,33,44.9z"/>
</g><g  transform="translate(672, 288)">
<path fill="#444444" d="M26,51c4.7,0,9.1-1.3,12.9-3.6l15.1,15.1l8.5-8.5L47.4,38.9C49.7,35.1,51,30.7,51,26C51,12.2,39.8,1,26,1
	S1,12.2,1,26S12.2,51,26,51z"/>
</g><g  transform="translate(800, 288)">
<path fill="#444444" d="M47.4,38.9C49.7,35.1,51,30.7,51,26C51,12.2,39.8,1,26,1S1,12.2,1,26s11.2,25,25,25c4.7,0,9.1-1.3,12.9-3.6
	l15.1,15.1l8.5-8.5L47.4,38.9z M35,27h-8v8h-2v-8h-8v-2h8v-8h2v8h8V27z"/>
</g><g  transform="translate(928, 288)">
<path fill="#444444" d="M47.4,38.9C49.7,35.1,51,30.7,51,26C51,12.2,39.8,1,26,1S1,12.2,1,26s11.2,25,25,25c4.7,0,9.1-1.3,12.9-3.6
	l15.1,15.1l8.5-8.5L47.4,38.9z M35,27H17v-2h18V27z"/>
</g><g  transform="translate(1056, 288)">
<path fill="#444444" d="M55,11h-2H43V1H21v10H11H9H3v2h6v50h46V13h6v-2H55z M23,49h-2V25h2V49z M23,3h18v8H23V3z M33,49h-2V25h2V49z
	 M43,49h-2V25h2V49z"/>
</g><g  transform="translate(1184, 288)">
<polygon data-color="color-2" fill="#444444" points="3.9,31.4 2.6,29.9 32,4.7 61.4,29.9 60.1,31.4 32,7.3 "/>
<path fill="#444444" d="M32,10L9,29.7V61h17V45h12v16h17V29.7L32,10z M38,37H26V27h12V37z"/>
</g><g  transform="translate(32, 416)">
<polygon fill="#444444" points="2,23.9 15.6,33.9 37.1,22.2 19,37 19,59 31.1,45.4 50.8,60 61.4,2.7 "/>
</g><g  transform="translate(160, 416)">
<polygon data-color="color-2" fill="#444444" points="63,19 63,7 49,7 49,1 47,1 47,7 33,7 33,1 31,1 31,7 17,7 17,1 15,1 15,7 1,7 1,19 
	"/>
<rect x="1" y="21" fill="#444444" width="62" height="42"/>
</g><g  transform="translate(288, 416)">
<polygon data-color="color-2" fill="#444444" points="63,19 63,7 49,7 49,1 47,1 47,7 33,7 33,1 31,1 31,7 17,7 17,1 15,1 15,7 1,7 1,19 
	"/>
<path fill="#444444" d="M1,21v42h62V21H1z M23,54H11V44h12V54z M23,41H11V31h12V41z M38,54H26V44h12V54z M38,41H26V31h12V41z M53,41
	H41V31h12V41z"/>
</g><g  transform="translate(416, 416)">
<polygon data-color="color-2" fill="#444444" points="63,19 63,7 49,7 49,1 47,1 47,7 33,7 33,1 31,1 31,7 17,7 17,1 15,1 15,7 1,7 1,19 
	"/>
<path fill="#444444" d="M1,21v42h62V21H1z M28,50.4L18.6,41l1.4-1.4l8,8l16-16l1.4,1.4L28,50.4z"/>
</g><g  transform="translate(544, 416)">
<path fill="#444444" d="M51,1c-7.5,0-15.1,4.7-19.6,12H19L8,13c-3.7,0-7,5.6-7,12c0,6.4,3.3,12,7,12h10h1h12.4
	c4.4,7.3,12.1,12,19.6,12c6.7,0,12-10.5,12-24S57.7,1,51,1z M51,47c-3.7,0-7-4.7-8.7-11.5c4.9-1.1,8.8-5.3,8.8-10.5
	c0-5.2-3.8-9.7-8.7-10.8C44.1,7.6,47.4,3,51,3c5.4,0,10,10.1,10,22S56.4,47,51,47z"/>
<path data-color="color-2" fill="#444444" d="M27.8,39h-15l11.6,19.8c0.9,1.5,2.3,2.5,3.9,3c0.5,0.1,1.1,0.2,1.6,0.2c1.1,0,2.3-0.3,3.3-0.9
	c3.1-1.8,4.1-5.8,2.3-8.8L27.8,39z"/>
</g><g  transform="translate(672, 416)">
<polygon data-color="color-2" fill="#444444" points="51,61 3,61 3,13 27,13 27,11 1,11 1,63 53,63 53,37 51,37 "/>
<rect data-color="color-2" x="48.5" y="3.2" transform="matrix(-0.7071 0.7071 -0.7071 -0.7071 97.9619 -17.9912)" fill="#444444" width="8.5" height="16.1"/>
<polygon fill="#444444" points="42.6,10 19,33.6 19,45 30.4,45 54,21.4 "/>
</g><g  transform="translate(800, 416)">
<path fill="#444444" d="M61.3,16c0-1.3-0.5-2.6-1.5-3.5l-8.3-8.3c-0.9-0.9-2.2-1.5-3.5-1.5s-2.6,0.5-3.5,1.5L5.3,43.3l-0.2,0.2
	L2.8,61.2L20.5,59L50,29.4l0,0l1.4-1.4l0,0l4.6-4.6l0,0l1.4-1.4l0,0l2.5-2.5C60.8,18.6,61.3,17.3,61.3,16z M10.6,58.2l-4.8-4.8
	l0.9-7.3l11.1,11.1L10.6,58.2z M16,49.4L14.6,48L40,22.6l1.4,1.4L16,49.4z M50,26.6L37.4,14L42,9.4L54.6,22L50,26.6z"/>
</g><g  transform="translate(928, 416)">
<polygon data-color="color-2" fill="#444444" points="59,63 1,63 1,5 25,5 25,7 3,7 3,61 57,61 57,39 59,39 "/>
<path fill="#444444" d="M60,3c-0.7,0-17.2,0.2-27.3,10.3c-6.7,6.7-7.1,14.6-6.5,19.3l11.8-8L18.6,44l1.4,1.4l8.1-8.1
	c1.1,0.3,3.4,0.9,6.3,0.9c4.3,0,10.6-1.2,16.2-6.8C60.8,21.2,61,4.7,61,4l0-1L60,3z"/>
</g><g  transform="translate(1056, 416)">
<path fill="#444444" d="M1,9v46h62V9H1z M10.2,45.4l-1.6-1.2l9.2-11.6l1.6,1.2L10.2,45.4z M53.8,45.4l-9.2-11.6l1.6-1.2l9.2,11.6
	L53.8,45.4z M32,37.3L8.6,18.1l1.3-1.5L32,34.7l22.1-18.1l1.3,1.5L32,37.3z"/>
</g><g  transform="translate(1184, 416)">
<path fill="#444444" d="M32,61c9.4,0,17-7.6,17-17V15h-2v29c0,8.3-6.7,15-15,15s-15-6.7-15-15V15c0-5.5,4.5-10,10-10s10,4.5,10,10
	v27c0,2.8-2.2,5-5,5s-5-2.2-5-5V15h-2v27c0,3.9,3.1,7,7,7s7-3.1,7-7V15c0-6.6-5.4-12-12-12S15,8.4,15,15v29C15,53.4,22.6,61,32,61z"/>
</g><g  transform="translate(32, 544)">
<path fill="#444444" d="M45.6,1C40.3,1,35.3,3.5,32,7.7C28.7,3.5,23.7,1,18.4,1C8.8,1,1,8.9,1,18.6c0,16.8,29.1,41.2,30.4,42.2
	l0.6,0.5l0.6-0.5c1.2-1,30.4-25.4,30.4-42.2C63,8.9,55.2,1,45.6,1z"/>
</g><g  transform="translate(160, 544)">
<path fill="#444444" d="M45.6,1C40.3,1,35.3,3.5,32,7.7C28.7,3.5,23.7,1,18.4,1C8.8,1,1,8.9,1,18.6c0,16.8,29.1,41.2,30.4,42.2
	l0.6,0.5l0.6-0.5c0,0,3.1-2.6,7.3-6.6c2.4,2.9,6,4.8,10.1,4.8c7.2,0,13-5.8,13-13c0-4.7-2.5-8.9-6.3-11.1c4.2-6.3,6.3-11.8,6.3-16.3
	C63,8.9,55.2,1,45.6,1z M61,46c0,6.1-4.9,11-11,11s-11-4.9-11-11s4.9-11,11-11S61,39.9,61,46z"/>
<polygon data-color="color-2" fill="#444444" points="49,41 49,45 45,45 45,47 49,47 49,51 51,51 51,47 55,47 55,45 51,45 51,41 "/>
</g><g  transform="translate(288, 544)">
<path fill="#444444" d="M56.9,35c4.2-6.3,6.4-11.9,6.4-16.5C63.4,8.9,55.6,1,46,1c-5.4,0-10.4,2.5-13.6,6.7C29.1,3.5,24.1,1,18.7,1
	C9.2,1,1.4,8.9,1.4,18.6c0,16.8,29.1,41.2,30.4,42.2l0.6,0.5l0.6-0.5c0,0,3-2.5,7.1-6.4C42.5,57.2,46,59,50,59c7.2,0,13-5.8,13-13
	C63,41.4,60.6,37.3,56.9,35z M50,57c-6.1,0-11-4.9-11-11s4.9-11,11-11s11,4.9,11,11S56.1,57,50,57z"/>
<rect data-color="color-2" x="45" y="45" fill="#444444" width="10" height="2"/>
</g><g  transform="translate(416, 544)">
<path data-color="color-2" fill="#444444" d="M4.3,22.1C8.7,14.2,16.2,8.5,25,6.5l1.9-0.4l-1.4-1.3C22.7,2.4,19.2,1,15.6,1
	C7.6,1,1,7.6,1,15.6c0,2.2,0.5,4.3,1.5,6.4l0.8,1.7L4.3,22.1z"/>
<path data-color="color-2" fill="#444444" d="M48.4,1c-3.6,0-7.1,1.4-9.8,3.8l-1.4,1.3L39,6.5c8.8,2,16.3,7.6,20.7,15.5l0.9,1.7l0.8-1.7
	c1-2.1,1.5-4.2,1.5-6.4C63,7.6,56.4,1,48.4,1z"/>
<path fill="#444444" d="M51.3,51.9C54.9,47.6,57,42,57,36c0-13.8-11.2-25-25-25S7,22.2,7,36c0,6,2.1,11.6,5.7,15.9l-9.4,9.4l1.4,1.4
	l9.3-9.3C18.6,58.1,25,61,32,61s13.4-2.9,18-7.6l9.3,9.3l1.4-1.4L51.3,51.9z M45,37H31V23h2v12h12V37z"/>
</g><g  transform="translate(544, 544)">
<polygon fill="#444444" points="9,43 61,43 61,41 11,41 11,35 50.8,35 57.3,9 11,9 11,1 1,1 1,3 9,3 "/>
<circle data-color="color-2" fill="#444444" cx="14" cy="54" r="6"/>
<circle data-color="color-2" fill="#444444" cx="56" cy="54" r="6"/>
</g><g  transform="translate(672, 544)">
<circle data-color="color-2" fill="#444444" cx="14" cy="54" r="6"/>
<circle data-color="color-2" fill="#444444" cx="56" cy="54" r="6"/>
<polygon fill="#444444" points="11,41 11,35 50.8,35 57.3,9 33,9 33,23.6 40,16.6 41.4,18 32,27.4 22.6,18 24,16.6 31,23.6 31,9 
	11,9 11,1 1,1 1,3 9,3 9,43 61,43 61,41 "/>
</g><g  transform="translate(800, 544)">
<rect data-color="color-2" x="1" y="27" fill="#444444" width="12" height="36"/>
<path fill="#444444" d="M56,25H41v-9c0-5.8-3.5-12.6-10.1-14.5c-0.3-0.1-0.6-0.1-0.9-0.1c-1.7,0-3,1.3-3,3v11.3L15,31.1v26.5
	l5.3,2.6C23.9,62,28,63,32,63h20c3.9,0,7.3-2.9,8-6.9l3-24l0-0.1C63,28.1,59.9,25,56,25z"/>
</g><g  transform="translate(928, 544)">
<rect data-color="color-2" x="1" y="7" fill="#444444" width="8" height="6"/>
<rect data-color="color-2" x="11" y="7" fill="#444444" width="52" height="6"/>
<path fill="#444444" d="M11,15H9H1v42h62V15H11z M41,36h-8v8h-2v-8h-8v-2h8v-8h2v8h8V36z"/>
</g><g  transform="translate(1056, 544)">
<rect data-color="color-2" x="11" y="7" fill="#444444" width="52" height="6"/>
<rect data-color="color-2" x="1" y="7" fill="#444444" width="8" height="6"/>
<path fill="#444444" d="M11,15H9H1v42h62V15H11z M41,36H23v-2h18V36z"/>
</g><g  transform="translate(1184, 544)">
<path fill="#444444" d="M38,1H26c-7.2,0-13,5.8-13,13v36c0,7.2,5.8,13,13,13h12c7.2,0,13-5.8,13-13V14C51,6.8,45.2,1,38,1z M31,9h2
	v9h-2V9z M43,23H21v-2h22V23z"/>
</g></svg>